<?xml version="1.0" encoding="utf-8"?>
<!-- Generator: Adobe Illustrator 24.2.3, SVG Export Plug-In . SVG Version: 6.00 Build 0)  -->
<svg version="1.1"
	 id="Layer_1_Image" inkscape:export-filename="/home/staltz/work/a/ahau/whakapapa-ora/mobile/icon.svg.png" inkscape:export-xdpi="644" inkscape:export-ydpi="644" inkscape:version="0.92.3 (2405546, 2018-03-11)" sodipodi:docname="ios-app-icon.svg" xmlns:cc="http://creativecommons.org/ns#" xmlns:dc="http://purl.org/dc/elements/1.1/" xmlns:inkscape="http://www.inkscape.org/namespaces/inkscape" xmlns:rdf="http://www.w3.org/1999/02/22-rdf-syntax-ns#" xmlns:sodipodi="http://sodipodi.sourceforge.net/DTD/sodipodi-0.dtd" xmlns:svg="http://www.w3.org/2000/svg"
	 xmlns="http://www.w3.org/2000/svg" xmlns:xlink="http://www.w3.org/1999/xlink" x="0px" y="0px" viewBox="0 0 80 80"
	 style="enable-background:new 0 0 80 80;" xml:space="preserve">
<style type="text/css">
	.st0{fill:#B12626;}
	.st1{fill:#FFFFFF;}
</style>
<sodipodi:namedview  bordercolor="#666666" borderopacity="1" gridtolerance="10" guidetolerance="10" id="namedview74" inkscape:current-layer="Layer_1_Image" inkscape:cx="38.634766" inkscape:cy="26.273043" inkscape:pageopacity="0" inkscape:pageshadow="2" inkscape:window-height="1043" inkscape:window-maximized="0" inkscape:window-width="1080" inkscape:window-x="0" inkscape:window-y="150" inkscape:zoom="5.195774" objecttolerance="10" pagecolor="#ffffff" showgrid="false">
	</sodipodi:namedview>
<rect id="rect838" y="0" class="st0" width="80" height="80"/>
<g id="g836" transform="matrix(1.0217122,0,0,1.0217122,-5.7703184,4.0876371)">
	<path id="path69" inkscape:connector-curvature="0" sodipodi:nodetypes="cccccccccccc" class="st1" d="M45-0.2
		c1.9,1.9,3.7,3.9,5.6,5.8L79.7,35c0.1,0.1,0.2,0.3,0.3,0.3L75.6,40L45,9.4L14.5,39.9l-5-4.9l5.3-5.3c3.9-3.9,7.8-7.7,11.7-11.6
		C32.4,12.3,39.2,5.6,45-0.2C45.3-0.5,44.8,0.1,45-0.2z"/>
	<path id="path71" inkscape:connector-curvature="0" class="st1" d="M44.8,17.7l26.5,26.5L44.6,70.6L18.4,44.1L44.8,17.7z
		 M53.1,49.7c0-0.2,0-0.3,0-0.5c0.3-1.6-0.4-3.1-1.8-3.9c-1.4-0.7-3.1-0.5-4.3,0.6c-1.9,1.8-1.9,4.7,0.1,6.8
		c2.9,3.1,7.8,3.2,10.8,0.3c0.8-0.7,1.4-1.7,1.8-2.7c1.6-3.5,0.7-7.5-2.3-10.6c-2.8-2.8-5.5-5.7-8.3-8.5c-1.4-1.5-2.8-3.1-4.3-4.6
		c-0.4,0.4-0.5,0.4-0.6,0.5c-4.4,4.4-8.9,8.7-13.3,13.2c-2,2-3,4.8-2.6,7.5c0.3,3,2.2,5.6,5.1,6.8c2.4,1.1,5.2,0.7,7.3-1
		c1.7-1.1,2.7-3.1,2.5-5.2c-0.2-1.9-1.8-3.4-3.8-3.5c-1.8-0.1-3.5,1.2-3.7,3c-0.1,0.6-0.1,1.2,0,1.8c-1.3-0.4-2-1.7-1.7-3
		c0-0.1,0-0.1,0.1-0.2c0.5-1.3,1.2-2.5,2.1-3.5c2.6-2.7,5.3-5.3,7.9-7.9c0.2-0.1,0.3-0.3,0.5-0.4c0.2,0.1,0.3,0.3,0.5,0.4
		c2.6,2.7,5.2,5.3,7.7,8.1c0.8,1,1.5,2,1.9,3.2c0.5,1.3-0.2,2.8-1.5,3.3C53.3,49.6,53.2,49.7,53.1,49.7L53.1,49.7z"/>
</g>
</svg>
