<?xml version="1.0" encoding="UTF-8" standalone="no"?>
<svg
   xmlns:dc="http://purl.org/dc/elements/1.1/"
   xmlns:cc="http://creativecommons.org/ns#"
   xmlns:rdf="http://www.w3.org/1999/02/22-rdf-syntax-ns#"
   xmlns:svg="http://www.w3.org/2000/svg"
   xmlns="http://www.w3.org/2000/svg"
   xmlns:sodipodi="http://sodipodi.sourceforge.net/DTD/sodipodi-0.dtd"
   xmlns:inkscape="http://www.inkscape.org/namespaces/inkscape"
   id="Layer_1_Image"
   data-name="Layer 1 Image"
   viewBox="0 0 80.02 80.45"
   version="1.1"
   sodipodi:docname="icon.svg"
   inkscape:version="0.92.3 (2405546, 2018-03-11)"
   inkscape:export-filename="/home/staltz/work/a/ahau/whakapapa-ora/mobile/icon.svg.png"
   inkscape:export-xdpi="644"
   inkscape:export-ydpi="644">
  <metadata
     id="metadata76">
    <rdf:RDF>
      <cc:Work
         rdf:about="">
        <dc:format>image/svg+xml</dc:format>
        <dc:type
           rdf:resource="http://purl.org/dc/dcmitype/StillImage" />
        <dc:title>Logo_Red</dc:title>
      </cc:Work>
    </rdf:RDF>
  </metadata>
  <sodipodi:namedview
     pagecolor="#ffffff"
     bordercolor="#666666"
     borderopacity="1"
     objecttolerance="10"
     gridtolerance="10"
     guidetolerance="10"
     inkscape:pageopacity="0"
     inkscape:pageshadow="2"
     inkscape:window-width="1080"
     inkscape:window-height="1043"
     id="namedview74"
     showgrid="false"
     inkscape:zoom="5.195774"
     inkscape:cx="36.902589"
     inkscape:cy="26.273043"
     inkscape:window-x="0"
     inkscape:window-y="150"
     inkscape:window-maximized="0"
     inkscape:current-layer="Layer_1_Image" />
  <defs
     id="defs65">
    <style
       id="style63">.cls-1{fill:#b12526;}</style>
    <filter
       style="color-interpolation-filters:sRGB;"
       inkscape:label="Blur"
       id="filter909">
      <feGaussianBlur
         stdDeviation="0.6 0.6"
         result="blur"
         id="feGaussianBlur907" />
    </filter>
  </defs>
  <title
     id="title67">Logo_Red</title>
  <rect
     style="opacity:1;fill:#000000;fill-opacity:0.26666668;stroke:#000000;stroke-width:10.27301884;stroke-linecap:round;stroke-linejoin:round;stroke-miterlimit:4;stroke-dasharray:none;stroke-dashoffset:9.99999905;stroke-opacity:0.26785713;filter:url(#filter909)"
     id="rect838-0"
     width="65.519951"
     height="65.519951"
     x="7.2500229"
     y="8.0650454"
     transform="matrix(0.97062512,0,0,0.97062512,1.1752891,1.1992303)" />
  <rect
     style="opacity:1;fill:#ffffff;fill-opacity:1;stroke:#ffffff;stroke-width:9.97125053;stroke-linecap:round;stroke-linejoin:round;stroke-miterlimit:4;stroke-dasharray:none;stroke-dashoffset:9.99999905;stroke-opacity:1"
     id="rect838"
     width="63.59531"
     height="63.59531"
     x="8.2123432"
     y="8.4449692" />
  <g
     id="g836"
     transform="translate(-4.7974517,4.8555836)">
    <path
       sodipodi:nodetypes="cccccccccccc"
       style="fill:#b12526;stroke-width:0.88051343"
       inkscape:connector-curvature="0"
       id="path69"
       d="M 45.058396,-0.01051067 C 46.93389,1.935424 48.791773,3.898969 50.684877,5.8184882 L 79.74182,35.183611 c 0.123272,0.123272 0.237739,0.255349 0.30818,0.334595 L 75.568187,40.211343 45.014371,9.6223062 14.539801,40.105681 9.5649,35.183611 l 5.283081,-5.28308 c 3.903609,-3.856649 7.810154,-7.713298 11.719633,-11.569947 5.87009,-5.823128 12.620693,-12.5120958 18.490782,-18.34109467 0.244702,-0.27861619 -0.206824,0.30778171 0,0 z"
       class="cls-1" />
    <path
       style="fill:#b12526;stroke-width:0.88051343"
       inkscape:connector-curvature="0"
       id="path71"
       d="M 44.855878,17.881522 71.341722,44.358561 44.600529,70.826795 18.405255,44.32334 Z m 8.294437,32.015468 a 3.2931202,3.2931202 0 0 1 0,-0.510697 3.7157667,3.7157667 0 0 0 -1.761027,-3.935895 3.8566488,3.8566488 0 0 0 -4.323321,0.572333 c -1.910714,1.761027 -1.866689,4.666722 0.09686,6.806369 a 7.669272,7.669272 0 0 0 12.679394,-2.31575 c 1.576119,-3.478028 0.6868,-7.493169 -2.289335,-10.566161 q -4.147218,-4.23527 -8.303242,-8.540981 c -1.444042,-1.523288 -2.835253,-3.099407 -4.25288,-4.64911 -0.405036,0.352205 -0.501892,0.405036 -0.581138,0.475477 -4.402568,4.402567 -8.901991,8.717083 -13.278143,13.15487 a 8.8667702,8.8667702 0 0 0 -2.571099,7.537195 8.1271389,8.1271389 0 0 0 5.071757,6.762344 6.9912766,6.9912766 0 0 0 7.273041,-1.003786 5.4063525,5.4063525 0 0 0 2.474243,-5.159808 4.0327515,4.0327515 0 0 0 -3.777403,-3.522054 3.6101051,3.6101051 0 0 0 -3.742182,3.046576 9.5975964,9.5975964 0 0 0 0,1.761027 2.4302171,2.4302171 0 0 1 -1.620145,-3.205069 10.900756,10.900756 0 0 1 2.086817,-3.478028 c 2.553489,-2.720786 5.283081,-5.28308 7.924621,-7.924621 a 5.0365368,5.0365368 0 0 1 0.501893,-0.413841 6.163594,6.163594 0 0 1 0.493087,0.422646 c 2.579905,2.694372 5.203835,5.344717 7.695688,8.118334 a 10.319617,10.319617 0 0 1 1.910714,3.231485 2.5446838,2.5446838 0 0 1 -1.708196,3.337145 z"
       class="cls-1" />
  </g>
</svg>
