<?xml version="1.0" encoding="utf-8"?>
<!-- Generator: Adobe Illustrator 24.2.3, SVG Export Plug-In . SVG Version: 6.00 Build 0)  -->
<svg version="1.1"
	 id="Layer_1_Image" xmlns:cc="http://creativecommons.org/ns#" xmlns:dc="http://purl.org/dc/elements/1.1/" xmlns:inkscape="http://www.inkscape.org/namespaces/inkscape" xmlns:rdf="http://www.w3.org/1999/02/22-rdf-syntax-ns#" xmlns:sodipodi="http://sodipodi.sourceforge.net/DTD/sodipodi-0.dtd" xmlns:svg="http://www.w3.org/2000/svg"
	 xmlns="http://www.w3.org/2000/svg" xmlns:xlink="http://www.w3.org/1999/xlink" x="0px" y="0px" viewBox="0 0 80 80.4"
	 style="enable-background:new 0 0 80 80.4;" xml:space="preserve">
<style type="text/css">
	
		.st0{display:none;fill-opacity:0.2667;stroke:#000000;stroke-width:9.9712;stroke-linecap:round;stroke-linejoin:round;stroke-miterlimit:3.8825;stroke-opacity:0.2679;}
	.st1{stroke:#000000;stroke-width:9.9713;stroke-linecap:round;stroke-linejoin:round;}
	.st2{fill:url(#path69_1_);}
	.st3{fill:url(#path71_1_);}
</style>
<sodipodi:namedview  bordercolor="#666666" borderopacity="1" gridtolerance="10" guidetolerance="10" id="namedview74" inkscape:current-layer="Layer_1_Image" inkscape:cx="36.902589" inkscape:cy="26.273043" inkscape:pageopacity="0" inkscape:pageshadow="2" inkscape:window-height="1043" inkscape:window-maximized="0" inkscape:window-width="1080" inkscape:window-x="0" inkscape:window-y="150" inkscape:zoom="5.195774" objecttolerance="10" pagecolor="#ffffff" showgrid="false">
	</sodipodi:namedview>
<rect id="rect838-0" x="8.2" y="9" class="st0" width="63.6" height="63.6"/>
<rect id="rect838" x="8.2" y="8.4" class="st1" width="63.6" height="63.6"/>
<g id="g836" transform="translate(-4.7974517,4.8555836)">
	<linearGradient id="path69_1_" gradientUnits="userSpaceOnUse" x1="43.8" y1="38.5" x2="43.8" y2="5.3513">
		<stop  offset="0" style="stop-color:#000000"/>
		<stop  offset="6.385848e-03" style="stop-color:#0C0000"/>
		<stop  offset="2.877537e-02" style="stop-color:#330000"/>
		<stop  offset="4.939750e-02" style="stop-color:#4F0000"/>
		<stop  offset="6.743488e-02" style="stop-color:#600000"/>
		<stop  offset="8.090451e-02" style="stop-color:#660000"/>
		<stop  offset="0.1333" style="stop-color:#740000"/>
		<stop  offset="0.3432" style="stop-color:#A50000"/>
		<stop  offset="0.5415" style="stop-color:#CC0000"/>
		<stop  offset="0.723" style="stop-color:#E80000"/>
		<stop  offset="0.8816" style="stop-color:#F90000"/>
		<stop  offset="1" style="stop-color:#FF0000"/>
		<stop  offset="1" style="stop-color:#000000"/>
	</linearGradient>
	<path id="path69" inkscape:connector-curvature="0" sodipodi:nodetypes="cccccccccccc" class="st2" d="M44.1,5.4
		c1.6,1.6,3.1,3.2,4.6,4.8l24,24.2c0.1,0.1,0.2,0.2,0.2,0.2l-3.7,3.9L44,13.3L18.8,38.5l-4.1-4l4.4-4.4c3.2-3.2,6.4-6.3,9.6-9.6
		C33.6,15.7,39.2,10.2,44.1,5.4C44.2,5.2,43.9,5.7,44.1,5.4z"/>
	<linearGradient id="path71_1_" gradientUnits="userSpaceOnUse" x1="43.95" y1="63.8" x2="43.95" y2="20.2">
		<stop  offset="0" style="stop-color:#000000"/>
		<stop  offset="6.385848e-03" style="stop-color:#0C0000"/>
		<stop  offset="2.877537e-02" style="stop-color:#330000"/>
		<stop  offset="4.939750e-02" style="stop-color:#4F0000"/>
		<stop  offset="6.743488e-02" style="stop-color:#600000"/>
		<stop  offset="8.090451e-02" style="stop-color:#660000"/>
		<stop  offset="0.1333" style="stop-color:#740000"/>
		<stop  offset="0.3432" style="stop-color:#A50000"/>
		<stop  offset="0.5415" style="stop-color:#CC0000"/>
		<stop  offset="0.723" style="stop-color:#E80000"/>
		<stop  offset="0.8816" style="stop-color:#F90000"/>
		<stop  offset="1" style="stop-color:#FF0000"/>
		<stop  offset="1" style="stop-color:#000000"/>
	</linearGradient>
	<path id="path71" inkscape:connector-curvature="0" class="st3" d="M43.9,20.2L65.8,42L43.7,63.8L22.1,42L43.9,20.2z M50.7,46.6
		c0-0.2,0-0.2,0-0.4c0.2-1.3-0.3-2.6-1.5-3.2s-2.6-0.4-3.5,0.4c-1.6,1.5-1.6,3.9,0.1,5.6c2.4,2.6,6.4,2.6,8.9,0.2
		c0.7-0.6,1.2-1.4,1.5-2.2c1.3-2.9,0.6-6.2-1.9-8.7c-2.3-2.3-4.5-4.7-6.8-7c-1.2-1.2-2.3-2.6-3.5-3.8c-0.3,0.3-0.4,0.3-0.5,0.4
		c-3.6,3.6-7.3,7.2-11,10.9c-1.6,1.6-2.5,4-2.1,6.2c0.2,2.5,1.8,4.6,4.2,5.6c2,0.9,4.3,0.6,6-0.8c1.4-0.9,2.2-2.6,2.1-4.3
		c-0.2-1.6-1.5-2.8-3.1-2.9c-1.5-0.1-2.9,1-3.1,2.5c-0.1,0.5-0.1,1,0,1.5c-1.1-0.3-1.6-1.4-1.4-2.5c0-0.1,0-0.1,0.1-0.2
		c0.4-1.1,1-2.1,1.7-2.9c2.1-2.2,4.4-4.4,6.5-6.5c0.2-0.1,0.2-0.2,0.4-0.3c0.2,0.1,0.2,0.2,0.4,0.3c2.1,2.2,4.3,4.4,6.3,6.7
		c0.7,0.8,1.2,1.6,1.6,2.6C52.5,44.8,51.9,46.1,50.7,46.6C50.8,46.6,50.7,46.6,50.7,46.6L50.7,46.6z"/>
</g>
</svg>
