<?xml version="1.0" encoding="UTF-8" standalone="no"?>
<svg
   xmlns:dc="http://purl.org/dc/elements/1.1/"
   xmlns:cc="http://creativecommons.org/ns#"
   xmlns:rdf="http://www.w3.org/1999/02/22-rdf-syntax-ns#"
   xmlns:svg="http://www.w3.org/2000/svg"
   xmlns="http://www.w3.org/2000/svg"
   xmlns:sodipodi="http://sodipodi.sourceforge.net/DTD/sodipodi-0.dtd"
   xmlns:inkscape="http://www.inkscape.org/namespaces/inkscape"
   viewBox="0 0 740.75 641.51"
   version="1.1"
   id="svg156"
   sodipodi:docname="splash-screen.svg"
   inkscape:version="0.92.3 (2405546, 2018-03-11)">
  <metadata
     id="metadata160">
    <rdf:RDF>
      <cc:Work
         rdf:about="">
        <dc:format>image/svg+xml</dc:format>
        <dc:type
           rdf:resource="http://purl.org/dc/dcmitype/StillImage" />
        <dc:title>niho</dc:title>
      </cc:Work>
    </rdf:RDF>
  </metadata>
  <sodipodi:namedview
     pagecolor="#ffffff"
     bordercolor="#666666"
     borderopacity="1"
     objecttolerance="10"
     gridtolerance="10"
     guidetolerance="10"
     inkscape:pageopacity="0"
     inkscape:pageshadow="2"
     inkscape:window-width="1030"
     inkscape:window-height="1088"
     id="namedview158"
     showgrid="false"
     inkscape:zoom="0.51534363"
     inkscape:cx="283.07011"
     inkscape:cy="296.6732"
     inkscape:window-x="0"
     inkscape:window-y="31"
     inkscape:window-maximized="0"
     inkscape:current-layer="svg156" />
  <defs
     id="defs4">
    <style
       id="style2">.cls-1,.cls-3{fill:#555;}.cls-1,.cls-2{opacity:0.27;}</style>
  </defs>
  <title
     id="title6">niho</title>
  <rect
     style="opacity:1;fill:#303030;fill-opacity:1;stroke:none;stroke-width:18.88519478;stroke-linecap:round;stroke-linejoin:round;stroke-miterlimit:4;stroke-dasharray:none;stroke-dashoffset:9.99999905;stroke-opacity:0.26785715"
     id="rect967"
     width="756.27362"
     height="661.20697"
     x="-7.7618113"
     y="-12.910774" />
  <g
     id="g1121"
     transform="matrix(0.36478763,0,0,0.36478763,235.26678,203.74755)">
    <g
       data-name="Layer 2"
       id="Layer_2">
      <polygon
         id="polygon8"
         points="185.19,481.13 138.89,561.32 231.49,561.32 "
         class="cls-1"
         style="opacity:0.27000002;fill:#555555" />
      <polygon
         id="polygon10"
         points="555.57,481.13 509.27,561.32 601.86,561.32 "
         class="cls-1"
         style="opacity:0.27000002;fill:#555555" />
      <g
         id="g22"
         class="cls-2"
         style="opacity:0.27000002">
        <polygon
           id="polygon12"
           points="462.97,160.38 370.38,0 277.78,160.38 "
           class="cls-3"
           style="fill:#555555" />
        <polygon
           id="polygon14"
           points="370.38,320.76 555.57,320.76 462.97,160.38 "
           class="cls-3"
           style="fill:#555555" />
        <polygon
           id="polygon16"
           points="185.19,320.76 370.38,320.76 277.78,160.38 "
           class="cls-3"
           style="fill:#555555" />
        <polygon
           id="polygon18"
           points="462.97,481.13 648.16,481.13 555.57,641.51 740.75,641.51 555.57,320.76 370.38,641.51 555.57,641.51 "
           class="cls-3"
           style="fill:#555555" />
        <polygon
           id="polygon20"
           points="277.78,481.13 185.19,641.51 370.38,641.51 185.19,320.76 0,641.51 185.19,641.51 92.59,481.13 "
           class="cls-3"
           style="fill:#555555" />
      </g>
      <polygon
         id="polygon24"
         points="370.38,160.38 324.08,240.57 416.67,240.57 "
         class="cls-1"
         style="opacity:0.27000002;fill:#555555" />
      <polygon
         id="polygon26"
         points="370.38,481.13 324.08,400.94 416.67,400.94 "
         class="cls-1"
         style="opacity:0.27000002;fill:#555555" />
      <polygon
         id="polygon28"
         points="373.96,614.78 296.8,481.13 451.13,481.13 "
         class="cls-1"
         style="opacity:0.27000002;fill:#555555" />
      <polygon
         id="polygon30"
         points="451.13,467.77 373.96,334.12 528.29,334.12 "
         class="cls-1"
         style="opacity:0.27000002;fill:#555555" />
      <polygon
         id="polygon32"
         points="289.63,467.77 212.47,334.12 366.79,334.12 "
         class="cls-1"
         style="opacity:0.27000002;fill:#555555" />
    </g>
    <g
       data-name="Layer 1"
       id="Layer_1">
      <polygon
         id="polygon35"
         points="232.79,311.95 227.7,320.76 237.87,320.76 "
         class="cls-3"
         style="fill:#555555" />
      <polygon
         id="polygon37"
         points="273.46,311.95 268.37,320.76 278.54,320.76 "
         class="cls-3"
         style="fill:#555555" />
      <polygon
         id="polygon39"
         points="263.29,276.73 253.12,259.12 242.96,276.73 "
         class="cls-3"
         style="fill:#555555" />
      <polygon
         id="polygon41"
         points="253.12,294.34 273.46,294.34 263.29,276.73 "
         class="cls-3"
         style="fill:#555555" />
      <polygon
         id="polygon43"
         points="232.79,294.34 253.12,294.34 242.96,276.73 "
         class="cls-3"
         style="fill:#555555" />
      <polygon
         id="polygon45"
         points="263.29,311.95 283.62,311.95 273.46,329.56 293.79,329.56 273.46,294.34 253.12,329.56 273.46,329.56 "
         class="cls-3"
         style="fill:#555555" />
      <polygon
         id="polygon47"
         points="242.96,311.95 232.79,329.56 253.12,329.56 232.79,294.34 212.45,329.56 232.79,329.56 222.62,311.95 "
         class="cls-3"
         style="fill:#555555" />
      <polygon
         id="polygon49"
         points="253.12,276.73 248.04,285.54 258.21,285.54 "
         class="cls-3"
         style="fill:#555555" />
      <polygon
         id="polygon51"
         points="253.12,311.95 248.04,303.15 258.21,303.15 "
         class="cls-3"
         style="fill:#555555" />
      <polygon
         id="polygon53"
         points="253.52,326.63 245.04,311.95 261.99,311.95 "
         class="cls-3"
         style="fill:#555555" />
      <polygon
         id="polygon55"
         points="261.99,310.48 253.52,295.81 270.46,295.81 "
         class="cls-3"
         style="fill:#555555" />
      <polygon
         id="polygon57"
         points="244.26,310.48 235.78,295.81 252.73,295.81 "
         class="cls-3"
         style="fill:#555555" />
      <polygon
         id="polygon59"
         points="237.87,479.25 232.79,488.05 242.96,488.05 "
         class="cls-3"
         style="fill:#555555" />
      <polygon
         id="polygon61"
         points="278.54,479.25 273.46,488.05 283.62,488.05 "
         class="cls-3"
         style="fill:#555555" />
      <polygon
         id="polygon63"
         points="268.37,444.03 258.21,426.42 248.04,444.03 "
         class="cls-3"
         style="fill:#555555" />
      <polygon
         id="polygon65"
         points="258.21,461.64 278.54,461.64 268.37,444.03 "
         class="cls-3"
         style="fill:#555555" />
      <polygon
         id="polygon67"
         points="237.87,461.64 258.21,461.64 248.04,444.03 "
         class="cls-3"
         style="fill:#555555" />
      <polygon
         id="polygon69"
         points="268.37,479.25 288.71,479.25 278.54,496.86 298.88,496.86 278.54,461.64 258.21,496.86 278.54,496.86 "
         class="cls-3"
         style="fill:#555555" />
      <polygon
         id="polygon71"
         points="248.04,479.25 237.87,496.86 258.21,496.86 237.87,461.64 217.54,496.86 237.87,496.86 227.7,479.25 "
         class="cls-3"
         style="fill:#555555" />
      <polygon
         id="polygon73"
         points="258.21,444.03 253.12,452.83 263.29,452.83 "
         class="cls-3"
         style="fill:#555555" />
      <polygon
         id="polygon75"
         points="258.21,479.25 253.12,470.44 263.29,470.44 "
         class="cls-3"
         style="fill:#555555" />
      <polygon
         id="polygon77"
         points="258.6,493.92 250.13,479.25 267.07,479.25 "
         class="cls-3"
         style="fill:#555555" />
      <polygon
         id="polygon79"
         points="267.07,477.78 258.6,463.11 275.55,463.11 "
         class="cls-3"
         style="fill:#555555" />
      <polygon
         id="polygon81"
         points="249.34,477.78 240.87,463.11 257.81,463.11 "
         class="cls-3"
         style="fill:#555555" />
      <polygon
         id="polygon83"
         points="288.71,395.6 283.62,404.4 293.79,404.4 "
         class="cls-3"
         style="fill:#555555" />
      <polygon
         id="polygon85"
         points="329.38,395.6 324.29,404.4 334.46,404.4 "
         class="cls-3"
         style="fill:#555555" />
      <polygon
         id="polygon87"
         points="319.21,360.38 309.04,342.77 298.88,360.38 "
         class="cls-3"
         style="fill:#555555" />
      <polygon
         id="polygon89"
         points="309.04,377.99 329.38,377.99 319.21,360.38 "
         class="cls-3"
         style="fill:#555555" />
      <polygon
         id="polygon91"
         points="288.71,377.99 309.04,377.99 298.88,360.38 "
         class="cls-3"
         style="fill:#555555" />
      <polygon
         id="polygon93"
         points="319.21,395.6 339.54,395.6 329.38,413.21 349.71,413.21 329.38,377.99 309.04,413.21 329.38,413.21 "
         class="cls-3"
         style="fill:#555555" />
      <polygon
         id="polygon95"
         points="298.88,395.6 288.71,413.21 309.04,413.21 288.71,377.99 268.37,413.21 288.71,413.21 278.54,395.6 "
         class="cls-3"
         style="fill:#555555" />
      <polygon
         id="polygon97"
         points="309.04,360.38 303.96,369.18 314.13,369.18 "
         class="cls-3"
         style="fill:#555555" />
      <polygon
         id="polygon99"
         points="309.04,395.6 303.96,386.79 314.13,386.79 "
         class="cls-3"
         style="fill:#555555" />
      <polygon
         id="polygon101"
         points="309.44,410.27 300.96,395.6 317.91,395.6 "
         class="cls-3"
         style="fill:#555555" />
      <polygon
         id="polygon103"
         points="317.91,394.13 309.44,379.46 326.38,379.46 "
         class="cls-3"
         style="fill:#555555" />
      <polygon
         id="polygon105"
         points="300.18,394.13 291.7,379.46 308.65,379.46 "
         class="cls-3"
         style="fill:#555555" />
      <polygon
         id="polygon107"
         points="233.18,357.44 228.1,348.64 238.26,348.64 "
         class="cls-3"
         style="fill:#555555" />
      <polygon
         id="polygon109"
         points="273.85,357.44 268.77,348.64 278.93,348.64 "
         class="cls-3"
         style="fill:#555555" />
      <polygon
         id="polygon111"
         points="263.68,392.66 253.52,410.27 243.35,392.66 "
         class="cls-3"
         style="fill:#555555" />
      <polygon
         id="polygon113"
         points="253.52,375.05 273.85,375.05 263.68,392.66 "
         class="cls-3"
         style="fill:#555555" />
      <polygon
         id="polygon115"
         points="233.18,375.05 253.52,375.05 243.35,392.66 "
         class="cls-3"
         style="fill:#555555" />
      <polygon
         id="polygon117"
         points="263.68,357.44 284.02,357.44 273.85,339.83 294.19,339.83 273.85,375.05 253.52,339.83 273.85,339.83 "
         class="cls-3"
         style="fill:#555555" />
      <polygon
         id="polygon119"
         points="243.35,357.44 233.18,339.83 253.52,339.83 233.18,375.05 212.85,339.83 233.18,339.83 223.01,357.44 "
         class="cls-3"
         style="fill:#555555" />
      <polygon
         id="polygon121"
         points="253.52,392.66 248.43,383.86 258.6,383.86 "
         class="cls-3"
         style="fill:#555555" />
      <polygon
         id="polygon123"
         points="253.52,357.44 248.43,366.25 258.6,366.25 "
         class="cls-3"
         style="fill:#555555" />
      <polygon
         id="polygon125"
         points="253.91,342.77 245.44,357.44 262.38,357.44 "
         class="cls-3"
         style="fill:#555555" />
      <polygon
         id="polygon127"
         points="262.38,358.91 253.91,373.59 270.86,373.59 "
         class="cls-3"
         style="fill:#555555" />
      <polygon
         id="polygon129"
         points="244.65,358.91 236.18,373.59 253.12,373.59 "
         class="cls-3"
         style="fill:#555555" />
      <polygon
         id="polygon131"
         points="143.37,514.47 138.29,505.66 148.45,505.66 "
         class="cls-3"
         style="fill:#555555" />
      <polygon
         id="polygon133"
         points="184.04,514.47 178.96,505.66 189.12,505.66 "
         class="cls-3"
         style="fill:#555555" />
      <polygon
         id="polygon135"
         points="173.87,549.69 163.71,567.3 153.54,549.69 "
         class="cls-3"
         style="fill:#555555" />
      <polygon
         id="polygon137"
         points="163.71,532.08 184.04,532.08 173.87,549.69 "
         class="cls-3"
         style="fill:#555555" />
      <polygon
         id="polygon139"
         points="143.37,532.08 163.71,532.08 153.54,549.69 "
         class="cls-3"
         style="fill:#555555" />
      <polygon
         id="polygon141"
         points="173.87,514.47 194.21,514.47 184.04,496.86 204.37,496.86 184.04,532.08 163.71,496.86 184.04,496.86 "
         class="cls-3"
         style="fill:#555555" />
      <polygon
         id="polygon143"
         points="153.54,514.47 143.37,496.86 163.71,496.86 143.37,532.08 123.04,496.86 143.37,496.86 133.2,514.47 "
         class="cls-3"
         style="fill:#555555" />
      <polygon
         id="polygon145"
         points="163.71,549.69 158.62,540.88 168.79,540.88 "
         class="cls-3"
         style="fill:#555555" />
      <polygon
         id="polygon147"
         points="163.71,514.47 158.62,523.27 168.79,523.27 "
         class="cls-3"
         style="fill:#555555" />
      <polygon
         id="polygon149"
         points="164.1,499.79 155.63,514.47 172.57,514.47 "
         class="cls-3"
         style="fill:#555555" />
      <polygon
         id="polygon151"
         points="172.57,515.94 164.1,530.61 181.04,530.61 "
         class="cls-3"
         style="fill:#555555" />
      <polygon
         id="polygon153"
         points="154.84,515.94 146.37,530.61 163.31,530.61 "
         class="cls-3"
         style="fill:#555555" />
    </g>
  </g>
</svg>
