<svg xmlns="http://www.w3.org/2000/svg" viewBox="0 0 740.75 641.51"><defs><style>.cls-1,.cls-3{fill:#555;}.cls-1,.cls-2{opacity:0.27;}</style></defs><title>niho</title><g id="Layer_2" data-name="Layer 2"><polygon class="cls-1" points="185.19 481.13 138.89 561.32 231.49 561.32 185.19 481.13"/><polygon class="cls-1" points="555.57 481.13 509.27 561.32 601.86 561.32 555.57 481.13"/><g class="cls-2"><polygon class="cls-3" points="462.97 160.38 370.38 0 277.78 160.38 462.97 160.38"/><polygon class="cls-3" points="370.38 320.76 555.57 320.76 462.97 160.38 370.38 320.76"/><polygon class="cls-3" points="185.19 320.76 370.38 320.76 277.78 160.38 185.19 320.76"/><polygon class="cls-3" points="555.57 320.76 370.38 641.51 555.57 641.51 462.97 481.13 648.16 481.13 555.57 641.51 740.75 641.51 555.57 320.76"/><polygon class="cls-3" points="0 641.51 185.19 641.51 92.59 481.13 277.78 481.13 185.19 641.51 370.38 641.51 185.19 320.76 0 641.51"/></g><polygon class="cls-1" points="370.38 160.38 324.08 240.57 416.67 240.57 370.38 160.38"/><polygon class="cls-1" points="370.38 481.13 324.08 400.94 416.67 400.94 370.38 481.13"/><polygon class="cls-1" points="373.96 614.78 296.8 481.13 451.13 481.13 373.96 614.78"/><polygon class="cls-1" points="451.13 467.77 373.96 334.12 528.29 334.12 451.13 467.77"/><polygon class="cls-1" points="289.63 467.77 212.47 334.12 366.79 334.12 289.63 467.77"/></g><g id="Layer_1" data-name="Layer 1"><polygon class="cls-3" points="232.79 311.95 227.7 320.76 237.87 320.76 232.79 311.95"/><polygon class="cls-3" points="273.46 311.95 268.37 320.76 278.54 320.76 273.46 311.95"/><polygon class="cls-3" points="263.29 276.73 253.12 259.12 242.96 276.73 263.29 276.73"/><polygon class="cls-3" points="253.12 294.34 273.46 294.34 263.29 276.73 253.12 294.34"/><polygon class="cls-3" points="232.79 294.34 253.12 294.34 242.96 276.73 232.79 294.34"/><polygon class="cls-3" points="273.46 294.34 253.12 329.56 273.46 329.56 263.29 311.95 283.62 311.95 273.46 329.56 293.79 329.56 273.46 294.34"/><polygon class="cls-3" points="212.45 329.56 232.79 329.56 222.62 311.95 242.96 311.95 232.79 329.56 253.12 329.56 232.79 294.34 212.45 329.56"/><polygon class="cls-3" points="253.12 276.73 248.04 285.54 258.21 285.54 253.12 276.73"/><polygon class="cls-3" points="253.12 311.95 248.04 303.15 258.21 303.15 253.12 311.95"/><polygon class="cls-3" points="253.52 326.63 245.04 311.95 261.99 311.95 253.52 326.63"/><polygon class="cls-3" points="261.99 310.48 253.52 295.81 270.46 295.81 261.99 310.48"/><polygon class="cls-3" points="244.26 310.48 235.78 295.81 252.73 295.81 244.26 310.48"/><polygon class="cls-3" points="237.87 479.25 232.79 488.05 242.96 488.05 237.87 479.25"/><polygon class="cls-3" points="278.54 479.25 273.46 488.05 283.62 488.05 278.54 479.25"/><polygon class="cls-3" points="268.37 444.03 258.21 426.42 248.04 444.03 268.37 444.03"/><polygon class="cls-3" points="258.21 461.64 278.54 461.64 268.37 444.03 258.21 461.64"/><polygon class="cls-3" points="237.87 461.64 258.21 461.64 248.04 444.03 237.87 461.64"/><polygon class="cls-3" points="278.54 461.64 258.21 496.86 278.54 496.86 268.37 479.25 288.71 479.25 278.54 496.86 298.88 496.86 278.54 461.64"/><polygon class="cls-3" points="217.54 496.86 237.87 496.86 227.7 479.25 248.04 479.25 237.87 496.86 258.21 496.86 237.87 461.64 217.54 496.86"/><polygon class="cls-3" points="258.21 444.03 253.12 452.83 263.29 452.83 258.21 444.03"/><polygon class="cls-3" points="258.21 479.25 253.12 470.44 263.29 470.44 258.21 479.25"/><polygon class="cls-3" points="258.6 493.92 250.13 479.25 267.07 479.25 258.6 493.92"/><polygon class="cls-3" points="267.07 477.78 258.6 463.11 275.55 463.11 267.07 477.78"/><polygon class="cls-3" points="249.34 477.78 240.87 463.11 257.81 463.11 249.34 477.78"/><polygon class="cls-3" points="288.71 395.6 283.62 404.4 293.79 404.4 288.71 395.6"/><polygon class="cls-3" points="329.38 395.6 324.29 404.4 334.46 404.4 329.38 395.6"/><polygon class="cls-3" points="319.21 360.38 309.04 342.77 298.88 360.38 319.21 360.38"/><polygon class="cls-3" points="309.04 377.99 329.38 377.99 319.21 360.38 309.04 377.99"/><polygon class="cls-3" points="288.71 377.99 309.04 377.99 298.88 360.38 288.71 377.99"/><polygon class="cls-3" points="329.38 377.99 309.04 413.21 329.38 413.21 319.21 395.6 339.54 395.6 329.38 413.21 349.71 413.21 329.38 377.99"/><polygon class="cls-3" points="268.37 413.21 288.71 413.21 278.54 395.6 298.88 395.6 288.71 413.21 309.04 413.21 288.71 377.99 268.37 413.21"/><polygon class="cls-3" points="309.04 360.38 303.96 369.18 314.13 369.18 309.04 360.38"/><polygon class="cls-3" points="309.04 395.6 303.96 386.79 314.13 386.79 309.04 395.6"/><polygon class="cls-3" points="309.44 410.27 300.96 395.6 317.91 395.6 309.44 410.27"/><polygon class="cls-3" points="317.91 394.13 309.44 379.46 326.38 379.46 317.91 394.13"/><polygon class="cls-3" points="300.18 394.13 291.7 379.46 308.65 379.46 300.18 394.13"/><polygon class="cls-3" points="233.18 357.44 228.1 348.64 238.26 348.64 233.18 357.44"/><polygon class="cls-3" points="273.85 357.44 268.77 348.64 278.93 348.64 273.85 357.44"/><polygon class="cls-3" points="263.68 392.66 253.52 410.27 243.35 392.66 263.68 392.66"/><polygon class="cls-3" points="253.52 375.05 273.85 375.05 263.68 392.66 253.52 375.05"/><polygon class="cls-3" points="233.18 375.05 253.52 375.05 243.35 392.66 233.18 375.05"/><polygon class="cls-3" points="273.85 375.05 253.52 339.83 273.85 339.83 263.68 357.44 284.02 357.44 273.85 339.83 294.19 339.83 273.85 375.05"/><polygon class="cls-3" points="212.85 339.83 233.18 339.83 223.01 357.44 243.35 357.44 233.18 339.83 253.52 339.83 233.18 375.05 212.85 339.83"/><polygon class="cls-3" points="253.52 392.66 248.43 383.86 258.6 383.86 253.52 392.66"/><polygon class="cls-3" points="253.52 357.44 248.43 366.25 258.6 366.25 253.52 357.44"/><polygon class="cls-3" points="253.91 342.77 245.44 357.44 262.38 357.44 253.91 342.77"/><polygon class="cls-3" points="262.38 358.91 253.91 373.59 270.86 373.59 262.38 358.91"/><polygon class="cls-3" points="244.65 358.91 236.18 373.59 253.12 373.59 244.65 358.91"/><polygon class="cls-3" points="143.37 514.47 138.29 505.66 148.45 505.66 143.37 514.47"/><polygon class="cls-3" points="184.04 514.47 178.96 505.66 189.12 505.66 184.04 514.47"/><polygon class="cls-3" points="173.87 549.69 163.71 567.3 153.54 549.69 173.87 549.69"/><polygon class="cls-3" points="163.71 532.08 184.04 532.08 173.87 549.69 163.71 532.08"/><polygon class="cls-3" points="143.37 532.08 163.71 532.08 153.54 549.69 143.37 532.08"/><polygon class="cls-3" points="184.04 532.08 163.71 496.86 184.04 496.86 173.87 514.47 194.21 514.47 184.04 496.86 204.37 496.86 184.04 532.08"/><polygon class="cls-3" points="123.04 496.86 143.37 496.86 133.2 514.47 153.54 514.47 143.37 496.86 163.71 496.86 143.37 532.08 123.04 496.86"/><polygon class="cls-3" points="163.71 549.69 158.62 540.88 168.79 540.88 163.71 549.69"/><polygon class="cls-3" points="163.71 514.47 158.62 523.27 168.79 523.27 163.71 514.47"/><polygon class="cls-3" points="164.1 499.79 155.63 514.47 172.57 514.47 164.1 499.79"/><polygon class="cls-3" points="172.57 515.94 164.1 530.61 181.04 530.61 172.57 515.94"/><polygon class="cls-3" points="154.84 515.94 146.37 530.61 163.31 530.61 154.84 515.94"/></g></svg>