<?xml version="1.0" encoding="utf-8"?>
<!-- Generator: Adobe Illustrator 24.0.2, SVG Export Plug-In . SVG Version: 6.00 Build 0)  -->
<svg version="1.1" xmlns="http://www.w3.org/2000/svg" xmlns:xlink="http://www.w3.org/1999/xlink" x="0px" y="0px"
	 viewBox="0 0 566.9 566.9" style="enable-background:new 0 0 566.9 566.9;" xml:space="preserve">
<style type="text/css">
	.st0{clip-path:url(#SVGID_2_);}
	<!-- .st1 = background colour -->
	.st1{fill:#3a3a3a;}
	.st2{fill:#FFFFFF;}
	.st3{fill:#B11116;}
	.st4{fill:#023000;}
	.st5{fill:none;}
	.st6{clip-path:url(#SVGID_4_);}
	.st7{fill:#646A6F;}
	.st8{clip-path:url(#SVGID_6_);}
	.st9{fill:#990000;}
	.st10{fill:none;stroke:#000000;stroke-width:3;stroke-linecap:round;stroke-miterlimit:10;}
	.st11{stroke:#000000;stroke-width:1.25;stroke-miterlimit:10;}
	.st12{fill:none;stroke:#000000;stroke-width:4.783;stroke-miterlimit:10;}
	.st13{fill:none;stroke:#000000;stroke-width:16;stroke-linecap:round;stroke-linejoin:round;stroke-miterlimit:10;}
	.st14{clip-path:url(#SVGID_8_);fill:#B11116;}
	.st15{clip-path:url(#SVGID_10_);fill:#FFFFFF;}
	.st16{clip-path:url(#SVGID_12_);fill:#B11116;}
	.st17{clip-path:url(#SVGID_14_);fill:#FFFFFF;}
	.st18{fill:#FFFFFF;stroke:#000000;stroke-width:4.783;stroke-miterlimit:10;}
</style>
<g id="Layer_2">
</g>
<g id="Layer_1">
	<g id="Layer_3">
	</g>
	<g id="Layer_1_1_">
	</g>
	<g id="Layer_2_1_">
		<g>
			<g>
				<defs>
					<path id="SVGID_1_" d="M524.5,302.1c0,133.7-108.4,242.1-242.1,242.1S40.4,435.8,40.4,302.1c0-115.6,81.1-212.4,189.6-236.4
						c10.4-2.3-15.5-43.3-4.2-68.5c7.1-15.8,51.6-20.5,58.5-20.5c6.2,0,50.9,2.4,56.6,17.6c9.4,25.1-20.4,68.4-10.8,70.4
						C441,86.9,524.5,184.8,524.5,302.1z"/>
				</defs>
				<clipPath id="SVGID_2_">
					<use xlink:href="#SVGID_1_"  style="overflow:visible;"/>
				</clipPath>
				<g class="st0">
					<circle class="st1" cx="282.5" cy="302.1" r="242.1"/>
					<g>
						<path class="st2" d="M392,311.8l-24.3-20.6l-46.2-4.2l-8.6-16.4l-0.8-32.1l8-19.1l13.1-26.4l-3.8-9.4l3.3-16.3l3.6-19.8
							l-4.5-19.8l-9-19.8l-19.8-10.8L257.4,92l-29.6,46.7l0.8,45l1.9,18.7l18.2,40.7l6,40.1l-51.2,26.9l-53.9,49.6l-12.1,22.8
							c24.9,25.4,55.7,46.5,90.7,57.3c7.7,2.4,15.5,27.3,23.6,28.6c9.2,1.5,18.5-20.7,28.1-20.7c56.9,0,109.9-28.2,146.6-66.1
							L392,311.8z"/>
						<g>
							<g>
								<polygon class="st3" points="306,415.8 325.3,357.8 342.3,396.7 417.8,357 391.6,303.9 315.7,362.7 163,306.4 145,361.1 
									305.9,415.8 								"/>
							</g>
							<g>
								<g>
									<path d="M272.2,88.6l-17.4-9.2c0,0-17.1-49.3-19-54.8c-1.9-5.4-2.8-15,8.4-18.9c12.5-4.3,17.9,11.3,17.9,11.3L280.5,70
										L272.2,88.6z"/>
									<path d="M273.1,91.2l-19.8-10.5l-19.3-55.4c-5.2-14.9,6-20,9.5-21.3c11.2-3.9,18.2,6.4,20.3,12.4l18.6,53.6L273.1,91.2z
										 M256.3,78.1l15,7.9l7.2-16.2l-18.1-52.3c-0.2-0.6-5-13.9-15.6-10.2c-4.3,1.5-11,5.7-7.3,16.6L256.3,78.1z"/>
								</g>
								<g>
									<path class="st2" d="M272.6,91.6c-0.8,0-1.5-0.5-1.7-1.2l-22.7-65.4c-0.3-1,0.2-2,1.1-2.3c0.9-0.3,2,0.2,2.3,1.1l22.7,65.4
										c0.3,1-0.2,2-1.1,2.3C273,91.6,272.8,91.6,272.6,91.6z"/>
								</g>
								<g>
									<g>
										<path class="st2" d="M254.9,43.4c-0.3,0-0.5-0.1-0.8-0.2L243.1,38c-0.9-0.4-1.3-1.5-0.9-2.4c0.4-0.9,1.5-1.3,2.4-0.9
											l11.1,5.2c0.9,0.4,1.3,1.5,0.9,2.4C256.3,43,255.6,43.4,254.9,43.4z"/>
									</g>
									<g>
										<path class="st2" d="M258.7,54.4c-0.3,0-0.5-0.1-0.8-0.2l-11.1-5.2c-0.9-0.4-1.3-1.5-0.9-2.4c0.4-0.9,1.5-1.3,2.4-0.9
											l11.1,5.2c0.9,0.4,1.3,1.5,0.9,2.4C260.1,54,259.4,54.4,258.7,54.4z"/>
									</g>
									<g>
										<path class="st2" d="M262.6,65.5c-0.3,0-0.5-0.1-0.8-0.2l-11.1-5.2c-0.9-0.4-1.3-1.5-0.9-2.4s1.5-1.3,2.4-0.9l11.1,5.2
											c0.9,0.4,1.3,1.5,0.9,2.4C263.9,65.1,263.3,65.5,262.6,65.5z"/>
									</g>
								</g>
								<g>
									
										<rect x="233.7" y="20.4" transform="matrix(0.9501 -0.3118 0.3118 0.9501 5.5535 79.1593)" class="st2" width="33.3" height="3.7"/>
								</g>
							</g>
							<g>
								<g>
									<path d="M280,96.3l-5.2-19c0,0,24.4-46.2,27-51.3c2.7-5.1,9-12.3,19.5-6.8c11.7,6.2,4,20.8,4,20.8l-26.1,49.6L280,96.3z"/>
									<path d="M278.7,98.7l-5.9-21.6l27.4-51.9c7.4-13.9,18.7-9.3,22-7.5c10.5,5.5,7.7,17.7,4.8,23.3l-26.5,50.2L278.7,98.7z
										 M276.8,77.6l4.5,16.4l16.7-5.8l25.8-48.9c0.3-0.5,6.7-13.1-3.2-18.4c-4.1-2.1-11.7-4.2-17.1,6L276.8,77.6z"/>
								</g>
								<g>
									<path class="st2" d="M279.4,99.2c-0.3,0-0.6-0.1-0.9-0.2c-0.9-0.5-1.2-1.6-0.8-2.5l32.3-61.2c0.5-0.9,1.6-1.2,2.5-0.8
										c0.9,0.5,1.2,1.6,0.8,2.5L281,98.3C280.7,98.9,280,99.2,279.4,99.2z"/>
								</g>
								<g>
									<g>
										<path class="st2" d="M302.6,53.4c-0.8,0-1.5-0.5-1.8-1.3L297,40.5c-0.3-1,0.2-2,1.2-2.3c1-0.3,2,0.2,2.3,1.2l3.8,11.6
											c0.3,1-0.2,2-1.2,2.3C302.9,53.4,302.7,53.4,302.6,53.4z"/>
									</g>
									<g>
										<path class="st2" d="M297.1,63.7c-0.8,0-1.5-0.5-1.8-1.3l-3.8-11.6c-0.3-1,0.2-2,1.2-2.3c1-0.3,2,0.2,2.3,1.2l3.8,11.6
											c0.3,1-0.2,2-1.2,2.3C297.5,63.7,297.3,63.7,297.1,63.7z"/>
									</g>
									<g>
										<path class="st2" d="M291.6,74.1c-0.8,0-1.5-0.5-1.8-1.3l-3.8-11.6c-0.3-1,0.2-2,1.2-2.3s2,0.2,2.3,1.2l3.8,11.6
											c0.3,1-0.2,2-1.2,2.3C292,74.1,291.8,74.1,291.6,74.1z"/>
									</g>
								</g>
								<g>
									
										<rect x="311.7" y="18.3" transform="matrix(0.4818 -0.8763 0.8763 0.4818 131.815 292.9118)" class="st2" width="3.7" height="33.3"/>
								</g>
							</g>
							<g>
								<path d="M147.3,362.3c-0.4,0-0.9-0.1-1.3-0.2c-1.9-0.7-2.9-2.8-2.2-4.7l17.8-48.1c0.7-1.9,2.8-2.9,4.7-2.2
									c1.9,0.7,2.9,2.8,2.2,4.7l-17.8,48.1C150.1,361.3,148.8,362.3,147.3,362.3z"/>
							</g>
							<g>
								<path d="M139.7,382.7c-0.4,0-0.8-0.1-1.3-0.2c-1.9-0.7-2.9-2.8-2.2-4.7l25.9-70.9c0.7-1.9,2.8-2.9,4.7-2.2
									c1.9,0.7,2.9,2.8,2.2,4.7l-25.9,70.9C142.6,381.8,141.2,382.7,139.7,382.7z"/>
							</g>
							<g>
								<path d="M424.8,381.5c-1.4,0-2.7-0.8-3.4-2.2L388,307c-0.8-1.9,0-4,1.8-4.9c1.9-0.8,4,0,4.9,1.8l33.5,72.3
									c0.8,1.9,0,4-1.8,4.9C425.8,381.4,425.3,381.5,424.8,381.5z"/>
							</g>
							<g>
								<path d="M170.3,371c-0.4,0-0.9-0.1-1.3-0.2c-1.9-0.7-2.9-2.8-2.2-4.7l17.8-48.1c0.7-1.9,2.8-2.9,4.7-2.2
									c1.9,0.7,2.9,2.8,2.2,4.7l-17.8,48.1C173.2,370.1,171.8,371,170.3,371z"/>
							</g>
							<g>
								<path d="M178.5,392.3c-0.4,0-0.9-0.1-1.3-0.2c-1.9-0.7-2.9-2.8-2.2-4.7l17.8-48.1c0.7-1.9,2.8-2.9,4.7-2.2
									c1.9,0.7,2.9,2.8,2.2,4.7l-17.8,48.1C181.4,391.3,180,392.3,178.5,392.3z"/>
							</g>
							<g>
								<path d="M211.1,384.9c-0.4,0-0.9-0.1-1.3-0.2c-1.9-0.7-2.9-2.8-2.2-4.7l17.8-48.1c0.7-1.9,2.8-2.9,4.7-2.2
									c1.9,0.7,2.9,2.8,2.2,4.7l-17.8,48.1C214.1,384,212.6,384.9,211.1,384.9z"/>
							</g>
							<g>
								<path d="M218.6,419.2c-0.4,0-0.9-0.1-1.3-0.2c-1.9-0.7-2.9-2.8-2.2-4.7l17.8-48.1c0.7-1.9,2.8-2.9,4.7-2.2
									c1.9,0.7,2.9,2.8,2.2,4.7l-17.8,48.1C221.6,418.3,220.1,419.2,218.6,419.2z"/>
							</g>
							<g>
								<path d="M408.8,387.6c-1.4,0-2.7-0.8-3.3-2.1L384,338.9c-0.9-1.8,0-4,1.8-4.9c1.8-0.9,4,0,4.9,1.8l21.4,46.5
									c0.9,1.8,0,4-1.8,4.9C409.8,387.5,409.3,387.6,408.8,387.6z"/>
							</g>
							<g>
								<path d="M385.1,383.9c-1.4,0-2.7-0.8-3.3-2.1l-21.4-46.5c-0.9-1.8,0-4,1.8-4.9c1.8-0.9,4,0,4.9,1.8l21.4,46.5
									c0.9,1.8,0,4-1.8,4.9C386.1,383.8,385.6,383.9,385.1,383.9z"/>
							</g>
							<g>
								<path d="M277.3,80.1c-6.8,0-21.6,5.4-31,8.5c-9.4,3.2-25.2,32.8-29.2,53.9c-3.6,19,4.4,26.7,6.6,42.1l4.6-2.6
									c1.1-4.3,5.5-19.3,5.5-21.1c0-2.7-1.9-3.1-1.9-13.9c-0.1-10.7,11.3-30.2,13.5-34.2s12.1-2.3,23.4-0.9
									c11.2,1.3,14.4-2.1,14.4-2.1l0.9-29.7C284,80.1,284,80.1,277.3,80.1z"/>
							</g>
							<g>
								<path class="st2" d="M389.6,309.6c0,0-0.4-8.2-15.9-15.5c-15.5-7.4-46.1-8.2-50.2-10.6c-4.1-2.5-9.8-18.4-9.8-18.4v-31
									l-2.9,0.6c-4.9,6.8-9.7,15.2-11,17.3c-1.8,3.1-20.4,3.9-20.4,3.9s-19.2-0.8-21-3.9c-1.3-2.2-6.3-10.7-11.2-17.6l-1.7-0.4v31
									c0,0-5.7,15.9-9.8,18.4s-34.7,3.3-50.2,10.6c-15.5,7.4-15.9,15.5-15.9,15.5l155.2,54.1l-3.3-0.8L389.6,309.6z"/>
								<path d="M323.9,366.8l-9.4-2.3l0.8-0.6l-149.1-52l0.1-2.3c0.1-1,1-10.2,17.7-18.1c10.1-4.8,26-6.9,37.5-8.4
									c5.3-0.7,11.2-1.5,12.4-2.1c1.6-1,5.4-8.5,8.3-16.3v-34.3l6.5,1.5l0.7,0.9c4.4,6.1,8.8,13.6,10.7,16.8l0.5,0.8
									c1.8,1.1,10.1,2.3,18.6,2.7c8.1-0.4,16.2-1.6,17.9-2.6l0.5-0.9c1.8-3.1,6.1-10.4,10.5-16.4l0.7-0.9l7.7-1.7v34.3
									c2.8,7.8,6.7,15.3,8.3,16.3c1.2,0.6,7.1,1.4,12.4,2.1c11.6,1.5,27.4,3.6,37.5,8.4c16.7,7.9,17.6,17.1,17.7,18.1l0.1,1.6
									l-68.1,53.3L323.9,366.8z M173.4,307.7l147.8,51.6l65-50.8c-1-2.3-4.1-7-13.7-11.6c-9.3-4.4-24.5-6.4-35.7-7.9
									c-8.6-1.1-12.8-1.7-14.8-2.9c-4.7-2.8-9.7-16-11.1-20l-0.2-0.5v-25.3c-3.2,4.8-6.1,9.7-7.5,12.1l-0.7,1.2
									c-2.7,4.5-17.9,5.1-22.9,5.4h-0.1h-0.1c-20.8-0.9-22.9-4.3-23.5-5.4l-0.6-1.1c-1.3-2.1-3.7-6.3-6.5-10.6v23.7l-0.2,0.5
									c-1.4,4-6.4,17.2-11.1,20c-2,1.2-6.2,1.8-14.8,2.9c-11.2,1.5-26.4,3.5-35.7,7.9C178,301,174.7,305.3,173.4,307.7z"/>
							</g>
							<g>
								<path d="M245.5,237.4c-0.2-0.3-18.6-29.8-20.2-40.6c-0.3-1.9-0.6-3.6-0.9-5.2c-1-5.1-1.8-9.2-0.2-14.5
									c1.7-5.8,3.1-18.4,3.2-18.5l6.1,0.7c-0.1,0.5-1.5,13.3-3.4,19.6c-1.2,3.9-0.6,6.9,0.3,11.6c0.3,1.6,0.7,3.4,1,5.4
									c1,6.6,11.9,26.4,19.4,38.2L245.5,237.4z"/>
							</g>
							<g>
								<path d="M280.7,80.1c6.8,0,21.6,5.4,31,8.5c9.4,3.2,25.2,32.8,29.2,53.9c3.6,19-4.4,26.7-6.6,42.1l-4.5-2.6
									c-1.1-4.3-5.5-19.3-5.5-21.1c0-2.7,1.9-3.1,1.9-13.9c0-10.7-11.3-30.2-13.5-34.2s-12.1-2.3-23.4-0.9
									c-11.2,1.3-14.4-2.1-14.4-2.1l-0.9-29.7C273.9,80.1,273.9,80.1,280.7,80.1z"/>
							</g>
							<g>
								<path d="M312.4,237.4l-5.2-3.3c7.4-11.9,18.4-31.6,19.4-38.2c0.3-2,0.7-3.9,1-5.4c0.9-4.6,1.5-7.7,0.3-11.6
									c-1.9-6.3-3.3-19.1-3.4-19.6l6.1-0.7c0,0.1,1.4,12.8,3.1,18.5c1.6,5.3,0.8,9.4-0.2,14.5c-0.3,1.6-0.6,3.3-0.9,5.2
									C331,207.5,312.6,237.1,312.4,237.4z"/>
							</g>
							<g>
								<path d="M298.3,438.5c-0.4,0-0.8-0.1-1.3-0.2c-1.9-0.7-2.9-2.8-2.2-4.7l25.9-70.9c0.7-1.9,2.8-2.9,4.7-2.2s2.9,2.8,2.2,4.7
									L301.8,436C301.2,437.5,299.8,438.5,298.3,438.5z"/>
							</g>
							<g>
								<path d="M303.6,418.2c-0.4,0-0.8-0.1-1.2-0.2l-156-51.8c-1.9-0.6-3-2.7-2.3-4.6s2.7-3,4.6-2.3l156,51.9
									c1.9,0.6,3,2.7,2.3,4.6C306.6,417.3,305.2,418.2,303.6,418.2z"/>
							</g>
							<g>
								<path d="M340.7,401.6L321.6,364c-0.9-1.8-0.2-4,1.6-4.9s4-0.2,4.9,1.6l15.7,31l70.4-36.7c1.8-0.9,4-0.2,5,1.6s0.2,4-1.6,5
									L340.7,401.6z"/>
							</g>
							<g>
								<g>
									<path class="st4" d="M270.8,314.5c-0.6,1.2-1,5-1.1,6.5h24c-0.1-1.5-0.5-5.3-1.1-6.5H270.8z"/>
								</g>
								<g>
									<path class="st4" d="M291,313.1c-2.4-2.9-6-4.6-9.2-4.7v0c0,0-0.1,0-0.1,0s-0.1,0-0.1,0v0c-3.2,0.1-6.8,1.8-9.2,4.7H291z"
										/>
								</g>
								<g>
									<path class="st4" d="M293,327.6c0.4-1.3,0.6-3.8,0.7-5.3h-24c0.1,1.4,0.4,4,0.7,5.3H293z"/>
								</g>
								<g>
									<path class="st4" d="M292.2,328.9h-20.9c1.4,3.5,3,5.8,3,5.8s-8,26.4-8,44.3c0,16.9,13.9,16.3,15.4,16.2
										c1.5,0.1,15.4,0.6,15.4-16.2c0-17.8-8-44.3-8-44.3S290.8,332.4,292.2,328.9z"/>
								</g>
							</g>
							<g>
								<path d="M281.2,312.5l-43.2-34.6c-0.8-0.6-0.9-1.8-0.3-2.6c0.6-0.8,1.8-0.9,2.6-0.3l40.7,32.7l37.4-33
									c0.8-0.7,1.9-0.6,2.6,0.2c0.7,0.8,0.6,1.9-0.2,2.6L281.2,312.5z"/>
							</g>
						</g>
					</g>
					<g>
						<g>
							<path class="st2" d="M109.3,391.4l-1.7-2.2C108.2,390,108.8,390.7,109.3,391.4"/>
							<path d="M162,390.3c0.1-0.1,0.1-0.2,0.2-0.3c0,0,0-0.1,0-0.1L162,390.3z"/>
						</g>
					</g>
					<g>
						<circle class="st5" cx="427.3" cy="351.3" r="201.8"/>
						<g>
							<g>
								<defs>
									<path id="SVGID_3_" d="M629.1,351.3c0,111.5-90.4,201.8-201.8,201.8c-39,0-97.7,54.2-128.6,35
										c-10.6-6.6-76.3-19.4-85.4-45.4c-8-23,39-59.6,52.1-62.9c-27.2-34.4-40-81.3-40-128.5c0-111.5,90.4-201.8,201.8-201.8
										S629.1,239.9,629.1,351.3z"/>
								</defs>
								<clipPath id="SVGID_4_">
									<use xlink:href="#SVGID_3_"  style="overflow:visible;"/>
								</clipPath>
								<g class="st6">
									<path d="M277.6,501.1l108.8-26.7L543.6,424l36.7,55.9v20L463.9,572c0,0-114.6-3.8-115.9-4.6
										C346.8,566.5,277.6,501.1,277.6,501.1z"/>
									<polygon points="262.7,482 211.1,535.9 245.4,564.1 374.2,537.8 268.1,469.8 									"/>
									<path class="st2" d="M373.9,480.3l168.4-54.2c0,0,17.9,16.3,18.8,23.8c0.8,7,9.1,38.4,10.3,42.8c3.7-3.8,7.2-7.6,10.6-11.7
										l-16.4-55.4l-63.8-58.4c0,0-2.7-71.8-2.7-77.2c0-5.4-25.1-58.4-25.1-58.4s-25.1-27.8-36.8-31.4
										c-11.7-3.6-28.7,4.5-28.7,4.5l-28.7,39.5l-44,115.8l-17.1,72.7l-33.9,53.3L373.9,480.3z"/>
									<path class="st7" d="M384.4,273.4c10.8-12.6-2.5-28.4,7.8-37.4c6.7-5.8,28.7-9.6,31.6-13.3c1.5-1.9,2.3-0.3,2.1-14.8
										c-0.1-5.4,0.2-6-1-7.9c-1.2-1.9-11.4-6.6-33.4,3.5c-22,10.1-38.7,57.2-42.5,68.8s-12.4,25.5-21.6,31.3
										c-9.3,5.8-26.7,9.7-27.8,24.4c-1.2,14.7,0.4,22-8.5,28.6c-8.9,6.6-19.6,8.3-17,24.4c3.7,22.8-5.1,33.6-9.7,40.6
										c-30.4,46.4,25.3,75.8,25.3,75.8s-36.9-42.9,68.4-99c20.1-10.7,30.6-7.4,42.9-21.5c5.4-6.2,4.6-24,2.3-30.5
										c-2-5.8-10-7.7-16.6-33.3C382.4,296.4,378.5,280.2,384.4,273.4z"/>
									<path class="st2" d="M485.3,479.9c-1.3,0-2.6-0.8-3.2-2l-20.3-44.1c-0.8-1.8,0-3.8,1.7-4.6c1.8-0.8,3.8,0,4.6,1.7
										l20.3,44.1c0.8,1.8,0,3.8-1.7,4.6C486.3,479.8,485.8,479.9,485.3,479.9z"/>
									<path class="st2" d="M446.4,471.2c-1.3,0-2.6-0.8-3.2-2l-20.3-44.1c-0.8-1.8,0-3.8,1.7-4.6c1.8-0.8,3.8,0,4.6,1.7
										l20.3,44.1c0.8,1.8,0,3.8-1.7,4.6C447.3,471.1,446.8,471.2,446.4,471.2z"/>
									<path class="st2" d="M437.8,501.3c-1.3,0-2.6-0.8-3.2-2l-20.3-44.1c-0.8-1.8,0-3.8,1.7-4.6s3.8,0,4.6,1.7l20.3,44.1
										c0.8,1.8,0,3.8-1.7,4.6C438.7,501.2,438.2,501.3,437.8,501.3z"/>
									<path class="st2" d="M403.3,557.9c-1.3,0-2.6-0.8-3.2-2l-20.3-44.1c-0.8-1.8,0-3.8,1.7-4.6s3.8,0,4.6,1.7l20.3,44.1
										c0.8,1.8,0,3.8-1.7,4.6C404.3,557.8,403.8,557.9,403.3,557.9z"/>
									<path class="st2" d="M415.6,543.6c-1.3,0-2.6-0.8-3.2-2l-20.3-44.1c-0.8-1.8,0-3.8,1.7-4.6s3.8,0,4.6,1.7l20.3,44.1
										c0.8,1.8,0,3.8-1.7,4.6C416.6,543.5,416.1,543.6,415.6,543.6z"/>
									<g>
										<polygon class="st5" points="295.4,511.5 289.2,508.3 306.7,474.7 274.4,457.9 277.6,451.7 316,471.7 										"/>
									</g>
									<g>
										<polygon class="st5" points="309.9,506.9 303.8,503.7 321.2,470.1 289,453.3 292.2,447.1 330.6,467.1 										"/>
									</g>
									<g>
										<polygon class="st5" points="324.5,502.3 318.4,499.1 335.8,465.5 303.5,448.7 306.8,442.5 345.2,462.5 										"/>
									</g>
									<g>
										<polygon class="st5" points="543.3,433.2 537.1,430 554.6,396.4 522.3,379.6 525.5,373.4 564,393.4 										"/>
									</g>
									
										<rect x="307" y="413.7" transform="matrix(0.9536 -0.3012 0.3012 0.9536 -111.1918 150.2661)" class="st5" width="249.5" height="44.1"/>
									<path d="M317.1,498.7L301.8,450l244.6-77.3l15.4,48.7L317.1,498.7z M310.5,454.5l11.2,35.5L553,416.9l-11.2-35.5
										L310.5,454.5z"/>
									<path class="st2" d="M543.8,483.7c-1.3,0-2.6-0.8-3.2-2l-20.3-44.1c-0.8-1.8,0-3.8,1.7-4.6c1.8-0.8,3.8,0,4.6,1.7
										l20.3,44.1c0.8,1.8,0,3.8-1.7,4.6C544.8,483.6,544.3,483.7,543.8,483.7z"/>
									<path class="st2" d="M527,510.3c-1.3,0-2.6-0.8-3.2-2l-20.3-44.1c-0.8-1.8,0-3.8,1.7-4.6c1.8-0.8,3.8,0,4.6,1.7l20.3,44.1
										c0.8,1.8,0,3.8-1.7,4.6C528,510.2,527.5,510.3,527,510.3z"/>
									<g>
										<g>
											<defs>
												<polygon id="SVGID_5_" points="343.9,439.7 492.9,393 512.3,393.6 531.8,401.3 541.8,414.7 546.2,423.6 362.3,479.7 
													343.4,453.6 												"/>
											</defs>
											<clipPath id="SVGID_6_">
												<use xlink:href="#SVGID_5_"  style="overflow:visible;"/>
											</clipPath>
											<g class="st8">
												<g>
													<polygon class="st9" points="353.7,493.1 347.5,489.9 365,456.3 332.7,439.5 335.9,433.3 374.4,453.3 													"/>
												</g>
												<g>
													<g>
														<polygon points="339.1,497.7 332.9,494.5 350.4,460.9 318.1,444.1 321.4,437.9 359.8,457.9 														"/>
													</g>
													<g>
														<polygon points="368.3,488.5 362.1,485.3 379.6,451.6 347.3,434.9 350.5,428.7 389,448.7 														"/>
													</g>
													<g>
														<polygon class="st9" points="382.9,483.9 376.7,480.6 394.2,447 361.9,430.3 365.1,424.1 403.5,444.1 														
															"/>
													</g>
													<g>
														<polygon points="397.4,479.3 391.3,476 408.7,442.4 376.5,425.6 379.7,419.5 418.1,439.5 														"/>
													</g>
													<g>
														<polygon class="st9" points="412,474.6 405.9,471.4 423.3,437.8 391,421 394.3,414.9 432.7,434.9 														"/>
													</g>
													<g>
														<polygon points="426.6,470 420.4,466.8 437.9,433.2 405.6,416.4 408.8,410.3 447.3,430.3 														"/>
													</g>
													<g>
														<polygon class="st9" points="441.2,465.4 435,462.2 452.5,428.6 420.2,411.8 423.4,405.7 461.9,425.6 														
															"/>
													</g>
													<g>
														<polygon points="455.8,460.8 449.6,457.6 467.1,424 434.8,407.2 438,401 476.5,421 														"/>
													</g>
													<g>
														<polygon class="st9" points="470.4,456.2 464.2,453 481.6,419.4 449.4,402.6 452.6,396.4 491,416.4 														"/>
													</g>
													<g>
														<polygon points="484.9,451.6 478.8,448.4 496.2,414.8 464,398 467.2,391.8 505.6,411.8 														"/>
													</g>
													<g>
														<polygon class="st9" points="499.5,447 493.4,443.8 510.8,410.2 478.5,393.4 481.8,387.2 520.2,407.2 														
															"/>
													</g>
													<g>
														<polygon points="514.1,442.4 507.9,439.2 525.4,405.6 493.1,388.8 496.3,382.6 534.8,402.6 														"/>
													</g>
													<g>
														<polygon points="528.7,437.8 522.5,434.6 540,401 507.7,384.2 510.9,378 549.4,398 														"/>
													</g>
												</g>
											</g>
										</g>
									</g>
									<path class="st7" d="M470.9,273.4C460,260.8,473.3,245,463,236c-6.7-5.8-28.7-9.6-31.6-13.3c-1.5-1.9-2.3-0.3-2.1-14.8
										c0.1-5.4-0.2-6,1-7.9c1.2-1.9,11.4-6.6,33.4,3.5c22,10.1,38.7,57.2,42.5,68.8s12.4,25.5,21.7,31.3s26.7,9.7,27.8,24.4
										s-0.4,22,8.5,28.6c8.9,6.6,19.6,8.3,17,24.4c-3.7,22.8,5.1,33.6,9.7,40.6c30.3,46.4-21.7,72.1-21.7,72.1
										s-19.3-98.2-72.3-97.8c-22.8,0.2-30.3-4.9-42.7-18.9c-5.4-6.2-4.6-24-2.3-30.5c2-5.8,10-7.7,16.6-33.3
										C472.8,296.4,476.8,280.2,470.9,273.4z"/>
									<path class="st7" d="M380.9,388.8c0,0-40.2,8.4-31.3,51s45.9,46.7,45.9,46.7s-82.1,58.2-132.6-13.9
										C234.2,431.8,380.9,388.8,380.9,388.8z"/>
									<path d="M427,325.8l2.5-1.5c0,0,6.5-0.7,10,0.3s4.9,2.1,4.9,2.1s-4.1,5-5.1,5.6c-2.5,1.4-6.7,3.2-10.4,2.8
										c-1.5-0.1-1.1,0-1.5-0.1C424,334.7,426.8,325.8,427,325.8z"/>
									<path d="M427.4,325.8l-2.5-1.5c0,0-6.5-0.7-10,0.3s-4.9,2.1-4.9,2.1s4.1,5,5.1,5.6c2.5,1.4,6.7,3.2,10.4,2.8
										c1.5-0.1,1.1,0,1.5-0.1C430.4,334.7,427.6,325.8,427.4,325.8z"/>
								</g>
							</g>
						</g>
						<line class="st10" x1="429.9" y1="333.8" x2="429.9" y2="352.3"/>
						<line class="st10" x1="433.6" y1="333.8" x2="433.6" y2="346.7"/>
						<line class="st10" x1="426" y1="333.8" x2="426" y2="352.3"/>
						<line class="st10" x1="422.4" y1="333.8" x2="422.4" y2="346.7"/>
						<path class="st11" d="M439.6,351.6c-0.6,1-1.8,1.5-2.9,1.5c-0.4,0-1.1-0.1-1.8-0.6c-0.5-0.3-1-0.9-1.4-1.7s-0.6-1.9-0.7-3.1
							h1.4c0,0.9,0.2,1.8,0.5,2.4c0.5,1,1.2,1.5,2,1.5c0.6,0,1.3-0.3,1.6-0.8c0.4-0.5,0.4-1.4,0.1-2c-0.1-0.2-0.4-0.6-0.8-0.6
							c-0.4,0-0.7-0.4-0.7-0.8s0.4-0.7,0.8-0.7c0.9,0,1.6,0.6,2,1.4C440.4,349.3,440.3,350.6,439.6,351.6z M416.3,351.6
							c0.6,1,1.8,1.5,2.9,1.5c0.4,0,1.1-0.1,1.8-0.6c0.5-0.3,1-0.9,1.4-1.7s0.6-1.9,0.7-3.1h-1.4c0,0.9-0.2,1.8-0.5,2.4
							c-0.5,1-1.2,1.5-2,1.5c-0.6,0-1.3-0.3-1.6-0.8c-0.4-0.5-0.4-1.4-0.1-2c0.1-0.2,0.4-0.6,0.8-0.6c0.4,0,0.7-0.4,0.7-0.8
							s-0.4-0.7-0.8-0.7c-0.9,0-1.6,0.6-2,1.4C415.6,349.3,415.7,350.6,416.3,351.6z"/>
						<path class="st7" d="M442.5,355.2c-3.4,2.4-8.7,3.7-14.6,3.7c-6.2,0-10.7-1.2-14.4-3.7c-0.2-0.1-0.4-0.3-0.6-0.4
							c-1.4-0.9-4.6-2.9-9.4-9c-0.1-0.1-0.8-1-1.4-1.9c-0.6-0.8-1.1-1.5-1.1-1.5l0,0c1.9,2.7,2.5,8.4,2.7,10c3.4,3.7,5.8,5.2,7,5.9
							c0.2,0.1,0.3,0.2,0.5,0.3c4.4,3.1,9.7,4.5,16.7,4.5c6.8,0,12.9-1.6,17-4.5c0.9-0.6,3.1-2.2,6.5-6c0.1-1,0.6-6.5,2.3-9.5
							C447.4,351.8,443.8,354.4,442.5,355.2z"/>
						<path class="st7" d="M442.5,356.1c-3.4,2.4-8.7,3.7-14.6,3.7c-6.2,0-10.7-1.2-14.4-3.7c-0.2-0.1-0.4-0.3-0.6-0.4
							c-1.4-0.9-4.6-2.9-9.4-9c-0.1-0.1-0.8-1-1.4-1.9c-0.6-0.8-1.1-1.5-1.1-1.5l0,0c1.9,2.7,2.5,8.4,2.7,10c3.4,3.7,5.8,5.2,7,5.9
							c0.2,0.1,0.3,0.2,0.5,0.3c4.4,3.1,9.7,4.5,16.7,4.5c6.8,0,12.9-1.6,17-4.5c0.9-0.6,3.1-2.2,6.5-6c0.1-1,0.6-6.5,2.3-9.5
							C447.4,352.7,443.8,355.2,442.5,356.1z"/>
					</g>
					<g>
						<path class="st2" d="M269.9,489.9c0,0-18.3-32.8-18.6-33.3c-12.6-21.8-28.4-46.9-35.6-50.3c-13.1-6.2-42.1-3.7-45.5-5.8
							c-3.4-2.1-8.3-5.1-8.3-5.1v-17.6l1.8-2.9c-6.8,9.4-10.5,11.6-11.7,12.4c-3.8,2.7-9.5,4.1-15.6,4.1c-6.8,0-11.5-1.4-15.3-4.1
							c-1.1-0.8-4.6-2.6-10.4-10.2l0.5,0.6v17.6c0,0-4.8,3-8.3,5.1c-3.4,2.1-32.4-0.4-45.5,5.8c-7.2,3.4-23,28.6-35.7,50.4
							c-0.3,0.5-18.5,33.2-18.5,33.2l77,22.3L192,555.7L269.9,489.9z"/>
						<g>
							<path class="st2" d="M114.7,392.1l-4.7-17.3l-13.4-16.4l-4.2-17.1L90,291.3l39.5-43.2c0,0,11.6-0.5,12.1-0.5
								c0.5,0,37.2,35.3,37.2,35.3s0.6,29,0.8,29.5c0.2,0.5,3,18.1,3,18.8c0,0.7-2.8,17.1-2.8,17.1l-3.1,10.5l-12.6,16l-8,17.1
								l-16.7,5.8L114.7,392.1z"/>
							<path class="st12" d="M110.2,377c-5.2-8.3-15.7-18.7-16.7-25.4s-2.6-10.3-1-15.5s0.7-29.2,0.7-29.2"/>
							<path class="st2" d="M110.7,377.2l-1.5-2C109.7,375.9,110.2,376.6,110.7,377.2"/>
							<path class="st12" d="M57.4,406.3c-7.2,3.4-23,28.6-35.7,50.4c-0.3,0.5-18.5,33.2-18.5,33.2l77,22.3"/>
							<path class="st12" d="M271,492.5c0,0-19.4-35.4-19.6-35.9c-12.6-21.8-28.4-46.9-35.6-50.3c-13.1-6.2-42.1-3.7-45.5-5.8
								c-3.4-2.1-8.3-5.1-8.3-5.1v-17.6l1.8-2.9c-6.8,9.4-10.5,11.6-11.7,12.4c-3.8,2.7-9.5,4.1-15.6,4.1c-6.8,0-11.5-1.4-15.3-4.1
								c-1.1-0.8-4.6-2.6-10.4-10.2l0.5,0.6v17.6"/>
							<path d="M159.6,376.1c0.1-0.1,0.1-0.2,0.2-0.3c0,0,0-0.1,0-0.1L159.6,376.1z"/>
							<polygon points="55.7,443.8 207.2,443.8 228,488.8 34.1,488.8 							"/>
							<line class="st13" x1="196.1" y1="403.4" x2="191.2" y2="446.1"/>
							<path d="M135.4,248.1c-0.9-1.6-9.7-5.5-27.5,2.2c-7.5,3.2-14.4,11.8-20.1,21.3L53.5,412.1c7-5.8,15.1-9.4,24.5-9.1
								c18.2,0.5,28.2,2.3,38.3-8.7c2.2-2.4-2-11.3-2-16.2c-5.1-8.1-14.8-20.5-17-27.8c0,0,0-0.1,0-0.1c0.3-0.5,0.6-1.1,0.8-1.5
								c0.6-1.2,1.7-14.5,0.9-24.6s1.4-28.4,10.6-36.4c9.2-8,19.3-10.1,22.5-10.9c3.3-0.8,3-2.2,3.4-9.1c0-0.1,0-0.1,0-0.2
								c0.3-3,0.5-7.2,0.6-13C136.1,250.1,136.3,249.7,135.4,248.1"/>
							<path d="M186.1,271.6c-5.7-9.5-12.6-18.1-20.1-21.3c-17.8-7.7-26.6-3.8-27.5-2.2c-0.9,1.6-0.7,2-0.6,6.4
								c0.1,7.5,0.4,12.4,0.9,15.5c0.2,4.9,0.4,6.1,3.3,6.8c3.3,0.8,13.4,2.9,22.6,10.9c9.2,8,11.4,26.3,10.6,36.4
								c-0.8,10.1,0.4,23.5,0.9,24.6c0.2,0.3,0.4,0.8,0.7,1.3c-0.8,2.9-5.2,3.6-7.9,7.3c-1.6,2.2-2.9,5-4.2,7.9
								c-1.7,3.9-3.3,7.9-5,10.6c0.1,5.3,0.7,15.8,3.1,18.4c10.1,11.1,14.9,9.2,33.2,8.7c9.4-0.3,17.5,3.3,24.5,9.1L186.1,271.6z"/>
							<polygon class="st2" points="90.6,499.4 79.7,490.6 99.7,465.8 83.6,442.3 95.1,434.4 117,466.5 							"/>
							<g>
								<g>
									<defs>
										<path id="SVGID_7_" d="M34,443.7L11.8,456c3,3.3,6.1,6.5,9.3,32.8h231.7c3.1-26.2,6-29.2,8.9-32.3l-8.4-12.8L34,443.7
											L34,443.7z"/>
									</defs>
									<clipPath id="SVGID_8_">
										<use xlink:href="#SVGID_7_"  style="overflow:visible;"/>
									</clipPath>
									<polygon class="st14" points="121.5,499.4 110.7,490.6 130.6,465.8 114.5,442.3 126,434.4 147.9,466.5 									"/>
								</g>
								<g>
									<defs>
										<path id="SVGID_9_" d="M34,443.7L11.8,456c3,3.3,6.1,6.5,9.3,32.8h231.7c3.1-26.2,6-29.2,8.9-32.3l-8.4-12.8L34,443.7
											L34,443.7z"/>
									</defs>
									<clipPath id="SVGID_10_">
										<use xlink:href="#SVGID_9_"  style="overflow:visible;"/>
									</clipPath>
									<polygon class="st15" points="152.5,499.4 141.6,490.6 161.5,465.8 145.4,442.3 156.9,434.4 178.9,466.5 									"/>
								</g>
								<g>
									<defs>
										<path id="SVGID_11_" d="M34,443.7L11.8,456c3,3.3,6.1,6.5,9.3,32.8h231.7c3.1-26.2,6-29.2,8.9-32.3l-8.4-12.8L34,443.7
											L34,443.7z"/>
									</defs>
									<clipPath id="SVGID_12_">
										<use xlink:href="#SVGID_11_"  style="overflow:visible;"/>
									</clipPath>
									<polygon class="st16" points="183.4,499.4 172.5,490.6 192.4,465.8 176.3,442.3 187.8,434.4 209.8,466.5 									"/>
								</g>
								<g>
									<defs>
										<path id="SVGID_13_" d="M34,443.7L11.8,456c3,3.3,6.1,6.5,9.3,32.8h231.7c3.1-26.2,6-29.2,8.9-32.3l-8.4-12.8L34,443.7
											L34,443.7z"/>
									</defs>
									<clipPath id="SVGID_14_">
										<use xlink:href="#SVGID_13_"  style="overflow:visible;"/>
									</clipPath>
									<polygon class="st17" points="218.5,499.4 207.6,490.6 227.5,465.8 211.4,442.3 222.9,434.4 244.9,466.5 									"/>
								</g>
							</g>
							<g>
								<path d="M92.5,299.9c0,0,9.3,65.1,19.1,73.9c3.3,3-6.7,8.8-13.8,12.9s-14.3-13.8-14.3-13.8l2.6-50.6L92.5,299.9z"/>
								<path d="M180.1,306.8c0,0-9.3,58.1-19.1,66.9c-3.3,3,6.6,8.8,13.8,12.9c7.1,4.1,14.3-13.8,14.3-13.8l-2.6-50.6L180.1,306.8z
									"/>
								<path d="M58.2,394.6L19.3,545c0,0,121.3,98.1,97.6,16.7c-23.7-81.6-2.8-164.6-2.8-164.6l-37-16.4L58.2,394.6z"/>
							</g>
							<g>
								<path class="st2" d="M160,382.9c1.2-14,1.8-15.4,1.8-15.4l-23,3.8v35.2l22.8-0.4l10.5-2.5c0,0-14-3.4-12.2-17.8L160,382.9z"
									/>
								<path class="st2" d="M116.7,385.6c-1.2-14-2.3-18.1-2.3-18.1l23,3.8l14.9,40.1l-37.7-5.4l-9.5-1.9
									C105.1,404.2,117.8,399.6,116.7,385.6"/>
								<path d="M109.7,421c0,0,7.8-33.4,7.8-36.3s-18.2,5.8-18.2,5.8s-3.2,12.8-2.2,14.6s6.9,13.7,6.9,13.7L109.7,421z"/>
							</g>
							<path class="st2" d="M137.8,274.3l-1.1,115.2l1.1,0c19.5-0.1,35.2-20.1,38.5-57.6C179.8,293.1,159,274.4,137.8,274.3z"/>
							<path class="st2" d="M137,274.3v115.2c-19.5-0.1-35.2-20.1-38.5-57.6C94.8,289.7,115.7,274.4,137,274.3z"/>
							<path class="st18" d="M109.3,375.6c0.1,0.1,2.4,3.2,2.5,3.3c5.7,7.2,9.3,8.9,10.4,9.7c3.8,2.6,8.6,4,15.5,4
								c6.2,0,11.9-1.4,15.7-4c1.2-0.8,5.1-3.5,12-12.8"/>
						</g>
					</g>
				</g>
			</g>
		</g>
		<rect x="116.6" y="488.2" class="st2" width="114.1" height="13.4"/>
	</g>
</g>
</svg>
