<?xml version="1.0" encoding="utf-8"?>
<!-- Generator: Adobe Illustrator 24.1.1, SVG Export Plug-In . SVG Version: 6.00 Build 0)  -->
<svg version="1.1" id="Layer_1" xmlns="http://www.w3.org/2000/svg" xmlns:xlink="http://www.w3.org/1999/xlink" x="0px" y="0px"
	 viewBox="0 0 512 512" style="enable-background:new 0 0 512 512;" xml:space="preserve">
<style type="text/css">
	.st0{fill:#151515;}
	.st1{fill:#FFFFFF;}
</style>
<circle class="st0" cx="256" cy="256" r="256"/>
<g>
	<g>
		<path class="st1" d="M86.5,284.5c-10.2-9.7-18.8-18.3-28-27.4c66.2-65.6,132.3-131.2,199-196.9c65.6,66.7,131.2,132.9,196.3,199
			c-8.1,8.6-16.7,17.2-25.3,26.4c-57.6-58.1-114.6-115.1-171-172.1C200,170.5,143,227.5,86.5,284.5z"/>
		<path class="st1" d="M254.9,452.3c-49.5-50-97.9-99.5-146.8-148.5c49.5-49.5,99-99,147.9-147.9c48.9,48.9,98.4,98.4,147.9,147.9
			C354.4,353.4,304.9,402.9,254.9,452.3z M255.4,206.4L255.4,206.4c-24.7,24.2-52.1,50.1-76.3,74.9c-11.8,11.8-16.7,26.9-14.5,44.1
			c3.2,25.8,33.3,52.2,65.1,34.4c12.9-7,19.4-19.4,17.7-32.8c-1.6-11.8-11.8-19.9-24.2-19.4c0,0,0,0,0,0
			c-10.2,1.1-18.3,10.2-18.3,21.5c0,1.6,0,2.6-0.5,4.6c0,0.1-0.1,0.2-0.2,0.1c-7.4-3.8-10-9.6-7.9-16.6c1.6-8.1,6.5-15.1,12.4-20.4
			c14.5-14.5,28.5-28.5,43-43c1.1-1.1,2.1-2.1,3.7-2.7c0,0,0.1,0,0.1,0c1,0.5,1,1,1.5,1c0,0,0.1,0,0.1,0
			c15,15.6,29.6,30.6,44.1,46.2c5.4,5.4,9.7,11.8,11.3,19.9c1.6,8-2.6,14.9-10,17.1c-0.1,0-0.2-0.1-0.2-0.2c0.1-1,0.5-2,0.5-2.5
			c1.6-10.8-4.8-21.5-15.6-23.7c-16.7-3.8-31.2,12.9-25.8,30.1c4.3,15.1,20.4,26.9,37.1,27.4c22.1,1.1,49.5-20.4,45.7-52.2
			c-1.6-12.9-7.5-23.7-16.1-32.8c-19.4-20.4-39.3-40.9-58.6-60.8"/>
	</g>
</g>
</svg>
