<?xml version="1.0" encoding="utf-8"?>
<!-- Generator: Adobe Illustrator 24.1.1, SVG Export Plug-In . SVG Version: 6.00 Build 0)  -->
<svg version="1.1" id="Layer_1" xmlns="http://www.w3.org/2000/svg" xmlns:xlink="http://www.w3.org/1999/xlink" x="0px" y="0px"
	 viewBox="0 0 512 512" style="enable-background:new 0 0 512 512;" xml:space="preserve">
<style type="text/css">
	.st0{fill:#231F20;}
	.st1{fill:none;}
</style>
<g>
	<g>
		<path class="st0" d="M36.3,291.4C23.3,278.7,11.9,267.6,0,256C86.1,170.8,172.1,85.5,258.7,0c85.5,86.3,170.5,172.4,255.2,258.2
			c-10.8,11.4-21.4,22.2-32.7,34.1c-74.7-74.7-148.8-148.8-222.7-222.7C184,143.7,110.1,217.3,36.3,291.4z"/>
		<path class="st0" d="M255.2,509.8c-64.1-64.7-127.5-129.1-190.5-192.7c64.4-64.4,128.5-128.3,192.4-192.1
			c63.6,63.6,127.7,127.7,192.4,192.4C384.8,381.3,320.4,445.4,255.2,509.8z M256.3,190.5c-1.9,1.1-2.7,1.4-3,1.9
			c-32.2,31.7-64.7,63.1-96.3,95.3c-15.4,15.7-21.6,34.9-18.9,57.1c4.1,33.8,43,67.7,84.7,44.4c16.5-9.2,25.4-25.4,23.3-42.5
			c-1.9-15.4-15.4-26-31.7-24.9c-13.5,1.1-23.8,13.3-23.8,28.1c0,1.9-0.3,3.8-0.5,6c-9.5-5.1-13-12.4-10.8-21.9
			c2.4-10.6,8.4-19.2,16-26.8c18.7-18.7,37.3-37.3,56-56c1.4-1.4,3-2.7,4.6-3.8c1.1,0.8,1.6,1.1,2.2,1.6
			c19.2,20,38.4,40.1,57.4,60.1c6.8,7.3,12.7,15.4,14.6,25.7c2.2,10.3-3.2,19.5-13,22.2c0.3-1.4,0.5-2.7,0.8-3.8
			c2.4-14.1-6.2-27.6-20.3-30.8c-21.4-5.1-40.3,16.8-33.8,39c5.4,19.5,26.5,34.6,48.2,35.7c28.7,1.6,64.4-26.5,59.5-67.9
			c-1.9-16.8-9.5-30.8-20.8-42.8c-25.2-26.5-50.9-53-76.3-79.3C268.4,201.6,262.5,196.2,256.3,190.5z"/>
	</g>
</g>
<rect x="-157.2" y="221.1" class="st1" width="331.8" height="75.1"/>
<rect x="363.5" y="221.1" class="st1" width="331.8" height="75.1"/>
</svg>
