<svg id="Layer_1_Image" data-name="Layer 1 Image" xmlns="http://www.w3.org/2000/svg" viewBox="0 0 80.02 80.45"><defs><style>.cls-1{fill:#b12526;}</style></defs><title>Logo_Red</title><path class="cls-1" d="M41.52,4.32c2.13,2.21,4.24,4.44,6.39,6.62l33,33.35c.14.14.27.29.35.38L76.17,50,41.47,15.26,6.86,49.88,1.21,44.29c2-2,4-4,6-6q6.65-6.57,13.31-13.14,10-9.92,20-19.85a9.79,9.79,0,0,0,.77-1Z" transform="translate(-1.21 -4.32)"/><path class="cls-1" d="M41.29,24.64,71.37,54.71,41,84.77,11.25,54.67ZM50.71,61a3.74,3.74,0,0,1,0-.58,4.22,4.22,0,0,0-2-4.47,4.38,4.38,0,0,0-4.91.65c-2.17,2-2.12,5.3.11,7.73a8.71,8.71,0,0,0,14.4-2.63c1.79-3.95.78-8.51-2.6-12Q51,44.89,46.28,40c-1.64-1.73-3.22-3.52-4.83-5.28-.46.4-.57.46-.66.54-5,5-10.11,9.9-15.08,14.94a10.07,10.07,0,0,0-2.92,8.56,9.23,9.23,0,0,0,5.76,7.68,7.94,7.94,0,0,0,8.26-1.14,6.14,6.14,0,0,0,2.81-5.86,4.58,4.58,0,0,0-4.29-4,4.1,4.1,0,0,0-4.25,3.46,10.9,10.9,0,0,0,0,2,2.76,2.76,0,0,1-1.84-3.64,12.38,12.38,0,0,1,2.37-3.95c2.9-3.09,6-6,9-9a5.72,5.72,0,0,1,.57-.47,7,7,0,0,1,.56.48c2.93,3.06,5.91,6.07,8.74,9.22a11.72,11.72,0,0,1,2.17,3.67A2.89,2.89,0,0,1,50.71,61Z" transform="translate(-1.21 -4.32)"/></svg>