<?xml version="1.0" encoding="utf-8"?>
<!-- Generator: Adobe Illustrator 24.0.2, SVG Export Plug-In . SVG Version: 6.00 Build 0)  -->
<svg version="1.1" id="Layer_1" xmlns="http://www.w3.org/2000/svg" xmlns:xlink="http://www.w3.org/1999/xlink" x="0px" y="0px"
	 viewBox="0 0 486 486" style="enable-background:new 0 0 486 486;" xml:space="preserve">
<style type="text/css">
	.st0{fill:none;}
	.st1{fill:#FFFFFF;}
	.st2{clip-path:url(#SVGID_2_);}
	.st3{fill:#282828;}
	.st4{fill:#023000;}
	.st5{fill:#B11116;}
	.st6{clip-path:url(#SVGID_5_);}
	.st7{fill:none;}
</style>
<g id="Layer_2_1_">
</g>
<g id="Layer_1_2_">
	<g id="Layer_3">
	</g>
	<g id="Layer_1_1_">
		<g>
			<circle class="st0" cx="242.9" cy="243" r="242.1"/>
			<path class="st1" d="M242.9,485.1c74.5,0,141.1-33.7,185.5-86.6l-19.7-66.4l-76.5-70c0,0-3.2-86.2-3.2-92.6s-30.2-70-30.2-70
				s-30.2-33.4-44.2-37.7c-14-4.3-34.5,5.4-34.5,5.4l-34.5,47.4L133,253.5l-20.5,87.2l-44.4,69.9
				C112.2,456.5,174.2,485.1,242.9,485.1z"/>
			<g>
				<g>
					<g>
						<defs>
							<circle id="SVGID_1_" cx="242.9" cy="243" r="242.1"/>
						</defs>
						<clipPath id="SVGID_2_">
							<use xlink:href="#SVGID_1_"  style="overflow:visible;"/>
						</clipPath>
						<g class="st2">
							<g>
								<path d="M200.8,104.7c8-7,34.4-11.5,37.9-16c1.8-2.3,2.8-0.4,2.5-17.7c-0.1-6.5,0.2-7.2-1.2-9.5s-13.7-7.9-40.1,4.2
									s-46.4,68.6-51,82.6s-14.8,30.6-26,37.6c-11.1,7-32,11.6-33.4,29.2s0.5,26.4-10.2,34.3s-23.5,9.9-20.4,29.2
									c4.4,27.4-6.1,40.3-11.6,48.7c-36.4,55.6,30.4,90.9,30.4,90.9s-44.2-51.6,82.2-118.9c24.1-12.8,36.7-8.8,51.5-25.7
									c6.5-7.4,5.6-28.8,2.8-36.6c-2.4-6.9-12.1-9.3-19.9-39.9C189.1,177.1,188.4,115.4,200.8,104.7z"/>
							</g>
							<g>
								<g>
									<polygon class="st3" points="192.6,187.8 194.2,197.1 194.8,230.6 192.6,230.6 									"/>
								</g>
								<g>
									<path class="st4" d="M193.7,278.1L193.7,278.1c-1.6,0-6.1-1.3-6.1-3l3.1-46.8c0-1.6,1.3-3,2.9-3l0,0c1.6,0,2.9,1.3,2.9,3
										l3.1,46.8C199.8,276.8,195.3,278.1,193.7,278.1z"/>
								</g>
							</g>
							<g>
								<path d="M312.5,397.3c-1.6,0-3.1-0.9-3.8-2.4L284.4,342c-1-2.1,0-4.6,2-5.5c2.1-1,4.6,0,5.5,2l24.4,52.9c1,2.1,0,4.6-2,5.5
									C313.8,397.1,313.1,397.3,312.5,397.3z"/>
							</g>
							<g>
								<path d="M269.4,391.6c-1.6,0-3.1-0.9-3.8-2.4l-24.4-52.9c-1-2.1,0-4.6,2-5.5c2.1-1,4.6,0,5.5,2l24.4,52.9c1,2.1,0,4.6-2,5.5
									C270.5,391.5,269.9,391.6,269.4,391.6z"/>
							</g>
							<g>
								<path d="M255.4,422.9c-1.6,0-3.1-0.9-3.8-2.4l-24.4-52.9c-1-2.1,0-4.6,2-5.5c2.1-1,4.6,0,5.5,2l24.4,52.9c1,2.1,0,4.6-2,5.5
									C256.6,422.8,256,422.9,255.4,422.9z"/>
							</g>
							<g>
								<g>
									<g>
										
											<rect id="SVGID_3_" x="98.6" y="317.9" transform="matrix(0.9536 -0.3012 0.3012 0.9536 -92.1766 90.7606)" class="st5" width="299.4" height="52.9"/>
									</g>
									<g>
										<g>
											<defs>
												
													<rect id="SVGID_4_" x="98.6" y="317.9" transform="matrix(0.9536 -0.3012 0.3012 0.9536 -92.1766 90.7606)" width="299.4" height="52.9"/>
											</defs>
											<clipPath id="SVGID_5_">
												<use xlink:href="#SVGID_4_"  style="overflow:visible;"/>
											</clipPath>
											<g class="st6">
												<g>
													<polygon points="84.6,435.3 77.2,431.3 98.2,391 59.5,370.9 63.3,363.5 109.4,387.4 													"/>
												</g>
												<g>
													<polygon points="102.2,429.6 94.7,425.8 115.7,385.5 77,365.3 80.8,357.9 126.9,381.9 													"/>
												</g>
												<g>
													<polygon points="119.7,424.1 112.2,420.3 133.3,379.9 94.5,359.8 98.3,352.4 144.4,376.4 													"/>
												</g>
												<g>
													<polygon points="137.2,418.6 129.8,414.8 150.8,374.4 112,354.3 115.8,346.9 161.9,370.9 													"/>
												</g>
												<g>
													<polygon points="154.7,413.1 147.3,409.3 168.3,368.9 129.4,348.8 133.4,341.4 179.4,365.3 													"/>
												</g>
												<g>
													<polygon points="172.2,407.5 164.8,403.8 185.8,363.4 146.9,343.3 150.9,335.8 196.9,359.8 													"/>
												</g>
												<g>
													<polygon points="189.7,402 182.3,398.3 203.2,357.8 164.4,337.8 168.4,330.3 214.4,354.3 													"/>
												</g>
												<g>
													<polygon points="207.2,396.5 199.8,392.6 220.7,352.3 181.9,332.3 185.9,324.8 231.9,348.8 													"/>
												</g>
												<g>
													<polygon points="224.7,391 217.3,387.1 238.2,346.8 199.4,326.8 203.4,319.3 249.4,343.3 													"/>
												</g>
												<g>
													<polygon points="242.2,385.4 234.8,381.6 255.7,341.3 216.9,321.1 220.8,313.8 266.9,337.8 													"/>
												</g>
												<g>
													<polygon points="259.6,379.9 252.3,376 273.1,335.8 234.4,315.6 238.3,308.3 284.4,332.3 													"/>
												</g>
												<g>
													<polygon points="277.1,374.4 269.6,370.5 290.6,330.3 251.9,310.1 255.8,302.8 301.9,326.8 													"/>
												</g>
												<g>
													<polygon points="294.5,368.9 287.1,365 308.1,324.8 269.4,304.6 273.3,297.1 319.4,321.1 													"/>
												</g>
												<g>
													<polygon points="312,363.3 304.6,359.5 325.6,319.3 286.9,299 290.8,291.6 336.9,315.6 													"/>
												</g>
												<g>
													<polygon points="329.5,357.8 322.1,354 343.1,313.6 304.4,293.5 308.3,286.1 354.4,310.1 													"/>
												</g>
												<g>
													<polygon points="347,352.3 339.6,348.4 360.6,308.1 321.9,288 325.8,280.6 371.8,304.5 													"/>
												</g>
												<g>
													<polygon points="364.5,346.8 357.1,342.9 378.1,302.6 339.4,282.5 343.3,275 389.3,299 													"/>
												</g>
												<g>
													<polygon points="382,341.3 374.6,337.4 395.6,297.1 356.9,276.9 360.8,269.5 406.8,293.5 													"/>
												</g>
											</g>
										</g>
									</g>
								</g>
								<g>
									<path d="M110.8,419.8l-18.5-58.4l293.4-92.7l18.5,58.4L110.8,419.8z M102.8,366.8l13.4,42.5l277.5-87.6l-13.4-42.5
										L102.8,366.8z"/>
								</g>
							</g>
							<g>
								<path d="M187.3,288c0,0-48.2,10.1-37.6,61.2s55,56.1,55,56.1s-98.4,69.8-159.1-16.6C11.3,339.6,187.3,288,187.3,288z"/>
							</g>
							<g>
								<path d="M380,397.3c-1.6,0-3.1-0.9-3.8-2.4L351.9,342c-1-2.1,0-4.6,2-5.5c2.1-1,4.6,0,5.5,2l24.4,52.9c1,2.1,0,4.6-2,5.5
									C381.1,397.1,380.5,397.3,380,397.3z"/>
							</g>
							<g>
								<path d="M360.5,426.4c-1.6,0-3.1-0.9-3.8-2.4l-24.4-52.9c-1-2.1,0-4.6,2-5.5c2.1-1,4.6,0,5.5,2l24.3,52.9c1,2.1,0,4.6-2,5.5
									C361.8,426.3,361.1,426.4,360.5,426.4z"/>
							</g>
							<g>
								<g>
									<path d="M285.8,104.7c-8-7-34.4-11.5-37.9-16c-1.8-2.3-2.8-0.4-2.5-17.7c0.1-6.5-0.2-7.2,1.2-9.5s13.7-7.9,40.1,4.2
										s46.4,68.6,51,82.6c4.6,13.9,14.8,30.6,26,37.6c11.1,7,32,11.6,33.4,29.2s-0.5,26.4,10.2,34.3s23.5,9.9,20.4,29.2
										c-4.4,27.4,6.1,40.3,11.6,48.7c36.4,55.6-26,86.5-26,86.5S390.1,296,326.7,296.5c-27.3,0.2-36.4-5.8-51.2-22.7
										c-6.5-7.4-5.6-28.8-2.8-36.6c2.5-6.9,12.1-9.3,19.9-39.9C297.5,177.1,298.1,115.4,285.8,104.7z"/>
								</g>
								<g>
									<g>
										<line class="st7" x1="292.9" y1="174.1" x2="292.9" y2="230.6"/>
										<polygon class="st3" points="291.8,199.3 294,188.2 294,230.6 291.8,230.6 										"/>
									</g>
									<g>
										<path class="st4" d="M292.9,278.1L292.9,278.1c1.6,0,6.1-1.3,6.1-3l-3.1-46.8c0-1.6-1.3-3-3-3l0,0c-1.6,0-3,1.3-3,3
											l-3.1,46.8C286.8,276.8,291.3,278.1,292.9,278.1z"/>
									</g>
								</g>
							</g>
						</g>
					</g>
				</g>
			</g>
		</g>
	</g>
	<g id="Layer_2_2_">
	</g>
	<g id="Layer_4">
	</g>
</g>
</svg>
