<?xml version="1.0" encoding="UTF-8" standalone="no"?>
<!-- Created with Inkscape (http://www.inkscape.org/) -->

<svg
   xmlns:dc="http://purl.org/dc/elements/1.1/"
   xmlns:cc="http://creativecommons.org/ns#"
   xmlns:rdf="http://www.w3.org/1999/02/22-rdf-syntax-ns#"
   xmlns:svg="http://www.w3.org/2000/svg"
   xmlns="http://www.w3.org/2000/svg"
   xmlns:sodipodi="http://sodipodi.sourceforge.net/DTD/sodipodi-0.dtd"
   xmlns:inkscape="http://www.inkscape.org/namespaces/inkscape"
   version="1.1"
   id="svg191"
   width="756.15997"
   height="756.15997"
   viewBox="0 0 756.15997 756.15997"
   sodipodi:docname="wahine.svg"
   inkscape:version="0.92.3 (2405546, 2018-03-11)">
  <metadata
     id="metadata197">
    <rdf:RDF>
      <cc:Work
         rdf:about="">
        <dc:format>image/svg+xml</dc:format>
        <dc:type
           rdf:resource="http://purl.org/dc/dcmitype/StillImage" />
        <dc:title></dc:title>
      </cc:Work>
    </rdf:RDF>
  </metadata>
  <defs
     id="defs195" />
  <sodipodi:namedview
     pagecolor="#ffffff"
     bordercolor="#666666"
     borderopacity="1"
     objecttolerance="10"
     gridtolerance="10"
     guidetolerance="10"
     inkscape:pageopacity="0"
     inkscape:pageshadow="2"
     inkscape:window-width="1920"
     inkscape:window-height="1043"
     id="namedview193"
     showgrid="false"
     inkscape:pagecheckerboard="true"
     inkscape:zoom="0.95"
     inkscape:cx="379.48022"
     inkscape:cy="399.1819"
     inkscape:window-x="0"
     inkscape:window-y="18"
     inkscape:window-maximized="0"
     inkscape:current-layer="svg191" />
  <g
     inkscape:groupmode="layer"
     id="layer6"
     inkscape:label="background"
     style="display:inline">
    <circle
       style="fill:#ffffff;stroke-width:1.00686574"
       id="path286"
       cx="372.72577"
       cy="381.4342"
       r="322.72577" />
  </g>
  <g
     inkscape:groupmode="layer"
     id="layer5"
     inkscape:label="avatar"
     style="display:inline" />
  <g
     transform="translate(-5.108137,3.7856922)"
     style="display:inline"
     id="g201">
    <path
       style="fill:#9ca0a3;stroke-width:0.31999999"
       d="m 212.95999,630.0626 c -14.54417,-0.70995 -28.39271,-3.83907 -41.23551,-9.31725 -5.25615,-2.24208 -7.04912,-3.12957 -12.36449,-6.12035 -3.77914,-2.12637 -4.31529,-2.56134 -9.71029,-7.87782 C 125.01704,582.473 104.76374,554.22321 88.489897,521.43998 70.803645,485.8115 59.962852,447.49979 56.3453,407.83998 c -1.72999,-18.96617 -1.790134,-39.06723 -0.172822,-57.75999 4.256716,-49.19869 19.369903,-95.87391 44.709562,-138.08 32.01016,-53.31655 78.72945,-96.33338 134.47795,-123.820678 30.93171,-15.251161 63.92397,-25.384566 97.92,-30.075625 23.43312,-3.2335 48.77561,-3.910038 72.15999,-1.926368 123.53581,10.479398 230.14947,90.857901 274.53734,206.980061 10.25318,26.82311 17.04121,56.25279 19.67987,85.32261 1.74486,19.22307 1.74525,40.06844 0,59.19999 -2.80733,30.79264 -9.95981,60.75731 -21.37795,89.56096 -7.69392,19.40874 -19.45754,42.10877 -30.45015,58.75904 -10.44275,15.81741 -22.95519,31.53718 -35.42527,44.50595 -3.1009,3.22486 -6.43037,5.52765 -7.43485,5.14217 -0.23994,-0.0921 -0.60391,-1.00454 -0.80887,-2.02774 -2.6216,-13.08733 -10.43852,-39.07894 -16.48707,-54.82038 -4.70563,-12.24643 -10.91891,-25.91968 -16.14067,-35.52 -3.57078,-6.5649 -7.36304,-12.8161 -7.89984,-13.02208 -0.58585,-0.2248 -27.65373,8.24736 -27.83814,8.71325 -0.0721,0.18214 6.81421,15.37414 15.30291,33.76 14.91302,32.30035 15.4345,33.49443 15.44784,35.37228 0.0109,1.54362 -0.14486,2.17498 -0.75734,3.06883 -1.31216,1.91498 -2.72804,2.66772 -5.01786,2.66772 -1.70544,0 -2.19779,-0.14148 -3.38346,-0.97226 -1.53219,-1.07363 0.36116,2.87917 -25.02704,-52.24944 -4.55372,-9.88806 -8.44172,-17.97817 -8.63999,-17.97801 -0.57776,0 -66.23386,20.78368 -66.47971,21.04396 -0.1225,0.12967 4.09222,9.59575 9.36598,21.03575 5.27379,11.44 9.75126,21.39952 9.94992,22.13229 0.90736,3.34675 -2.19104,7.13366 -5.8367,7.13366 -1.58999,0 -3.62039,-1.0144 -4.54573,-2.27114 -0.4353,-0.59113 -5.22074,-10.72281 -10.63431,-22.51481 -5.41356,-11.792 -9.93926,-21.54339 -10.05715,-21.66973 -0.27091,-0.29043 -35.34156,10.76598 -35.48156,11.18598 -0.0569,0.17066 1.92646,4.72237 4.40745,10.11495 2.48096,5.39254 4.59149,10.30153 4.69005,10.90883 0.0986,0.60733 0.0826,1.61933 -0.0356,2.24893 -0.41731,2.22435 -3.42634,4.63699 -5.7832,4.63699 -1.29597,0 -3.33379,-0.98272 -4.36624,-2.1056 -0.46544,-0.50621 -3.02394,-5.66285 -5.68557,-11.45923 -2.6616,-5.79639 -4.90928,-10.60887 -4.99482,-10.69443 -0.0856,-0.0855 -4.91728,1.34336 -10.73715,3.17529 -9.64374,3.03562 -10.56892,3.38787 -10.43852,3.97443 0.0787,0.35399 5.36339,11.94759 11.7438,25.76359 7.18407,15.55622 11.66019,25.62332 11.75696,26.44204 0.41469,3.50948 -2.28013,6.51796 -5.83846,6.51796 -1.55184,0 -3.46589,-0.79821 -4.40547,-1.83719 -0.31101,-0.34393 -6.02173,-12.47078 -12.6905,-26.94857 -6.6688,-14.47779 -12.24633,-26.43482 -12.39453,-26.5712 -0.31366,-0.28855 -66.34332,20.50889 -66.34702,20.8974 -0.004,0.44612 9.55549,4.8952 13.75752,6.40276 2.2,0.78928 5.872,1.8864 8.16,2.43801 2.288,0.55162 4.58071,1.10768 5.09495,1.23565 0.5142,0.128 0.99184,0.40349 1.0614,0.61222 0.2465,0.73943 -11.13092,7.58932 -21.19635,12.76151 -31.63226,16.2544 -64.06749,24.23459 -92.79999,22.83203 z M 354.33071,479.50568 c 116.91548,-36.92167 103.99049,-32.81114 103.79238,-33.00925 -0.0871,-0.0871 -1.60717,-0.64442 -3.37796,-1.23853 -9.14752,-3.06902 -17.03408,-8.46861 -26.43475,-18.09875 -9.72131,-9.95859 -11.48828,-12.97341 -13.1047,-22.35917 -2.06467,-11.98841 -0.81757,-29.66783 2.58259,-36.61187 0.48599,-0.99248 2.75603,-4.14083 5.04458,-6.99632 2.28851,-2.85548 5.09405,-6.61401 6.23449,-8.35228 4.17117,-6.35776 8.17744,-15.26176 11.32026,-25.15952 2.1303,-6.70915 2.31206,-7.2 2.66569,-7.2 0.19072,0 0.33802,6.46662 0.38954,17.10361 l 0.0828,17.10359 -1.141,1.16851 c -0.94691,0.96969 -1.16889,1.46246 -1.3048,2.89638 -0.0901,0.95037 -1.07699,15.33591 -2.19312,31.9679 -1.78179,26.55136 -1.97372,30.32733 -1.57337,30.95588 1.11225,1.74627 6.05341,3.1999 9.02877,2.65616 2.26003,-0.413 5.7183,-2.07424 5.97017,-2.86788 0.18768,-0.59132 -3.85021,-62.55462 -4.16841,-63.96652 -0.092,-0.40832 -0.66964,-1.24471 -1.28356,-1.85863 l -1.11625,-1.11622 0.088,-23.58141 0.0879,-23.58137 1.66992,-7.04 c 3.20067,-13.49321 4.34781,-21.3022 4.34826,-29.6 0,-8.79499 -1.01914,-12.36026 -5.07911,-17.76 -6.52883,-8.68333 -7.87872,-16.00265 -6.01968,-32.64 0.72087,-6.4515 0.72756,-13.74066 0.015,-16.48 -0.92508,-3.55676 -2.64592,-6.64818 -4.98761,-8.96 -4.42995,-4.37347 -10.93043,-7.255 -30.35072,-13.45381 -10.58298,-3.378 -16.5001,-5.60595 -18.85357,-7.09883 -1.93539,-1.22769 -4.07635,-3.56354 -4.75507,-5.18795 -0.8505,-2.03554 -1.14797,-7.46262 -1.0464,-19.09141 0.0973,-11.14971 0.11094,-11.35459 0.8625,-13.01773 0.42,-0.92936 0.67324,-1.7801 0.56281,-1.89054 -0.23939,-0.23937 -6.84182,0.34903 -7.12803,0.63524 -0.10915,0.10917 0.0686,0.81646 0.39495,1.57176 0.531,1.22884 0.60496,2.515 0.70313,12.22877 0.12048,11.9216 -0.22723,17.72738 -1.18781,19.83363 -0.3288,0.72098 -1.36467,2.07633 -2.30192,3.01188 -2.72326,2.71836 -6.78796,4.43214 -21.86764,9.21988 -18.68637,5.93287 -25.42176,8.95678 -29.77997,13.36994 -4.87246,4.93392 -6.26748,10.92674 -5.14661,22.10917 1.08681,10.84256 1.28259,14.92899 0.89885,18.7612 -0.6971,6.96163 -2.44409,11.49931 -6.51367,16.9188 -3.55491,4.73409 -4.49909,7.25277 -5.15002,13.73812 -0.7669,7.64089 1.04668,21.2309 4.78575,35.86188 l 1.1858,4.64 0.10017,23.73955 0.10017,23.73958 -1.09322,1.09322 c -0.60127,0.60128 -1.17746,1.36646 -1.28041,1.70041 -0.31951,1.03652 -4.40984,63.26867 -4.21062,64.06243 0.13313,0.53044 0.76939,1.02138 2.17778,1.68045 3.88801,1.81943 6.78738,1.85597 10.67978,0.13456 2.90756,-1.28585 2.86983,1.84631 0.41032,-34.07021 -1.1992,-17.51199 -2.18999,-31.87558 -2.20177,-31.91907 -0.0118,-0.0435 -0.52667,-0.63836 -1.14423,-1.32192 l -1.12282,-1.24281 0.0828,-17.07811 c 0.0541,-11.15703 0.19377,-17.06154 0.40283,-17.03037 0.37326,0.0557 0.61585,0.71261 2.40469,6.51229 1.85844,6.02531 5.1139,14.1566 7.53463,18.81952 2.84858,5.48704 5.8905,10.03689 10.20586,15.26502 4.64089,5.62246 5.99616,8.18845 7.03977,13.32864 1.14487,5.63897 1.56426,10.32819 1.55495,17.38681 -0.0147,11.15655 -1.75296,19.94624 -4.93767,24.968 -3.46963,5.47104 -12.53075,13.13498 -19.92966,16.85661 -4.22558,2.12544 -8.71065,3.80643 -19.80044,7.42115 -10.84289,3.53427 -13.11938,4.51443 -18.09474,7.79098 -16.29956,10.73408 -25.63632,25.90733 -27.60643,44.86339 -0.23967,2.30605 -0.31103,5.97606 -0.19289,9.92 0.18738,6.25542 0.35808,7.69987 0.90996,7.69987 0.16136,0 45.68457,-14.33443 101.16268,-31.8543 z M 532.83003,622.6267 c -0.59946,-0.1914 -1.53783,-0.79581 -2.08519,-1.3432 -0.72637,-0.72637 -5.43913,-10.63085 -17.44336,-36.6594 -9.04646,-19.61526 -16.59347,-36.33299 -16.77113,-37.15052 -0.82013,-3.77418 2.92355,-7.5385 6.80057,-6.83815 1.67248,0.30215 3.44308,1.58228 4.17626,3.01943 2.72595,5.34333 33.02195,71.7398 33.17725,72.71104 0.41289,2.58211 -1.62276,5.59811 -4.27572,6.33484 -1.44611,0.40157 -2.13331,0.38736 -3.57868,-0.074 z"
       id="path215"
       inkscape:connector-curvature="0" />
    <path
       style="fill:#77858c;stroke-width:0.31999999"
       d="m 213.11999,629.7491 c -15.56638,-0.71853 -29.67316,-4.05344 -43.84,-10.36394 -4.25064,-1.89344 -11.09892,-5.61277 -13.6,-7.38627 -3.8819,-2.75261 -18.52227,-18.30787 -27.42064,-29.13418 -9.04449,-11.00406 -20.7292,-27.37939 -23.61264,-33.09142 -0.50606,-1.00253 -2.14947,-3.86259 -3.65201,-6.35571 C 89.637862,524.57339 79.078947,501.60184 71.991802,480.31998 52.313768,421.2292 50.138619,356.7276 65.797674,296.63999 91.718134,197.17686 163.93167,115.70605 259.67999,77.903293 309.01117,58.42666 362.946,51.4885 416.15998,57.773742 c 9.4648,1.117913 15.96458,2.158777 25.92,4.150787 77.44944,15.497094 146.72966,59.399411 194.40902,123.195461 11.95533,15.99653 21.03997,30.77278 30.19958,49.12 22.47158,45.01172 33.7881,93.18755 33.7881,143.84 0,44.20255 -8.62839,86.43772 -25.97181,127.12937 -3.46838,8.13769 -11.53261,24.41244 -15.49472,31.27062 -1.52518,2.64 -3.54179,6.28701 -4.48134,8.10448 -0.93952,1.81744 -4.20992,7.07344 -7.26749,11.68 -10.28589,15.49664 -21.31421,29.44982 -33.7312,42.67715 -2.99542,3.19094 -4.47946,4.51046 -6.07827,5.40457 -2.00845,1.1232 -2.1369,1.15338 -2.54359,0.59722 -0.23555,-0.32218 -0.42841,-0.81024 -0.42857,-1.08458 -1.6e-4,-0.27436 -0.86691,-4.01516 -1.92611,-8.31292 -6.35117,-25.77005 -15.42797,-51.35501 -25.72298,-72.50592 -5.58541,-11.47517 -12.34969,-23.2 -13.38451,-23.2 -0.47664,0 -15.22435,4.55341 -26.56611,8.2024 -0.836,0.26896 -1.52,0.67274 -1.52,0.89728 0,0.22451 6.92486,15.44096 15.38861,33.81427 8.46374,18.37331 15.46528,33.86602 15.55897,34.42816 0.42167,2.52998 -1.2759,5.41494 -3.64662,6.19737 -2.51427,0.8298 -5.51568,-0.31113 -6.77143,-2.57398 -0.34352,-0.61904 -7.35081,-15.7415 -15.57177,-33.6055 -16.75174,-36.40128 -16.02947,-34.88 -16.56051,-34.88 -0.57379,0 -66.59075,20.84422 -66.90189,21.12361 -0.14553,0.13072 4.14467,9.81392 9.53383,21.51828 5.38915,11.70432 9.88057,21.78646 9.98089,22.4047 0.54087,3.33305 -2.56333,6.56845 -5.98653,6.23952 -2.20659,-0.21203 -3.68422,-1.26778 -4.75859,-3.39991 -0.50054,-0.9934 -5.1144,-10.9502 -10.25299,-22.1262 -5.13859,-11.176 -9.51184,-20.49527 -9.71834,-20.70947 -0.29328,-0.30426 -4.27977,0.84582 -18.21452,5.25472 -11.6097,3.67324 -17.83911,5.79043 -17.83911,6.06297 0,0.23034 2.10378,4.98259 4.67504,10.56055 4.50826,9.77987 4.66996,10.203 4.53258,11.85974 -0.29226,3.52442 -3.70173,5.90778 -7.0263,4.91171 -2.49184,-0.74656 -3.07194,-1.6616 -8.30093,-13.0936 -2.68509,-5.87037 -5.05127,-10.73833 -5.25818,-10.81773 -0.65677,-0.25203 -21.41356,6.46554 -21.51046,6.96144 -0.0485,0.24848 5.19078,11.8993 11.64294,25.89072 8.50935,18.45239 11.77399,25.85063 11.88698,26.93799 0.47017,4.52537 -4.44944,7.55404 -8.45619,5.20592 -1.66253,-0.97431 -0.62912,1.10985 -15.30442,-30.86496 -5.77561,-12.584 -10.73062,-23.11335 -11.0111,-23.39853 -0.46935,-0.47725 -3.0328,0.28022 -32.18995,9.512 -17.424,5.51683 -32.436,10.25417 -33.36,10.52749 -0.924,0.27331 -1.68,0.62624 -1.68,0.78428 0,0.43079 7.64166,4.21828 11.8696,5.88298 4.35774,1.71581 9.34063,3.22525 13.28003,4.02278 1.54963,0.31373 2.87165,0.73284 2.93782,0.93133 0.25466,0.764 -11.93955,8.07613 -21.68745,13.00467 -22.52272,11.38743 -45.26045,18.61479 -67.00011,21.29642 -4.30728,0.53133 -17.43071,1.36947 -19.07989,1.21859 -0.264,-0.024 -2.712,-0.14694 -5.44,-0.27289 z m 143.52,-150.66198 c 56.14399,-17.73715 102.05295,-32.3736 102.0199,-32.52541 -0.0331,-0.15184 -1.76106,-0.87178 -3.84,-1.59984 -11.23143,-3.93331 -20.08112,-10.5888 -32.05837,-24.10976 -4.42413,-4.9943 -6.39155,-9.68505 -7.54192,-17.98137 -1.44211,-10.40032 -0.59341,-24.75223 1.90362,-32.19072 1.00384,-2.99037 2.07129,-4.65021 6.251,-9.72003 8.25101,-10.00813 13.41789,-20.22925 18.23664,-36.07565 0.54787,-1.8016 1.12954,-3.35808 1.29261,-3.45888 0.18058,-0.11158 0.29651,6.38592 0.29651,16.6175 0,16.68336 -0.005,16.804 -0.66934,17.26954 -1.67303,1.17184 -1.54272,0.0243 -3.83437,33.77244 -2.08314,30.67757 -2.14326,31.90509 -1.60029,32.67504 0.82221,1.16589 2.75002,2.15434 5.32871,2.73216 2.05366,0.4602 2.4639,0.46128 4.40284,0.0115 2.56551,-0.59497 5.18122,-1.86326 5.65024,-2.73961 0.38615,-0.72154 -3.58438,-62.32656 -4.14662,-64.33741 -0.1743,-0.62333 -0.7521,-1.55027 -1.28403,-2.05987 l -0.96714,-0.92659 v -23.02381 -23.02381 l 1.42471,-6.11632 c 4.01622,-17.24186 5.45926,-28.27533 4.67984,-35.78239 -0.67882,-6.5382 -1.62477,-9.07001 -5.11632,-13.69392 -2.82868,-3.74603 -4.58663,-7.27061 -5.68653,-11.40103 -0.76576,-2.87574 -0.84327,-3.71845 -0.86426,-9.39897 -0.0154,-4.18657 0.17603,-7.97752 0.58199,-11.52 1.5895,-13.87029 0.29808,-20.44621 -5.06397,-25.78597 -4.53891,-4.52002 -10.86531,-7.31099 -31.55546,-13.92107 -8.27526,-2.64378 -14.14076,-4.77794 -16.65033,-6.05822 -1.93091,-0.9851 -4.7704,-3.74176 -5.47354,-5.31394 -0.99219,-2.21851 -1.28185,-6.93833 -1.17593,-19.1608 l 0.0998,-11.52 0.88,-1.79189 c 0.484,-0.98555 0.88,-1.90743 0.88,-2.04864 0,-0.34202 -8.01427,0.0468 -8.37372,0.40625 -0.16077,0.16078 0.0298,0.95387 0.44656,1.85743 0.70425,1.52717 0.7304,1.92407 0.83001,12.59687 0.1065,11.4128 -0.21164,17.39215 -1.02956,19.34968 -0.66372,1.5885 -3.17965,4.18316 -5.12023,5.28044 -2.60781,1.47456 -8.3152,3.58974 -18.14384,6.72416 -20.1143,6.41461 -26.03907,9.0698 -30.70204,13.7592 -2.69283,2.70811 -4.09725,5.19616 -4.99392,8.84717 -0.742,3.02127 -0.72064,10.31553 0.0501,17.09933 0.80839,7.11545 0.82984,15.53613 0.0489,19.2 -1.05544,4.95167 -3.0068,9.01273 -6.31902,13.15083 -2.99763,3.74507 -4.20317,7.10794 -4.82933,13.47158 -0.74849,7.60682 0.95401,20.49885 4.6402,35.13758 l 1.32957,5.28 0.0931,23.63027 0.0931,23.63024 -1.12177,1.2417 c -0.61698,0.68291 -1.19754,1.56928 -1.29013,1.96973 -0.0926,0.40045 -1.11388,14.83366 -2.26951,32.07385 -1.56894,23.40592 -2.01443,31.53613 -1.75875,32.09728 0.4152,0.9113 3.64808,2.49187 6.01486,2.94071 2.00414,0.38009 4.54522,-0.0166 6.93284,-1.08253 2.43827,-1.08845 2.8575,-1.70538 2.7848,-4.09783 -0.21629,-7.12006 -4.17031,-61.96799 -4.52142,-62.71894 -0.22514,-0.48153 -0.74716,-1.09683 -1.16003,-1.36736 l -0.75068,-0.49181 v -16.63264 c 0,-10.87507 0.11077,-16.6326 0.32,-16.6326 0.176,0 0.32,0.0685 0.32,0.15225 0,0.7217 3.35337,10.68221 5.01221,14.88775 3.91566,9.92713 7.38091,15.864 14.28855,24.48 2.25764,2.816 4.54116,5.97276 5.07444,7.01504 2.27952,4.45529 3.57184,12.983 3.56806,23.54495 -0.004,10.29514 -1.26512,17.67562 -3.98458,23.31373 -1.0975,2.27539 -1.86982,3.27043 -5.18416,6.67917 -6.03334,6.20518 -11.8039,10.23299 -19.41452,13.5512 -1.672,0.72899 -8.41205,3.10099 -14.97788,5.27113 -12.38755,4.09431 -13.94755,4.76736 -19.26212,8.31063 -4.5017,3.00134 -7.80819,5.77257 -11.54258,9.67411 -4.36805,4.56358 -7.15524,8.50554 -9.89881,14.00003 -2.64646,5.3 -4.17256,9.81341 -5.33879,15.78941 -0.7786,3.98973 -0.85497,5.06774 -0.87637,12.37059 -0.0129,4.4 0.0955,8.69798 0.24082,9.55107 0.26139,1.53424 0.27528,1.54887 1.28,1.34823 0.55865,-0.11156 46.95173,-14.71504 103.09573,-32.45216 z m 175.99999,143.04556 c -0.704,-0.33456 -1.60368,-0.96019 -1.99927,-1.39034 -0.95292,-1.03609 -33.6343,-72.01929 -33.88751,-73.60287 -0.56964,-3.56234 2.7807,-6.74599 6.51059,-6.18666 3.07833,0.46163 2.26569,-1.06547 20.43299,38.39837 9.60192,20.85776 16.57053,36.38262 16.67584,37.15075 0.55177,4.02582 -4.05338,7.37923 -7.73264,5.63075 z"
       id="path213"
       inkscape:connector-curvature="0" />
    <path
       style="fill:#6c7a83;stroke-width:0.31999999"
       d="m 208.63999,629.43316 c -18.10214,-1.65997 -33.81888,-6.50016 -49.05853,-15.10826 -2.71688,-1.53462 -4.45404,-2.83756 -7.40549,-5.55452 -8.21837,-7.56541 -21.8675,-22.95303 -31.01367,-34.96391 -6.9273,-9.09702 -15.32829,-21.46492 -16.74943,-24.6584 -0.42389,-0.95254 -2.10948,-3.97654 -3.74574,-6.72 C 76.881536,502.54782 61.941761,457.12245 57.29755,410.55998 56.090391,398.4571 55.846539,392.99864 55.846539,378.07999 c 0,-20.90704 1.113193,-34.75866 4.345558,-54.07248 C 79.099453,211.03338 158.02408,115.79213 265.91999,75.748067 345.02427,46.389621 434.02638,49.463086 510.67432,84.200045 592.43671,121.25489 655.25156,190.77211 683.69316,275.67999 c 9.2222,27.5315 14.56448,55.78 16.17651,85.53696 0.48883,9.024 0.20224,33.62748 -0.4872,41.82303 -2.88493,34.29338 -10.11543,65.13421 -22.4496,95.7561 -4.83728,12.0094 -11.60058,26.07142 -17.73984,36.8839 -1.64886,2.904 -3.80246,6.864 -4.78573,8.8 -4.53885,8.93673 -18.70486,28.94957 -29.10668,41.12 -9.51914,11.13766 -15.44948,17.37696 -17.61197,18.52956 -2.58759,1.37917 -2.77488,1.32967 -3.21443,-0.84956 -0.20413,-1.012 -1.15952,-5.008 -2.12311,-8.88 -5.24627,-21.08112 -12.35184,-42.11517 -20.60406,-60.99245 -5.8497,-13.38144 -17.14381,-34.22141 -18.32301,-33.80969 -0.21123,0.0738 -6.50406,2.05161 -13.98406,4.39523 -7.48,2.34365 -13.76874,4.41997 -13.97498,4.61405 -0.28269,0.26601 3.45792,8.66163 15.19885,34.11286 14.18794,30.75577 15.57251,33.90419 15.55917,35.38051 -0.0474,5.24307 -6.71223,7.48329 -9.81037,3.2975 -0.43885,-0.59289 -7.83469,-16.37801 -16.4352,-35.07801 -12.93184,-28.1176 -15.74502,-34 -16.26009,-34 -0.817,0 -66.50951,20.74582 -66.888,21.12336 -0.17405,0.1736 3.66221,8.86598 9.56067,21.66326 8.85139,19.20391 9.85184,21.54067 9.85635,23.02163 0.015,4.94 -6.01945,7.30637 -9.45085,3.70605 -0.47417,-0.49754 -4.96147,-9.83769 -10.41299,-21.6743 -11.41091,-24.77597 -10.65878,-23.20195 -11.08182,-23.19197 -0.62752,0.0147 -35.45357,11.1368 -35.72621,11.40944 -0.14793,0.14794 1.83008,4.80352 4.39565,10.34576 2.65002,5.7247 4.73322,10.64342 4.82342,11.38877 0.55136,4.5551 -4.85324,7.70371 -8.65481,5.04211 -1.25847,-0.88112 -1.63962,-1.58928 -6.35379,-11.80557 -2.75828,-5.9775 -5.22509,-11.0007 -5.48183,-11.16265 -0.51574,-0.32532 -20.89043,5.94172 -21.55376,6.62976 -0.28316,0.29369 2.37328,6.33334 11.26224,25.60572 6.39805,13.87175 11.79955,25.72653 12.00333,26.344 0.58349,1.768 0.12733,3.79527 -1.17942,5.2417 -1.31783,1.45869 -2.85895,2.04761 -4.7889,1.83011 -1.65264,-0.1863 -2.68237,-0.80134 -3.73443,-2.23059 -0.42371,-0.57562 -6.15613,-12.76448 -12.73872,-27.08634 -6.58259,-14.32185 -12.1135,-26.09094 -12.29091,-26.1535 -0.4992,-0.17603 -66.84347,20.87587 -66.96813,21.24985 -0.14546,0.43639 4.30272,2.84221 8.89048,4.80848 4.91136,2.10496 10.59191,3.97581 15.22907,5.01559 2.09328,0.46937 3.86941,0.91667 3.94695,0.99398 0.63718,0.63549 -14.05822,9.25552 -24.46096,14.34829 -22.02394,10.78202 -43.49329,17.39286 -65.12,20.05168 -5.9649,0.73334 -22.79024,1.09098 -28.16,0.59856 z M 356.346,479.2508 c 56.4817,-17.83603 102.66861,-32.55575 102.63757,-32.71043 -0.031,-0.15469 -1.68685,-0.82711 -3.67956,-1.49424 -6.82739,-2.2857 -12.88182,-5.71495 -18.82403,-10.66196 -5.38166,-4.48035 -14.60883,-14.13727 -16.83836,-17.62255 -2.16445,-3.38362 -3.82624,-9.16932 -4.61754,-16.07664 -0.51213,-4.47021 -0.2224,-18.30999 0.47235,-22.56381 1.38832,-8.50045 2.08285,-9.98611 8.02275,-17.16118 7.46535,-9.01773 12.67597,-19.06983 17.29251,-33.36 1.00925,-3.124 1.95949,-5.68 2.11165,-5.68 0.15216,0 0.27664,7.34288 0.27664,16.31753 v 16.31754 l -0.96409,0.85901 c -0.53024,0.47244 -1.10816,1.37356 -1.28426,2.00246 -0.17606,0.6289 -1.25994,15.236 -2.40861,32.46022 -2.33843,35.06519 -2.35917,32.17901 0.24039,33.43539 0.75712,0.36596 2.33865,0.91725 3.51456,1.22516 1.87948,0.49216 2.38243,0.50953 4.16,0.14384 2.60035,-0.53495 4.80524,-1.4866 5.73334,-2.4745 l 0.7343,-0.78163 -2.00096,-30.15251 c -1.10054,-16.58387 -2.12774,-31.14432 -2.28268,-32.35651 -0.23216,-1.81616 -0.45421,-2.38196 -1.26186,-3.21524 l -0.98013,-1.01123 v -23.68061 -23.6806 l 1.4177,-6.06416 c 5.46201,-23.36332 6.03552,-36.606 1.93257,-44.62416 -0.40528,-0.792 -1.61356,-2.592 -2.68512,-4 -3.92361,-5.15562 -5.82864,-10.10666 -6.46406,-16.79975 -0.37338,-3.93291 -0.24352,-6.64797 0.86477,-18.08025 1.49769,-15.44925 -1.39469,-22.23275 -11.80717,-27.69149 -4.47222,-2.34454 -9.69177,-4.2993 -24.23984,-9.07797 -15.61721,-5.12986 -18.95056,-6.5885 -21.31885,-9.32892 -0.847,-0.98008 -1.72432,-2.3111 -1.94956,-2.95782 -0.67114,-1.92675 -1.02039,-7.98144 -1.01895,-17.6638 0,-10.1932 0.21843,-12.46398 1.40762,-14.7383 0.45149,-0.86346 0.82089,-1.6667 0.82089,-1.78498 0,-0.24545 -7.14566,0.10262 -8.23999,0.40137 -0.89012,0.243 -0.89735,0.59966 -0.051,2.51306 0.61338,1.38668 0.68327,2.28849 0.83994,10.84068 0.18797,10.26172 -0.23335,18.67331 -1.03098,20.58228 -0.26867,0.64305 -1.1495,1.94289 -1.95741,2.88853 -2.28268,2.67191 -5.61846,4.1034 -22.8406,9.80161 -19.61584,6.49019 -24.92775,8.87381 -29.15565,13.08301 -2.34622,2.33584 -4.0343,5.31509 -4.94808,8.73274 -0.85637,3.20293 -0.92256,8.8165 -0.1943,16.48 0.99193,10.43822 1.05283,11.79277 0.70735,15.73371 -0.59994,6.84354 -2.40253,11.70107 -6.17488,16.63983 -2.66452,3.48836 -3.89832,5.92453 -4.79694,9.47168 -1.01436,4.00396 -0.99255,14.12902 0.0449,20.87478 0.91014,5.91761 2.2923,12.82884 3.89504,19.47639 l 1.26251,5.23639 v 23.68482 23.68483 l -1.06948,1.18377 c -0.84385,0.93405 -1.10863,1.54983 -1.25504,2.91879 -0.10206,0.95427 -1.09676,15.46285 -2.21044,32.24134 l -2.02486,30.50634 1.00432,0.89734 c 1.2241,1.09373 4.0172,2.17642 6.3098,2.44589 2.6567,0.31222 8.02303,-1.53875 8.82941,-3.04547 0.23152,-0.43261 -0.27856,-9.685 -1.75097,-31.76045 -1.14272,-17.13248 -2.16082,-31.64854 -2.26245,-32.25789 -0.11438,-0.68582 -0.60107,-1.50051 -1.27753,-2.13853 l -1.09276,-1.03059 v -16.34147 c 0,-10.24426 0.11479,-16.3415 0.30766,-16.3415 0.16922,0 0.4694,0.612 0.66707,1.36 1.65385,6.25833 5.26287,15.61043 8.5654,22.19552 2.82224,5.62745 5.61491,9.85484 10.68319,16.17171 4.38359,5.46345 5.36164,7.15417 6.32368,10.93149 1.42765,5.6055 1.76557,9.19257 1.76938,18.78127 0.004,9.88004 -0.3511,13.28756 -1.96438,18.85463 -1.47476,5.08915 -2.91504,7.34454 -7.78135,12.18537 -6.04083,6.00916 -11.01852,9.424 -18.49493,12.68807 -1.88965,0.82499 -8.548,3.17779 -14.79633,5.22844 -12.00408,3.93965 -14.4565,4.99962 -19.73822,8.53092 -15.93075,10.65113 -25.13871,25.50102 -27.32919,44.07443 -0.39198,3.32361 -0.25563,17.17216 0.17917,18.19814 0.13053,0.308 0.48563,0.56 0.78911,0.56 0.30348,0 46.76407,-14.59312 103.24575,-32.42918 z m 177.41398,143.14514 c -1.5504,-0.27334 -2.40477,-0.79065 -3.30355,-2.00025 -0.845,-1.13722 -33.29027,-71.53725 -33.62176,-72.95274 -0.11296,-0.4824 -0.0475,-1.50428 0.1456,-2.27091 1.0607,-4.21254 6.54205,-5.60387 9.4648,-2.40246 0.7175,0.78592 33.48416,71.77132 33.84537,73.3224 0.42727,1.83462 -1.00502,4.76598 -2.79744,5.72524 -1.06365,0.56925 -2.51261,0.79389 -3.73302,0.57872 z"
       id="path211"
       inkscape:connector-curvature="0" />
    <path
       style="fill:#62727b;stroke-width:0.31999999"
       d="m 211.03999,629.54817 c -8.80583,-0.71699 -15.16951,-1.71347 -22.15661,-3.46947 -10.91083,-2.74215 -22.18055,-7.41965 -31.44339,-13.05056 -3.68795,-2.24192 -15.5508,-14.27527 -25.30447,-25.66816 -10.63624,-12.42378 -25.12103,-32.50995 -27.80686,-38.56 -0.42972,-0.968 -1.95788,-3.776 -3.39589,-6.24 C 92.527644,528.158 87.321104,517.85592 81.295546,503.7042 68.148071,472.82581 59.867585,439.30907 56.979326,405.27998 c -1.501434,-17.68966 -1.440922,-38.35785 0.164425,-56.15999 7.006698,-77.6993 41.363775,-149.19607 97.736239,-203.38826 33.79075,-32.48385 74.46852,-57.381647 118.08,-72.273672 27.05052,-9.236953 51.90755,-14.358371 80.96,-16.680601 8.60444,-0.687773 30.77996,-0.96033 39.74473,-0.488499 54.02912,2.843651 103.40307,17.735887 149.23766,45.013262 23.0983,13.74643 43.60889,29.78086 63.1848,49.39564 52.80025,52.90511 85.2535,121.58535 92.46271,195.67729 1.18256,12.15364 1.43578,17.79831 1.42947,31.86483 -0.006,13.43514 -0.21833,18.42029 -1.28118,30.08 -3.00096,32.92087 -11.25664,65.44701 -24.51094,96.56938 -3.49491,8.20636 -11.49891,24.36147 -15.65152,31.59062 -1.6176,2.816 -3.35459,6.11353 -3.86,7.32784 -1.94071,4.66288 -12.98627,21.08099 -21.65779,32.19216 -9.71216,12.44454 -22.28979,26.35606 -25.48707,28.18998 -2.17072,1.24512 -2.61085,1.20378 -2.87357,-0.26998 -0.4272,-2.39648 -3.7072,-15.41956 -5.29914,-21.04 -8.50861,-30.03991 -19.50153,-56.74374 -32.01129,-77.76128 -1.36224,-2.28874 -2.74819,-4.49642 -3.07984,-4.90598 l -0.60301,-0.74468 -13.912,4.38269 c -7.65162,2.4105 -14.08832,4.54762 -14.30378,4.74915 -0.30464,0.28496 3.06832,7.87056 15.173,34.12327 14.23465,30.87212 15.56403,33.89782 15.55644,35.40675 -0.0243,4.8112 -5.87052,7.24966 -9.20995,3.8414 -0.71024,-0.72489 -5.46195,-10.72598 -16.77718,-35.31161 -8.68247,-18.86518 -15.94925,-34.36035 -16.14842,-34.43376 -0.1992,-0.0734 -14.18614,4.23683 -31.08214,9.57831 -16.896,5.34144 -31.91513,10.07945 -33.37584,10.52886 -1.4607,0.44941 -2.72806,1.00534 -2.81635,1.23536 -0.0883,0.23005 4.18477,9.83523 9.49565,21.34489 11.18105,24.23149 11.07779,23.90311 8.43769,26.82535 -2.15929,2.39008 -5.86118,2.37132 -7.9287,-0.0402 -0.49917,-0.58221 -5.41002,-10.84352 -10.91302,-22.80291 -5.50301,-11.9594 -10.16845,-21.79866 -10.36765,-21.86506 -0.48016,-0.16006 -35.2953,10.79686 -35.816,11.2719 -0.32006,0.292 0.57933,2.49738 4.32,10.59316 4.19773,9.08486 4.7224,10.40803 4.7079,11.87238 -0.0307,3.08944 -2.25161,5.23197 -5.42368,5.23197 -1.96758,0 -3.56003,-0.78567 -4.47936,-2.21002 -0.40825,-0.63248 -2.86723,-5.79398 -5.46441,-11.46998 -3.88509,-8.49066 -4.83466,-10.32 -5.35683,-10.32 -0.77396,0 -21.06829,6.35856 -21.45347,6.72173 -0.15072,0.14214 5.08956,11.89987 11.64511,26.12835 7.40832,16.07929 11.9705,26.35433 12.05476,27.14992 0.26752,2.52652 -1.93335,5.291 -4.61242,5.7936 -1.44931,0.2719 -3.39651,-0.32596 -4.59462,-1.41066 -0.71136,-0.64406 -4.03399,-7.55363 -13.09875,-27.23974 -6.68007,-14.50723 -12.28301,-26.51421 -12.45098,-26.68218 -0.452,-0.452 -67.06902,20.65107 -67.06902,21.24624 0,0.56346 7.26374,4.25555 11.88119,6.03907 3.94694,1.52455 9.70287,3.25287 13.47881,4.04727 1.452,0.30547 2.64,0.66457 2.64,0.79798 0,0.32419 -6.48114,4.41283 -11.84,7.46925 -5.9281,3.38112 -17.68788,9.21933 -23.7172,11.77459 -21.3226,9.03664 -41.14985,14.10944 -60.9228,15.58717 -4.0705,0.30419 -15.73352,0.38179 -18.88,0.1256 z m 144.96,-150.13334 c 56.67199,-17.91014 103.01551,-32.6992 102.98562,-32.86451 -0.0298,-0.16531 -1.75788,-0.88243 -3.84,-1.59357 -11.04019,-3.77075 -19.591,-10.09117 -31.3839,-23.19769 -3.87328,-4.30474 -5.27545,-6.57088 -6.63769,-10.72762 -2.72759,-8.32294 -3.22714,-24.48534 -1.09892,-35.55379 1.20932,-6.28931 1.90525,-7.62557 7.6665,-14.72054 5.27177,-6.49216 8.48435,-11.63879 11.69462,-18.73511 2.56883,-5.67843 5.06832,-12.60038 7.05648,-19.54201 0.60931,-2.12733 0.75728,0.94032 0.75728,15.70012 v 16.26013 l -0.93673,0.89747 c -0.51524,0.4936 -1.08868,1.27655 -1.27434,1.73988 -0.53914,1.34537 -4.62614,63.69059 -4.23194,64.5558 0.77188,1.69408 5.83732,3.54711 8.8361,3.23242 2.07226,-0.21747 5.03562,-1.33568 6.2519,-2.35914 0.83424,-0.70195 0.9545,-1.01241 0.95104,-2.45513 -0.003,-0.90836 -0.93254,-15.38423 -2.06748,-32.16864 -2.18999,-32.38723 -2.08061,-31.43399 -3.74298,-32.62106 -0.55843,-0.39875 -0.58557,-1.52073 -0.58557,-24.20361 v -23.78546 l 1.26775,-5.23639 c 1.60896,-6.64578 2.99113,-13.55719 3.89494,-19.47639 1.03392,-6.77118 1.0513,-16.88177 0.0359,-20.89123 -0.91849,-3.62694 -2.04294,-5.85466 -4.7326,-9.37606 -2.46592,-3.22844 -4.33079,-6.94425 -5.32087,-10.6019 -1.06403,-3.93092 -1.16224,-12.11103 -0.25891,-21.56827 1.06762,-11.17718 0.728,-15.73247 -1.53043,-20.52841 -3.46285,-7.35356 -9.88714,-10.86224 -33.83578,-18.47962 -10.04934,-3.1964 -15.50358,-5.19655 -18.44326,-6.76338 -2.04278,-1.08879 -4.46154,-3.64643 -5.26342,-5.56568 -0.75415,-1.80491 -1.13588,-10.91819 -0.88967,-21.24007 l 0.21696,-9.09463 0.90563,-1.78537 c 1.36724,-2.69535 1.36756,-2.69497 -1.88624,-2.45194 -1.54,0.11502 -3.56966,0.29435 -4.51033,0.39851 -1.63856,0.18143 -1.70365,0.22462 -1.55024,1.02872 0.0881,0.46163 0.38339,1.41533 0.65632,2.11933 0.41786,1.07799 0.49798,3.30012 0.50781,14.08 0.0115,12.65709 -0.19629,16.02429 -1.09367,17.72271 -0.756,1.43082 -3.46329,3.99547 -5.20697,4.93263 -2.48944,1.33797 -8.12989,3.40445 -16.80259,6.15592 -24.91184,7.90348 -31.50967,11.42852 -35.06849,18.73614 -2.45129,5.03347 -2.78355,9.42028 -1.61954,21.38323 0.84265,8.66031 0.72464,17.09663 -0.28914,20.66937 -1.38902,4.89516 -2.82709,7.7486 -5.68168,11.27368 -2.14005,2.64271 -3.43416,5.18731 -4.35658,8.56632 -0.61656,2.25862 -0.70073,3.38879 -0.71495,9.6 -0.0208,9.1007 0.8996,15.41958 4.47251,30.70416 l 1.41755,6.06416 v 23.60848 23.60844 l -0.75068,0.49188 c -0.41288,0.27052 -0.93243,0.88582 -1.15458,1.36736 -0.38099,0.82588 -4.46714,58.2079 -4.4867,63.00707 -0.007,1.80012 0.075,2.04144 0.94697,2.77513 1.16528,0.98051 4.12025,2.12026 6.10727,2.35562 1.83535,0.21734 4.29919,-0.29719 6.57228,-1.37251 3.06505,-1.45002 3.00438,1.84844 0.62126,-33.78432 -1.15743,-17.30602 -2.17814,-31.79309 -2.26824,-32.19354 -0.0901,-0.40045 -0.66417,-1.28189 -1.2757,-1.95878 l -1.11188,-1.23072 v -16.02234 c 0,-8.81229 0.11584,-16.09392 0.25743,-16.18144 0.14159,-0.0875 0.94418,2.028 1.78355,4.70112 3.19163,10.16439 7.4403,19.66775 11.75809,26.30023 1.14576,1.76 3.91424,5.48112 6.15219,8.26918 4.49264,5.59699 5.62154,7.53549 6.57194,11.28506 1.44944,5.71836 1.79091,9.38364 1.77065,19.00575 -0.0214,10.13847 -0.43677,13.59079 -2.35302,19.5554 -1.45456,4.52752 -2.83171,6.60915 -7.3841,11.16144 -8.23417,8.23395 -14.61117,11.79027 -30.23673,16.8623 -13.25982,4.30409 -15.99986,5.35702 -19.62546,7.54157 -21.71963,13.08684 -32.56456,33.89631 -30.78561,59.07206 0.30506,4.31715 0.64636,6.2319 1.09025,6.11664 0.0225,-0.006 46.40882,-14.66439 103.08082,-32.57456 z m 176.1653,142.3927 c -0.60758,-0.32586 -1.36202,-0.93786 -1.67648,-1.36 -0.3145,-0.42215 -7.98713,-16.87021 -17.0503,-36.5512 -15.15703,-32.91395 -16.47853,-35.9191 -16.47853,-37.47267 0,-3.10266 2.2464,-5.30368 5.41302,-5.30368 2.3009,0 3.87306,1.00179 4.97028,3.16704 0.43004,0.84867 7.98972,17.19625 16.79929,36.32793 14.74061,32.0121 16.01741,34.91987 16.01741,36.47767 0,1.95619 -0.80797,3.41593 -2.53495,4.57974 -1.37065,0.92368 -3.87388,0.98566 -5.45974,0.13517 z"
       id="path209"
       inkscape:connector-curvature="0" />
    <path
       style="fill:#ab1015;stroke-width:0.31999999"
       d="m 212.95999,629.41985 c -19.89939,-0.98205 -38.0786,-6.35728 -54.82602,-16.21095 -2.53009,-1.48864 -3.8982,-2.66806 -8.96,-7.72435 -11.84246,-11.8295 -22.84478,-24.7528 -32.86629,-38.60457 -3.83892,-5.30618 -10.0921,-14.67056 -11.08133,-16.59469 -1.4325,-2.7864 -2.71445,-13.19318 -2.35101,-19.08531 0.95516,-15.4849 5.63492,-27.9151 16.8062,-44.64 8.87309,-13.28422 12.73424,-23.3055 14.10984,-36.62083 0.56824,-5.50038 0.18932,-16.43942 -0.80984,-23.37917 -1.54554,-10.73465 -0.81863,-16.42976 2.81373,-22.0448 2.75009,-4.25123 6.05734,-6.92803 15.98025,-12.93404 6.86818,-4.15709 9.7856,-6.31498 12.66489,-9.36765 2.9921,-3.17226 4.56327,-5.78509 5.80748,-9.65773 1.57572,-4.90445 2.00699,-8.60579 2.87985,-24.71577 0.40909,-7.55047 0.78215,-10.58103 1.6481,-13.3882 1.45945,-4.73113 3.91633,-8.50409 8.16999,-12.54643 4.9774,-4.73011 9.31907,-7.3758 23.37161,-14.24204 5.14659,-2.51469 10.76259,-5.49755 12.48,-6.62858 6.92393,-4.55988 13.27756,-11.27415 19.60211,-20.71475 6.46687,-9.65302 10.93697,-18.85789 15.15146,-31.2 9.18517,-26.89871 20.41384,-51.94173 31.3504,-69.92 10.60746,-17.43725 21.96497,-30.0555 32.41041,-36.00809 5.38772,-3.07033 17.71585,-7.76431 25.08817,-9.55244 7.02521,-1.70393 9.05724,-1.94962 16.16,-1.95386 6.05788,-0.004 6.97222,0.0684 9.28,0.73033 4.15644,1.19227 5.59254,2.12915 6.72,4.38406 l 0.96,1.92 0.10416,11.04 c 0.10592,11.22763 -0.22346,17.40869 -1.02912,19.31265 -0.23447,0.55404 -1.20224,1.80084 -2.15066,2.77066 -2.72202,2.78343 -5.93318,4.15225 -21.08438,8.98755 -11.21536,3.57924 -17.64144,5.92624 -22.24,8.12274 -11.94011,5.70319 -15.34242,12.65374 -13.7875,28.1664 1.39727,13.93997 1.39799,18.95285 0.004,24.48 -0.68189,2.70274 -2.9061,7.37205 -4.57293,9.6 -5.30837,7.09538 -6.23285,10.01403 -6.2336,19.68 -6.4e-4,8.27745 1.49336,18.13083 4.67727,30.84795 l 1.32995,5.31205 0.10149,23.58819 0.10148,23.58816 -1.07648,1.21184 c -0.59207,0.66649 -1.16226,1.44889 -1.26708,1.73865 -0.10484,0.28976 -1.15713,14.89984 -2.33843,32.46679 l -2.14783,31.93993 1.20268,1.03965 c 1.168,1.00966 3.90104,2.08886 6.30955,2.49146 2.59583,0.43392 8.18406,-1.62506 9.03579,-3.32922 0.34035,-0.68106 0.0521,-6.07331 -1.74864,-32.71475 -2.0547,-30.39821 -2.18882,-31.94512 -2.85011,-32.87382 -0.38167,-0.536 -0.90347,-1.09181 -1.15957,-1.23514 -0.39955,-0.22358 -0.45384,-2.52874 -0.38259,-16.24614 l 0.083,-15.9856 1.55025,4.8 c 4.59426,14.22499 9.90226,24.467 17.33055,33.44 5.44259,6.57436 6.18745,7.94355 7.348,13.5072 1.927,9.23788 2.1688,21.02035 0.62246,30.33279 -0.68995,4.15514 -2.52266,9.55664 -4.05174,11.94164 -1.53613,2.39603 -7.81732,8.68707 -11.11952,11.13699 -7.25755,5.38435 -11.37943,7.17459 -32,13.89827 -7.22508,2.35587 -9.24971,3.27264 -13.76,6.23053 -10.64443,6.98073 -17.95864,15.07193 -22.84569,25.27257 -4.49779,9.38813 -6.20976,18.25453 -5.83891,30.24 0.21475,6.94029 0.36552,8.11904 1.07324,8.39062 0.66461,0.25504 206.81135,-64.91062 206.81135,-65.37574 0,-0.20816 -1.65248,-0.91267 -3.67216,-1.5655 -4.15779,-1.344 -10.12249,-4.1929 -13.44784,-6.42301 -5.53072,-3.70912 -11.89488,-9.54944 -18.80828,-17.26009 -4.78039,-5.33168 -6.42941,-8.84138 -7.74602,-16.48628 -2.10259,-12.20867 -0.7728,-30.20905 2.71517,-36.75315 0.54841,-1.02892 2.73097,-4.01248 4.85014,-6.63011 2.11917,-2.61763 4.78771,-6.17686 5.93011,-7.90944 4.32346,-6.55696 8.22941,-15.12944 11.69504,-25.66729 l 1.68384,-5.12 0.083,15.95158 0.083,15.95158 -0.80503,0.63322 c -0.44278,0.34829 -0.97347,0.94608 -1.17936,1.32845 -0.23043,0.42797 -1.20172,12.93357 -2.52691,32.53516 -1.70729,25.25325 -2.07549,32.00551 -1.77977,32.64 0.88048,1.88932 6.5608,3.80192 9.5951,3.23076 3.30147,-0.62148 5.89658,-1.89783 6.62467,-3.25824 0.24045,-0.44928 -0.25193,-9.38608 -1.76624,-32.05773 -1.15481,-17.28912 -2.16816,-31.744 -2.25193,-32.12195 -0.0838,-0.37792 -0.65722,-1.29155 -1.2744,-2.03027 l -1.12215,-1.34311 v -22.87488 -22.87487 l 1.58477,-6.79572 c 4.77894,-20.49285 5.83251,-32.78636 3.52381,-41.11756 -0.85946,-3.10153 -1.73626,-4.73947 -4.42871,-8.27337 -5.64723,-7.41211 -7.25766,-14.96317 -5.98934,-28.08305 1.1585,-11.9837 1.23898,-13.58436 0.85475,-16.99898 -0.82486,-7.33051 -3.57817,-11.95813 -9.32768,-15.67747 -4.68611,-3.03143 -11.40313,-5.68674 -27.06028,-10.69721 -15.53133,-4.9702 -18.98244,-6.51093 -21.60781,-9.64666 -2.17843,-2.60188 -2.26083,-3.19841 -2.42765,-17.57186 -0.16102,-13.87311 -0.0406,-15.27532 1.5129,-17.6178 1.15059,-1.73491 2.04102,-2.26197 5.62979,-3.3323 2.40973,-0.71869 3.66509,-0.87727 8.04211,-1.01587 5.71254,-0.18088 9.31427,0.15083 15.13334,1.39378 9.00349,1.92313 22.00413,6.70457 28.27421,10.39884 9.7872,5.76654 19.88867,16.65028 29.6735,31.97149 11.84195,18.54227 23.90096,44.8997 33.83127,73.94521 2.55884,7.48446 4.36364,11.82734 7.41676,17.84711 8.16208,16.09281 18.31104,28.4969 28.32426,34.6179 1.232,0.75311 6.56,3.49613 11.84,6.0956 5.28,2.59946 10.896,5.4734 12.48,6.38653 12.20297,7.03468 18.44528,14.98063 19.66284,25.02933 0.17543,1.44781 0.54288,6.88036 0.81655,12.07236 0.27366,5.192 0.70697,11.096 0.96294,13.12 1.12963,8.93257 3.38791,13.83785 8.70986,18.91875 2.82595,2.69795 5.04438,4.26902 11.92781,8.447 7.39024,4.48564 9.25648,5.83415 12.35264,8.92583 2.3759,2.37245 3.15692,3.40966 4.23836,5.62841 2.03392,4.17303 2.43402,6.09536 2.43088,11.68 -0.003,2.9593 -0.20627,6.02714 -0.53356,8 -0.292,1.76 -0.70138,4.90778 -0.90973,6.99507 -0.49959,5.005 -0.2216,17.22896 0.48493,21.32493 1.80976,10.49159 5.57817,19.87664 11.86182,29.54144 6.61888,10.18035 7.99529,12.47293 10.51577,17.51491 6.07882,12.1601 8.65296,22.25549 8.64477,33.90365 -0.005,7.43328 -0.28761,8.87862 -2.42797,12.42531 -7.28185,12.06653 -20.01811,29.35226 -30.45567,41.33469 -8.15229,9.35888 -12.12845,13.44112 -14.38701,14.77084 -1.2016,0.70746 -2.25459,1.21648 -2.33994,1.13114 -0.0853,-0.0854 -0.71693,-2.61344 -1.40352,-5.61795 -4.87257,-21.3223 -13.38137,-46.9415 -22.22723,-66.92403 -3.20838,-7.24768 -8.64838,-18.04579 -12.25219,-24.32 -4.19181,-7.29789 -5.10352,-8.64 -5.86925,-8.64 -0.67209,0 -26.8687,8.16653 -27.8831,8.69229 -0.308,0.15961 -0.56,0.49254 -0.56,0.73984 0,0.24729 6.92771,15.47021 15.39491,33.82873 10.89094,23.61367 15.44182,33.80733 15.5553,34.84272 0.51027,4.65642 -5.31818,7.56701 -8.72512,4.35709 -0.87175,-0.82135 -4.17341,-7.73904 -16.9056,-35.42067 -10.66164,-23.17994 -15.99437,-34.43494 -16.34979,-34.5071 -0.68106,-0.13828 -66.74864,20.70275 -67.32592,21.23795 -0.36352,0.33702 1.20243,3.96128 9.39369,21.74108 5.40647,11.73514 9.90442,21.89181 9.99543,22.57037 0.11885,0.88599 -0.0383,1.65463 -0.55741,2.72698 -1.0936,2.2591 -3.3761,3.36822 -5.94128,2.887 -2.49491,-0.46806 -2.63114,-0.71328 -13.42691,-24.16943 -5.54707,-12.05223 -10.20963,-22.03719 -10.36125,-22.1888 -0.22486,-0.22487 -33.28195,9.92038 -35.78605,10.98275 -0.396,0.16803 -0.72,0.53395 -0.72,0.81321 0,0.27924 2.04032,4.92634 4.53405,10.32685 5.07341,10.9872 5.35885,11.99805 4.03805,14.29914 -0.82682,1.44041 -2.9848,2.72435 -4.5599,2.71296 -1.41018,-0.0102 -3.49792,-1.05591 -4.22381,-2.11568 -0.34557,-0.50451 -1.68202,-3.22128 -2.96986,-6.03728 -6.28256,-13.73738 -7.47299,-16.16 -7.94067,-16.16 -0.26544,0 -4.38755,1.23158 -9.16026,2.73683 -13.35084,4.21072 -12.67759,3.9657 -12.67759,4.61379 0,0.31818 5.28399,12.00643 11.74223,25.97392 11.34903,24.54502 11.74285,25.46163 11.76,27.372 0.0138,1.52336 -0.13571,2.18365 -0.65164,2.88 -2.13056,2.87539 -6.03024,3.19974 -8.34324,0.69386 -0.38096,-0.41271 -6.14963,-12.60938 -12.81923,-27.10368 -6.66963,-14.49431 -12.33395,-26.46375 -12.58736,-26.59875 -0.471,-0.25098 -66.6919,20.49516 -67.27222,21.07548 -0.16543,0.16544 -0.20108,0.46211 -0.0792,0.65927 0.40424,0.65408 8.90211,4.71414 13.36908,6.38742 4.13776,1.54995 12.33654,3.86986 13.67648,3.86986 1.46777,0 0.71197,0.76048 -3.10938,3.12851 -29.10906,18.03875 -61.98343,29.54221 -90.6455,31.71888 -6.58498,0.50009 -12.74749,0.61145 -18.4,0.33248 z m 319.67999,-7.6217 c -0.704,-0.32329 -1.52231,-0.86077 -1.8185,-1.1944 -0.93437,-1.05257 -33.55142,-72.19472 -33.75296,-73.61971 -0.36825,-2.60377 1.66602,-5.20941 4.46525,-5.71936 1.43981,-0.26227 3.62643,0.46541 4.63767,1.54336 0.73632,0.7849 33.2319,71.03146 33.74361,72.94445 0.46317,1.73165 0.0493,3.308 -1.24467,4.74022 -1.70547,1.88778 -3.78291,2.33747 -6.0304,1.30544 z"
       id="path207"
       inkscape:connector-curvature="0" />
    <path
       style="fill:#601413;stroke-width:0.31999999"
       d="m 212.95999,629.41985 c -19.89939,-0.98205 -38.0786,-6.35728 -54.82602,-16.21095 -2.53009,-1.48864 -3.8982,-2.66806 -8.96,-7.72435 -11.84246,-11.8295 -22.84478,-24.7528 -32.86629,-38.60457 -3.83892,-5.30618 -10.0921,-14.67056 -11.08133,-16.59469 -1.4325,-2.7864 -2.71445,-13.19318 -2.35101,-19.08531 0.95516,-15.4849 5.63492,-27.9151 16.8062,-44.64 8.87309,-13.28422 12.73424,-23.3055 14.10984,-36.62083 0.56824,-5.50038 0.18932,-16.43942 -0.80984,-23.37917 -1.54554,-10.73465 -0.81863,-16.42976 2.81373,-22.0448 2.75009,-4.25123 6.05734,-6.92803 15.98025,-12.93404 6.86818,-4.15709 9.7856,-6.31498 12.66489,-9.36765 2.9921,-3.17226 4.56327,-5.78509 5.80748,-9.65773 1.57572,-4.90445 2.00699,-8.60579 2.87985,-24.71577 0.40909,-7.55047 0.78215,-10.58103 1.6481,-13.3882 1.45945,-4.73113 3.91633,-8.50409 8.16999,-12.54643 4.9774,-4.73011 9.31907,-7.3758 23.37161,-14.24204 5.14659,-2.51469 10.76259,-5.49755 12.48,-6.62858 6.92393,-4.55988 13.27756,-11.27415 19.60211,-20.71475 6.46687,-9.65302 10.93697,-18.85789 15.15146,-31.2 9.18517,-26.89871 20.41384,-51.94173 31.3504,-69.92 10.60746,-17.43725 21.96497,-30.0555 32.41041,-36.00809 5.38772,-3.07033 17.71585,-7.76431 25.08817,-9.55244 7.02521,-1.70393 9.05724,-1.94962 16.16,-1.95386 6.05788,-0.004 6.97222,0.0684 9.28,0.73033 4.15644,1.19227 5.59254,2.12915 6.72,4.38406 l 0.96,1.92 0.10416,11.04 c 0.10592,11.22763 -0.22346,17.40869 -1.02912,19.31265 -0.23447,0.55404 -1.20224,1.80084 -2.15066,2.77066 -2.72202,2.78343 -5.93318,4.15225 -21.08438,8.98755 -11.21536,3.57924 -17.64144,5.92624 -22.24,8.12274 -11.94011,5.70319 -15.34242,12.65374 -13.7875,28.1664 1.39727,13.93997 1.39799,18.95285 0.004,24.48 -0.68189,2.70274 -2.9061,7.37205 -4.57293,9.6 -5.30837,7.09538 -6.23285,10.01403 -6.2336,19.68 -6.4e-4,8.27745 1.49336,18.13083 4.67727,30.84795 l 1.32995,5.31205 0.10149,23.58819 0.10148,23.58816 -1.07648,1.21184 c -0.59207,0.66649 -1.16226,1.44889 -1.26708,1.73865 -0.10484,0.28976 -1.15713,14.89984 -2.33843,32.46679 l -2.14783,31.93993 1.20268,1.03965 c 1.168,1.00966 3.90104,2.08886 6.30955,2.49146 2.59583,0.43392 8.18406,-1.62506 9.03579,-3.32922 0.34035,-0.68106 0.0521,-6.07331 -1.74864,-32.71475 -2.0547,-30.39821 -2.18882,-31.94512 -2.85011,-32.87382 -0.38167,-0.536 -0.90347,-1.09181 -1.15957,-1.23514 -0.39955,-0.22358 -0.45384,-2.52874 -0.38259,-16.24614 l 0.083,-15.9856 1.55025,4.8 c 4.59426,14.22499 9.90226,24.467 17.33055,33.44 5.44259,6.57436 6.18745,7.94355 7.348,13.5072 1.927,9.23788 2.1688,21.02035 0.62246,30.33279 -0.68995,4.15514 -2.52266,9.55664 -4.05174,11.94164 -1.53613,2.39603 -7.81732,8.68707 -11.11952,11.13699 -7.25755,5.38435 -11.37943,7.17459 -32,13.89827 -7.22508,2.35587 -9.24971,3.27264 -13.76,6.23053 -10.64443,6.98073 -17.95864,15.07193 -22.84569,25.27257 -4.49779,9.38813 -6.20976,18.25453 -5.83891,30.24 0.21475,6.94029 0.36552,8.11904 1.07324,8.39062 0.66461,0.25504 206.81135,-64.91062 206.81135,-65.37574 0,-0.20816 -1.65248,-0.91267 -3.67216,-1.5655 -4.15779,-1.344 -10.12249,-4.1929 -13.44784,-6.42301 -5.53072,-3.70912 -11.89488,-9.54944 -18.80828,-17.26009 -4.78039,-5.33168 -6.42941,-8.84138 -7.74602,-16.48628 -2.10259,-12.20867 -0.7728,-30.20905 2.71517,-36.75315 0.54841,-1.02892 2.73097,-4.01248 4.85014,-6.63011 2.11917,-2.61763 4.78771,-6.17686 5.93011,-7.90944 4.32346,-6.55696 8.22941,-15.12944 11.69504,-25.66729 l 1.68384,-5.12 0.083,15.95158 0.083,15.95158 -0.80503,0.63322 c -0.44278,0.34829 -0.97347,0.94608 -1.17936,1.32845 -0.23043,0.42797 -1.20172,12.93357 -2.52691,32.53516 -1.70729,25.25325 -2.07549,32.00551 -1.77977,32.64 0.88048,1.88932 6.5608,3.80192 9.5951,3.23076 3.30147,-0.62148 5.89658,-1.89783 6.62467,-3.25824 0.24045,-0.44928 -0.25193,-9.38608 -1.76624,-32.05773 -1.15481,-17.28912 -2.16816,-31.744 -2.25193,-32.12195 -0.0838,-0.37792 -0.65722,-1.29155 -1.2744,-2.03027 l -1.12215,-1.34311 v -22.87488 -22.87487 l 1.58477,-6.79572 c 4.77894,-20.49285 5.83251,-32.78636 3.52381,-41.11756 -0.85946,-3.10153 -1.73626,-4.73947 -4.42871,-8.27337 -5.64723,-7.41211 -7.25766,-14.96317 -5.98934,-28.08305 1.1585,-11.9837 1.23898,-13.58436 0.85475,-16.99898 -0.82486,-7.33051 -3.57817,-11.95813 -9.32768,-15.67747 -4.68611,-3.03143 -11.40313,-5.68674 -27.06028,-10.69721 -15.53133,-4.9702 -18.98244,-6.51093 -21.60781,-9.64666 -2.17843,-2.60188 -2.26083,-3.19841 -2.42765,-17.57186 -0.16102,-13.87311 -0.0406,-15.27532 1.5129,-17.6178 1.15059,-1.73491 2.04102,-2.26197 5.62979,-3.3323 2.40973,-0.71869 3.66509,-0.87727 8.04211,-1.01587 5.71254,-0.18088 9.31427,0.15083 15.13334,1.39378 9.00349,1.92313 22.00413,6.70457 28.27421,10.39884 9.7872,5.76654 19.88867,16.65028 29.6735,31.97149 11.84195,18.54227 23.90096,44.8997 33.83127,73.94521 2.55884,7.48446 4.36364,11.82734 7.41676,17.84711 8.16208,16.09281 18.31104,28.4969 28.32426,34.6179 1.232,0.75311 6.56,3.49613 11.84,6.0956 5.28,2.59946 10.896,5.4734 12.48,6.38653 12.20297,7.03468 18.44528,14.98063 19.66284,25.02933 0.17543,1.44781 0.54288,6.88036 0.81655,12.07236 0.27366,5.192 0.70697,11.096 0.96294,13.12 1.12963,8.93257 3.38791,13.83785 8.70986,18.91875 2.82595,2.69795 5.04438,4.26902 11.92781,8.447 7.39024,4.48564 9.25648,5.83415 12.35264,8.92583 2.3759,2.37245 3.15692,3.40966 4.23836,5.62841 2.03392,4.17303 2.43402,6.09536 2.43088,11.68 -0.003,2.9593 -0.20627,6.02714 -0.53356,8 -0.292,1.76 -0.70138,4.90778 -0.90973,6.99507 -0.49959,5.005 -0.2216,17.22896 0.48493,21.32493 1.80976,10.49159 5.57817,19.87664 11.86182,29.54144 6.61888,10.18035 7.99529,12.47293 10.51577,17.51491 6.07882,12.1601 8.65296,22.25549 8.64477,33.90365 -0.005,7.43328 -0.28761,8.87862 -2.42797,12.42531 -7.28185,12.06653 -20.01811,29.35226 -30.45567,41.33469 -8.15229,9.35888 -12.12845,13.44112 -14.38701,14.77084 -1.2016,0.70746 -2.25459,1.21648 -2.33994,1.13114 -0.0853,-0.0854 -0.71693,-2.61344 -1.40352,-5.61795 -4.87257,-21.3223 -13.38137,-46.9415 -22.22723,-66.92403 -3.20838,-7.24768 -8.64838,-18.04579 -12.25219,-24.32 -4.19181,-7.29789 -5.10352,-8.64 -5.86925,-8.64 -0.67209,0 -26.8687,8.16653 -27.8831,8.69229 -0.308,0.15961 -0.56,0.49254 -0.56,0.73984 0,0.24729 6.92771,15.47021 15.39491,33.82873 10.89094,23.61367 15.44182,33.80733 15.5553,34.84272 0.51027,4.65642 -5.31818,7.56701 -8.72512,4.35709 -0.87175,-0.82135 -4.17341,-7.73904 -16.9056,-35.42067 -10.66164,-23.17994 -15.99437,-34.43494 -16.34979,-34.5071 -0.68106,-0.13828 -66.74864,20.70275 -67.32592,21.23795 -0.36352,0.33702 1.20243,3.96128 9.39369,21.74108 5.40647,11.73514 9.90442,21.89181 9.99543,22.57037 0.11885,0.88599 -0.0383,1.65463 -0.55741,2.72698 -1.0936,2.2591 -3.3761,3.36822 -5.94128,2.887 -2.49491,-0.46806 -2.63114,-0.71328 -13.42691,-24.16943 -5.54707,-12.05223 -10.20963,-22.03719 -10.36125,-22.1888 -0.22486,-0.22487 -33.28195,9.92038 -35.78605,10.98275 -0.396,0.16803 -0.72,0.53395 -0.72,0.81321 0,0.27924 2.04032,4.92634 4.53405,10.32685 5.07341,10.9872 5.35885,11.99805 4.03805,14.29914 -0.82682,1.44041 -2.9848,2.72435 -4.5599,2.71296 -1.41018,-0.0102 -3.49792,-1.05591 -4.22381,-2.11568 -0.34557,-0.50451 -1.68202,-3.22128 -2.96986,-6.03728 -6.28256,-13.73738 -7.47299,-16.16 -7.94067,-16.16 -0.26544,0 -4.38755,1.23158 -9.16026,2.73683 -13.35084,4.21072 -12.67759,3.9657 -12.67759,4.61379 0,0.31818 5.28399,12.00643 11.74223,25.97392 11.34903,24.54502 11.74285,25.46163 11.76,27.372 0.0138,1.52336 -0.13571,2.18365 -0.65164,2.88 -2.13056,2.87539 -6.03024,3.19974 -8.34324,0.69386 -0.38096,-0.41271 -6.14963,-12.60938 -12.81923,-27.10368 -6.66963,-14.49431 -12.33395,-26.46375 -12.58736,-26.59875 -0.471,-0.25098 -66.6919,20.49516 -67.27222,21.07548 -0.16543,0.16544 -0.20108,0.46211 -0.0792,0.65927 0.40424,0.65408 8.90211,4.71414 13.36908,6.38742 4.13776,1.54995 12.33654,3.86986 13.67648,3.86986 1.46777,0 0.71197,0.76048 -3.10938,3.12851 -29.10906,18.03875 -61.98343,29.54221 -90.6455,31.71888 -6.58498,0.50009 -12.74749,0.61145 -18.4,0.33248 z m 79.51462,-73.85267 c 4.78927,-9.21405 8.58572,-16.87191 8.43657,-17.01744 -0.14916,-0.14554 -8.19862,-4.37943 -17.8877,-9.40861 l -17.6165,-9.14397 -3.31798,1.04484 c -1.82488,0.57468 -3.36133,1.18729 -3.41432,1.3614 -0.053,0.17412 7.71152,4.36784 17.25448,9.31943 9.54295,4.95155 17.39196,9.20739 17.44224,9.4574 0.0503,0.25002 -3.08172,6.55556 -6.96,14.01229 -3.87828,7.45677 -7.05141,13.65501 -7.05141,13.77389 0,0.4783 3.90003,3.90013 4.14459,3.63642 0.14426,-0.15559 4.18077,-7.8216 8.97003,-17.03565 z m 9.26804,14.64707 3.10949,-0.98573 9.82854,-18.90365 c 5.40571,-10.39702 9.71396,-19.01388 9.57393,-19.14857 -0.14003,-0.13469 -8.19517,-4.36634 -17.90029,-9.40362 l -17.64567,-9.15872 -3.58252,1.15815 c -1.97039,0.63699 -3.4914,1.24928 -3.38002,1.36064 0.11137,0.11139 8.00149,4.25638 17.53359,9.2111 9.53211,4.95469 17.38706,9.17642 17.45545,9.3816 0.10259,0.30781 -9.36431,18.85322 -17.29196,33.87453 -1.50953,2.86029 -1.78795,3.6 -1.35497,3.6 0.29972,0 1.94422,-0.44359 3.65443,-0.98573 z m 23.30924,-7.3649 c 1.95501,-0.65129 3.12579,-1.22672 3.41821,-1.68 1.39296,-2.15907 19.31833,-37.18659 19.1239,-37.36947 -0.1287,-0.12108 -8.1832,-4.34707 -17.89885,-9.3911 l -17.66483,-9.17094 -3.45516,1.1174 c -1.90035,0.61456 -3.42998,1.2208 -3.3992,1.34724 0.0308,0.12643 7.87356,4.2974 17.42841,9.26886 9.55482,4.97146 17.42512,9.19718 17.48957,9.3905 0.0645,0.19334 -3.98058,8.23702 -8.9889,17.87481 -5.00835,9.63782 -9.34355,17.99133 -9.63379,18.56333 -0.49763,0.98073 -0.49536,1.04 0.0397,1.04 0.3121,0 1.90551,-0.44576 3.54093,-0.99063 z m -50.31928,-10.6568 c 2.78618,-5.38614 3.07113,-6.08918 2.60584,-6.4294 -0.99396,-0.72679 -18.17858,-9.50973 -18.32337,-9.36493 -0.26894,0.26896 2.71892,7.11718 3.29495,7.55209 0.31348,0.23668 2.18996,1.2872 4.16996,2.33453 2.11245,1.11738 3.6,2.10032 3.6,2.37879 0,0.26102 -0.46583,1.37049 -1.03518,2.46547 -0.56935,1.09497 -1.13949,2.23958 -1.26697,2.54355 -0.16102,0.3839 0.26543,1.29606 1.39653,2.9872 1.33222,1.99184 1.70122,2.35686 2.02916,2.00736 0.22045,-0.23498 1.80854,-3.14858 3.52908,-6.47466 z m 75.93883,2.42244 c 0.9657,-0.48221 2.01501,-2.35104 10.63159,-18.93501 5.25808,-10.12 9.56291,-18.616 9.5663,-18.88 0.004,-0.31229 -6.19078,-3.70019 -17.73069,-9.6968 l -17.73683,-9.2168 -3.34813,1.0568 c -1.84147,0.58125 -3.34877,1.2008 -3.34957,1.3768 0,0.176 7.61543,4.28413 16.92496,9.12915 9.30951,4.84506 17.15543,9.03824 17.4354,9.31818 0.46534,0.46534 -0.31677,2.09696 -9.11773,19.02096 -5.29472,10.18156 -9.62675,18.61273 -9.62675,18.7359 0,0.28371 4.92406,-1.19642 6.35145,-1.90918 z m 21.16778,-6.55376 3.03923,-1.02125 9.66502,-18.56 c 5.31578,-10.208 9.67011,-18.776 9.67629,-19.04 0.007,-0.31421 -6.11674,-3.66307 -17.72915,-9.69488 l -17.74042,-9.21485 -3.39891,1.05837 c -1.86941,0.58214 -3.37926,1.20083 -3.35523,1.37488 0.024,0.17408 7.67133,4.28621 16.99398,9.13808 9.32269,4.8519 17.16231,9.03363 17.42144,9.29274 0.41482,0.41484 0.27392,0.85196 -1.17917,3.6584 -0.90768,1.75299 -5.22825,10.07168 -9.60131,18.48595 -4.37305,8.4143 -7.951,15.3623 -7.951,15.44 0,0.32928 1.30704,0.041 4.15923,-0.91744 z m 23.33881,-7.36692 3.01808,-1.01433 9.70192,-18.66374 c 5.33607,-10.26509 9.69904,-18.83309 9.69549,-19.04 -0.004,-0.20695 -7.99491,-4.52365 -17.75856,-9.59268 l -17.75203,-9.21638 -3.40176,1.05638 c -1.87098,0.58103 -3.39766,1.19143 -3.3927,1.35645 0.005,0.16503 7.62182,4.26903 16.92636,9.12 9.30451,4.85098 17.09456,8.93648 17.31123,9.07885 0.21664,0.1424 0.39392,0.49459 0.39392,0.78269 0,0.28809 -4.248,8.69475 -9.44,18.68144 -5.192,9.98672 -9.44,18.23849 -9.44,18.33731 0,0.36035 1.18397,0.10685 4.13805,-0.88599 z m 23.34208,-7.36339 3.00013,-1.01094 9.71987,-18.71043 c 5.34592,-10.29075 9.71616,-18.85875 9.71158,-19.04 -0.004,-0.18128 -8.01488,-4.48407 -17.8007,-9.56176 l -17.79245,-9.23216 -3.36035,1.07216 c -1.84819,0.5897 -3.34493,1.21619 -3.32611,1.39219 0.0189,0.176 7.63427,4.28 16.92323,9.12 9.28893,4.84 17.068,8.91651 17.28682,9.05888 0.21881,0.1424 0.39785,0.4816 0.39785,0.75382 0,0.27223 -4.1672,8.50775 -9.26044,18.30112 -5.09325,9.79341 -9.35664,18.05818 -9.47424,18.36618 -0.30032,0.78669 0.39308,0.69789 3.97481,-0.50906 z m 23.17987,-7.33289 3.13997,-1.03805 9.78099,-18.82758 c 8.19005,-15.76512 9.70928,-18.89389 9.34003,-19.2353 -0.24256,-0.22426 -8.28617,-4.48003 -17.87472,-9.45731 l -17.43372,-9.04954 -3.31143,1.08829 c -1.82131,0.59856 -3.31676,1.22679 -3.32329,1.396 -0.006,0.16925 7.74361,4.34371 17.22252,9.27658 10.8944,5.66953 17.27092,9.16211 17.3338,9.4942 0.0547,0.28896 -4.15613,8.70842 -9.35735,18.70996 -5.20125,10.0015 -9.4568,18.29712 -9.4568,18.43465 0,0.4224 0.68071,0.28557 3.94,-0.7919 z m 23.31149,-7.34215 3.12432,-1.02406 9.8023,-18.85427 c 8.07194,-15.52589 9.7264,-18.92384 9.37213,-19.24842 -0.23664,-0.21677 -8.26851,-4.46089 -17.84864,-9.43136 l -17.41837,-9.03721 -3.46265,1.06659 c -1.90445,0.58662 -3.41578,1.20726 -3.35847,1.3792 0.0573,0.17194 7.8681,4.34931 17.35732,9.2831 10.30694,5.35898 17.29161,9.172 17.34879,9.47091 0.0794,0.41492 -7.70179,15.67399 -17.08271,33.49962 -1.64666,3.12899 -1.95149,3.92 -1.51066,3.92 0.30378,0 1.95824,-0.46083 3.67664,-1.0241 z m 23.10829,-7.29926 c 1.65411,-0.52986 3.16211,-1.14976 3.35116,-1.37754 0.18906,-0.22777 4.67821,-8.74432 9.97591,-18.92569 7.79273,-14.97642 9.55206,-18.58429 9.21267,-18.89254 -0.23075,-0.20954 -8.26138,-4.4472 -17.84589,-9.41696 l -17.4264,-9.03597 -3.45952,1.04835 c -1.90272,0.57658 -3.40924,1.19914 -3.3478,1.38346 0.0614,0.18432 7.86496,4.36828 17.34118,9.29769 9.47619,4.92941 17.28995,9.14672 17.36393,9.37184 0.11076,0.33699 -9.05996,18.33197 -17.28182,33.91072 -1.4185,2.68781 -1.7721,3.6 -1.39539,3.6 0.2775,0 1.85789,-0.4335 3.51197,-0.96336 z m 23.29267,-7.35533 c 1.68685,-0.52729 3.21328,-1.13929 3.39203,-1.36 0.65626,-0.8103 18.95552,-36.29753 18.95552,-36.7599 0,-0.89763 -3.99565,-3.39024 -12.71658,-7.93302 -10.77545,-5.613 -13.69091,-6.65322 -22.06134,-7.87149 -7.19277,-1.04685 -7.37827,-1.18842 10.8945,8.31225 9.12812,4.74602 16.66553,8.80887 16.74982,9.02852 0.0843,0.21961 -3.9464,8.28851 -8.95709,17.93084 -5.01069,9.64231 -9.34781,17.99949 -9.63805,18.57149 -0.66598,1.31251 -0.5654,1.31494 3.38119,0.0813 z m 23.62755,-7.46697 3.04,-1.01434 4.10633,-7.84 c 5.70983,-10.90144 5.32199,-9.39344 3.03421,-11.79747 -1.05961,-1.11347 -2.0367,-1.90256 -2.17133,-1.7535 -0.20224,0.22393 -11.77683,22.40188 -12.11587,23.21513 -0.19168,0.45971 1.01472,0.22182 4.10666,-0.80982 z m 20.72,-6.49604 c 0.88294,-0.2366 0.92054,-0.7976 0.10307,-1.53744 -0.59334,-0.53696 -0.63616,-0.52112 -1.12,0.41453 -0.2767,0.53504 -0.50307,1.05197 -0.50307,1.14871 0,0.22761 0.61328,0.21718 1.52,-0.0259 z m -23.12,131.75987 c -0.704,-0.32329 -1.52231,-0.86077 -1.8185,-1.1944 -0.93437,-1.05257 -33.55142,-72.19472 -33.75296,-73.61971 -0.36825,-2.60377 1.66602,-5.20941 4.46525,-5.71936 1.43981,-0.26227 3.62643,0.46541 4.63767,1.54336 0.73632,0.7849 33.2319,71.03146 33.74361,72.94445 0.46317,1.73165 0.0493,3.308 -1.24467,4.74022 -1.70547,1.88778 -3.78291,2.33747 -6.0304,1.30544 z"
       id="path205"
       inkscape:connector-curvature="0" />
  </g>
  <path
     style="display:inline;fill:#000000;stroke-width:0.31999999"
     d="m 206.25185,633.02659 c -20.24994,-1.62323 -36.42167,-6.5086 -52.64,-15.9022 -2.78201,-1.61133 -4.12264,-2.69204 -7.79345,-6.2824 -10.48465,-10.25495 -22.50636,-24.116 -32.06957,-36.97632 -4.56168,-6.1344 -12.80047,-18.35111 -13.6259,-20.20487 -1.61243,-3.62115 -2.607276,-15.08041 -1.90108,-21.89759 1.40141,-13.52826 6.32929,-25.98384 15.97684,-40.38272 6.91022,-10.31341 10.33019,-17.31466 12.5289,-25.64874 1.3167,-4.99085 1.87105,-8.50256 2.30708,-14.61488 0.41627,-5.83529 0.0618,-13.93693 -0.87374,-19.9712 -1.61441,-10.41273 -0.95609,-16.62105 2.35078,-22.16899 2.5641,-4.30179 6.04779,-7.19734 15.77514,-13.11193 7.33849,-4.46208 10.21854,-6.56288 13.1178,-9.56868 6.17278,-6.39951 7.59415,-11.56691 8.61238,-31.31039 0.63302,-12.27421 1.02983,-15.01904 2.77556,-19.19924 1.29389,-3.0983 3.99675,-6.85647 7.04337,-9.7934 4.47601,-4.3149 9.26346,-7.25476 22.65589,-13.91249 13.54332,-6.73274 15.91504,-8.25868 21.59644,-13.89487 7.6365,-7.57575 14.88243,-18.11768 20.34536,-29.6 2.46029,-5.17119 3.89518,-8.83521 7.20574,-18.4 9.17113,-26.49698 21.46533,-53.1546 32.61529,-70.72 8.96636,-14.12542 18.59479,-24.88827 27.35717,-30.58044 8.04726,-5.22762 22.80819,-10.63208 34.4,-12.59499 9.22092,-1.56143 17.33001,-1.0084 22.42716,1.5295 1.42144,0.70776 1.90535,1.17755 2.69284,2.61437 l 0.96,1.75157 v 13.92 c 0,16.19894 -0.023,16.37819 -2.43399,19.01624 -2.68518,2.93805 -6.60534,4.63429 -21.88601,9.47004 -14.41453,4.56166 -22.54458,7.82094 -26.91933,10.79177 -2.80784,1.90677 -5.66717,5.12552 -6.96415,7.83958 -2.26968,4.74954 -2.62434,10.11394 -1.44602,21.87177 0.84744,8.45616 0.72769,15.79859 -0.32572,19.97059 -0.91433,3.6212 -3.0356,7.90508 -5.46671,11.04 -2.41749,3.11735 -3.948,6.17637 -4.7068,9.40746 -0.79889,3.40176 -0.78816,14.87573 0.019,20.35254 0.77965,5.29 2.22994,12.62683 3.91285,19.79462 l 1.41687,6.03462 v 23.2066 23.20659 l -1.09666,1.21385 c -0.7677,0.84976 -1.14964,1.62932 -1.2733,2.59879 -0.18586,1.45721 -3.99192,58.59571 -4.11729,61.81081 -0.0674,1.72938 6.4e-4,1.93155 0.93166,2.76368 1.28046,1.14458 4.24182,2.26602 6.55769,2.48333 3.04781,0.28602 7.15816,-1.06058 8.8834,-2.91027 l 0.76547,-0.82071 -2.14884,-31.93097 c -2.27784,-33.8479 -2.23315,-33.45302 -3.90997,-34.55171 l -0.75216,-0.49283 v -15.37655 c 0,-8.45709 0.0898,-15.28672 0.19954,-15.17699 0.10974,0.10976 0.97643,2.52499 1.92597,5.3672 4.43305,13.26922 9.28479,22.51712 16.32473,31.11654 4.26784,5.21328 6.08009,7.95162 6.79564,10.26832 1.88756,6.11117 2.7249,13.86819 2.49088,23.07507 -0.2462,9.68528 -1.35564,15.56541 -3.95081,20.93949 -1.26119,2.61175 -1.91783,3.49155 -4.86205,6.51469 -5.41194,5.55706 -9.62678,8.71504 -15.7239,11.78115 -4.53523,2.28067 -7.55004,3.4135 -19.09679,7.17581 -5.77677,1.88227 -11.58321,3.96675 -12.90321,4.63225 -5.84898,2.94874 -12.21598,7.75604 -17.45156,13.17642 -10.43259,10.8009 -15.76138,23.53417 -16.64772,39.78019 -0.26095,4.78298 0.34122,13.56896 0.97374,14.20742 0.3792,0.38279 14.97922,-4.14435 101.02438,-31.32534 55.31965,-17.47501 101.92218,-32.19225 103.56125,-32.70496 2.2224,-0.69523 2.95462,-1.05763 2.88,-1.42547 -0.0648,-0.3192 -1.45498,-0.93597 -3.9401,-1.74803 -6.74409,-2.20378 -12.9007,-5.59565 -18.68633,-10.29495 -5.32016,-4.32118 -15.73367,-15.30783 -17.59827,-18.56681 -1.38452,-2.41984 -2.81482,-6.94326 -3.62896,-11.47658 -0.6177,-3.43971 -0.70896,-5.07299 -0.71204,-12.74528 -0.004,-9.2663 0.3778,-13.34656 1.7562,-18.78287 0.97273,-3.83639 2.16678,-5.90292 6.62604,-11.46756 2.26122,-2.82172 4.96026,-6.41948 5.99783,-7.99507 4.0576,-6.16137 8.24425,-15.28861 11.24768,-24.52083 0.82192,-2.52653 1.61667,-4.73046 1.76614,-4.89766 0.14944,-0.1672 0.27171,6.62022 0.27171,15.0832 v 15.3872 l -0.79334,0.5198 c -0.43632,0.28589 -1.00627,0.93162 -1.26653,1.43488 -0.60931,1.17824 -4.90672,64.01395 -4.46333,65.26106 0.37111,1.04371 3.44499,2.74041 5.91395,3.26438 3.31568,0.70365 7.52573,-0.22822 9.8689,-2.18435 1.00755,-0.84115 1.08214,-1.03206 1.03341,-2.64438 -0.12631,-4.17821 -3.89687,-59.85824 -4.17827,-61.70048 -0.24461,-1.60147 -0.52397,-2.26141 -1.29338,-3.05523 l -0.98141,-1.01255 v -23.38838 -23.38837 l 1.26125,-5.23639 c 1.64003,-6.80893 3.02058,-13.69585 3.90422,-19.47639 0.96928,-6.34076 1.05188,-17.11828 0.16064,-20.96 -0.80768,-3.48149 -2.31878,-6.60213 -4.4936,-9.28 -2.22707,-2.74219 -4.7712,-7.76486 -5.67308,-11.2 -1.06826,-4.06861 -1.17178,-11.66014 -0.28144,-20.64 1.53446,-15.477 0.25865,-21.4228 -5.80208,-27.04 -4.62285,-4.28454 -10.44323,-6.76399 -33.39591,-14.2265 -11.94742,-3.88442 -15.62179,-5.53854 -17.93612,-8.07446 -0.97088,-1.06381 -1.78301,-2.32776 -2.03405,-3.16566 -0.22983,-0.76713 -0.54487,-3.77497 -0.70003,-6.68408 -0.33162,-6.2161 -0.0571,-21.75525 0.41286,-23.36929 0.89834,-3.08526 2.9385,-4.54844 8.09734,-5.80725 3.80484,-0.92843 11.45271,-0.99809 16.60759,-0.15127 10.04656,1.6504 22.63939,5.83702 31.6192,10.51213 21.83782,11.36929 44.99647,49.2772 64.69737,105.90167 2.97715,8.55696 4.73533,12.87981 7.39677,18.18653 5.46265,10.89227 12.14957,20.40709 19.33939,27.51818 5.68432,5.62206 8.08086,7.16281 21.61968,13.89939 13.19117,6.56359 17.96486,9.47734 22.39062,13.66669 3.32791,3.15014 5.17245,5.65293 6.9295,9.4024 1.95514,4.17212 2.39396,6.97907 3.14612,20.12342 0.75872,13.25882 1.24032,17.06678 2.70326,21.37363 1.37907,4.06003 2.66736,6.16016 5.83078,9.50502 3.09709,3.27476 5.66989,5.16704 13.55972,9.97312 7.44697,4.53632 9.82278,6.288 12.67305,9.34372 5.35904,5.74534 6.92448,12.97353 5.2616,24.29507 -1.03126,7.0214 -1.39581,12.77817 -1.1815,18.65753 0.36973,10.14208 1.88915,17.49805 5.35603,25.92995 2.00333,4.87239 4.09283,8.59507 9.24438,16.47005 9.80819,14.99334 14.05991,24.78592 16.53351,38.08 0.71481,3.84163 0.82473,16.60525 0.16224,18.83885 -0.67965,2.29145 -8.55504,14.46368 -15.65808,24.20115 -6.94957,9.52707 -16.25002,20.76185 -24.77911,29.93276 -3.33334,3.5842 -4.76976,4.88868 -6.25443,5.68 -1.06,0.565 -1.9991,1.02724 -2.08688,1.02724 -0.0878,0 -0.25584,-0.54 -0.3735,-1.2 -0.50403,-2.82759 -3.87802,-16.05946 -5.76615,-22.61335 -4.89648,-16.99619 -10.94108,-33.83484 -17.35516,-48.34665 -6.24583,-14.1312 -16.6368,-33.17309 -18.19872,-33.34986 -0.96051,-0.1087 -28.37719,8.69348 -28.70711,9.21648 -0.20995,0.33284 4.11514,10.0368 15.2584,34.23456 13.89226,30.16717 15.5513,33.93907 15.55024,35.35443 -0.003,2.92624 -1.99715,4.94093 -4.89472,4.9432 -1.69238,0 -2.90569,-0.50518 -3.94876,-1.64841 -0.37655,-0.41271 -7.79255,-16.21034 -16.48,-35.10579 -8.68743,-18.89546 -15.964,-34.42253 -16.17018,-34.50458 -0.32493,-0.12934 -65.29664,20.18122 -67.22515,21.01498 -0.396,0.1712 -0.72,0.5679 -0.72,0.88156 0,0.31364 4.392,10.10788 9.76,21.76496 8.4688,18.39076 9.75984,21.396 9.75882,22.71658 -0.003,2.86797 -2.02503,4.87846 -4.91047,4.8807 -2.12246,0.003 -3.59366,-0.76905 -4.50592,-2.36045 -0.41568,-0.72512 -5.17827,-10.93036 -10.58355,-22.67836 -8.35152,-18.15143 -9.92659,-21.36 -10.48553,-21.36 -0.65322,0 -33.36256,10.22861 -35.35335,11.05542 -0.572,0.23754 -1.04,0.58954 -1.04,0.78221 0,0.19267 2.10736,4.916 4.68301,10.49632 5.11008,11.07133 5.368,11.96678 4.08122,14.17002 -1.72131,2.94732 -5.98877,3.47248 -8.21626,1.01113 -0.31379,-0.34675 -2.78617,-5.42105 -5.49417,-11.27625 -2.708,-5.85524 -5.12896,-10.85114 -5.37988,-11.10208 -0.395,-0.39501 -1.9342,0.0112 -11.46486,3.02508 -7.60445,2.4048 -11.03741,3.63095 -11.10179,3.96519 -0.0513,0.26611 5.11401,11.77641 11.4784,25.5784 6.36435,13.80201 11.78579,25.74256 12.04761,26.53456 1.60512,4.8552 -4.4014,8.74723 -8.16982,5.29372 -0.90733,-0.83148 -3.31184,-5.8016 -13.33059,-27.55411 -8.13581,-17.66422 -12.3977,-26.57331 -12.74413,-26.64035 -0.49613,-0.096 -67.34352,20.86886 -67.71012,21.23546 -0.48191,0.48192 0.88514,1.45888 4.77242,3.41062 5.69426,2.85904 11.85399,5.16262 17.90084,6.69456 2.73248,0.69226 5.10525,1.30016 5.27286,1.35094 0.87213,0.2642 -14.5991,9.17364 -23.66473,13.62784 -22.89609,11.24954 -44.66887,17.83543 -67.36,20.37527 -4.10746,0.45974 -19.76438,0.84237 -23.2,0.56697 z M 287.672,559.90448 c 4.95314,-9.52665 8.96071,-17.45622 8.9057,-17.62124 -0.17311,-0.51933 -35.56558,-18.79683 -36.40585,-18.80083 -1.365,-0.006 -7.51188,2.09388 -7.6123,2.60115 -0.0641,0.32352 5.26045,3.2479 17.39725,9.55507 9.61926,4.99888 17.55339,9.2552 17.6314,9.45849 0.078,0.20333 -3.05532,6.51904 -6.96298,14.03498 l -7.10482,13.66534 2.19714,2.21412 c 1.20843,1.21776 2.36625,2.21411 2.57294,2.21411 0.20668,0 4.42837,-7.79453 9.38152,-17.32119 z m 8.31681,14.89389 c 2.03667,-0.63101 3.86719,-1.31501 4.06782,-1.52 0.32837,-0.33549 14.87154,-28.14384 18.44821,-35.27529 0.80067,-1.59642 1.3593,-3.04848 1.24138,-3.22682 -0.39197,-0.59286 -35.51963,-18.67065 -36.27351,-18.66749 -1.42578,0.006 -7.45286,2.0809 -7.55286,2.60013 -0.0701,0.36419 4.5892,2.9288 17.39379,9.57392 9.61927,4.9921 17.5506,9.23552 17.62518,9.42986 0.0746,0.19436 -4.18948,8.66547 -9.47569,18.82473 -5.2862,10.15927 -9.61128,18.68218 -9.61128,18.93981 0,0.61926 -0.1123,0.6377 4.13696,-0.67885 z m 23.19401,-7.33043 c 1.96925,-0.61472 3.80669,-1.29872 4.08323,-1.52 0.62596,-0.50083 19.7858,-37.40966 19.7858,-38.11465 0,-0.28208 -0.324,-0.71613 -0.72,-0.96455 -2.62957,-1.64963 -34.91237,-18.12307 -35.51554,-18.12307 -0.93088,0 -6.97377,1.86237 -7.53802,2.32314 -0.23453,0.19155 -0.29304,0.45827 -0.13515,0.61616 0.15313,0.15312 8.04323,4.31443 17.53357,9.24732 9.49034,4.9329 17.38381,9.09677 17.54106,9.25306 0.16742,0.1664 -3.71108,7.97513 -9.36,18.84486 -5.30525,10.20839 -9.64592,18.78455 -9.64592,19.05808 0,0.64608 -0.17181,0.67293 3.97097,-0.62035 z m -49.34381,-10.74269 c 1.88495,-3.59677 3.43295,-6.70797 3.44,-6.91376 0.0124,-0.36118 -1.94192,-1.43424 -14.14763,-7.768 -4.42572,-2.29661 -5.72041,-2.84365 -5.86128,-2.47654 -0.22216,0.57894 2.47497,7.39261 3.27959,8.28509 0.32019,0.35516 2.13633,1.42582 4.03587,2.37923 1.89953,0.95344 3.52906,1.92989 3.62117,2.16989 0.0921,0.24003 -0.34607,1.45612 -0.97371,2.70246 -0.62764,1.24634 -1.14117,2.48851 -1.14117,2.76042 0,1.03843 3.35054,5.7072 3.95798,5.51523 0.19911,-0.063 1.90424,-3.05725 3.78918,-6.65402 z m 72.68244,3.37274 c 1.96371,-0.62023 3.74784,-1.23914 3.9647,-1.37536 0.50237,-0.31559 19.9257,-37.62848 19.9257,-38.27795 0,-0.26634 -0.324,-0.68573 -0.72,-0.932 -2.51495,-1.56397 -35.04941,-18.20592 -35.58276,-18.20119 -1.26038,0.0112 -7.89923,2.34781 -7.77459,2.73642 0.0667,0.20778 7.98992,4.48176 17.60727,9.49776 9.61737,5.016 17.57814,9.21862 17.69062,9.33917 0.11245,0.12057 -4.13014,8.55702 -9.42803,18.74771 -8.6816,16.69945 -10.07623,19.59312 -9.44291,19.59312 0.10428,0 1.79628,-0.50746 3.76,-1.12768 z m 23.74963,-7.51549 c 1.77056,-0.55216 3.37494,-1.10134 3.56531,-1.22038 0.57338,-0.3586 19.97069,-37.87623 19.86726,-38.42663 -0.0586,-0.3119 -6.92701,-4.06928 -17.69382,-9.67948 -9.67888,-5.0433 -17.83686,-9.23837 -18.1288,-9.3224 -0.79824,-0.22973 -8.3303,2.30512 -8.18742,2.75539 0.0657,0.20717 7.98675,4.48067 17.60224,9.49667 9.61548,5.016 17.5711,9.2129 17.67913,9.32646 0.10803,0.11354 -3.53715,7.38554 -8.10041,16.16 -11.11991,21.38179 -11.24868,21.63738 -11.05645,21.94842 0.18765,0.30361 0.0418,0.3376 4.45296,-1.03805 z m 22.94668,-7.22698 c 1.97674,-0.63257 3.83172,-1.38857 4.12215,-1.68 0.80509,-0.80784 19.81843,-37.58111 19.71472,-38.12985 -0.10551,-0.55837 -35.27632,-18.95331 -36.24279,-18.95558 -0.71523,-0.003 -6.82035,1.88313 -7.53923,2.32755 -0.39891,0.24665 -0.39635,0.34486 0.0192,0.73168 0.264,0.24573 8.184,4.44128 17.6,9.32342 9.416,4.88218 17.232,8.98154 17.3689,9.1097 0.13689,0.12816 -4.15114,8.68905 -9.52896,19.02419 -8.54579,16.42336 -9.96547,19.39904 -9.25514,19.39904 0.0809,0 1.76439,-0.51757 3.74112,-1.15015 z m 23.91408,-7.55612 c 1.672,-0.52384 3.27303,-1.19124 3.55786,-1.48311 0.84797,-0.86889 19.87837,-37.79043 19.70761,-38.23542 -0.20582,-0.53635 -35.39183,-18.84185 -36.22547,-18.84627 -0.81404,-0.004 -7.25817,1.972 -7.66627,2.35114 -0.19229,0.17859 -0.1327,0.44707 0.16,0.72118 0.25645,0.24016 8.20499,4.45113 17.66346,9.35769 10.61005,5.504 17.19824,9.09796 17.2,9.38285 0,0.25399 -4.3249,8.78727 -9.61431,18.96285 -5.2894,10.17558 -9.52531,18.64963 -9.41305,18.83123 0.11222,0.1816 0.5159,0.23568 0.89712,0.12022 0.38118,-0.11545 2.06105,-0.63852 3.73305,-1.16236 z m 23.24557,-7.35235 c 3.05965,-0.93229 3.46365,-1.14528 4.11171,-2.16765 1.65466,-2.6104 19.39927,-37.21693 19.26394,-37.5696 -0.12243,-0.31907 -32.67623,-17.48227 -35.37482,-18.65056 -0.71513,-0.30957 -1.44137,-0.18483 -4.68288,0.80448 -2.47638,0.75578 -3.86614,1.33946 -3.92012,1.64643 -0.0586,0.33283 5.19593,3.21194 17.51215,9.59552 9.92336,5.14333 17.5977,9.30752 17.60013,9.55008 0.003,0.23654 -4.32742,8.7633 -9.62176,18.94835 -5.29433,10.18509 -9.52777,18.67735 -9.40761,18.87175 0.12012,0.1944 0.42268,0.27507 0.67235,0.17926 0.24963,-0.0958 1.98077,-0.63942 3.84691,-1.20806 z m 23.11715,-7.30532 c 1.72851,-0.53702 3.37168,-1.1518 3.65149,-1.36624 0.68208,-0.52265 20.13811,-37.9798 19.96365,-38.43446 -0.10324,-0.26896 -27.78183,-14.86243 -35.10227,-18.50755 -1.11546,-0.55542 -1.15495,-0.55027 -4.95773,0.64714 -2.41395,0.76006 -3.86458,1.38067 -3.91773,1.67603 -0.0585,0.32483 5.32483,3.27267 17.51142,9.58902 9.67773,5.016 17.59872,9.29987 17.60218,9.51968 0.004,0.21984 -4.31728,8.71072 -9.60163,18.86864 -5.28435,10.15792 -9.53114,18.66899 -9.43731,18.9135 0.0938,0.24452 0.38988,0.36045 0.65788,0.2576 0.268,-0.10284 1.90151,-0.62636 3.63005,-1.16336 z m 24.24557,-7.65315 c 1.25856,-0.38829 2.50451,-0.87629 2.76877,-1.08445 0.64675,-0.50944 20.11353,-38.02662 19.94934,-38.44723 -0.10835,-0.2776 -34.05549,-18.11225 -35.78192,-18.79859 -0.79779,-0.31715 -8.07398,2.02797 -8.18608,2.63837 -0.0597,0.32509 5.24128,3.23648 17.27773,9.48928 9.55014,4.96115 17.48297,9.20915 17.62857,9.44 0.17424,0.27629 -3.03011,6.74989 -9.37715,18.94422 -5.30301,10.18851 -9.56854,18.71555 -9.47897,18.94899 0.13532,0.35261 0.39552,0.35261 1.53715,-6e-5 0.75584,-0.23347 2.404,-0.74221 3.66256,-1.13053 z m 23.97571,-7.63603 2.41907,-0.86688 9.56685,-18.4 c 5.26176,-10.12 9.57206,-18.64864 9.57846,-18.95254 0.0141,-0.67402 -2.55193,-2.74627 -5.21888,-4.21453 -7.35334,-4.04832 -17.35833,-9.01805 -19.6863,-9.77866 -6.24966,-2.04198 -17.97181,-3.72006 -17.57021,-2.51526 0.0695,0.20845 7.65098,4.29312 16.84775,9.07706 9.19676,4.78393 16.87657,8.85324 17.06624,9.04291 0.24646,0.24646 -2.41386,5.65312 -9.32461,18.95084 -5.31818,10.23328 -9.59357,18.80365 -9.50087,19.04528 0.18944,0.49367 1.32928,0.22192 5.8225,-1.38822 z m 22.10499,-6.94048 3.56899,-1.1384 4.51101,-8.75024 c 2.48106,-4.81264 4.51101,-8.98461 4.51101,-9.27107 0,-0.28646 -0.93632,-1.49418 -2.08074,-2.68378 l -2.08073,-2.16291 -0.60711,0.71575 c -1.07312,1.26512 -12.5752,23.77647 -12.39219,24.2534 0.0971,0.25303 0.36198,0.39607 0.58864,0.31786 0.22669,-0.0782 2.01818,-0.65447 3.98112,-1.28061 z m 22.19101,-7.45808 c 0,-0.6287 -1.24314,-2.30832 -1.70848,-2.30832 -0.54426,0 -1.95139,2.69395 -1.7209,3.29462 0.17277,0.45021 0.3488,0.44836 1.81037,-0.0189 0.9313,-0.29782 1.61901,-0.7087 1.61901,-0.96726 z m -24.8,131.81628 c -0.528,-0.32614 -1.1969,-0.8656 -1.48643,-1.19878 -0.28954,-0.33322 -7.97408,-16.78525 -17.07677,-36.5601 -16.23523,-35.26963 -16.54771,-35.98614 -16.41146,-37.62931 0.23847,-2.87577 2.16541,-4.65641 5.03892,-4.65641 1.49545,0 2.72854,0.5431 3.74528,1.6496 0.37923,0.4127 8.13587,16.92886 17.23696,36.70256 16.23903,35.28217 16.54483,35.98342 16.40835,37.62934 -0.16477,1.98685 -1.0577,3.39917 -2.6169,4.13904 -1.46282,0.69414 -3.64675,0.65987 -4.83795,-0.0759 z"
     id="path203"
     inkscape:connector-curvature="0" />
</svg>
