<svg xmlns="http://www.w3.org/2000/svg" x="-150" y="-150" viewBox="0 0 82.1 87.4"><style>.st1{fill:#b22826}</style><path d="m11.6 53.2 29.9-29.9c9.9 10 20 20 30.1 30.1-9.9 9.9-20 19.8-30.2 29.9-10-10-19.9-20.1-29.8-30.1zM51 59.7v-.6c.4-2.2-.8-4.3-2.7-4.8-2.2-.6-4.5.5-5.4 2.6-.9 2.3-.2 4.3 1.4 6 4.3 4.6 11.7 3.1 14.3-2.8 1.7-3.9.7-8.3-2.5-11.7-3.2-3.3-6.4-6.6-9.6-10-1.6-1.7-3.2-3.4-4.7-5.2h-.7C36 38.5 30.9 43.7 25.9 49c-2.1 2.3-3.1 5.1-2.7 8.2.4 3.6 2.4 6.2 5.7 7.7 3 1.3 5.8.7 8.3-1.2 1.9-1.4 2.9-3.2 2.7-5.6-.2-2-1.8-3.7-3.8-4-1.9-.3-3.7.6-4.4 2.5-.3.9-.3 1.9-.4 2.8-1.5-.5-2.5-2.1-1.8-3.8.6-1.4 1.4-2.9 2.5-4 2.8-3 5.8-5.8 8.7-8.7.2-.2.5-.4.7-.6 2.7 2.8 5.4 5.7 8.1 8.4 1.4 1.4 2.7 2.8 3.3 4.7.7 2 .1 3.4-1.8 4.3z" class="st1"/><path d="M41.6 13.8C30 25.5 18.5 36.9 7.1 48.4c-1.8-1.8-3.6-3.6-5.5-5.4C14.9 29.7 28.3 16.4 41.8 3.1 55.1 16.5 68.4 30 81.6 43.3l-5.1 5.4-34.9-34.9z" class="st1"/><path d="M51 59.7c1.9-.9 2.5-2.3 2-4.2-.6-1.9-2-3.3-3.3-4.7-2.7-2.8-5.3-5.6-8.1-8.4-.3.2-.5.4-.7.6-2.9 2.9-5.9 5.7-8.7 8.7-1.1 1.1-1.9 2.6-2.5 4-.7 1.7.3 3.3 1.8 3.8.1-.9.1-2 .4-2.8.7-1.9 2.5-2.9 4.4-2.5 2 .3 3.6 2 3.8 4 .2 2.4-.9 4.3-2.7 5.6-2.5 1.9-5.4 2.5-8.3 1.2-3.3-1.5-5.3-4.1-5.7-7.7-.4-3.2.6-6 2.7-8.2 5.1-5.4 10.3-10.7 15.5-16 1.7 1.8 3.4 3.7 5.1 5.5 3.2 3.3 6.4 6.7 9.6 10 3.2 3.3 4.2 7.8 2.5 11.7-2.6 5.9-10 7.4-14.3 2.8-1.6-1.7-2.3-3.7-1.4-6 .8-2.1 3.2-3.3 5.4-2.6 1.9.6 3 2.6 2.7 4.8-.2 0-.2.1-.2.4z" style="fill:#fff"/></svg>