
<svg xmlns="http://www.w3.org/2000/svg" x="-150px" y="-150px" viewBox="0 0 82.1 87.4">
<style type="text/css">
	.st0{fill:#FFFEFE;}
	.st1{fill:#B22826;}
	.st2{fill:#FFF;}
</style>
	<path class="st1" d="M11.6,53.2c10-10,20-20,29.9-29.9c9.9,10,20,20,30.1,30.1c-9.9,9.9-20,19.8-30.2,29.9
		C31.4,73.3,21.5,63.2,11.6,53.2z M51,59.7c0-0.3,0-0.4,0-0.6c0.4-2.2-0.8-4.3-2.7-4.8c-2.2-0.6-4.5,0.5-5.4,2.6
		c-0.9,2.3-0.2,4.3,1.4,6c4.3,4.6,11.7,3.1,14.3-2.8c1.7-3.9,0.7-8.3-2.5-11.7c-3.2-3.3-6.4-6.6-9.6-10c-1.6-1.7-3.2-3.4-4.7-5.2
		c-0.2,0-0.5,0-0.7,0C36,38.5,30.9,43.7,25.9,49c-2.1,2.3-3.1,5.1-2.7,8.2c0.4,3.6,2.4,6.2,5.7,7.7c3,1.3,5.8,0.7,8.3-1.2
		c1.9-1.4,2.9-3.2,2.7-5.6c-0.2-2-1.8-3.7-3.8-4c-1.9-0.3-3.7,0.6-4.4,2.5c-0.3,0.9-0.3,1.9-0.4,2.8c-1.5-0.5-2.5-2.1-1.8-3.8
		c0.6-1.4,1.4-2.9,2.5-4c2.8-3,5.8-5.8,8.7-8.7c0.2-0.2,0.5-0.4,0.7-0.6c2.7,2.8,5.4,5.7,8.1,8.4c1.4,1.4,2.7,2.8,3.3,4.7
		C53.5,57.4,52.9,58.8,51,59.7z"/>
	<path class="st1" d="M41.6,13.8C30,25.5,18.5,36.9,7.1,48.4c-1.8-1.8-3.6-3.6-5.5-5.4C14.9,29.7,28.3,16.4,41.8,3.1
		c13.3,13.4,26.6,26.9,39.8,40.2c-1.7,1.8-3.4,3.6-5.1,5.4C64.8,37,53.3,25.5,41.6,13.8z"/>
	<path class="st2" d="M51,59.7c1.9-0.9,2.5-2.3,2-4.2c-0.6-1.9-2-3.3-3.3-4.7c-2.7-2.8-5.3-5.6-8.1-8.4c-0.3,0.2-0.5,0.4-0.7,0.6
		c-2.9,2.9-5.9,5.7-8.7,8.7c-1.1,1.1-1.9,2.6-2.5,4c-0.7,1.7,0.3,3.3,1.8,3.8c0.1-0.9,0.1-2,0.4-2.8c0.7-1.9,2.5-2.9,4.4-2.5
		c2,0.3,3.6,2,3.8,4c0.2,2.4-0.9,4.3-2.7,5.6c-2.5,1.9-5.4,2.5-8.3,1.2c-3.3-1.5-5.3-4.1-5.7-7.7c-0.4-3.2,0.6-6,2.7-8.2
		c5.1-5.4,10.3-10.7,15.5-16c1.7,1.8,3.4,3.7,5.1,5.5c3.2,3.3,6.4,6.7,9.6,10c3.2,3.3,4.2,7.8,2.5,11.7c-2.6,5.9-10,7.4-14.3,2.8
		c-1.6-1.7-2.3-3.7-1.4-6c0.8-2.1,3.2-3.3,5.4-2.6c1.9,0.6,3,2.6,2.7,4.8C51,59.3,51,59.4,51,59.7z"/>
</svg>
