<?xml version="1.0" encoding="utf-8"?>
<!-- Generator: Adobe Illustrator 24.2.3, SVG Export Plug-In . SVG Version: 6.00 Build 0)  -->
<svg version="1.1" id="Layer_1" xmlns="http://www.w3.org/2000/svg" xmlns:xlink="http://www.w3.org/1999/xlink" x="0px" y="0px"
	 viewBox="0 0 505 502" style="enable-background:new 0 0 505 502;" xml:space="preserve">
<style type="text/css">
	.st0{fill:none;stroke:#000000;stroke-miterlimit:10;}
	.st1{clip-path:url(#SVGID_2_);}
	.st2{clip-path:url(#SVGID_4_);}
</style>
<g id="Layer_2_1_">
</g>
<g id="Layer_3_1_">
</g>
<g id="Layer_2_3_">
</g>
<g id="Layer_4_1_">
</g>
<g>
	<g>
		<path class="st0" d="M222.7,88.7l-18.3-51.4c-6.2-17.8,7.2-24,11.4-25.5c13.5-4.7,21.8,7.7,24.3,14.9l21.4,60.2"/>
	</g>
	<g>
		<path class="st0" d="M238.7,86.8l-17.3-50"/>
		<path class="st0" d="M225.6,35.4L243,86.8"/>
	</g>
	<g>
		<g>
			<path class="st0" d="M229.4,59c-0.3,0-0.6-0.1-0.9-0.2l-13.3-6.2c-1.1-0.5-1.6-1.8-1.1-2.9c0.5-1.1,1.8-1.6,2.9-1.1l10.2,5"/>
		</g>
		<g>
			<path class="st0" d="M234,72.2c-0.3,0-0.6-0.1-0.9-0.2l-13.3-6.2c-1.1-0.5-1.6-1.8-1.1-2.9s1.8-1.6,2.9-1.1l10.2,5.1"/>
		</g>
		<g>
			<path class="st0" d="M238.6,85.5c-0.3,0-0.6-0.1-0.9-0.2l-13.3-6.2c-1.1-0.5-1.6-1.8-1.1-2.9s1.8-1.6,2.9-1.1l10.2,5"/>
		</g>
	</g>
	<g>
		
			<rect x="203.9" y="31.7" transform="matrix(0.9501 -0.3118 0.3118 0.9501 0.5332 71.1273)" class="st0" width="37.6" height="4.4"/>
	</g>
</g>
<g>
	<g>
		<path class="st0" d="M250.7,57.2L264,31.9c8.8-16.7,22.5-11.2,26.4-9.1c12.6,6.7,9.3,21.2,5.7,28"/>
	</g>
	<g>
		<path class="st0" d="M279.7,46.1"/>
		<path class="st0" d="M258.5,78.1L275.8,44"/>
	</g>
	<g>
		<g>
			<path class="st0" d="M265.4,64.6l-5.3-14.4c-0.4-1.2,0.3-2.4,1.4-2.8c1.2-0.4,2.4,0.3,2.8,1.4l3.6,11"/>
		</g>
		<g>
			<path class="st0" d="M258.7,77.7l-5.1-15c-0.4-1.2,0.3-2.4,1.4-2.8c1.1-0.4,2.4,0.3,2.8,1.4l3.5,11.3"/>
		</g>
	</g>
	<g>
		
			<rect x="276.8" y="24.3" transform="matrix(0.4821 -0.8761 0.8761 0.4821 106.728 266.7963)" class="st0" width="4.4" height="37.7"/>
	</g>
</g>
<g>
	<g>
		<path class="st0" d="M268,347.6l-4.2-15.4c0,0,1.8-2.8,3.5-7h-25c1.6,4.2,3.7,7,3.7,7s-1.2,2.8-3.6,13.4"/>
		<path class="st0" d="M236.9,382.2c0.1,3.1-0.2,13.3,4.7,18c5.1,4.9,12.2,4.7,13.3,4.6c1.8,0.1,19.3,2.2,18.5-21.2"/>
	</g>
	<g>
		<path class="st0" d="M241.6,307.9c-0.7,1.5-1.1,6-1.3,7.8h28.8c-0.1-1.8-0.6-6.3-1.3-7.8H241.6z"/>
	</g>
	<g>
		<path class="st0" d="M265.9,306.3c-2.9-3.5-7.1-5.5-11-5.6l0,0c0,0-0.1,0-0.2,0c0,0-0.1,0-0.2,0l0,0c-3.8,0.1-8.1,2.1-11,5.6
			H265.9z"/>
	</g>
	<g>
		<path class="st0" d="M268.3,323.6c0.4-1.5,0.7-4.6,0.9-6.3h-28.8c0.1,1.7,0.5,4.8,0.9,6.3H268.3z"/>
	</g>
</g>
<g>
	<path class="st0" d="M168.1,397.8l11.4-31.1c0.8-2.3,3.4-3.5,5.6-2.6c2.3,0.8,3.5,3.4,2.6,5.6l-13.2,36.1"/>
</g>
<g>
	<g>
		<g>
			<g>
				<g>
					<g>
						<g>
							<g>
								<g>
									<g>
										<g>
											<defs>
												<path id="SVGID_1_" d="M253.2,383.6L161,355c1.2-3.5,2.8-7.6,5.2-12c3.4-6.2,7.2-10.9,10.4-14.2
													c28.6,8.9,57.1,17.7,85.7,26.6L253.2,383.6z"/>
											</defs>
											<clipPath id="SVGID_2_">
												<use xlink:href="#SVGID_1_"  style="overflow:visible;"/>
											</clipPath>
											<g class="st1">
												<g>
													<polygon class="st0" points="255.6,368.3 281.9,354.9 284.1,359.1 262,370.3 274,392.9 269.7,395.2 													"/>
												</g>
												<g>
													<polygon class="st0" points="245.6,365.2 271.9,351.8 274.1,355.9 252,367.2 264,389.9 259.7,392 													"/>
												</g>
												<g>
													<polygon class="st0" points="235.6,362.1 261.9,348.7 264.1,352.8 241.9,364.1 254,386.8 249.7,388.9 													"/>
												</g>
												<g>
													<polygon class="st0" points="225.6,359.1 251.9,345.6 254.1,349.7 232,361 243.9,383.7 239.7,385.8 													"/>
												</g>
												<g>
													<polygon class="st0" points="215.6,355.9 241.9,342.5 244.2,346.7 222,357.9 234,380.6 229.7,382.7 													"/>
												</g>
												<g>
													<polygon class="st0" points="205.7,352.8 231.9,339.4 234.2,343.6 212,354.9 224,377.5 219.7,379.6 													"/>
												</g>
												<g>
													<polygon class="st0" points="195.7,349.7 221.9,336.3 224.2,340.5 202.1,351.7 214,374.4 209.8,376.5 													"/>
												</g>
												<g>
													<polygon class="st0" points="185.7,346.7 211.9,333.2 214.2,337.4 192.1,348.6 204,371.2 199.8,373.4 													"/>
												</g>
												<g>
													<polygon class="st0" points="175.7,343.6 201.9,330.1 204.2,334.3 182.1,345.5 194,368.1 189.8,370.3 													"/>
												</g>
												<g>
													<polygon class="st0" points="167.4,340.9 192,327 194.2,331.1 172.1,342.5 184,365.1 179.8,367.2 													"/>
												</g>
											</g>
											<use xlink:href="#SVGID_1_"  style="overflow:visible;fill:none;stroke:#000000;stroke-miterlimit:10;"/>
										</g>
									</g>
								</g>
							</g>
						</g>
					</g>
				</g>
				<g>
					<path class="st0" d="M160.2,357.7c1.4-4.3,3.4-9.6,6.6-15.2c4-7,8.4-12.3,12-16.1c29.7,9.2,59.4,18.5,89.2,27.7l-10.9,33.7
						L160.2,357.7z"/>
				</g>
			</g>
		</g>
	</g>
</g>
<g>
	<g>
		<g>
			<g>
				<path class="st0" d="M314.1,370.3l20.4,43.5c1,2.1,0,4.5-2,5.4c-0.5,0.2-1.2,0.4-1.8,0.4c-1.6,0-3.1-0.9-3.8-2.4l-20.6-44.1"/>
			</g>
		</g>
	</g>
</g>
<g>
	<g>
		<g>
			<g>
				<path class="st0" d="M283.4,381.2l21.7,56.1c0.9,2.2-0.4,4.7-2.6,5.4c-0.7,0.2-1.4,0.3-1.9,0.3c-1.7-0.1-3.3-1.2-4.3-3.8
					l-21.7-56.1"/>
			</g>
		</g>
	</g>
</g>
<g>
	<g>
		<g>
			<g>
				<g>
					<g>
						<g>
							<g>
								<g>
									<g>
										<g>
											<defs>
												<path id="SVGID_3_" d="M264,352.5l91.1-28.2c4.9,2.2,11.1,5.6,17.5,10.9c4.3,3.6,7.6,7.2,10.2,10.4
													c-38.1,12.2-76.2,24.4-114.3,36.6"/>
											</defs>
											<clipPath id="SVGID_4_">
												<use xlink:href="#SVGID_3_"  style="overflow:visible;"/>
											</clipPath>
											<g class="st2">
												<g>
													<polygon class="st0" points="252,393.8 247.8,391.6 259.8,369 237.7,357.7 239.8,353.5 266.2,367 													"/>
												</g>
												<g>
													<polygon class="st0" points="267.5,379 265.9,373.1 269.7,365.9 265.9,363.1 267.3,359.4 276.1,363.9 													"/>
												</g>
												<g>
													<polygon class="st0" points="272,387.5 267.7,385.4 279.8,362.7 257.6,351.5 259.8,347.3 286.1,360.8 													"/>
												</g>
												<g>
													<polygon class="st0" points="282,384.5 277.8,382.3 289.8,359.7 267.6,348.4 269.8,344.2 296.1,357.7 													"/>
												</g>
												<g>
													<polygon class="st0" points="292,381.4 287.8,379.2 299.8,356.6 277.6,345.3 279.8,341.1 306.1,354.6 													"/>
												</g>
												<g>
													<polygon class="st0" points="302,378.2 297.8,376.2 309.7,353.5 287.5,342.2 289.8,338 316.1,351.5 													"/>
												</g>
												<g>
													<polygon class="st0" points="312,375.1 307.7,373.1 319.7,350.3 297.5,339.1 299.8,334.9 326.1,348.4 													"/>
												</g>
												<g>
													<polygon class="st0" points="322,372.1 317.7,369.9 329.7,347.3 307.5,336 309.8,331.8 336,345.3 													"/>
												</g>
												<g>
													<polygon class="st0" points="331.9,369 327.7,366.8 339.6,344.2 317.5,333 319.8,328.8 346,342.2 													"/>
												</g>
												<g>
													<polygon class="st0" points="341.9,365.8 337.7,363.7 349.6,341.1 327.5,329.8 329.7,325.7 356,339.1 													"/>
												</g>
												<g>
													<polygon class="st0" points="351.9,362.7 347.7,360.6 359.6,338 337.5,326.7 339.7,322.6 366,336 													"/>
												</g>
												<g>
													<polyline class="st0" points="361.8,359.7 357.6,357.5 369.5,334.9 347.5,323.6 349.7,319.5 													"/>
												</g>
											</g>
											<use xlink:href="#SVGID_3_"  style="overflow:visible;fill:none;stroke:#000000;stroke-miterlimit:10;"/>
										</g>
									</g>
								</g>
							</g>
						</g>
					</g>
				</g>
				<g>
					<path class="st0" d="M258.6,351.2l92.3-28.4c5.7,2.7,14.4,6.2,21.7,12.4c5.2,4.4,9.3,8.9,12.5,12.8
						c-40.2,12.8-80.3,25.6-120.5,38.4l-3.3-10.2"/>
				</g>
			</g>
		</g>
	</g>
</g>
<g>
	<g>
		<g>
			<g>
				<path class="st0" d="M54.8,411.3c0,0-25.9-33,1.7-60.4c7.1-7,16-21,11.6-47.9c-3.1-19,9.7-21,20.4-28.7s8.8-16.4,10.2-33.7
					c1.4-17.3,22.3-21.8,33.4-28.7c11.2-6.9,21.4-23.2,26-37s24.6-69.3,51-81.2s38.7-6.3,40.1-4.1c1.4,2.2,1.1,2.9,1.2,9.3
					c0.3,17-0.7,15.1-2.5,17.4c-3.5,4.4-29.9,8.8-37.9,15.7c-12.4,10.5-11.7,71.2-6.5,90.8c7.8,30.1,17.5,32.4,19.9,39.2
					c2.5,7,5.1,17.6-2.8,36c-8,4.7-16.1,9.5-24.1,14.2c-12.6,7.4-39.6,30.6-37.6,60.2c1.4,20.1,15.9,33.7,18.5,36.2
					c17.5,16.5,35.9,13.2,36.5,19c1.1,10.8-62,42.9-116,19.4C75.2,437.2,61.5,420.6,54.8,411.3"/>
			</g>
		</g>
	</g>
</g>
<g>
	<g>
		<path class="st0" d="M371.5,352.3l24.4,52c1,2.1,0,4.5-2,5.4c-0.7,0.2-1.3,0.4-1.8,0.4c-1.6,0-3.1-0.9-3.8-2.4l-24.3-53"/>
	</g>
</g>
<g>
	<g>
		<g>
			<g>
				<path class="st0" d="M374.5,440.9c-1.6,0-3.1-0.9-3.8-2.4l-24.4-52c-1-2.1,0-4.5,2-5.4c2.1-1,4.6,0,5.5,2l24.3,52
					c1,2.1,0,4.5-2,5.4C375.8,440.8,375.1,440.9,374.5,440.9z"/>
			</g>
		</g>
	</g>
</g>
<g>
	<g>
		<g>
			<g>
				<g>
					<path class="st0" d="M295,132c-8-6.9-34.4-11.3-37.9-15.7c-1.8-2.3-2.8-0.4-2.5-17.4c0.1-6.4-0.2-7.1,1.2-9.3
						c1.4-2.3,13.7-7.8,40.1,4.1s46.4,67.4,51,81.2c4.6,13.7,14.8,30.1,26,37c11.1,6.9,32,11.4,33.4,28.7s-0.5,26,10.2,33.7
						S440,284,436.9,303c-4.4,26.9,6.1,39.6,11.6,47.9c36.4,54.7-26,85-26,85s-23.2-115.8-86.6-115.3c-27.3,0.2-36.4-5.7-51.2-22.3
						c-6.5-7.3-5.6-28.3-2.8-36c2.5-6.8,12.1-9.1,19.9-39.2C306.7,203.2,307.3,142.5,295,132z"/>
				</g>
			</g>
		</g>
	</g>
</g>
<g>
	<path class="st0" d="M247.9,302.2l-25.1-9.9"/>
	<path class="st0" d="M282.7,294.5l-20.2,8.8"/>
	<path class="st0" d="M260.8,302.2l20.9-9.6"/>
	<path class="st0" d="M223.3,290.3l27.6,11"/>
</g>
<path class="st0" d="M283.6,438.4"/>
<path class="st0" d="M658,350.9"/>
<path class="st0" d="M126.2,310.8"/>
<path class="st0" d="M168.9,344.2"/>
<path class="st0" d="M264,368.3l4.5,13.9L264,368.3z"/>
<line class="st0" x1="272.8" y1="349.7" x2="269.2" y2="350.9"/>
<path class="st0" d="M264,368.3"/>
<line class="st0" x1="264" y1="368.3" x2="268" y2="354.1"/>
<line class="st0" x1="246" y1="332.2" x2="242.4" y2="345.6"/>
<path class="st0" d="M254.9,404.8"/>
<path class="st0" d="M559.6,139.5"/>
<path class="st0" d="M276.8,87.3"/>
<line class="st0" x1="296.1" y1="51.3" x2="276.8" y2="87.3"/>
<line class="st0" x1="279.7" y1="46.1" x2="260.5" y2="83.9"/>
<path class="st0" d="M235.4,303.5"/>
<path class="st0" d="M247.8,302.7"/>
</svg>
