<svg xmlns="http://www.w3.org/2000/svg" xmlns:xlink="http://www.w3.org/1999/xlink" xml:space="preserve" x="0" y="0" version="1.1" viewBox="0 0 505 502">
  <path d="m250.2 113.2-20.9-11S208.8 43 206.5 36.5s-3.4-18 10.1-22.7c15-5.2 21.5 13.6 21.5 13.6l22.1 63.5-10 22.3z"/>
  <path d="m251.3 116.3-23.8-12.5-23.1-66.5c-6.2-17.8 7.2-24 11.4-25.5 13.5-4.7 21.8 7.7 24.3 14.9L262.4 91l-11.1 25.3zm-20.2-15.7 18.1 9.5 8.6-19.4L236 28.1c-.2-.7-6-16.6-18.7-12.2-5.2 1.8-13.3 6.8-8.7 19.9l22.5 64.8z"/>
  <path d="M250.7 116.8c-.9 0-1.8-.6-2.1-1.5l-27.2-78.5c-.4-1.2.2-2.4 1.4-2.8 1.1-.4 2.4.2 2.8 1.4l27.2 78.5c.4 1.2-.2 2.4-1.4 2.8-.2.1-.5.1-.7.1z" fill="#fff"/>
  <path d="M229.4 59c-.3 0-.6-.1-.9-.2l-13.3-6.2c-1.1-.5-1.6-1.8-1.1-2.9.5-1.1 1.8-1.6 2.9-1.1l13.3 6.2c1.1.5 1.6 1.8 1.1 2.9-.3.8-1.1 1.3-2 1.3zm4.6 13.2c-.3 0-.6-.1-.9-.2l-13.3-6.2c-1.1-.5-1.6-1.8-1.1-2.9s1.8-1.6 2.9-1.1l13.3 6.2c1.1.5 1.6 1.8 1.1 2.9-.3.8-1.1 1.3-2 1.3zm4.6 13.3c-.3 0-.6-.1-.9-.2l-13.3-6.2c-1.1-.5-1.6-1.8-1.1-2.9s1.8-1.6 2.9-1.1l13.3 6.2c1.1.5 1.6 1.8 1.1 2.9-.3.8-1.1 1.3-2 1.3zm-34.46-47.83 35.73-11.72 1.37 4.18-35.73 11.72z" fill="#fff"/>
  <path d="m239.6 117.2-6.2-22.8s29.2-55.4 32.5-61.5c3.2-6.1 10.9-14.8 23.5-8.1 14 7.4 4.8 25 4.8 25l-31.4 59.5-23.2 7.9z"/>
  <path d="m238.1 120.1-7-25.9L264 31.9c8.8-16.7 22.5-11.2 26.4-9.1 12.6 6.7 9.3 21.2 5.7 28L264.3 111l-26.2 9.1zm-2.3-25.4 5.4 19.7 20.1-6.9 31-58.7c.3-.6 8-15.8-3.9-22-4.9-2.6-14-5-20.5 7.2l-32.1 60.7z"/>
  <path d="M238.9 120.7c-.4 0-.7-.1-1-.3-1.1-.6-1.5-1.9-.9-3L275.8 44c.6-1.1 1.9-1.5 3-.9s1.5 1.9.9 3l-38.8 73.5c-.4.6-1.2 1.1-2 1.1z" fill="#fff"/>
  <path d="M266.7 65.7c-.9 0-1.8-.6-2.1-1.5l-4.5-14c-.4-1.2.3-2.4 1.4-2.8 1.2-.4 2.4.3 2.8 1.4l4.5 13.9c.4 1.2-.3 2.4-1.4 2.8-.2.1-.5.2-.7.2zm-6.5 12.4c-.9 0-1.8-.6-2.1-1.5l-4.5-13.9c-.4-1.2.3-2.4 1.4-2.8 1.1-.4 2.4.3 2.8 1.4l4.5 13.9c.4 1.2-.3 2.4-1.4 2.8-.3 0-.5.1-.7.1zm-6.6 12.4c-.9 0-1.8-.6-2.1-1.5L247 75c-.4-1.2.3-2.4 1.4-2.8s2.4.3 2.8 1.4l4.5 13.9c.4 1.2-.3 2.4-1.4 2.8-.2.2-.5.2-.7.2zm7.81-54.55 2.14-3.85 33.03 18.17-2.12 3.85z" fill="#fff"/>
  <path d="M253.3 502c74.5 0 141.1-32.7 185.5-84l-19.7-64.4-76.5-67.9s-3.2-83.6-3.2-89.8-30.2-67.9-30.2-67.9S279 95.6 265 91.4s-34.5 5.2-34.5 5.2l-34.5 46-52.6 134.8-20.5 84.6-44.4 67.8c44.1 44.5 106.1 72.2 174.8 72.2z" fill="#fff"/>
  <path d="M241.6 307.9c-.7 1.5-1.1 6-1.3 7.8h28.8c-.1-1.8-.6-6.3-1.3-7.8h-26.2zm24.3-1.6c-2.9-3.5-7.1-5.5-11-5.6h-.4c-3.8.1-8.1 2.1-11 5.6h22.4zm2.4 17.3c.4-1.5.7-4.6.9-6.3h-28.8c.1 1.7.5 4.8.9 6.3h27zm-1 1.6h-25c1.6 4.2 3.7 7 3.7 7s-9.6 31.7-9.6 53.1c0 20.2 16.7 19.6 18.5 19.5 1.8.1 18.5.8 18.5-19.5 0-21.4-9.6-53.1-9.6-53.1s1.8-2.8 3.5-7z" fill="#023000"/>
  <path d="M142.2 380.4c-.5 0-1-.1-1.5-.3a4.3 4.3 0 0 1-2.6-5.6l31.1-85.1a4.3 4.3 0 0 1 5.6-2.6c2.3.8 3.5 3.4 2.6 5.6l-31.1 85.1a4.3 4.3 0 0 1-4.1 2.9z"/>
  <defs>
    <ellipse id="a" cx="252.1" cy="254.2" rx="252.1" ry="247.8"/>
  </defs>
  <clipPath id="b">
    <use xlink:href="#a" overflow="visible"/>
  </clipPath>
  <g clip-path="url(#b)">
    <path d="M253.2 383.6 90.3 333l9.1-28.3 162.9 50.6z" fill="#b11116"/>
    <defs>
      <path d="M253.2 383.6 90.3 333l9.1-28.3 162.9 50.6z" id="c"/>
    </defs>
    <clipPath id="d">
      <use xlink:href="#c" overflow="visible"/>
    </clipPath>
    <g clip-path="url(#d)">
      <path d="m255.6 368.3 26.3-13.4 2.2 4.2-22.1 11.2 12 22.6-4.3 2.3z"/>
      <path d="m245.6 365.2 26.3-13.4 2.2 4.1-22.1 11.3 12 22.7-4.3 2.1z"/>
      <path d="m235.6 362.1 26.3-13.4 2.2 4.1-22.2 11.3 12.1 22.7-4.3 2.1z"/>
      <path d="m225.6 359.1 26.3-13.5 2.2 4.1L232 361l11.9 22.7-4.2 2.1z"/>
      <path d="m215.6 355.9 26.3-13.4 2.3 4.2-22.2 11.2 12 22.7-4.3 2.1z"/>
      <path d="m205.7 352.8 26.2-13.4 2.3 4.2-22.2 11.3 12 22.6-4.3 2.1z"/>
      <path d="m195.7 349.7 26.2-13.4 2.3 4.2-22.1 11.2 11.9 22.7-4.2 2.1z"/>
      <path d="m185.7 346.7 26.2-13.5 2.3 4.2-22.1 11.2 11.9 22.6-4.2 2.2z"/>
      <path d="m175.7 343.6 26.2-13.5 2.3 4.2-22.1 11.2 11.9 22.6-4.2 2.2z"/>
      <path d="M165.7 340.5 192 327l2.2 4.1-22.1 11.4 11.9 22.6-4.2 2.1z"/>
      <path d="m155.7 337.4 26.3-13.5 2.3 4.1-22.1 11.4 11.8 22.5-4.1 2.2z"/>
      <path d="m145.7 334.3 26.3-13.4 2.3 4.1-22.1 11.3 12 22.5-4.3 2.2z"/>
      <path d="m135.8 331.1 26.3-13.4 2.2 4.2-22.1 11.3 12 22.5-4.2 2.2z"/>
      <path d="m125.8 328 26.3-13.4 2.2 4.1-22.1 11.4 12 22.6-4.2 2.1z"/>
      <path d="m115.8 325 26.3-13.5 2.2 4.1-22.1 11.3 12 22.7-4.2 2.1z"/>
      <path d="m105.9 321.8 26.2-13.4 2.2 4.2-22.1 11.2 12 22.6-4.2 2.2z"/>
      <path d="m95.9 318.7 26.2-13.4 2.2 4.2-22 11.2 11.9 22.7-4.2 2.1z"/>
      <path d="m85.9 315.6 26.2-13.4 2.3 4.1-22.1 11.4 12 22.6-4.3 2.2z"/>
    </g>
    <path d="m85 334.3 10.9-33.7L268 354.1l-10.9 33.7L85 334.3zm14-27.7-7.9 24.5L254 381.7l7.9-24.5L99 306.6z"/>
  </g>
  <defs>
    <ellipse id="e" cx="252.1" cy="254.2" rx="252.1" ry="247.8"/>
  </defs>
  <clipPath id="f">
    <use xlink:href="#e" overflow="visible"/>
  </clipPath>
  <g clip-path="url(#f)">
    <path d="M210 132c8-6.9 34.4-11.3 37.9-15.7 1.8-2.3 2.8-.4 2.5-17.4-.1-6.4.2-7.1-1.2-9.3s-13.7-7.8-40.1 4.1-46.4 67.4-51 81.2-14.8 30.1-26 37c-11.1 6.9-32 11.4-33.4 28.7s.5 26-10.2 33.7S65 284 68.1 303c4.4 26.9-6.1 39.6-11.6 47.9-36.4 54.7 30.4 89.4 30.4 89.4s-44.2-50.9 82.2-117c24.1-12.6 36.7-8.7 51.5-25.3 6.5-7.3 5.6-28.3 2.8-36-2.4-6.8-12.1-9.1-19.9-39.2-5.2-19.6-5.9-80.3 6.5-90.8z"/>
  </g>
  <defs>
    <ellipse id="g" cx="252.1" cy="254.2" rx="252.1" ry="247.8"/>
  </defs>
  <clipPath id="h">
    <use xlink:href="#g" overflow="visible"/>
  </clipPath>
  <g clip-path="url(#h)">
    <path d="M321.7 419.6c-1.6 0-3.1-.9-3.8-2.4l-24.3-52c-1-2.1 0-4.5 2-5.4 2.1-1 4.6 0 5.5 2l24.4 52c1 2.1 0 4.5-2 5.4-.5.2-1.2.4-1.8.4z"/>
  </g>
  <defs>
    <ellipse id="i" cx="252.1" cy="254.2" rx="252.1" ry="247.8"/>
  </defs>
  <clipPath id="j">
    <use xlink:href="#i" overflow="visible"/>
  </clipPath>
  <g clip-path="url(#j)">
    <path d="M289 436.5c-1.7-.1-3.3-1.2-3.9-2.8l-21.7-56.1c-.9-2.2.4-4.7 2.6-5.4 2.4-.8 5 .4 5.8 2.5l21.7 56.1c.9 2.2-.4 4.7-2.6 5.4-.7.2-1.4.3-1.9.3z"/>
  </g>
  <defs>
    <ellipse id="k" cx="252.1" cy="254.2" rx="252.1" ry="247.8"/>
  </defs>
  <clipPath id="l">
    <use xlink:href="#k" overflow="visible"/>
  </clipPath>
  <g clip-path="url(#l)">
    <path d="m259.4 353.9 162.9-50.5 9.1 28.3-162.9 50.5z" fill="#b11116"/>
    <defs>
      <path d="m259.4 353.9 162.9-50.5 9.1 28.3-162.9 50.5z" id="m"/>
    </defs>
    <clipPath id="n">
      <use xlink:href="#m" overflow="visible"/>
    </clipPath>
    <g clip-path="url(#n)">
      <path d="m252 393.8-4.2-2.2 12-22.6-22.1-11.3 2.1-4.2 26.4 13.5z"/>
      <path d="m262 390.6-4.2-2.1 11.9-22.6-22-11.3 2.1-4.2 26.3 13.5z"/>
      <path d="m272 387.5-4.3-2.1 12.1-22.7-22.2-11.2 2.2-4.2 26.3 13.5z"/>
      <path d="m282 384.5-4.2-2.2 12-22.6-22.2-11.3 2.2-4.2 26.3 13.5z"/>
      <path d="m292 381.4-4.2-2.2 12-22.6-22.2-11.3 2.2-4.2 26.3 13.5z"/>
      <path d="m302 378.2-4.2-2 11.9-22.7-22.2-11.3 2.3-4.2 26.3 13.5z"/>
      <path d="m312 375.1-4.3-2 12-22.8-22.2-11.2 2.3-4.2 26.3 13.5z"/>
      <path d="m322 372.1-4.3-2.2 12-22.6-22.2-11.3 2.3-4.2 26.2 13.5z"/>
      <path d="m331.9 369-4.2-2.2 11.9-22.6-22.1-11.2 2.3-4.2 26.2 13.4z"/>
      <path d="m341.9 365.8-4.2-2.1 11.9-22.6-22.1-11.3 2.2-4.1 26.3 13.4z"/>
      <path d="m351.9 362.7-4.2-2.1 11.9-22.6-22.1-11.3 2.2-4.1L366 336z"/>
      <path d="m361.8 359.7-4.2-2.2 11.9-22.6-22-11.3 2.2-4.1L376 333z"/>
      <path d="m371.8 356.6-4.3-2.2 12-22.6-22.1-11.3 2.3-4.2 26.3 13.5z"/>
      <path d="m381.8 353.4-4.3-2.1 12-22.5-22.1-11.4 2.3-4.2 26.3 13.5z"/>
      <path d="m391.7 350.3-4.2-2.1 12-22.6-22.1-11.3 2.2-4.2 26.3 13.5z"/>
      <path d="m401.7 347.3-4.2-2.2 12-22.6-22.1-11.3 2.2-4.2 26.3 13.4z"/>
      <path d="m411.7 344.2-4.2-2.2 12-22.6-22.1-11.3 2.2-4.2 26.3 13.5z"/>
      <path d="m421.7 341.1-4.2-2.2 12-22.6-22.1-11.3 2.2-4.2 26.2 13.5z"/>
    </g>
    <path d="m264.6 386.4-10.9-33.7 172.1-53.5 10.9 33.7-172.1 53.5zm-4.7-30.6 7.9 24.5 162.8-50.5-7.9-24.5-162.8 50.5z"/>
  </g>
  <defs>
    <ellipse id="o" cx="252.1" cy="254.2" rx="252.1" ry="247.8"/>
  </defs>
  <clipPath id="p">
    <use xlink:href="#o" overflow="visible"/>
  </clipPath>
  <g clip-path="url(#p)">
    <path d="M196.5 312.2s-48.2 9.9-37.6 60.2 55 55.2 55 55.2-98.4 68.6-159.1-16.3c-34.3-48.4 141.7-99.1 141.7-99.1z"/>
  </g>
  <defs>
    <ellipse id="q" cx="252.1" cy="254.2" rx="252.1" ry="247.8"/>
  </defs>
  <clipPath id="r">
    <use xlink:href="#q" overflow="visible"/>
  </clipPath>
  <g clip-path="url(#r)">
    <path d="M389.2 419.6c-1.6 0-3.1-.9-3.8-2.4l-24.3-52c-1-2.1 0-4.5 2-5.4 2.1-1 4.6 0 5.5 2l24.4 52c1 2.1 0 4.5-2 5.4-.7.2-1.3.4-1.8.4z"/>
  </g>
  <defs>
    <ellipse id="s" cx="252.1" cy="254.2" rx="252.1" ry="247.8"/>
  </defs>
  <clipPath id="t">
    <use xlink:href="#s" overflow="visible"/>
  </clipPath>
  <g clip-path="url(#t)">
    <path d="M369.7 448.2c-1.6 0-3.1-.9-3.8-2.4l-24.4-52c-1-2.1 0-4.5 2-5.4 2.1-1 4.6 0 5.5 2l24.3 52c1 2.1 0 4.5-2 5.4-.3.3-1 .4-1.6.4z"/>
  </g>
  <defs>
    <ellipse id="u" cx="252.1" cy="254.2" rx="252.1" ry="247.8"/>
  </defs>
  <clipPath id="v">
    <use xlink:href="#u" overflow="visible"/>
  </clipPath>
  <g clip-path="url(#v)">
    <path d="M198.3 420.6c-2-.9-3-3.3-2-5.4l24.4-52c.9-2 3.4-2.9 5.5-2 2 .9 3 3.3 2 5.4l-24.3 52a4.18 4.18 0 0 1-5.6 2z"/>
  </g>
  <defs>
    <ellipse id="w" cx="252.1" cy="254.2" rx="252.1" ry="247.8"/>
  </defs>
  <clipPath id="x">
    <use xlink:href="#w" overflow="visible"/>
  </clipPath>
  <g clip-path="url(#x)">
    <path d="M230.9 437.6c-2.2-.7-3.5-3.2-2.6-5.4l21.7-56.1c.8-2.1 3.4-3.4 5.8-2.5 2.2.7 3.5 3.2 2.6 5.4l-21.7 56.1c-.6 1.6-2.2 2.6-3.9 2.8-.6 0-1.3-.1-1.9-.3z"/>
  </g>
  <defs>
    <ellipse id="y" cx="252.1" cy="254.2" rx="252.1" ry="247.8"/>
  </defs>
  <clipPath id="z">
    <use xlink:href="#y" overflow="visible"/>
  </clipPath>
  <g clip-path="url(#z)">
    <path d="M130.8 420.6c-2-.9-3-3.3-2-5.4l24.4-52c.9-2 3.4-2.9 5.5-2 2 .9 3 3.3 2 5.4l-24.3 52c-.7 1.5-2.2 2.4-3.8 2.4-.5 0-1.1-.2-1.8-.4z"/>
  </g>
  <defs>
    <ellipse id="A" cx="252.1" cy="254.2" rx="252.1" ry="247.8"/>
  </defs>
  <clipPath id="B">
    <use xlink:href="#A" overflow="visible"/>
  </clipPath>
  <g clip-path="url(#B)">
    <path d="M150.5 449.2c-2-.9-3-3.3-2-5.4l24.3-52c.9-2 3.4-2.9 5.5-2 2 .9 3 3.3 2 5.4l-24.4 52c-.7 1.5-2.2 2.4-3.8 2.4-.6 0-1.3-.1-1.6-.4z"/>
  </g>
  <defs>
    <ellipse id="C" cx="252.9" cy="247.8" rx="252.1" ry="247.8"/>
  </defs>
  <clipPath id="D">
    <use xlink:href="#C" overflow="visible"/>
  </clipPath>
  <g clip-path="url(#D)">
    <path d="M295 132c-8-6.9-34.4-11.3-37.9-15.7-1.8-2.3-2.8-.4-2.5-17.4.1-6.4-.2-7.1 1.2-9.3 1.4-2.3 13.7-7.8 40.1 4.1s46.4 67.4 51 81.2c4.6 13.7 14.8 30.1 26 37 11.1 6.9 32 11.4 33.4 28.7s-.5 26 10.2 33.7S440 284 436.9 303c-4.4 26.9 6.1 39.6 11.6 47.9 36.4 54.7-26 85-26 85s-23.2-115.8-86.6-115.3c-27.3.2-36.4-5.7-51.2-22.3-6.5-7.3-5.6-28.3-2.8-36 2.5-6.8 12.1-9.1 19.9-39.2 4.9-19.9 5.5-80.6-6.8-91.1z"/>
  </g>
  <path d="M92.2 428.7a4.45 4.45 0 0 1-4.1-6l21.3-57.7c.8-2.3 3.4-3.5 5.7-2.6 2.3.8 3.4 3.4 2.6 5.7l-21.3 57.7c-.8 1.8-2.4 2.9-4.2 2.9zm164-123.2-36-14.3c-.6-.3-.8-.7-.2-1.1.6-.3 1.5-.4 2.2-.1l34 13.5 31.2-13.6c.6-.3 1.6-.2 2.2.1.6.3.5.8-.1 1.1l-33.3 14.4z"/>
  <path d="m236.6 410.7 10.1-26.1-12.1-3.8" fill="#fff"/>
</svg>
