<?xml version="1.0" encoding="utf-8"?>
<!-- Generator: Adobe Illustrator 24.1.1, SVG Export Plug-In . SVG Version: 6.00 Build 0)  -->
<svg version="1.1" id="Layer_1" xmlns="http://www.w3.org/2000/svg" xmlns:xlink="http://www.w3.org/1999/xlink" x="0px" y="0px"
	 viewBox="0 0 504.1 495.6" style="enable-background:new 0 0 504.1 495.6;" xml:space="preserve">
<style type="text/css">
	.st0{fill:#FFFFFF;}
	.st1{fill:#023000;}
	.st2{clip-path:url(#SVGID_4_);}
	.st3{fill:#B11116;}
	.st4{clip-path:url(#SVGID_6_);}
	.st5{clip-path:url(#SVGID_8_);}
</style>
<g>
</g>
<g id="Layer_2_1_">
</g>
<g id="Layer_3_1_">
</g>
<g id="Layer_2_3_">
</g>
<g id="Layer_4_1_">
</g>
<g>
	<g>
		<g>
			<path d="M250.2,106.8l-20.9-11c0,0-20.5-59.2-22.8-65.7s-3.4-18,10.1-22.7c15-5.2,21.5,13.6,21.5,13.6l22.1,63.5L250.2,106.8z"/>
			<path d="M251.3,109.9l-23.8-12.5l-23.1-66.5c-6.2-17.8,7.2-24,11.4-25.5c13.5-4.7,21.8,7.7,24.3,14.9l22.3,64.3L251.3,109.9z
				 M231.1,94.2l18.1,9.5l8.6-19.4L236,21.7c-0.2-0.7-6-16.6-18.7-12.2c-5.2,1.8-13.3,6.8-8.7,19.9L231.1,94.2z"/>
		</g>
		<g>
			<path class="st0" d="M250.7,110.4c-0.9,0-1.8-0.6-2.1-1.5l-27.2-78.5c-0.4-1.2,0.2-2.4,1.4-2.8c1.1-0.4,2.4,0.2,2.8,1.4
				l27.2,78.5c0.4,1.2-0.2,2.4-1.4,2.8C251.2,110.4,250.9,110.4,250.7,110.4z"/>
		</g>
		<g>
			<g>
				<path class="st0" d="M229.4,52.6c-0.3,0-0.6-0.1-0.9-0.2l-13.3-6.2c-1.1-0.5-1.6-1.8-1.1-2.9c0.5-1.1,1.8-1.6,2.9-1.1l13.3,6.2
					c1.1,0.5,1.6,1.8,1.1,2.9C231.1,52.1,230.3,52.6,229.4,52.6z"/>
			</g>
			<g>
				<path class="st0" d="M234,65.8c-0.3,0-0.6-0.1-0.9-0.2l-13.3-6.2c-1.1-0.5-1.6-1.8-1.1-2.9s1.8-1.6,2.9-1.1l13.3,6.2
					c1.1,0.5,1.6,1.8,1.1,2.9C235.7,65.3,234.9,65.8,234,65.8z"/>
			</g>
			<g>
				<path class="st0" d="M238.6,79.1c-0.3,0-0.6-0.1-0.9-0.2l-13.3-6.2c-1.1-0.5-1.6-1.8-1.1-2.9s1.8-1.6,2.9-1.1l13.3,6.2
					c1.1,0.5,1.6,1.8,1.1,2.9C240.3,78.6,239.5,79.1,238.6,79.1z"/>
			</g>
		</g>
		<g>
			
				<rect x="203.9" y="25.3" transform="matrix(0.9501 -0.3118 0.3118 0.9501 2.5359 70.8265)" class="st0" width="37.6" height="4.4"/>
		</g>
	</g>
	<g>
		<g>
			<path d="M239.6,110.8L233.4,88c0,0,29.2-55.4,32.5-61.5c3.2-6.1,10.9-14.8,23.5-8.1c14,7.4,4.8,25,4.8,25l-31.4,59.5L239.6,110.8
				z"/>
			<path d="M238.1,113.7l-7-25.9L264,25.5c8.8-16.7,22.5-11.2,26.4-9.1c12.6,6.7,9.3,21.2,5.7,28l-31.8,60.2L238.1,113.7z
				 M235.8,88.3l5.4,19.7l20.1-6.9l31-58.7c0.3-0.6,8-15.8-3.9-22c-4.9-2.6-14-5-20.5,7.2L235.8,88.3z"/>
		</g>
		<g>
			<path class="st0" d="M238.9,114.3c-0.4,0-0.7-0.1-1-0.3c-1.1-0.6-1.5-1.9-0.9-3l38.8-73.4c0.6-1.1,1.9-1.5,3-0.9s1.5,1.9,0.9,3
				l-38.8,73.5C240.5,113.8,239.7,114.3,238.9,114.3z"/>
		</g>
		<g>
			<g>
				<path class="st0" d="M266.7,59.3c-0.9,0-1.8-0.6-2.1-1.5l-4.5-14c-0.4-1.2,0.3-2.4,1.4-2.8c1.2-0.4,2.4,0.3,2.8,1.4l4.5,13.9
					c0.4,1.2-0.3,2.4-1.4,2.8C267.2,59.2,266.9,59.3,266.7,59.3z"/>
			</g>
			<g>
				<path class="st0" d="M260.2,71.7c-0.9,0-1.8-0.6-2.1-1.5l-4.5-13.9c-0.4-1.2,0.3-2.4,1.4-2.8c1.1-0.4,2.4,0.3,2.8,1.4l4.5,13.9
					c0.4,1.2-0.3,2.4-1.4,2.8C260.6,71.6,260.4,71.7,260.2,71.7z"/>
			</g>
			<g>
				<path class="st0" d="M253.6,84.1c-0.9,0-1.8-0.6-2.1-1.5l-4.5-14c-0.4-1.2,0.3-2.4,1.4-2.8s2.4,0.3,2.8,1.4l4.5,13.9
					c0.4,1.2-0.3,2.4-1.4,2.8C254.1,84.1,253.8,84.1,253.6,84.1z"/>
			</g>
		</g>
		<g>
			
				<rect x="276.8" y="17.9" transform="matrix(0.4821 -0.8761 0.8761 0.4821 112.2546 263.4377)" class="st0" width="4.4" height="37.7"/>
		</g>
	</g>
	<path class="st0" d="M253.3,495.6c74.5,0,141.1-32.7,185.5-84l-19.7-64.4l-76.5-67.9c0,0-3.2-83.6-3.2-89.8
		c0-6.2-30.2-67.9-30.2-67.9S279,89.2,265,85c-14-4.2-34.5,5.2-34.5,5.2l-34.5,46L143.4,271l-20.5,84.6l-44.4,67.8
		C122.6,467.9,184.6,495.6,253.3,495.6z"/>
	<g>
		<g>
			<path class="st1" d="M241.6,301.5c-0.7,1.5-1.1,6-1.3,7.8h28.8c-0.1-1.8-0.6-6.3-1.3-7.8H241.6z"/>
		</g>
		<g>
			<path class="st1" d="M265.9,299.9c-2.9-3.5-7.1-5.5-11-5.6l0,0c0,0-0.1,0-0.2,0c0,0-0.1,0-0.2,0l0,0c-3.8,0.1-8.1,2.1-11,5.6
				H265.9z"/>
		</g>
		<g>
			<path class="st1" d="M268.3,317.2c0.4-1.5,0.7-4.6,0.9-6.3h-28.8c0.1,1.7,0.5,4.8,0.9,6.3H268.3z"/>
		</g>
		<g>
			<path class="st1" d="M267.3,318.8h-25c1.6,4.2,3.7,7,3.7,7s-9.6,31.7-9.6,53.1c0,20.2,16.7,19.6,18.5,19.5
				c1.8,0.1,18.5,0.8,18.5-19.5c0-21.4-9.6-53.1-9.6-53.1S265.6,323,267.3,318.8z"/>
		</g>
	</g>
	<g>
		<path d="M142.2,374c-0.5,0-1-0.1-1.5-0.3c-2.3-0.8-3.5-3.4-2.6-5.6l31.1-85.1c0.8-2.3,3.4-3.5,5.6-2.6c2.3,0.8,3.5,3.4,2.6,5.6
			l-31.1,85.1C145.7,372.9,144,374,142.2,374z"/>
	</g>
	<g>
		<defs>
			<ellipse id="SVGID_2_" cx="252.1" cy="247.8" rx="252.1" ry="247.8"/>
		</defs>
		<clipPath id="SVGID_4_">
			<use xlink:href="#SVGID_2_"  style="overflow:visible;"/>
		</clipPath>
		<g class="st2">
			<g>
				<g>
					<polygon id="SVGID_1_" class="st3" points="253.2,377.2 90.3,326.6 99.4,298.3 262.3,348.9 					"/>
				</g>
				<g>
					<g>
						<g>
							<defs>
								<polygon id="SVGID_5_" points="253.2,377.2 90.3,326.6 99.4,298.3 262.3,348.9 								"/>
							</defs>
							<clipPath id="SVGID_6_">
								<use xlink:href="#SVGID_5_"  style="overflow:visible;"/>
							</clipPath>
							<g class="st4">
								<g>
									<polygon points="255.6,361.9 281.9,348.5 284.1,352.7 262,363.9 274,386.5 269.7,388.8 									"/>
								</g>
								<g>
									<polygon points="245.6,358.8 271.9,345.4 274.1,349.5 252,360.8 264,383.5 259.7,385.6 									"/>
								</g>
								<g>
									<polygon points="235.6,355.7 261.9,342.3 264.1,346.4 241.9,357.7 254,380.4 249.7,382.5 									"/>
								</g>
								<g>
									<polygon points="225.6,352.7 251.9,339.2 254.1,343.3 232,354.6 243.9,377.3 239.7,379.4 									"/>
								</g>
								<g>
									<polygon points="215.6,349.5 241.9,336.1 244.2,340.3 222,351.5 234,374.2 229.7,376.3 									"/>
								</g>
								<g>
									<polygon points="205.7,346.4 231.9,333 234.2,337.2 212,348.5 224,371.1 219.7,373.2 									"/>
								</g>
								<g>
									<polygon points="195.7,343.3 221.9,329.9 224.2,334.1 202.1,345.3 214,368 209.8,370.1 									"/>
								</g>
								<g>
									<polygon points="185.7,340.3 211.9,326.8 214.2,331 192.1,342.2 204,364.8 199.8,367 									"/>
								</g>
								<g>
									<polygon points="175.7,337.2 201.9,323.7 204.2,327.9 182.1,339.1 194,361.7 189.8,363.9 									"/>
								</g>
								<g>
									<polygon points="165.7,334.1 192,320.6 194.2,324.7 172.1,336.1 184,358.7 179.8,360.8 									"/>
								</g>
								<g>
									<polygon points="155.7,331 182,317.5 184.3,321.6 162.2,333 174,355.5 169.9,357.7 									"/>
								</g>
								<g>
									<polygon points="145.7,327.9 172,314.5 174.3,318.6 152.2,329.9 164.2,352.4 159.9,354.6 									"/>
								</g>
								<g>
									<polygon points="135.8,324.7 162.1,311.3 164.3,315.5 142.2,326.8 154.2,349.3 150,351.5 									"/>
								</g>
								<g>
									<polygon points="125.8,321.6 152.1,308.2 154.3,312.3 132.2,323.7 144.2,346.3 140,348.4 									"/>
								</g>
								<g>
									<polygon points="115.8,318.6 142.1,305.1 144.3,309.2 122.2,320.5 134.2,343.2 130,345.3 									"/>
								</g>
								<g>
									<polygon points="105.9,315.4 132.1,302 134.3,306.2 112.2,317.4 124.2,340 120,342.2 									"/>
								</g>
								<g>
									<polygon points="95.9,312.3 122.1,298.9 124.3,303.1 102.3,314.3 114.2,337 110,339.1 									"/>
								</g>
								<g>
									<polygon points="85.9,309.2 112.1,295.8 114.4,299.9 92.3,311.3 104.3,333.9 100,336.1 									"/>
								</g>
							</g>
						</g>
					</g>
				</g>
			</g>
			<g>
				<path d="M85,327.9l10.9-33.7L268,347.7l-10.9,33.7L85,327.9z M99,300.2l-7.9,24.5L254,375.3l7.9-24.5L99,300.2z"/>
			</g>
		</g>
		<g class="st2">
			<path d="M210,125.6c8-6.9,34.4-11.3,37.9-15.7c1.8-2.3,2.8-0.4,2.5-17.4c-0.1-6.4,0.2-7.1-1.2-9.3s-13.7-7.8-40.1,4.1
				s-46.4,67.4-51,81.2s-14.8,30.1-26,37c-11.1,6.9-32,11.4-33.4,28.7s0.5,26-10.2,33.7s-23.5,9.7-20.4,28.7
				c4.4,26.9-6.1,39.6-11.6,47.9c-36.4,54.7,30.4,89.4,30.4,89.4S42.7,383,169.1,316.9c24.1-12.6,36.7-8.7,51.5-25.3
				c6.5-7.3,5.6-28.3,2.8-36c-2.4-6.8-12.1-9.1-19.9-39.2C198.3,196.8,197.6,136.1,210,125.6z"/>
		</g>
		<g class="st2">
			<path d="M321.7,413.2c-1.6,0-3.1-0.9-3.8-2.4l-24.3-52c-1-2.1,0-4.5,2-5.4c2.1-1,4.6,0,5.5,2l24.4,52c1,2.1,0,4.5-2,5.4
				C323,413,322.3,413.2,321.7,413.2z"/>
		</g>
		<g class="st2">
			<path d="M289,430.1c-1.7-0.1-3.3-1.2-3.9-2.8l-21.7-56.1c-0.9-2.2,0.4-4.7,2.6-5.4c2.4-0.8,5,0.4,5.8,2.5l21.7,56.1
				c0.9,2.2-0.4,4.7-2.6,5.4C290.2,430,289.5,430.1,289,430.1z"/>
		</g>
		<g class="st2">
			<g>
				<g>
					<polygon id="SVGID_3_" class="st3" points="259.4,347.5 422.3,297 431.4,325.3 268.5,375.8 					"/>
				</g>
				<g>
					<g>
						<g>
							<defs>
								<polygon id="SVGID_7_" points="259.4,347.5 422.3,297 431.4,325.3 268.5,375.8 								"/>
							</defs>
							<clipPath id="SVGID_8_">
								<use xlink:href="#SVGID_7_"  style="overflow:visible;"/>
							</clipPath>
							<g class="st5">
								<g>
									<polygon points="252,387.4 247.8,385.2 259.8,362.6 237.7,351.3 239.8,347.1 266.2,360.6 									"/>
								</g>
								<g>
									<polygon points="262,384.2 257.8,382.1 269.7,359.5 247.7,348.2 249.8,344 276.1,357.5 									"/>
								</g>
								<g>
									<polygon points="272,381.1 267.7,379 279.8,356.3 257.6,345.1 259.8,340.9 286.1,354.4 									"/>
								</g>
								<g>
									<polygon points="282,378.1 277.8,375.9 289.8,353.3 267.6,342 269.8,337.8 296.1,351.3 									"/>
								</g>
								<g>
									<polygon points="292,375 287.8,372.8 299.8,350.2 277.6,338.9 279.8,334.7 306.1,348.2 									"/>
								</g>
								<g>
									<polygon points="302,371.8 297.8,369.8 309.7,347.1 287.5,335.8 289.8,331.6 316.1,345.1 									"/>
								</g>
								<g>
									<polygon points="312,368.7 307.7,366.7 319.7,343.9 297.5,332.7 299.8,328.5 326.1,342 									"/>
								</g>
								<g>
									<polygon points="322,365.7 317.7,363.5 329.7,340.9 307.5,329.6 309.8,325.4 336,338.9 									"/>
								</g>
								<g>
									<polygon points="331.9,362.6 327.7,360.4 339.6,337.8 317.5,326.6 319.8,322.4 346,335.8 									"/>
								</g>
								<g>
									<polygon points="341.9,359.4 337.7,357.3 349.6,334.7 327.5,323.4 329.7,319.3 356,332.7 									"/>
								</g>
								<g>
									<polygon points="351.9,356.3 347.7,354.2 359.6,331.6 337.5,320.3 339.7,316.2 366,329.6 									"/>
								</g>
								<g>
									<polygon points="361.8,353.3 357.6,351.1 369.5,328.5 347.5,317.2 349.7,313.1 376,326.6 									"/>
								</g>
								<g>
									<polygon points="371.8,350.2 367.5,348 379.5,325.4 357.4,314.1 359.7,309.9 386,323.4 									"/>
								</g>
								<g>
									<polygon points="381.8,347 377.5,344.9 389.5,322.4 367.4,311 369.7,306.8 396,320.3 									"/>
								</g>
								<g>
									<polygon points="391.7,343.9 387.5,341.8 399.5,319.2 377.4,307.9 379.6,303.7 405.9,317.2 									"/>
								</g>
								<g>
									<polygon points="401.7,340.9 397.5,338.7 409.5,316.1 387.4,304.8 389.6,300.6 415.9,314 									"/>
								</g>
								<g>
									<polygon points="411.7,337.8 407.5,335.6 419.5,313 397.4,301.7 399.6,297.5 425.9,311 									"/>
								</g>
								<g>
									<polygon points="421.7,334.7 417.5,332.5 429.5,309.9 407.4,298.6 409.6,294.4 435.8,307.9 									"/>
								</g>
							</g>
						</g>
					</g>
				</g>
			</g>
			<g>
				<path d="M264.6,380l-10.9-33.7l172.1-53.5l10.9,33.7L264.6,380z M259.9,349.4l7.9,24.5l162.8-50.5l-7.9-24.5L259.9,349.4z"/>
			</g>
		</g>
		<g class="st2">
			<path d="M196.5,305.8c0,0-48.2,9.9-37.6,60.2s55,55.2,55,55.2s-98.4,68.6-159.1-16.3C20.5,356.5,196.5,305.8,196.5,305.8z"/>
		</g>
		<g class="st2">
			<path d="M389.2,413.2c-1.6,0-3.1-0.9-3.8-2.4l-24.3-52c-1-2.1,0-4.5,2-5.4c2.1-1,4.6,0,5.5,2l24.4,52c1,2.1,0,4.5-2,5.4
				C390.3,413,389.7,413.2,389.2,413.2z"/>
		</g>
		<g class="st2">
			<path d="M369.7,441.8c-1.6,0-3.1-0.9-3.8-2.4l-24.4-52c-1-2.1,0-4.5,2-5.4c2.1-1,4.6,0,5.5,2l24.3,52c1,2.1,0,4.5-2,5.4
				C371,441.7,370.3,441.8,369.7,441.8z"/>
		</g>
		<g class="st2">
			<path d="M198.3,414.2c-2-0.9-3-3.3-2-5.4l24.4-52c0.9-2,3.4-2.9,5.5-2c2,0.9,3,3.3,2,5.4l-24.3,52c-0.7,1.5-2.2,2.4-3.8,2.4
				C199.5,414.6,198.8,414.4,198.3,414.2z"/>
		</g>
		<g class="st2">
			<path d="M230.9,431.2c-2.2-0.7-3.5-3.2-2.6-5.4l21.7-56.1c0.8-2.1,3.4-3.4,5.8-2.5c2.2,0.7,3.5,3.2,2.6,5.4l-21.7,56.1
				c-0.6,1.6-2.2,2.6-3.9,2.8C232.2,431.5,231.5,431.4,230.9,431.2z"/>
		</g>
		<g class="st2">
			<path d="M130.8,414.2c-2-0.9-3-3.3-2-5.4l24.4-52c0.9-2,3.4-2.9,5.5-2c2,0.9,3,3.3,2,5.4l-24.3,52c-0.7,1.5-2.2,2.4-3.8,2.4
				C132.1,414.6,131.5,414.4,130.8,414.2z"/>
		</g>
		<g class="st2">
			<path d="M150.5,442.8c-2-0.9-3-3.3-2-5.4l24.3-52c0.9-2,3.4-2.9,5.5-2c2,0.9,3,3.3,2,5.4l-24.4,52c-0.7,1.5-2.2,2.4-3.8,2.4
				C151.5,443.2,150.8,443.1,150.5,442.8z"/>
		</g>
		<g class="st2">
			<g>
				<path d="M295,125.6c-8-6.9-34.4-11.3-37.9-15.7c-1.8-2.3-2.8-0.4-2.5-17.4c0.1-6.4-0.2-7.1,1.2-9.3c1.4-2.3,13.7-7.8,40.1,4.1
					s46.4,67.4,51,81.2c4.6,13.7,14.8,30.1,26,37c11.1,6.9,32,11.4,33.4,28.7s-0.5,26,10.2,33.7s23.5,9.7,20.4,28.7
					c-4.4,26.9,6.1,39.6,11.6,47.9c36.4,54.7-26,85-26,85s-23.2-115.8-86.6-115.3c-27.3,0.2-36.4-5.7-51.2-22.3
					c-6.5-7.3-5.6-28.3-2.8-36c2.5-6.8,12.1-9.1,19.9-39.2C306.7,196.8,307.3,136.1,295,125.6z"/>
			</g>
		</g>
	</g>
	<g>
		<path d="M92.2,422.3c-0.5,0-1-0.1-1.5-0.3c-2.3-0.8-3.4-3.4-2.6-5.7l21.3-57.7c0.8-2.3,3.4-3.5,5.7-2.6c2.3,0.8,3.4,3.4,2.6,5.7
			l-21.3,57.7C95.6,421.2,94,422.3,92.2,422.3z"/>
	</g>
	<g>
		<path d="M256.2,299.1l-36-14.3c-0.6-0.3-0.8-0.7-0.2-1.1c0.6-0.3,1.5-0.4,2.2-0.1l34,13.5l31.2-13.6c0.6-0.3,1.6-0.2,2.2,0.1
			c0.6,0.3,0.5,0.8-0.1,1.1L256.2,299.1z"/>
	</g>
	<path d="M283.6,432"/>
	<polyline class="st0" points="237.8,398.5 247.6,372 235.5,368.1 	"/>
</g>
</svg>
