<?xml version="1.0" encoding="utf-8"?>
<!-- Generator: Adobe Illustrator 24.1.1, SVG Export Plug-In . SVG Version: 6.00 Build 0)  -->
<svg version="1.1" id="Layer_1" xmlns="http://www.w3.org/2000/svg" xmlns:xlink="http://www.w3.org/1999/xlink" x="0px" y="0px"
	 viewBox="0 0 505 502" style="enable-background:new 0 0 505 502;" xml:space="preserve">
<style type="text/css">
	.st0{fill:#FFFFFF;}
	.st1{fill:#023000;}
	.st2{clip-path:url(#SVGID_4_);}
	.st3{fill:#B11116;}
	.st4{clip-path:url(#SVGID_6_);}
	.st5{clip-path:url(#SVGID_8_);}
	.st6{clip-path:url(#SVGID_10_);}
	.st7{clip-path:url(#SVGID_12_);}
	.st8{clip-path:url(#SVGID_14_);}
	.st9{clip-path:url(#SVGID_16_);}
	.st10{clip-path:url(#SVGID_18_);}
	.st11{clip-path:url(#SVGID_20_);}
	.st12{clip-path:url(#SVGID_22_);}
	.st13{clip-path:url(#SVGID_24_);}
	.st14{clip-path:url(#SVGID_26_);}
	.st15{clip-path:url(#SVGID_28_);}
	.st16{clip-path:url(#SVGID_30_);}
	.st17{clip-path:url(#SVGID_32_);}
</style>
<g id="Layer_2_1_">
</g>
<g id="Layer_3_1_">
</g>
<g id="Layer_2_3_">
</g>
<g id="Layer_4_1_">
</g>
<g>
	<g>
		<g>
			<path d="M250.2,113.2l-20.9-11c0,0-20.5-59.2-22.8-65.7s-3.4-18,10.1-22.7c15-5.2,21.5,13.6,21.5,13.6l22.1,63.5L250.2,113.2z"/>
			<path d="M251.3,116.3l-23.8-12.5l-23.1-66.5c-6.2-17.8,7.2-24,11.4-25.5c13.5-4.7,21.8,7.7,24.3,14.9L262.4,91L251.3,116.3z
				 M231.1,100.6l18.1,9.5l8.6-19.4L236,28.1c-0.2-0.7-6-16.6-18.7-12.2c-5.2,1.8-13.3,6.8-8.7,19.9L231.1,100.6z"/>
		</g>
		<g>
			<path class="st0" d="M250.7,116.8c-0.9,0-1.8-0.6-2.1-1.5l-27.2-78.5c-0.4-1.2,0.2-2.4,1.4-2.8c1.1-0.4,2.4,0.2,2.8,1.4
				l27.2,78.5c0.4,1.2-0.2,2.4-1.4,2.8C251.2,116.8,250.9,116.8,250.7,116.8z"/>
		</g>
		<g>
			<g>
				<path class="st0" d="M229.4,59c-0.3,0-0.6-0.1-0.9-0.2l-13.3-6.2c-1.1-0.5-1.6-1.8-1.1-2.9c0.5-1.1,1.8-1.6,2.9-1.1l13.3,6.2
					c1.1,0.5,1.6,1.8,1.1,2.9C231.1,58.5,230.3,59,229.4,59z"/>
			</g>
			<g>
				<path class="st0" d="M234,72.2c-0.3,0-0.6-0.1-0.9-0.2l-13.3-6.2c-1.1-0.5-1.6-1.8-1.1-2.9s1.8-1.6,2.9-1.1l13.3,6.2
					c1.1,0.5,1.6,1.8,1.1,2.9C235.7,71.7,234.9,72.2,234,72.2z"/>
			</g>
			<g>
				<path class="st0" d="M238.6,85.5c-0.3,0-0.6-0.1-0.9-0.2l-13.3-6.2c-1.1-0.5-1.6-1.8-1.1-2.9s1.8-1.6,2.9-1.1l13.3,6.2
					c1.1,0.5,1.6,1.8,1.1,2.9C240.3,85,239.5,85.5,238.6,85.5z"/>
			</g>
		</g>
		<g>
			
				<rect x="203.9" y="31.7" transform="matrix(0.9501 -0.3118 0.3118 0.9501 0.5248 71.1317)" class="st0" width="37.6" height="4.4"/>
		</g>
	</g>
	<g>
		<g>
			<path d="M239.6,117.2l-6.2-22.8c0,0,29.2-55.4,32.5-61.5c3.2-6.1,10.9-14.8,23.5-8.1c14,7.4,4.8,25,4.8,25l-31.4,59.5
				L239.6,117.2z"/>
			<path d="M238.1,120.1l-7-25.9L264,31.9c8.8-16.7,22.5-11.2,26.4-9.1c12.6,6.7,9.3,21.2,5.7,28L264.3,111L238.1,120.1z
				 M235.8,94.7l5.4,19.7l20.1-6.9l31-58.7c0.3-0.6,8-15.8-3.9-22c-4.9-2.6-14-5-20.5,7.2L235.8,94.7z"/>
		</g>
		<g>
			<path class="st0" d="M238.9,120.7c-0.4,0-0.7-0.1-1-0.3c-1.1-0.6-1.5-1.9-0.9-3L275.8,44c0.6-1.1,1.9-1.5,3-0.9s1.5,1.9,0.9,3
				l-38.8,73.5C240.5,120.2,239.7,120.7,238.9,120.7z"/>
		</g>
		<g>
			<g>
				<path class="st0" d="M266.7,65.7c-0.9,0-1.8-0.6-2.1-1.5l-4.5-14c-0.4-1.2,0.3-2.4,1.4-2.8c1.2-0.4,2.4,0.3,2.8,1.4l4.5,13.9
					c0.4,1.2-0.3,2.4-1.4,2.8C267.2,65.6,266.9,65.7,266.7,65.7z"/>
			</g>
			<g>
				<path class="st0" d="M260.2,78.1c-0.9,0-1.8-0.6-2.1-1.5l-4.5-13.9c-0.4-1.2,0.3-2.4,1.4-2.8c1.1-0.4,2.4,0.3,2.8,1.4l4.5,13.9
					c0.4,1.2-0.3,2.4-1.4,2.8C260.6,78,260.4,78.1,260.2,78.1z"/>
			</g>
			<g>
				<path class="st0" d="M253.6,90.5c-0.9,0-1.8-0.6-2.1-1.5L247,75c-0.4-1.2,0.3-2.4,1.4-2.8s2.4,0.3,2.8,1.4l4.5,13.9
					c0.4,1.2-0.3,2.4-1.4,2.8C254.1,90.5,253.8,90.5,253.6,90.5z"/>
			</g>
		</g>
		<g>
			
				<rect x="276.8" y="24.3" transform="matrix(0.4821 -0.8761 0.8761 0.4821 106.682 266.7353)" class="st0" width="4.4" height="37.7"/>
		</g>
	</g>
	<path class="st0" d="M253.3,502c74.5,0,141.1-32.7,185.5-84l-19.7-64.4l-76.5-67.9c0,0-3.2-83.6-3.2-89.8S309.2,128,309.2,128
		S279,95.6,265,91.4s-34.5,5.2-34.5,5.2l-34.5,46l-52.6,134.8L122.9,362l-44.4,67.8C122.6,474.3,184.6,502,253.3,502z"/>
	<g>
		<g>
			<path class="st1" d="M241.6,307.9c-0.7,1.5-1.1,6-1.3,7.8h28.8c-0.1-1.8-0.6-6.3-1.3-7.8H241.6z"/>
		</g>
		<g>
			<path class="st1" d="M265.9,306.3c-2.9-3.5-7.1-5.5-11-5.6l0,0c0,0-0.1,0-0.2,0c0,0-0.1,0-0.2,0l0,0c-3.8,0.1-8.1,2.1-11,5.6
				H265.9z"/>
		</g>
		<g>
			<path class="st1" d="M268.3,323.6c0.4-1.5,0.7-4.6,0.9-6.3h-28.8c0.1,1.7,0.5,4.8,0.9,6.3H268.3z"/>
		</g>
		<g>
			<path class="st1" d="M267.3,325.2h-25c1.6,4.2,3.7,7,3.7,7s-9.6,31.7-9.6,53.1c0,20.2,16.7,19.6,18.5,19.5
				c1.8,0.1,18.5,0.8,18.5-19.5c0-21.4-9.6-53.1-9.6-53.1S265.6,329.4,267.3,325.2z"/>
		</g>
	</g>
	<g>
		<path d="M142.2,380.4c-0.5,0-1-0.1-1.5-0.3c-2.3-0.8-3.5-3.4-2.6-5.6l31.1-85.1c0.8-2.3,3.4-3.5,5.6-2.6c2.3,0.8,3.5,3.4,2.6,5.6
			l-31.1,85.1C145.7,379.3,144,380.4,142.2,380.4z"/>
	</g>
	<g>
		<g>
			<defs>
				<ellipse id="SVGID_2_" cx="252.1" cy="254.2" rx="252.1" ry="247.8"/>
			</defs>
			<clipPath id="SVGID_4_">
				<use xlink:href="#SVGID_2_"  style="overflow:visible;"/>
			</clipPath>
			<g class="st2">
				<g>
					<g>
						<polygon id="SVGID_1_" class="st3" points="253.2,383.6 90.3,333 99.4,304.7 262.3,355.3 						"/>
					</g>
					<g>
						<g>
							<g>
								<g>
									<defs>
										<polygon id="SVGID_5_" points="253.2,383.6 90.3,333 99.4,304.7 262.3,355.3 										"/>
									</defs>
									<clipPath id="SVGID_6_">
										<use xlink:href="#SVGID_5_"  style="overflow:visible;"/>
									</clipPath>
									<g class="st4">
										<g>
											<polygon points="255.6,368.3 281.9,354.9 284.1,359.1 262,370.3 274,392.9 269.7,395.2 											"/>
										</g>
										<g>
											<polygon points="245.6,365.2 271.9,351.8 274.1,355.9 252,367.2 264,389.9 259.7,392 											"/>
										</g>
										<g>
											<polygon points="235.6,362.1 261.9,348.7 264.1,352.8 241.9,364.1 254,386.8 249.7,388.9 											"/>
										</g>
										<g>
											<polygon points="225.6,359.1 251.9,345.6 254.1,349.7 232,361 243.9,383.7 239.7,385.8 											"/>
										</g>
										<g>
											<polygon points="215.6,355.9 241.9,342.5 244.2,346.7 222,357.9 234,380.6 229.7,382.7 											"/>
										</g>
										<g>
											<polygon points="205.7,352.8 231.9,339.4 234.2,343.6 212,354.9 224,377.5 219.7,379.6 											"/>
										</g>
										<g>
											<polygon points="195.7,349.7 221.9,336.3 224.2,340.5 202.1,351.7 214,374.4 209.8,376.5 											"/>
										</g>
										<g>
											<polygon points="185.7,346.7 211.9,333.2 214.2,337.4 192.1,348.6 204,371.2 199.8,373.4 											"/>
										</g>
										<g>
											<polygon points="175.7,343.6 201.9,330.1 204.2,334.3 182.1,345.5 194,368.1 189.8,370.3 											"/>
										</g>
										<g>
											<polygon points="165.7,340.5 192,327 194.2,331.1 172.1,342.5 184,365.1 179.8,367.2 											"/>
										</g>
										<g>
											<polygon points="155.7,337.4 182,323.9 184.3,328 162.2,339.4 174,361.9 169.9,364.1 											"/>
										</g>
										<g>
											<polygon points="145.7,334.3 172,320.9 174.3,325 152.2,336.3 164.2,358.8 159.9,361 											"/>
										</g>
										<g>
											<polygon points="135.8,331.1 162.1,317.7 164.3,321.9 142.2,333.2 154.2,355.7 150,357.9 											"/>
										</g>
										<g>
											<polygon points="125.8,328 152.1,314.6 154.3,318.7 132.2,330.1 144.2,352.7 140,354.8 											"/>
										</g>
										<g>
											<polygon points="115.8,325 142.1,311.5 144.3,315.6 122.2,326.9 134.2,349.6 130,351.7 											"/>
										</g>
										<g>
											<polygon points="105.9,321.8 132.1,308.4 134.3,312.6 112.2,323.8 124.2,346.4 120,348.6 											"/>
										</g>
										<g>
											<polygon points="95.9,318.7 122.1,305.3 124.3,309.5 102.3,320.7 114.2,343.4 110,345.5 											"/>
										</g>
										<g>
											<polygon points="85.9,315.6 112.1,302.2 114.4,306.3 92.3,317.7 104.3,340.3 100,342.5 											"/>
										</g>
									</g>
								</g>
							</g>
						</g>
					</g>
				</g>
				<g>
					<path d="M85,334.3l10.9-33.7L268,354.1l-10.9,33.7L85,334.3z M99,306.6l-7.9,24.5L254,381.7l7.9-24.5L99,306.6z"/>
				</g>
			</g>
		</g>
		<g>
			<defs>
				<ellipse id="SVGID_7_" cx="252.1" cy="254.2" rx="252.1" ry="247.8"/>
			</defs>
			<clipPath id="SVGID_8_">
				<use xlink:href="#SVGID_7_"  style="overflow:visible;"/>
			</clipPath>
			<g class="st5">
				<path d="M210,132c8-6.9,34.4-11.3,37.9-15.7c1.8-2.3,2.8-0.4,2.5-17.4c-0.1-6.4,0.2-7.1-1.2-9.3s-13.7-7.8-40.1,4.1
					s-46.4,67.4-51,81.2s-14.8,30.1-26,37c-11.1,6.9-32,11.4-33.4,28.7s0.5,26-10.2,33.7S65,284,68.1,303
					c4.4,26.9-6.1,39.6-11.6,47.9c-36.4,54.7,30.4,89.4,30.4,89.4s-44.2-50.9,82.2-117c24.1-12.6,36.7-8.7,51.5-25.3
					c6.5-7.3,5.6-28.3,2.8-36c-2.4-6.8-12.1-9.1-19.9-39.2C198.3,203.2,197.6,142.5,210,132z"/>
			</g>
		</g>
		<g>
			<defs>
				<ellipse id="SVGID_9_" cx="252.1" cy="254.2" rx="252.1" ry="247.8"/>
			</defs>
			<clipPath id="SVGID_10_">
				<use xlink:href="#SVGID_9_"  style="overflow:visible;"/>
			</clipPath>
			<g class="st6">
				<path d="M321.7,419.6c-1.6,0-3.1-0.9-3.8-2.4l-24.3-52c-1-2.1,0-4.5,2-5.4c2.1-1,4.6,0,5.5,2l24.4,52c1,2.1,0,4.5-2,5.4
					C323,419.4,322.3,419.6,321.7,419.6z"/>
			</g>
		</g>
		<g>
			<defs>
				<ellipse id="SVGID_11_" cx="252.1" cy="254.2" rx="252.1" ry="247.8"/>
			</defs>
			<clipPath id="SVGID_12_">
				<use xlink:href="#SVGID_11_"  style="overflow:visible;"/>
			</clipPath>
			<g class="st7">
				<path d="M289,436.5c-1.7-0.1-3.3-1.2-3.9-2.8l-21.7-56.1c-0.9-2.2,0.4-4.7,2.6-5.4c2.4-0.8,5,0.4,5.8,2.5l21.7,56.1
					c0.9,2.2-0.4,4.7-2.6,5.4C290.2,436.4,289.5,436.5,289,436.5z"/>
			</g>
		</g>
		<g>
			<defs>
				<ellipse id="SVGID_13_" cx="252.1" cy="254.2" rx="252.1" ry="247.8"/>
			</defs>
			<clipPath id="SVGID_14_">
				<use xlink:href="#SVGID_13_"  style="overflow:visible;"/>
			</clipPath>
			<g class="st8">
				<g>
					<g>
						<polygon id="SVGID_3_" class="st3" points="259.4,353.9 422.3,303.4 431.4,331.7 268.5,382.2 						"/>
					</g>
					<g>
						<g>
							<g>
								<g>
									<defs>
										<polygon id="SVGID_15_" points="259.4,353.9 422.3,303.4 431.4,331.7 268.5,382.2 										"/>
									</defs>
									<clipPath id="SVGID_16_">
										<use xlink:href="#SVGID_15_"  style="overflow:visible;"/>
									</clipPath>
									<g class="st9">
										<g>
											<polygon points="252,393.8 247.8,391.6 259.8,369 237.7,357.7 239.8,353.5 266.2,367 											"/>
										</g>
										<g>
											<polygon points="262,390.6 257.8,388.5 269.7,365.9 247.7,354.6 249.8,350.4 276.1,363.9 											"/>
										</g>
										<g>
											<polygon points="272,387.5 267.7,385.4 279.8,362.7 257.6,351.5 259.8,347.3 286.1,360.8 											"/>
										</g>
										<g>
											<polygon points="282,384.5 277.8,382.3 289.8,359.7 267.6,348.4 269.8,344.2 296.1,357.7 											"/>
										</g>
										<g>
											<polygon points="292,381.4 287.8,379.2 299.8,356.6 277.6,345.3 279.8,341.1 306.1,354.6 											"/>
										</g>
										<g>
											<polygon points="302,378.2 297.8,376.2 309.7,353.5 287.5,342.2 289.8,338 316.1,351.5 											"/>
										</g>
										<g>
											<polygon points="312,375.1 307.7,373.1 319.7,350.3 297.5,339.1 299.8,334.9 326.1,348.4 											"/>
										</g>
										<g>
											<polygon points="322,372.1 317.7,369.9 329.7,347.3 307.5,336 309.8,331.8 336,345.3 											"/>
										</g>
										<g>
											<polygon points="331.9,369 327.7,366.8 339.6,344.2 317.5,333 319.8,328.8 346,342.2 											"/>
										</g>
										<g>
											<polygon points="341.9,365.8 337.7,363.7 349.6,341.1 327.5,329.8 329.7,325.7 356,339.1 											"/>
										</g>
										<g>
											<polygon points="351.9,362.7 347.7,360.6 359.6,338 337.5,326.7 339.7,322.6 366,336 											"/>
										</g>
										<g>
											<polygon points="361.8,359.7 357.6,357.5 369.5,334.9 347.5,323.6 349.7,319.5 376,333 											"/>
										</g>
										<g>
											<polygon points="371.8,356.6 367.5,354.4 379.5,331.8 357.4,320.5 359.7,316.3 386,329.8 											"/>
										</g>
										<g>
											<polygon points="381.8,353.4 377.5,351.3 389.5,328.8 367.4,317.4 369.7,313.2 396,326.7 											"/>
										</g>
										<g>
											<polygon points="391.7,350.3 387.5,348.2 399.5,325.6 377.4,314.3 379.6,310.1 405.9,323.6 											"/>
										</g>
										<g>
											<polygon points="401.7,347.3 397.5,345.1 409.5,322.5 387.4,311.2 389.6,307 415.9,320.4 											"/>
										</g>
										<g>
											<polygon points="411.7,344.2 407.5,342 419.5,319.4 397.4,308.1 399.6,303.9 425.9,317.4 											"/>
										</g>
										<g>
											<polygon points="421.7,341.1 417.5,338.9 429.5,316.3 407.4,305 409.6,300.8 435.8,314.3 											"/>
										</g>
									</g>
								</g>
							</g>
						</g>
					</g>
				</g>
				<g>
					<path d="M264.6,386.4l-10.9-33.7l172.1-53.5l10.9,33.7L264.6,386.4z M259.9,355.8l7.9,24.5l162.8-50.5l-7.9-24.5L259.9,355.8z"
						/>
				</g>
			</g>
		</g>
		<g>
			<defs>
				<ellipse id="SVGID_17_" cx="252.1" cy="254.2" rx="252.1" ry="247.8"/>
			</defs>
			<clipPath id="SVGID_18_">
				<use xlink:href="#SVGID_17_"  style="overflow:visible;"/>
			</clipPath>
			<g class="st10">
				<path d="M196.5,312.2c0,0-48.2,9.9-37.6,60.2s55,55.2,55,55.2s-98.4,68.6-159.1-16.3C20.5,362.9,196.5,312.2,196.5,312.2z"/>
			</g>
		</g>
		<g>
			<defs>
				<ellipse id="SVGID_19_" cx="252.1" cy="254.2" rx="252.1" ry="247.8"/>
			</defs>
			<clipPath id="SVGID_20_">
				<use xlink:href="#SVGID_19_"  style="overflow:visible;"/>
			</clipPath>
			<g class="st11">
				<path d="M389.2,419.6c-1.6,0-3.1-0.9-3.8-2.4l-24.3-52c-1-2.1,0-4.5,2-5.4c2.1-1,4.6,0,5.5,2l24.4,52c1,2.1,0,4.5-2,5.4
					C390.3,419.4,389.7,419.6,389.2,419.6z"/>
			</g>
		</g>
		<g>
			<defs>
				<ellipse id="SVGID_21_" cx="252.1" cy="254.2" rx="252.1" ry="247.8"/>
			</defs>
			<clipPath id="SVGID_22_">
				<use xlink:href="#SVGID_21_"  style="overflow:visible;"/>
			</clipPath>
			<g class="st12">
				<path d="M369.7,448.2c-1.6,0-3.1-0.9-3.8-2.4l-24.4-52c-1-2.1,0-4.5,2-5.4c2.1-1,4.6,0,5.5,2l24.3,52c1,2.1,0,4.5-2,5.4
					C371,448.1,370.3,448.2,369.7,448.2z"/>
			</g>
		</g>
		<g>
			<defs>
				<ellipse id="SVGID_23_" cx="252.1" cy="254.2" rx="252.1" ry="247.8"/>
			</defs>
			<clipPath id="SVGID_24_">
				<use xlink:href="#SVGID_23_"  style="overflow:visible;"/>
			</clipPath>
			<g class="st13">
				<path d="M198.3,420.6c-2-0.9-3-3.3-2-5.4l24.4-52c0.9-2,3.4-2.9,5.5-2c2,0.9,3,3.3,2,5.4l-24.3,52c-0.7,1.5-2.2,2.4-3.8,2.4
					C199.5,421,198.8,420.8,198.3,420.6z"/>
			</g>
		</g>
		<g>
			<defs>
				<ellipse id="SVGID_25_" cx="252.1" cy="254.2" rx="252.1" ry="247.8"/>
			</defs>
			<clipPath id="SVGID_26_">
				<use xlink:href="#SVGID_25_"  style="overflow:visible;"/>
			</clipPath>
			<g class="st14">
				<path d="M230.9,437.6c-2.2-0.7-3.5-3.2-2.6-5.4l21.7-56.1c0.8-2.1,3.4-3.4,5.8-2.5c2.2,0.7,3.5,3.2,2.6,5.4l-21.7,56.1
					c-0.6,1.6-2.2,2.6-3.9,2.8C232.2,437.9,231.5,437.8,230.9,437.6z"/>
			</g>
		</g>
		<g>
			<defs>
				<ellipse id="SVGID_27_" cx="252.1" cy="254.2" rx="252.1" ry="247.8"/>
			</defs>
			<clipPath id="SVGID_28_">
				<use xlink:href="#SVGID_27_"  style="overflow:visible;"/>
			</clipPath>
			<g class="st15">
				<path d="M130.8,420.6c-2-0.9-3-3.3-2-5.4l24.4-52c0.9-2,3.4-2.9,5.5-2c2,0.9,3,3.3,2,5.4l-24.3,52c-0.7,1.5-2.2,2.4-3.8,2.4
					C132.1,421,131.5,420.8,130.8,420.6z"/>
			</g>
		</g>
		<g>
			<defs>
				<ellipse id="SVGID_29_" cx="252.1" cy="254.2" rx="252.1" ry="247.8"/>
			</defs>
			<clipPath id="SVGID_30_">
				<use xlink:href="#SVGID_29_"  style="overflow:visible;"/>
			</clipPath>
			<g class="st16">
				<path d="M150.5,449.2c-2-0.9-3-3.3-2-5.4l24.3-52c0.9-2,3.4-2.9,5.5-2c2,0.9,3,3.3,2,5.4l-24.4,52c-0.7,1.5-2.2,2.4-3.8,2.4
					C151.5,449.6,150.8,449.5,150.5,449.2z"/>
			</g>
		</g>
		<g>
			<defs>
				<ellipse id="SVGID_31_" cx="252.9" cy="247.8" rx="252.1" ry="247.8"/>
			</defs>
			<clipPath id="SVGID_32_">
				<use xlink:href="#SVGID_31_"  style="overflow:visible;"/>
			</clipPath>
			<g class="st17">
				<g>
					<path d="M295,132c-8-6.9-34.4-11.3-37.9-15.7c-1.8-2.3-2.8-0.4-2.5-17.4c0.1-6.4-0.2-7.1,1.2-9.3c1.4-2.3,13.7-7.8,40.1,4.1
						s46.4,67.4,51,81.2c4.6,13.7,14.8,30.1,26,37c11.1,6.9,32,11.4,33.4,28.7s-0.5,26,10.2,33.7S440,284,436.9,303
						c-4.4,26.9,6.1,39.6,11.6,47.9c36.4,54.7-26,85-26,85s-23.2-115.8-86.6-115.3c-27.3,0.2-36.4-5.7-51.2-22.3
						c-6.5-7.3-5.6-28.3-2.8-36c2.5-6.8,12.1-9.1,19.9-39.2C306.7,203.2,307.3,142.5,295,132z"/>
				</g>
			</g>
		</g>
	</g>
	<g>
		<path d="M92.2,428.7c-0.5,0-1-0.1-1.5-0.3c-2.3-0.8-3.4-3.4-2.6-5.7l21.3-57.7c0.8-2.3,3.4-3.5,5.7-2.6c2.3,0.8,3.4,3.4,2.6,5.7
			l-21.3,57.7C95.6,427.6,94,428.7,92.2,428.7z"/>
	</g>
	<g>
		<path d="M256.2,305.5l-36-14.3c-0.6-0.3-0.8-0.7-0.2-1.1c0.6-0.3,1.5-0.4,2.2-0.1l34,13.5l31.2-13.6c0.6-0.3,1.6-0.2,2.2,0.1
			c0.6,0.3,0.5,0.8-0.1,1.1L256.2,305.5z"/>
	</g>
	<path d="M283.6,438.4"/>
	<polyline class="st0" points="236.6,410.7 246.7,384.6 234.6,380.8 	"/>
</g>
</svg>
