<svg xmlns="http://www.w3.org/2000/svg" xmlns:xlink="http://www.w3.org/1999/xlink" xml:space="preserve" id="Layer_1" x="0" y="0" style="enable-background:new 0 0 505 502" version="1.1" viewBox="0 0 505 502"><style>.st0{fill:none;stroke:#000;stroke-miterlimit:10}</style><path d="m222.7 88.7-18.3-51.4c-6.2-17.8 7.2-24 11.4-25.5 13.5-4.7 21.8 7.7 24.3 14.9l21.4 60.2M238.7 86.8l-17.3-50M225.6 35.4 243 86.8" class="st0"/><path d="M229.4 59c-.3 0-.6-.1-.9-.2l-13.3-6.2c-1.1-.5-1.6-1.8-1.1-2.9.5-1.1 1.8-1.6 2.9-1.1l10.2 5M234 72.2c-.3 0-.6-.1-.9-.2l-13.3-6.2c-1.1-.5-1.6-1.8-1.1-2.9s1.8-1.6 2.9-1.1l10.2 5.1M238.6 85.5c-.3 0-.6-.1-.9-.2l-13.3-6.2c-1.1-.5-1.6-1.8-1.1-2.9s1.8-1.6 2.9-1.1l10.2 5" class="st0"/><path stroke-width=".99995" d="m204.143 37.67 35.723-11.724 1.372 4.18-35.723 11.724z" class="st0"/><path d="M250.7 57.2 264 31.9c8.8-16.7 22.5-11.2 26.4-9.1 12.6 6.7 9.3 21.2 5.7 28M258.5 78.1 275.8 44" class="st0"/><path d="m265.4 64.6-5.3-14.4c-.4-1.2.3-2.4 1.4-2.8 1.2-.4 2.4.3 2.8 1.4l3.6 11M258.7 77.7l-5.1-15c-.4-1.2.3-2.4 1.4-2.8 1.1-.4 2.4.3 2.8 1.4l3.5 11.3" class="st0"/><path stroke-width=".99999" d="m261.463 36.007 2.12-3.855 33.03 18.175-2.122 3.855z" class="st0"/><path d="m268 347.6-4.2-15.4s1.8-2.8 3.5-7h-25c1.6 4.2 3.7 7 3.7 7s-1.2 2.8-3.6 13.4M236.9 382.2c.1 3.1-.2 13.3 4.7 18 5.1 4.9 12.2 4.7 13.3 4.6 1.8.1 19.3 2.2 18.5-21.2M241.6 307.9c-.7 1.5-1.1 6-1.3 7.8h28.8c-.1-1.8-.6-6.3-1.3-7.8h-26.2zM265.9 306.3c-2.9-3.5-7.1-5.5-11-5.6h-.4c-3.8.1-8.1 2.1-11 5.6h22.4zM268.3 323.6c.4-1.5.7-4.6.9-6.3h-28.8c.1 1.7.5 4.8.9 6.3h27zM168.1 397.8l11.4-31.1c.8-2.3 3.4-3.5 5.6-2.6 2.3.8 3.5 3.4 2.6 5.6l-13.2 36.1" class="st0"/><defs><path id="SVGID_1_" d="M253.2 383.6 161 355c1.2-3.5 2.8-7.6 5.2-12 3.4-6.2 7.2-10.9 10.4-14.2 28.6 8.9 57.1 17.7 85.7 26.6l-9.1 28.2z"/></defs><clipPath id="SVGID_2_"><use xlink:href="#SVGID_1_" style="overflow:visible"/></clipPath><g style="clip-path:url(#SVGID_2_)"><path d="m255.6 368.3 26.3-13.4 2.2 4.2-22.1 11.2 12 22.6-4.3 2.3z" class="st0"/><path d="m245.6 365.2 26.3-13.4 2.2 4.1-22.1 11.3 12 22.7-4.3 2.1z" class="st0"/><path d="m235.6 362.1 26.3-13.4 2.2 4.1-22.2 11.3 12.1 22.7-4.3 2.1z" class="st0"/><path d="m225.6 359.1 26.3-13.5 2.2 4.1L232 361l11.9 22.7-4.2 2.1z" class="st0"/><path d="m215.6 355.9 26.3-13.4 2.3 4.2-22.2 11.2 12 22.7-4.3 2.1z" class="st0"/><path d="m205.7 352.8 26.2-13.4 2.3 4.2-22.2 11.3 12 22.6-4.3 2.1z" class="st0"/><path d="m195.7 349.7 26.2-13.4 2.3 4.2-22.1 11.2 11.9 22.7-4.2 2.1z" class="st0"/><path d="m185.7 346.7 26.2-13.5 2.3 4.2-22.1 11.2 11.9 22.6-4.2 2.2z" class="st0"/><path d="m175.7 343.6 26.2-13.5 2.3 4.2-22.1 11.2 11.9 22.6-4.2 2.2z" class="st0"/><path d="M167.4 340.9 192 327l2.2 4.1-22.1 11.4 11.9 22.6-4.2 2.1z" class="st0"/></g><use xlink:href="#SVGID_1_" style="overflow:visible;fill:none;stroke:#000;stroke-miterlimit:10"/><path d="M160.2 357.7c1.4-4.3 3.4-9.6 6.6-15.2 4-7 8.4-12.3 12-16.1 29.7 9.2 59.4 18.5 89.2 27.7l-10.9 33.7-96.9-30.1zM314.1 370.3l20.4 43.5c1 2.1 0 4.5-2 5.4-.5.2-1.2.4-1.8.4-1.6 0-3.1-.9-3.8-2.4l-20.6-44.1M283.4 381.2l21.7 56.1c.9 2.2-.4 4.7-2.6 5.4-.7.2-1.4.3-1.9.3-1.7-.1-3.3-1.2-4.3-3.8l-21.7-56.1" class="st0"/><defs><path id="SVGID_3_" d="m264 352.5 91.1-28.2c4.9 2.2 11.1 5.6 17.5 10.9 4.3 3.6 7.6 7.2 10.2 10.4l-114.3 36.6"/></defs><clipPath id="SVGID_4_"><use xlink:href="#SVGID_3_" style="overflow:visible"/></clipPath><g style="clip-path:url(#SVGID_4_)"><path d="m252 393.8-4.2-2.2 12-22.6-22.1-11.3 2.1-4.2 26.4 13.5z" class="st0"/><path d="m267.5 379-1.6-5.9 3.8-7.2-3.8-2.8 1.4-3.7 8.8 4.5z" class="st0"/><path d="m272 387.5-4.3-2.1 12.1-22.7-22.2-11.2 2.2-4.2 26.3 13.5z" class="st0"/><path d="m282 384.5-4.2-2.2 12-22.6-22.2-11.3 2.2-4.2 26.3 13.5z" class="st0"/><path d="m292 381.4-4.2-2.2 12-22.6-22.2-11.3 2.2-4.2 26.3 13.5z" class="st0"/><path d="m302 378.2-4.2-2 11.9-22.7-22.2-11.3 2.3-4.2 26.3 13.5z" class="st0"/><path d="m312 375.1-4.3-2 12-22.8-22.2-11.2 2.3-4.2 26.3 13.5z" class="st0"/><path d="m322 372.1-4.3-2.2 12-22.6-22.2-11.3 2.3-4.2 26.2 13.5z" class="st0"/><path d="m331.9 369-4.2-2.2 11.9-22.6-22.1-11.2 2.3-4.2 26.2 13.4z" class="st0"/><path d="m341.9 365.8-4.2-2.1 11.9-22.6-22.1-11.3 2.2-4.1 26.3 13.4z" class="st0"/><path d="m351.9 362.7-4.2-2.1 11.9-22.6-22.1-11.3 2.2-4.1L366 336z" class="st0"/><path d="m361.8 359.7-4.2-2.2 11.9-22.6-22-11.3 2.2-4.1" class="st0"/></g><use xlink:href="#SVGID_3_" style="overflow:visible;fill:none;stroke:#000;stroke-miterlimit:10"/><path d="m258.6 351.2 92.3-28.4c5.7 2.7 14.4 6.2 21.7 12.4 5.2 4.4 9.3 8.9 12.5 12.8-40.2 12.8-80.3 25.6-120.5 38.4l-3.3-10.2M54.8 411.3s-25.9-33 1.7-60.4c7.1-7 16-21 11.6-47.9-3.1-19 9.7-21 20.4-28.7s8.8-16.4 10.2-33.7c1.4-17.3 22.3-21.8 33.4-28.7 11.2-6.9 21.4-23.2 26-37s24.6-69.3 51-81.2 38.7-6.3 40.1-4.1c1.4 2.2 1.1 2.9 1.2 9.3.3 17-.7 15.1-2.5 17.4-3.5 4.4-29.9 8.8-37.9 15.7-12.4 10.5-11.7 71.2-6.5 90.8 7.8 30.1 17.5 32.4 19.9 39.2 2.5 7 5.1 17.6-2.8 36-8 4.7-16.1 9.5-24.1 14.2-12.6 7.4-39.6 30.6-37.6 60.2 1.4 20.1 15.9 33.7 18.5 36.2 17.5 16.5 35.9 13.2 36.5 19 1.1 10.8-62 42.9-116 19.4-22.7-9.8-36.4-26.4-43.1-35.7" class="st0"/><path d="m371.5 352.3 24.4 52c1 2.1 0 4.5-2 5.4-.7.2-1.3.4-1.8.4-1.6 0-3.1-.9-3.8-2.4l-24.3-53M374.5 440.9c-1.6 0-3.1-.9-3.8-2.4l-24.4-52c-1-2.1 0-4.5 2-5.4 2.1-1 4.6 0 5.5 2l24.3 52c1 2.1 0 4.5-2 5.4-.3.3-1 .4-1.6.4z" class="st0"/><path d="M295 132c-8-6.9-34.4-11.3-37.9-15.7-1.8-2.3-2.8-.4-2.5-17.4.1-6.4-.2-7.1 1.2-9.3 1.4-2.3 13.7-7.8 40.1 4.1s46.4 67.4 51 81.2c4.6 13.7 14.8 30.1 26 37 11.1 6.9 32 11.4 33.4 28.7s-.5 26 10.2 33.7S440 284 436.9 303c-4.4 26.9 6.1 39.6 11.6 47.9 36.4 54.7-26 85-26 85s-23.2-115.8-86.6-115.3c-27.3.2-36.4-5.7-51.2-22.3-6.5-7.3-5.6-28.3-2.8-36 2.5-6.8 12.1-9.1 19.9-39.2 4.9-19.9 5.5-80.6-6.8-91.1zM247.9 302.2l-25.1-9.9M282.7 294.5l-20.2 8.8M260.8 302.2l20.9-9.6M223.3 290.3l27.6 11M264 368.3l4.5 13.9-4.5-13.9zM272.8 349.7l-3.6 1.2M264 368.3l4-14.2M246 332.2l-3.6 13.4M296.1 51.3l-19.3 36M279.7 46.1l-19.2 37.8" class="st0"/></svg>