<svg xmlns="http://www.w3.org/2000/svg" xmlns:xlink="http://www.w3.org/1999/xlink" xml:space="preserve" viewBox="0 0 485 485"><circle cx="242.5" cy="243.5" r="242.1" fill="none"/><defs><circle id="a" cx="242.5" cy="243.5" r="242.1"/></defs><clipPath id="b"><use xlink:href="#a" overflow="visible"/></clipPath><g clip-path="url(#b)"><path fill="#fff" d="m228.3 427 92-31 44 55-14 90-122 7-6-60zm-22.7-163.6-3.3-23.3-24-49.3-1.3-27.4 1.3-44 24-44.7 42-2 38 2S295.6 97.4 299 100s2.7 46.7 2.7 46.7l3.4 19.8-.2 17.4-13.2 29.5-17.3 30-13.4 31.3-32.7 1.3-22.7-12.6z"/><path d="m64.1 431.5 13.5-43.6 198 65.1-23 65-165.5-21.5-40-22zm247-1.5 38.5 82.5 82.5-87-28.6-40z"/><path fill="#646a6f" d="m271.7 452.9 23.2-69.5 20.4 46.6 90.5-47.6-31.3-63.7-91.1 70.5-183.3-67.6-21.5 65.7 193 65.6z"/><path d="M81.3 388.7a4.45 4.45 0 0 1-4.1-6L98.5 325c.8-2.3 3.4-3.5 5.7-2.6 2.3.8 3.4 3.4 2.6 5.7l-21.3 57.7c-.8 1.8-2.4 2.9-4.2 2.9z"/><path d="M71.5 413.9c-.5 0-1-.1-1.5-.3a4.3 4.3 0 0 1-2.6-5.6l31.1-85.1a4.3 4.3 0 0 1 5.6-2.6c2.3.8 3.5 3.4 2.6 5.6L75.6 411a4.3 4.3 0 0 1-4.1 2.9z"/><path fill="#fff" d="M372 325.5s-.5-9.8-19.1-18.6-55.4-9.8-60.3-12.7c-4.9-2.9-11.8-22-11.8-22V235l-3.5.8c-5.9 8.1-11.7 18.2-13.2 20.8-2.2 3.7-24.5 4.6-24.5 4.6s-23-1-25.2-4.6c-1.6-2.6-7.5-12.9-13.4-21.1l-2-.5v37.2s-6.9 19.1-11.8 22-41.7 3.9-60.3 12.7-18.9 18.6-18.9 18.6l186.2 65-3.9-1 81.7-64z"/><path d="m293.3 394.1-11.2-2.8 1-.8-178.9-62.4.1-2.8c.1-1.2 1.2-12.3 21.2-21.8 12.2-5.8 31.2-8.3 45.1-10.1 6.3-.8 13.5-1.8 14.9-2.5 1.9-1.2 6.6-10.2 9.9-19.5v-41.2l7.8 1.8.8 1.1c5.3 7.4 10.6 16.3 12.9 20.1l.5.9c2.2 1.3 12.2 2.8 22.3 3.2 9.8-.4 19.4-1.9 21.5-3.2l.6-1.1c2.2-3.7 7.4-12.5 12.6-19.6l.8-1.1 9.3-2.1v41.2c3.4 9.3 8 18.4 10 19.5 1.4.7 8.6 1.7 14.9 2.5 13.9 1.8 32.9 4.3 45 10.1 20 9.5 21.1 20.5 21.2 21.8l.1 1.9-81.7 63.9-.7 3zm-180.7-70.8 177.3 61.9 78-61c-1.2-2.7-4.9-8.4-16.5-13.9-11.1-5.3-29.5-7.7-42.9-9.4-10.3-1.4-15.3-2.1-17.7-3.5-5.6-3.4-11.6-19.2-13.3-24l-.2-.6v-30.4c-3.8 5.7-7.3 11.6-9 14.5l-.9 1.4c-3.2 5.4-21.5 6.2-27.5 6.4h-.4c-25-1.1-27.4-5.1-28.2-6.4l-.8-1.3c-1.5-2.6-4.5-7.6-7.8-12.7v28.5l-.2.6c-1.7 4.8-7.7 20.6-13.3 24-2.4 1.4-7.4 2.1-17.7 3.5-13.4 1.8-31.7 4.1-42.9 9.4-10.4 4.9-14.5 10-16 13z"/><path d="M199.1 238.8c-.2-.4-22.3-35.8-24.3-48.7-.4-2.3-.8-4.3-1.1-6.3-1.2-6.1-2.1-11-.2-17.4 2.1-6.9 3.8-22.1 3.8-22.3l7.3.8c-.1.6-1.8 16-4.1 23.6-1.4 4.7-.7 8.3.4 13.9.4 1.9.8 4.1 1.2 6.5 1.2 8 14.3 31.6 23.3 45.9l-6.3 4zm80.4 0-6.2-3.9c8.9-14.3 22-37.9 23.3-45.9.4-2.4.8-4.6 1.2-6.5 1.1-5.6 1.8-9.2.4-13.9-2.3-7.6-4-22.9-4-23.6l7.3-.8c0 .1 1.7 15.3 3.8 22.3 1.9 6.4 1 11.3-.2 17.4-.4 1.9-.8 3.9-1.1 6.3-2.2 12.8-24.3 48.2-24.5 48.6zm-22 258.3c-.5 0-1-.1-1.5-.3-2.3-.8-3.5-3.4-2.6-5.7l31.1-85.1c.8-2.3 3.4-3.5 5.6-2.6s3.5 3.4 2.6 5.6l-31.1 85.1c-.6 1.9-2.3 3-4.1 3z"/><path d="M268.9 455.9c-.5 0-.9-.1-1.4-.2L80.3 393.4c-2.3-.8-3.6-3.3-2.8-5.6.8-2.3 3.3-3.6 5.6-2.8l187.2 62.2c2.3.8 3.6 3.3 2.8 5.6-.6 1.9-2.3 3.1-4.2 3.1zm44.5-20-22.9-45.2c-1.1-2.2-.2-4.8 1.9-5.9 2.1-1.1 4.8-.2 5.9 1.9l18.9 37.3 84.4-44.1c2.2-1.1 4.8-.3 6 1.9s.3 4.8-1.9 6l-92.3 48.1z"/><path d="M108.9 401.2a4.45 4.45 0 0 1-4.1-6l21.3-57.7a4.4 4.4 0 0 1 5.7-2.6c2.3.8 3.4 3.4 2.6 5.7l-21.3 57.7c-.7 1.8-2.4 2.9-4.2 2.9z"/><path fill="#fff" d="M118.7 424.7a4.45 4.45 0 0 1-4.1-6l21.3-57.7c.8-2.3 3.4-3.5 5.7-2.6 2.3.8 3.4 3.4 2.6 5.7l-21.3 57.7c-.7 1.8-2.4 2.9-4.2 2.9zm-62 2a4.45 4.45 0 0 1-4.1-6L73.9 363c.8-2.3 3.4-3.5 5.7-2.6 2.3.8 3.4 3.4 2.6 5.7l-21.3 57.7c-.7 1.8-2.4 2.9-4.2 2.9z"/><path d="M157.9 417.9a4.45 4.45 0 0 1-4.1-6l21.3-57.7c.8-2.3 3.4-3.5 5.7-2.6 2.3.8 3.4 3.4 2.6 5.7L162.1 415c-.7 1.8-2.4 2.9-4.2 2.9z"/><path fill="#fff" d="M167.7 453.8a4.45 4.45 0 0 1-4.1-6l21.3-57.7a4.4 4.4 0 0 1 5.7-2.6c2.3.8 3.4 3.4 2.6 5.7l-21.3 57.7c-.7 1.8-2.4 2.9-4.2 2.9zm11 58a4.45 4.45 0 0 1-4.1-6l21.3-57.7a4.4 4.4 0 0 1 5.7-2.6c2.3.8 3.4 3.4 2.6 5.7l-21.3 57.7c-.7 1.8-2.4 2.9-4.2 2.9zm216.4-92.7c-1.7 0-3.3-1-4-2.6l-25.7-55.9c-1-2.2 0-4.8 2.2-5.9 2.2-1 4.8 0 5.9 2.2l25.7 55.9c1 2.2 0 4.8-2.2 5.9-.7.3-1.3.4-1.9.4zm45 29c-1.7 0-3.3-1-4-2.6l-25.7-55.9c-1-2.2 0-4.8 2.2-5.9 2.2-1 4.8 0 5.9 2.2l25.7 55.9c1 2.2 0 4.8-2.2 5.9-.7.3-1.3.4-1.9.4zm-73 42c-1.7 0-3.3-1-4-2.6l-25.7-55.9c-1-2.2 0-4.8 2.2-5.9 2.2-1 4.8 0 5.9 2.2l25.7 55.9c1 2.2 0 4.8-2.2 5.8-.7.4-1.3.5-1.9.5z"/><path d="M366.6 414.7c-1.7 0-3.3-1-4-2.6l-25.7-55.9c-1-2.2 0-4.8 2.2-5.9 2.2-1 4.8 0 5.9 2.2l25.7 55.9c1 2.2 0 4.8-2.2 5.9-.6.3-1.2.4-1.9.4z"/><path fill="none" stroke="#000" stroke-linecap="round" stroke-miterlimit="10" stroke-width="4" d="M238.8 189.7c-2.5-8.7 5.8-19.3 22.4-13.4 16.6 5.9 27 30.8 24.2 48"/><path fill="none" stroke="#000" stroke-linecap="round" stroke-miterlimit="10" stroke-width="4" d="M239.6 192.4c-2.4-8.3 9.4-18.1 22.5-10.1 14.5 8.8 22 30.9 17.2 52.5"/><path fill="none" stroke="#000" stroke-linecap="round" stroke-miterlimit="10" stroke-width="4" d="M240.2 193.9c-1.9-8 11-13.5 22.3-5.2 13 9.5 19 54.5 2.7 63.9"/><path fill="none" stroke="#000" stroke-linecap="round" stroke-miterlimit="10" stroke-width="4" d="M241 189.9c2.5-8.8-5.8-19.6-22.4-13.6s-27 31.3-24.2 48.6"/><path fill="none" stroke="#000" stroke-linecap="round" stroke-miterlimit="10" stroke-width="4" d="M240.2 192.6c2.4-8.4-9.4-18.3-22.5-10.3-14.5 8.9-21.9 31.3-17.2 53.2"/><path fill="none" stroke="#000" stroke-linecap="round" stroke-miterlimit="10" stroke-width="4" d="M239.6 194.1c1.9-8.1-11-13.7-22.3-5.3-13 9.6-19 55.2-2.7 64.7"/><path fill="#023000" d="M301.7 191.9s-3.3 6.3-1.3 10.4 3 8.7 3 8.7 5.4 47.9 6.9 52.9c1.5 4.9 4.1 17.3 6.4 17.3s3-5.3 0-25.2-8.2-45.8-8.2-45.8 1.9-19.4-6.8-18.3z"/><path stroke="#000" stroke-miterlimit="10" d="M242.1 158.5c-1 0-1.9-.6-2.3-1.6-.1-.3-2.8-7.1-2.6-21.9.1-5.6 3.8-15.2 11.9-23.3 7.2-7.3 20.6-15.9 43.4-15.9 1.4 0 2.5 1.1 2.5 2.5s-1.1 2.5-2.5 2.5c-21.1 0-33.3 7.8-39.9 14.4-7.5 7.5-10.4 16.1-10.4 19.8-.2 13.6 2.2 19.9 2.2 20 .5 1.3-.1 2.7-1.4 3.2-.3.3-.6.3-.9.3z"/><path stroke="#000" stroke-miterlimit="10" d="M240.9 152.5c-.6-.5-3.6-3.5-2.6-12.5.3-2.7 2-6.6 4.4-10.3 2.1-3.2 5.8-8 11.6-12.3 8-5.9 21.6-12.1 41.5-8.3 1.4.3 2.3 1.6 2 2.9-.3 1.4-1.6 2.3-2.9 2-18.1-3.4-30.5 2.1-37.6 7.4-9.2 6.8-13.7 15.8-14 19.1-.7 6.3.9 8.2.9 8.2l-.1-.1-3.2 3.9z"/><path stroke="#000" stroke-miterlimit="10" d="M242 156.5c-.9 0-1.7-.4-2.2-1.3-.3-.5-2.7-5.2.1-13 1.4-3.9 7.3-11.8 17.6-17.2 8.6-4.5 22.8-8.5 41.5-1.7 1.3.5 2 1.9 1.5 3.2s-1.9 2-3.2 1.5c-17-6.1-29.7-2.6-37.4 1.5-9.3 4.9-14.3 11.9-15.2 14.4-2 5.6-.5 8.8-.4 8.8.7 1.2.3 2.7-.9 3.4-.5.2-.9.4-1.4.4z"/><path stroke="#000" stroke-miterlimit="10" d="M242.3 158.7c-1.1 0-2.1-.7-2.4-1.8-.2-.6-1.5-5.6 2.6-12.4 2.1-3.4 9-9.8 19.7-12.9 8.9-2.7 23-3.8 39.3 6a2.49 2.49 0 0 1-2.5 4.3c-27-16.2-48.7-.4-52.1 5.2-2.9 4.9-2.1 8.3-2.1 8.4.4 1.3-.4 2.7-1.7 3.1-.3.1-.6.1-.8.1zm-11.7 51.8c-1.5.2-2.7-.1-3.5-.4-2-.9-3.4-2.7-3.8-4.9-.4-2.2.5-4.6 2.3-6 1.4-1.1 3.1-1.5 4.6-.8.7.3 1 1.1.8 1.8-.3.7-1.1 1.1-1.8.8-.8-.3-1.5.1-1.9.4-1 .8-1.5 2.2-1.3 3.4.2 1.2 1 2.2 2.1 2.7 1.4.6 3 .2 4.7-1 4.1-3.1 6.5-13.8 5.1-23-.1-.8.4-1.5 1.1-1.6s1.4.4 1.6 1.2c1.6 10.4-1.1 21.9-6.1 25.7a7.97 7.97 0 0 1-3.9 1.7z"/><path stroke="#000" stroke-miterlimit="10" d="M248.9 210.5c1.5.2 2.7-.1 3.5-.4 2-.9 3.4-2.7 3.8-4.9.4-2.2-.5-4.6-2.3-6-1.4-1.1-3.1-1.5-4.6-.8-.7.3-1 1.1-.8 1.8.3.7 1.1 1.1 1.8.8.8-.3 1.5.1 1.9.4 1 .8 1.5 2.2 1.3 3.4-.2 1.2-1 2.2-2.1 2.7-1.4.6-3 .2-4.7-1-4.1-3.1-6.5-13.8-5.1-23 .1-.8-.4-1.5-1.1-1.6s-1.4.4-1.6 1.2c-1.6 10.4 1.1 21.9 6.1 25.7 1.5 1.1 2.8 1.6 3.9 1.7zm-11-52c-.3 0-.6-.1-.9-.2-1.3-.5-1.9-2-1.4-3.2 0-.1 2.4-6.4 2.2-20 0-3.7-2.9-12.3-10.4-19.8-6.6-6.6-18.8-14.4-39.9-14.4-1.4 0-2.5-1.1-2.5-2.5s1.1-2.5 2.5-2.5c22.8 0 36.2 8.6 43.4 15.9 8.1 8.1 11.8 17.7 11.9 23.3.2 14.8-2.5 21.6-2.6 21.9-.4.9-1.3 1.5-2.3 1.5z"/><path stroke="#000" stroke-miterlimit="10" d="m239.1 152.5-3.2-3.9-.1.1s1.6-1.9.9-8.2c-.4-3.3-4.9-12.4-14-19.1-7.1-5.3-19.5-10.8-37.6-7.4-1.4.3-2.7-.6-2.9-2-.3-1.4.6-2.7 2-2.9 19.9-3.8 33.6 2.4 41.5 8.3 5.8 4.3 9.5 9 11.6 12.3 2.5 3.8 4.1 7.6 4.4 10.3 1 9-2 12-2.6 12.5z"/><path stroke="#000" stroke-miterlimit="10" d="M238 156.5c-.4 0-.8-.1-1.2-.3a2.6 2.6 0 0 1-1-3.4c.1-.2 1.6-3.3-.4-8.9-2.4-6.5-21.5-27.1-52.6-15.9-1.3.5-2.7-.2-3.2-1.5s.2-2.7 1.5-3.2c18.7-6.8 32.9-2.8 41.5 1.7 10.3 5.4 16.2 13.2 17.6 17.2 2.8 7.8.4 12.5.1 13-.6.8-1.5 1.3-2.3 1.3z"/><path stroke="#000" stroke-miterlimit="10" d="M237.7 158.7c-.2 0-.5 0-.7-.1-1.3-.4-2-1.8-1.7-3.1 0-.2.9-3.5-2.1-8.4-3.4-5.7-25.1-21.4-52.1-5.2-1.2.7-2.7.3-3.4-.9s-.3-2.7.9-3.4c16.3-9.8 30.4-8.6 39.3-6 10.7 3.2 17.6 9.5 19.7 12.9 4.1 6.8 2.7 11.8 2.6 12.4-.4 1.1-1.4 1.8-2.5 1.8z"/><path fill="none" stroke="#fff" stroke-miterlimit="10" stroke-width="5" d="M239.8 108.2v105.3"/><path fill="#023000" stroke="#000" stroke-miterlimit="10" stroke-width="9" d="M346.9 482.6s-8.5 9-17.1 2.6c-8.7-6.5-21.7-31-41.5-34.3-19.7-3.3-22.6-21.3-22.6-21.3s-15.4.1-18-7.3.2-19.6.2-19.6-6-20.7-29.7-17.4c-11.5 1.6-14.9 3.1-14.9 3.1s-36.1-38 .4-67.3 73.6 22.9 80.6 32.2c22 28.9 24.2 71.5 37.2 92.6 12.5 20.4 15.3 19.1 19.7 20.5 4.5 1.4 14.4 8 5.7 16.2z"/><path fill="#646a6f" d="M241.4 50.2c8.1 0 25.9 6.5 37.2 10.3 11.3 3.8 30.2 39.3 35.1 64.7 4.4 22.8-5.2 32.1-8 50.6l-6.9-2.1c-1.3-5.2-6.6-23.1-6.6-25.4 0-3.2 3.7-4.8 3.7-17.6s-13.5-36.2-16.3-41.1c-2.7-4.9-14.6-2.7-28.1-1.1-13.5 1.6-17.3-2.6-17.3-2.6l-1.1-35.7h8.3z"/><path fill="#646a6f" d="M237.3 50.2c-8.1 0-25.9 6.5-37.2 10.3s-30.2 39.3-35.1 64.7c-4.4 22.8 5.2 32.1 8 50.6l6.3-1.3c1.3-5.2 6.6-23.1 6.6-25.4 0-3.2-3.1-5.6-3.1-18.5s13.6-36.2 16.3-41.1 14.6-2.7 28.1-1.1 17.3-2.6 17.3-2.6l1.1-35.7c-.2.1-.2.1-8.3.1z"/><path d="M414.3 411.8c-1.7 0-3.3-1-4-2.6l-40.2-86.8a4.4 4.4 0 0 1 8-3.6l40.2 86.8a4.4 4.4 0 0 1-4 6.2z"/></g></svg>