<?xml version="1.0" encoding="utf-8"?>
<svg version="1.1" id="Layer_1" xmlns="http://www.w3.org/2000/svg" xmlns:xlink="http://www.w3.org/1999/xlink" x="0px" y="0px"
	 viewBox="0 0 485 485" style="enable-background:new 0 0 485 485;" xml:space="preserve">
<style type="text/css">
	.st0{fill:none;}
	.st1{clip-path:url(#SVGID_2_);}
	.st2{fill:#FFFFFF;}
	.st3{fill:#646A6F;}
	.st4{fill:none;stroke:#000000;stroke-width:4;stroke-linecap:round;stroke-miterlimit:10;}
	.st5{fill:#023000;}
	.st6{stroke:#000000;stroke-miterlimit:10;}
	.st7{fill:none;stroke:#FFFFFF;stroke-width:5;stroke-miterlimit:10;}
	.st8{fill:#023000;stroke:#000000;stroke-width:9;stroke-miterlimit:10;}
</style>
<g id="Layer_2_1_">
</g>
<g id="Layer_1_2_">
	<g id="Layer_3">
	</g>
	<g id="Layer_1_1_">
		<circle class="st0" cx="242.5" cy="243.5" r="242.1"/>
	</g>
	<g id="Layer_2_2_">
	</g>
	<g id="Layer_4">
		<g>
			<g>
				<g>
					<g>
						<defs>
							<circle id="SVGID_1_" cx="242.5" cy="243.5" r="242.1"/>
						</defs>
						<clipPath id="SVGID_2_">
							<use xlink:href="#SVGID_1_"  style="overflow:visible;"/>
						</clipPath>
						<g class="st1">
							<polygon class="st2" points="228.3,427 320.3,396 364.3,451 350.3,541 228.3,548 222.3,488 							"/>
							<path class="st2" d="M205.6,263.4l-3.3-23.3l-24-49.3l-1.3-27.4l1.3-44l24-44.7l42-2l38,2c0,0,13.3,22.7,16.7,25.3
								s2.7,46.7,2.7,46.7l3.4,19.8l-0.2,17.4l-13.2,29.5l-17.3,30L261,274.7l-32.7,1.3L205.6,263.4z"/>
							<polygon points="64.1,431.5 77.6,387.9 275.6,453 252.6,518 87.1,496.5 47.1,474.5 							"/>
							<polygon points="311.1,430 349.6,512.5 432.1,425.5 403.5,385.5 							"/>
							<g>
								<polygon class="st3" points="271.7,452.9 294.9,383.4 315.3,430 405.8,382.4 374.5,318.7 283.4,389.2 100.1,321.6 
									78.6,387.3 271.6,452.9 								"/>
							</g>
							<g>
								<path d="M81.3,388.7c-0.5,0-1-0.1-1.5-0.3c-2.3-0.8-3.4-3.4-2.6-5.7L98.5,325c0.8-2.3,3.4-3.5,5.7-2.6
									c2.3,0.8,3.4,3.4,2.6,5.7l-21.3,57.7C84.7,387.6,83.1,388.7,81.3,388.7z"/>
							</g>
							<g>
								<path d="M71.5,413.9c-0.5,0-1-0.1-1.5-0.3c-2.3-0.8-3.5-3.4-2.6-5.6l31.1-85.1c0.8-2.3,3.4-3.5,5.6-2.6
									c2.3,0.8,3.5,3.4,2.6,5.6L75.6,411C75,412.8,73.3,413.9,71.5,413.9z"/>
							</g>
							<g>
								<path class="st2" d="M372,325.5c0,0-0.5-9.8-19.1-18.6c-18.6-8.8-55.4-9.8-60.3-12.7c-4.9-2.9-11.8-22-11.8-22V235l-3.5,0.8
									c-5.9,8.1-11.7,18.2-13.2,20.8c-2.2,3.7-24.5,4.6-24.5,4.6s-23-1-25.2-4.6c-1.6-2.6-7.5-12.9-13.4-21.1l-2-0.5v37.2
									c0,0-6.9,19.1-11.8,22s-41.7,3.9-60.3,12.7S108,325.5,108,325.5l186.2,65l-3.9-1L372,325.5z"/>
								<path d="M293.3,394.1l-11.2-2.8l1-0.8l-178.9-62.4l0.1-2.8c0.1-1.2,1.2-12.3,21.2-21.8c12.2-5.8,31.2-8.3,45.1-10.1
									c6.3-0.8,13.5-1.8,14.9-2.5c1.9-1.2,6.6-10.2,9.9-19.5v-41.2l7.8,1.8l0.8,1.1c5.3,7.4,10.6,16.3,12.9,20.1l0.5,0.9
									c2.2,1.3,12.2,2.8,22.3,3.2c9.8-0.4,19.4-1.9,21.5-3.2l0.6-1.1c2.2-3.7,7.4-12.5,12.6-19.6l0.8-1.1l9.3-2.1v41.2
									c3.4,9.3,8,18.4,10,19.5c1.4,0.7,8.6,1.7,14.9,2.5c13.9,1.8,32.9,4.3,45,10.1c20,9.5,21.1,20.5,21.2,21.8l0.1,1.9L294,391.1
									L293.3,394.1z M112.6,323.3l177.3,61.9l78-61c-1.2-2.7-4.9-8.4-16.5-13.9c-11.1-5.3-29.5-7.7-42.9-9.4
									c-10.3-1.4-15.3-2.1-17.7-3.5c-5.6-3.4-11.6-19.2-13.3-24l-0.2-0.6v-30.4c-3.8,5.7-7.3,11.6-9,14.5l-0.9,1.4
									c-3.2,5.4-21.5,6.2-27.5,6.4h-0.2h-0.2c-25-1.1-27.4-5.1-28.2-6.4l-0.8-1.3c-1.5-2.6-4.5-7.6-7.8-12.7v28.5l-0.2,0.6
									c-1.7,4.8-7.7,20.6-13.3,24c-2.4,1.4-7.4,2.1-17.7,3.5c-13.4,1.8-31.7,4.1-42.9,9.4C118.2,315.2,114.1,320.3,112.6,323.3z"
									/>
							</g>
							<g>
								<path d="M199.1,238.8c-0.2-0.4-22.3-35.8-24.3-48.7c-0.4-2.3-0.8-4.3-1.1-6.3c-1.2-6.1-2.1-11-0.2-17.4
									c2.1-6.9,3.8-22.1,3.8-22.3l7.3,0.8c-0.1,0.6-1.8,16-4.1,23.6c-1.4,4.7-0.7,8.3,0.4,13.9c0.4,1.9,0.8,4.1,1.2,6.5
									c1.2,8,14.3,31.6,23.3,45.9L199.1,238.8z"/>
							</g>
							<g>
								<path d="M279.5,238.8l-6.2-3.9c8.9-14.3,22-37.9,23.3-45.9c0.4-2.4,0.8-4.6,1.2-6.5c1.1-5.6,1.8-9.2,0.4-13.9
									c-2.3-7.6-4-22.9-4-23.6l7.3-0.8c0,0.1,1.7,15.3,3.8,22.3c1.9,6.4,1,11.3-0.2,17.4c-0.4,1.9-0.8,3.9-1.1,6.3
									C301.8,203,279.7,238.4,279.5,238.8z"/>
							</g>
							<g>
								<path d="M257.5,497.1c-0.5,0-1-0.1-1.5-0.3c-2.3-0.8-3.5-3.4-2.6-5.7l31.1-85.1c0.8-2.3,3.4-3.5,5.6-2.6s3.5,3.4,2.6,5.6
									l-31.1,85.1C261,496,259.3,497.1,257.5,497.1z"/>
							</g>
							<g>
								<path d="M268.9,455.9c-0.5,0-0.9-0.1-1.4-0.2L80.3,393.4c-2.3-0.8-3.6-3.3-2.8-5.6c0.8-2.3,3.3-3.6,5.6-2.8l187.2,62.2
									c2.3,0.8,3.6,3.3,2.8,5.6C272.5,454.7,270.8,455.9,268.9,455.9z"/>
							</g>
							<g>
								<path d="M313.4,435.9l-22.9-45.2c-1.1-2.2-0.2-4.8,1.9-5.9c2.1-1.1,4.8-0.2,5.9,1.9l18.9,37.3l84.4-44.1
									c2.2-1.1,4.8-0.3,6,1.9s0.3,4.8-1.9,6L313.4,435.9z"/>
							</g>
							<g>
								<path d="M108.9,401.2c-0.5,0-1-0.1-1.5-0.3c-2.3-0.8-3.4-3.4-2.6-5.7l21.3-57.7c0.9-2.3,3.4-3.5,5.7-2.6
									c2.3,0.8,3.4,3.4,2.6,5.7l-21.3,57.7C112.4,400.1,110.7,401.2,108.9,401.2z"/>
							</g>
							<g>
								<path class="st2" d="M118.7,424.7c-0.5,0-1-0.1-1.5-0.3c-2.3-0.8-3.4-3.4-2.6-5.7l21.3-57.7c0.8-2.3,3.4-3.5,5.7-2.6
									c2.3,0.8,3.4,3.4,2.6,5.7l-21.3,57.7C122.2,423.6,120.5,424.7,118.7,424.7z"/>
							</g>
							<g>
								<path class="st2" d="M56.7,426.7c-0.5,0-1-0.1-1.5-0.3c-2.3-0.8-3.4-3.4-2.6-5.7L73.9,363c0.8-2.3,3.4-3.5,5.7-2.6
									c2.3,0.8,3.4,3.4,2.6,5.7l-21.3,57.7C60.2,425.6,58.5,426.7,56.7,426.7z"/>
							</g>
							<g>
								<path d="M157.9,417.9c-0.5,0-1-0.1-1.5-0.3c-2.3-0.8-3.4-3.4-2.6-5.7l21.3-57.7c0.8-2.3,3.4-3.5,5.7-2.6
									c2.3,0.8,3.4,3.4,2.6,5.7L162.1,415C161.4,416.8,159.7,417.9,157.9,417.9z"/>
							</g>
							<g>
								<path class="st2" d="M167.7,453.8c-0.5,0-1-0.1-1.5-0.3c-2.3-0.8-3.4-3.4-2.6-5.7l21.3-57.7c0.9-2.3,3.4-3.5,5.7-2.6
									c2.3,0.8,3.4,3.4,2.6,5.7l-21.3,57.7C171.2,452.7,169.5,453.8,167.7,453.8z"/>
							</g>
							<g>
								<path class="st2" d="M178.7,511.8c-0.5,0-1-0.1-1.5-0.3c-2.3-0.8-3.4-3.4-2.6-5.7l21.3-57.7c0.9-2.3,3.4-3.5,5.7-2.6
									c2.3,0.8,3.4,3.4,2.6,5.7l-21.3,57.7C182.2,510.7,180.5,511.8,178.7,511.8z"/>
							</g>
							<g>
								<path class="st2" d="M395.1,419.1c-1.7,0-3.3-1-4-2.6l-25.7-55.9c-1-2.2,0-4.8,2.2-5.9c2.2-1,4.8,0,5.9,2.2l25.7,55.9
									c1,2.2,0,4.8-2.2,5.9C396.3,419,395.7,419.1,395.1,419.1z"/>
							</g>
							<g>
								<path class="st2" d="M440.1,448.1c-1.7,0-3.3-1-4-2.6l-25.7-55.9c-1-2.2,0-4.8,2.2-5.9c2.2-1,4.8,0,5.9,2.2l25.7,55.9
									c1,2.2,0,4.8-2.2,5.9C441.3,448,440.7,448.1,440.1,448.1z"/>
							</g>
							<g>
								<path class="st2" d="M367.1,490.1c-1.7,0-3.3-1-4-2.6l-25.7-55.9c-1-2.2,0-4.8,2.2-5.9c2.2-1,4.8,0,5.9,2.2l25.7,55.9
									c1,2.2,0,4.8-2.2,5.8C368.3,490,367.7,490.1,367.1,490.1z"/>
							</g>
							<g>
								<path d="M366.6,414.7c-1.7,0-3.3-1-4-2.6l-25.7-55.9c-1-2.2,0-4.8,2.2-5.9c2.2-1,4.8,0,5.9,2.2l25.7,55.9
									c1,2.2,0,4.8-2.2,5.9C367.9,414.6,367.3,414.7,366.6,414.7z"/>
							</g>
							<g>
								<path class="st4" d="M238.8,189.7c-2.5-8.7,5.8-19.3,22.4-13.4c16.6,5.9,27,30.8,24.2,48"/>
								<path class="st4" d="M239.6,192.4c-2.4-8.3,9.4-18.1,22.5-10.1c14.5,8.8,22,30.9,17.2,52.5"/>
								<path class="st4" d="M240.2,193.9c-1.9-8,11-13.5,22.3-5.2c13,9.5,19,54.5,2.7,63.9"/>
							</g>
							<g>
								<path class="st4" d="M241,189.9c2.5-8.8-5.8-19.6-22.4-13.6s-27,31.3-24.2,48.6"/>
								<path class="st4" d="M240.2,192.6c2.4-8.4-9.4-18.3-22.5-10.3c-14.5,8.9-21.9,31.3-17.2,53.2"/>
								<path class="st4" d="M239.6,194.1c1.9-8.1-11-13.7-22.3-5.3c-13,9.6-19,55.2-2.7,64.7"/>
							</g>
							<g>
								<path class="st5" d="M301.7,191.9c0,0-3.3,6.3-1.3,10.4s3,8.7,3,8.7s5.4,47.9,6.9,52.9c1.5,4.9,4.1,17.3,6.4,17.3
									s3-5.3,0-25.2c-3-19.9-8.2-45.8-8.2-45.8S310.4,190.8,301.7,191.9z"/>
							</g>
							<g>
								<path class="st6" d="M242.1,158.5c-1,0-1.9-0.6-2.3-1.6c-0.1-0.3-2.8-7.1-2.6-21.9c0.1-5.6,3.8-15.2,11.9-23.3
									c7.2-7.3,20.6-15.9,43.4-15.9c1.4,0,2.5,1.1,2.5,2.5s-1.1,2.5-2.5,2.5c-21.1,0-33.3,7.8-39.9,14.4
									c-7.5,7.5-10.4,16.1-10.4,19.8c-0.2,13.6,2.2,19.9,2.2,20c0.5,1.3-0.1,2.7-1.4,3.2C242.7,158.5,242.4,158.5,242.1,158.5z"/>
							</g>
							<g>
								<path class="st6" d="M240.9,152.5c-0.6-0.5-3.6-3.5-2.6-12.5c0.3-2.7,2-6.6,4.4-10.3c2.1-3.2,5.8-8,11.6-12.3
									c8-5.9,21.6-12.1,41.5-8.3c1.4,0.3,2.3,1.6,2,2.9c-0.3,1.4-1.6,2.3-2.9,2c-18.1-3.4-30.5,2.1-37.6,7.4
									c-9.2,6.8-13.7,15.8-14,19.1c-0.7,6.3,0.9,8.2,0.9,8.2c-0.1-0.1-0.1-0.1-0.1-0.1L240.9,152.5z"/>
							</g>
							<g>
								<path class="st6" d="M242,156.5c-0.9,0-1.7-0.4-2.2-1.3c-0.3-0.5-2.7-5.2,0.1-13c1.4-3.9,7.3-11.8,17.6-17.2
									c8.6-4.5,22.8-8.5,41.5-1.7c1.3,0.5,2,1.9,1.5,3.2s-1.9,2-3.2,1.5c-17-6.1-29.7-2.6-37.4,1.5c-9.3,4.9-14.3,11.9-15.2,14.4
									c-2,5.6-0.5,8.8-0.4,8.8c0.7,1.2,0.3,2.7-0.9,3.4C242.9,156.3,242.5,156.5,242,156.5z"/>
							</g>
							<g>
								<path class="st6" d="M242.3,158.7c-1.1,0-2.1-0.7-2.4-1.8c-0.2-0.6-1.5-5.6,2.6-12.4c2.1-3.4,9-9.8,19.7-12.9
									c8.9-2.7,23-3.8,39.3,6c1.2,0.7,1.6,2.3,0.9,3.4c-0.7,1.2-2.3,1.6-3.4,0.9c-27-16.2-48.7-0.4-52.1,5.2
									c-2.9,4.9-2.1,8.3-2.1,8.4c0.4,1.3-0.4,2.7-1.7,3.1C242.8,158.7,242.5,158.7,242.3,158.7z"/>
							</g>
							<g>
								<path class="st6" d="M230.6,210.5c-1.5,0.2-2.7-0.1-3.5-0.4c-2-0.9-3.4-2.7-3.8-4.9c-0.4-2.2,0.5-4.6,2.3-6
									c1.4-1.1,3.1-1.5,4.6-0.8c0.7,0.3,1,1.1,0.8,1.8c-0.3,0.7-1.1,1.1-1.8,0.8c-0.8-0.3-1.5,0.1-1.9,0.4c-1,0.8-1.5,2.2-1.3,3.4
									c0.2,1.2,1,2.2,2.1,2.7c1.4,0.6,3,0.2,4.7-1c4.1-3.1,6.5-13.8,5.1-23c-0.1-0.8,0.4-1.5,1.1-1.6s1.4,0.4,1.6,1.2
									c1.6,10.4-1.1,21.9-6.1,25.7C233,209.9,231.7,210.4,230.6,210.5z"/>
							</g>
							<g>
								<path class="st6" d="M248.9,210.5c1.5,0.2,2.7-0.1,3.5-0.4c2-0.9,3.4-2.7,3.8-4.9c0.4-2.2-0.5-4.6-2.3-6
									c-1.4-1.1-3.1-1.5-4.6-0.8c-0.7,0.3-1,1.1-0.8,1.8c0.3,0.7,1.1,1.1,1.8,0.8c0.8-0.3,1.5,0.1,1.9,0.4c1,0.8,1.5,2.2,1.3,3.4
									c-0.2,1.2-1,2.2-2.1,2.7c-1.4,0.6-3,0.2-4.7-1c-4.1-3.1-6.5-13.8-5.1-23c0.1-0.8-0.4-1.5-1.1-1.6s-1.4,0.4-1.6,1.2
									c-1.6,10.4,1.1,21.9,6.1,25.7C246.5,209.9,247.8,210.4,248.9,210.5z"/>
							</g>
							<g>
								<path class="st6" d="M237.9,158.5c-0.3,0-0.6-0.1-0.9-0.2c-1.3-0.5-1.9-2-1.4-3.2c0-0.1,2.4-6.4,2.2-20
									c0-3.7-2.9-12.3-10.4-19.8c-6.6-6.6-18.8-14.4-39.9-14.4c-1.4,0-2.5-1.1-2.5-2.5s1.1-2.5,2.5-2.5c22.8,0,36.2,8.6,43.4,15.9
									c8.1,8.1,11.8,17.7,11.9,23.3c0.2,14.8-2.5,21.6-2.6,21.9C239.8,157.9,238.9,158.5,237.9,158.5z"/>
							</g>
							<g>
								<path class="st6" d="M239.1,152.5l-3.2-3.9c0,0,0,0-0.1,0.1c0,0,1.6-1.9,0.9-8.2c-0.4-3.3-4.9-12.4-14-19.1
									c-7.1-5.3-19.5-10.8-37.6-7.4c-1.4,0.3-2.7-0.6-2.9-2c-0.3-1.4,0.6-2.7,2-2.9c19.9-3.8,33.6,2.4,41.5,8.3
									c5.8,4.3,9.5,9,11.6,12.3c2.5,3.8,4.1,7.6,4.4,10.3C242.7,149,239.7,152,239.1,152.5z"/>
							</g>
							<g>
								<path class="st6" d="M238,156.5c-0.4,0-0.8-0.1-1.2-0.3c-1.2-0.7-1.6-2.2-1-3.4c0.1-0.2,1.6-3.3-0.4-8.9
									c-2.4-6.5-21.5-27.1-52.6-15.9c-1.3,0.5-2.7-0.2-3.2-1.5s0.2-2.7,1.5-3.2c18.7-6.8,32.9-2.8,41.5,1.7
									c10.3,5.4,16.2,13.2,17.6,17.2c2.8,7.8,0.4,12.5,0.1,13C239.7,156,238.8,156.5,238,156.5z"/>
							</g>
							<g>
								<path class="st6" d="M237.7,158.7c-0.2,0-0.5,0-0.7-0.1c-1.3-0.4-2-1.8-1.7-3.1c0-0.2,0.9-3.5-2.1-8.4
									c-3.4-5.7-25.1-21.4-52.1-5.2c-1.2,0.7-2.7,0.3-3.4-0.9s-0.3-2.7,0.9-3.4c16.3-9.8,30.4-8.6,39.3-6
									c10.7,3.2,17.6,9.5,19.7,12.9c4.1,6.8,2.7,11.8,2.6,12.4C239.8,158,238.8,158.7,237.7,158.7z"/>
							</g>
							<line class="st7" x1="239.8" y1="108.2" x2="239.8" y2="213.5"/>
							<path class="st8" d="M346.9,482.6c0,0-8.5,9-17.1,2.6c-8.7-6.5-21.7-31-41.5-34.3c-19.7-3.3-22.6-21.3-22.6-21.3
								s-15.4,0.1-18-7.3s0.2-19.6,0.2-19.6s-6-20.7-29.7-17.4c-11.5,1.6-14.9,3.1-14.9,3.1s-36.1-38,0.4-67.3s73.6,22.9,80.6,32.2
								c22,28.9,24.2,71.5,37.2,92.6c12.5,20.4,15.3,19.1,19.7,20.5C345.7,467.8,355.6,474.4,346.9,482.6z"/>
							<g>
								<path class="st3" d="M241.4,50.2c8.1,0,25.9,6.5,37.2,10.3c11.3,3.8,30.2,39.3,35.1,64.7c4.4,22.8-5.2,32.1-8,50.6l-6.9-2.1
									c-1.3-5.2-6.6-23.1-6.6-25.4c0-3.2,3.7-4.8,3.7-17.6s-13.5-36.2-16.3-41.1c-2.7-4.9-14.6-2.7-28.1-1.1
									c-13.5,1.6-17.3-2.6-17.3-2.6l-1.1-35.7C233.3,50.2,233.3,50.2,241.4,50.2z"/>
								<g>
									<path class="st3" d="M237.3,50.2c-8.1,0-25.9,6.5-37.2,10.3s-30.2,39.3-35.1,64.7c-4.4,22.8,5.2,32.1,8,50.6l6.3-1.3
										c1.3-5.2,6.6-23.1,6.6-25.4c0-3.2-3.1-5.6-3.1-18.5s13.6-36.2,16.3-41.1s14.6-2.7,28.1-1.1s17.3-2.6,17.3-2.6l1.1-35.7
										C245.4,50.2,245.4,50.2,237.3,50.2z"/>
								</g>
							</g>
							<g>
								<path d="M414.3,411.8c-1.7,0-3.3-1-4-2.6l-40.2-86.8c-1-2.2,0-4.8,2.2-5.8s4.8,0,5.8,2.2l40.2,86.8c1,2.2,0,4.8-2.2,5.8
									C415.6,411.6,414.9,411.8,414.3,411.8z"/>
							</g>
						</g>
					</g>
				</g>
			</g>
		</g>
	</g>
</g>
</svg>
