<svg xmlns="http://www.w3.org/2000/svg" xmlns:xlink="http://www.w3.org/1999/xlink" xml:space="preserve" viewBox="0 0 485 485"><defs><path id="a" d="M-2.2-30.8h567.1v567.1H-2.2z"/></defs><clipPath id="b"><use xlink:href="#a" overflow="visible"/></clipPath><path fill="none" d="M484.9 243.6c0 61.2-22.7 117.1-60.2 159.7-44.4 50.5-109.4 82.4-182 82.4-55.5 0-106-19.5-146.8-50.8-12.8-9.9-25.2-20.1-35.8-32.3A241.3 241.3 0 0 1 .6 243.7C.6 110 109 1.6 242.7 1.6c133.8-.1 242.2 108.3 242.2 242" clip-path="url(#b)"/><defs><path id="c" d="M1.2 243.4c0 133.8 108.4 242.1 242.1 242.1s242.1-108.4 242.1-242.1S377 1.3 243.3 1.3 1.2 109.7 1.2 243.4"/></defs><clipPath id="d"><use xlink:href="#c" overflow="visible"/></clipPath><path fill="#fff" d="m211.4 314.2-6.8-24.8-19.3-23.5-6-24.5-3.4-71.8 56.7-62s16.6-.7 17.3-.7 53.4 50.7 53.4 50.7.8 41.6 1.1 42.3 4.3 26 4.3 27-4 24.5-4 24.5l-4.5 15-18 23-11.5 24.5-24 8.3-35.3-8z" clip-path="url(#d)"/><defs><path id="e" d="M1.2 243.4c0 133.8 108.4 242.1 242.1 242.1s242.1-108.4 242.1-242.1S377 1.3 243.3 1.3 1.2 109.7 1.2 243.4"/></defs><clipPath id="f"><use xlink:href="#e" overflow="visible"/></clipPath><path fill="none" stroke="#000" stroke-miterlimit="10" stroke-width="4.78" d="M205 292.7c-7.4-11.9-22.5-26.8-23.9-36.5s-3.7-14.8-1.5-22.2c2.2-7.4 1-41.8 1-41.8" clip-path="url(#f)"/><defs><path id="g" d="M1.2 243.4c0 133.8 108.4 242.1 242.1 242.1s242.1-108.4 242.1-242.1S377 1.3 243.3 1.3 1.2 109.7 1.2 243.4"/></defs><clipPath id="h"><use xlink:href="#g" overflow="visible"/></clipPath><path fill="#fff" d="m205.7 292.9-2.2-2.9c.7 1 1.5 2 2.2 2.9" clip-path="url(#h)"/><defs><path id="i" d="M1.2 243.4c0 133.8 108.4 242.1 242.1 242.1s242.1-108.4 242.1-242.1S377 1.3 243.3 1.3 1.2 109.7 1.2 243.4"/></defs><clipPath id="j"><use xlink:href="#i" overflow="visible"/></clipPath><path fill="#fff" d="m336.7 487.4 33.3-6.7-17 16.7 81-42.8s-26.2-47-26.6-47.8c-18.1-31.3-40.7-67.2-51-72.1-18.8-8.9-60.3-5.3-65.3-8.3l-11.9-7.3v-25.2l2.5-4.1c-9.7 13.5-15.1 16.6-16.8 17.8-5.5 3.8-13.6 5.8-22.3 5.8-9.8 0-16.5-2-22-5.8-1.6-1.1-6.6-3.7-14.9-14.6l.7.9v25.2s-6.9 4.4-11.9 7.3-46.5-.6-65.3 8.3c-10.4 4.9-33 41-51.1 72.3l-26.5 47.6 94.4 37.2-29-4.3 33.7 4 11.4-4.9 65.3 18.9 15.3-.7.3 1.3 82.8-22.3 10.9 3.6z" clip-path="url(#j)"/><defs><path id="k" d="M1.2 243.4c0 133.8 108.4 242.1 242.1 242.1s242.1-108.4 242.1-242.1S377 1.3 243.3 1.3 1.2 109.7 1.2 243.4"/></defs><clipPath id="l"><use xlink:href="#k" overflow="visible"/></clipPath><path fill="none" stroke="#000" stroke-miterlimit="10" stroke-width="4.78" d="m336.7 487.4 33.3-6.7-17 16.7 81-42.8s-26.2-47-26.6-47.8c-18.1-31.3-40.7-67.2-51-72.1-18.8-8.9-60.3-5.3-65.3-8.3l-11.9-7.3v-25.2l2.5-4.1c-9.7 13.5-15.1 16.6-16.8 17.8-5.5 3.8-13.6 5.8-22.3 5.8-9.8 0-16.5-2-22-5.8-1.6-1.1-6.6-3.7-14.9-14.6l.7.9v25.2s-6.9 4.4-11.9 7.3-46.5-.6-65.3 8.3c-10.4 4.9-33 41-51.1 72.3l-26.5 47.6 94.4 37.2-29-4.3 33.7 4 11.4-4.9 65.3 18.9 15.3-.7.3 1.3 82.8-22.3 10.9 3.6z" clip-path="url(#l)"/><defs><path id="m" d="M1.2 243.4c0 133.8 108.4 242.1 242.1 242.1s242.1-108.4 242.1-242.1S377 1.3 243.3 1.3 1.2 109.7 1.2 243.4"/></defs><clipPath id="n"><use xlink:href="#m" overflow="visible"/></clipPath><path d="M275.8 291.4c.1-.1.2-.3.3-.4v-.1l-.3.5z" clip-path="url(#n)"/><defs><path id="o" d="M1.2 243.4c0 133.8 108.4 242.1 242.1 242.1s242.1-108.4 242.1-242.1S377 1.3 243.3 1.3 1.2 109.7 1.2 243.4"/></defs><clipPath id="p"><use xlink:href="#o" overflow="visible"/></clipPath><path d="M126.8 388.4h217.4L374 453H95.9z" clip-path="url(#p)"/><defs><path id="q" d="M1.2 243.4c0 133.8 108.4 242.1 242.1 242.1s242.1-108.4 242.1-242.1S377 1.3 243.3 1.3 1.2 109.7 1.2 243.4"/></defs><clipPath id="r"><use xlink:href="#q" overflow="visible"/></clipPath><path fill="none" stroke="#000" stroke-linecap="round" stroke-linejoin="round" stroke-miterlimit="10" stroke-width="5.38" d="M114.9 416.8v44.7" clip-path="url(#r)"/><defs><path id="s" d="M1.2 243.4c0 133.8 108.4 242.1 242.1 242.1s242.1-108.4 242.1-242.1S377 1.3 243.3 1.3 1.2 109.7 1.2 243.4"/></defs><clipPath id="t"><use xlink:href="#s" overflow="visible"/></clipPath><path fill="none" stroke="#000" stroke-linecap="round" stroke-linejoin="round" stroke-miterlimit="10" stroke-width="5.38" d="M154.6 443.6v42" clip-path="url(#t)"/><defs><path id="u" d="M1.2 243.4c0 133.8 108.4 242.1 242.1 242.1s242.1-108.4 242.1-242.1S377 1.3 243.3 1.3 1.2 109.7 1.2 243.4"/></defs><clipPath id="v"><use xlink:href="#u" overflow="visible"/></clipPath><path fill="none" stroke="#000" stroke-linecap="round" stroke-linejoin="round" stroke-miterlimit="10" stroke-width="5.38" d="M382.1 449.8v44.7" clip-path="url(#v)"/><defs><path id="w" d="M1.2 243.4c0 133.8 108.4 242.1 242.1 242.1s242.1-108.4 242.1-242.1S377 1.3 243.3 1.3 1.2 109.7 1.2 243.4"/></defs><clipPath id="x"><use xlink:href="#w" overflow="visible"/></clipPath><path d="M241.2 107.7c-1.3-2.3-13.9-7.8-39.5 3.1-10.8 4.6-20.7 16.9-28.8 30.5l-49.3 201.5c10-8.3 21.7-13.4 35.1-13 26.2.8 40.4 3.3 54.9-12.5 3.2-3.5-2.9-16.2-2.9-23.3-7.3-11.6-21.3-29.4-24.3-39.8v-.2c.4-.8.9-1.6 1.1-2.1.8-1.7 2.5-20.8 1.3-35.3s2-40.7 15.2-52.2 27.7-14.5 32.3-15.7c4.7-1.2 4.3-3.2 4.8-13v-.2c.5-4.3.7-10.3.8-18.7.3-6.2.6-6.8-.7-9.1" clip-path="url(#x)"/><defs><path id="y" d="M1.2 243.4c0 133.8 108.4 242.1 242.1 242.1s242.1-108.4 242.1-242.1S377 1.3 243.3 1.3 1.2 109.7 1.2 243.4"/></defs><clipPath id="z"><use xlink:href="#y" overflow="visible"/></clipPath><path d="M313.9 141.4c-8.1-13.6-18-25.9-28.8-30.5-25.6-11-38.2-5.4-39.5-3.1-1.3 2.3-1 2.9-.9 9.1.1 10.7.5 17.8 1.3 22.2.3 7.1.6 8.8 4.7 9.8 4.7 1.2 19.2 4.2 32.3 15.7 13.2 11.5 16.3 37.7 15.2 52.2-1.2 14.5.5 33.7 1.3 35.3.2.5.6 1.1 1 1.8-1.1 4.2-7.5 5.1-11.3 10.5-2.3 3.2-4.2 7.2-6 11.4-2.5 5.6-4.7 11.3-7.2 15.3.2 7.6 1 22.6 4.5 26.4 14.5 15.9 21.4 13.2 47.6 12.5 13.4-.4 25.1 4.8 35.1 13l-49.3-201.6z" clip-path="url(#z)"/><defs><path id="A" d="M1.2 243.4c0 133.8 108.4 242.1 242.1 242.1s242.1-108.4 242.1-242.1S377 1.3 243.3 1.3 1.2 109.7 1.2 243.4"/></defs><clipPath id="B"><use xlink:href="#A" overflow="visible"/></clipPath><path fill="none" stroke="#b11116" stroke-miterlimit="10" stroke-width="11.96" d="M130.7 428.4 164 387l-27.3-39.9" clip-path="url(#B)"/><defs><path id="C" d="M1.2 243.4c0 133.8 108.4 242.1 242.1 242.1s242.1-108.4 242.1-242.1S377 1.3 243.3 1.3 1.2 109.7 1.2 243.4"/></defs><clipPath id="D"><use xlink:href="#C" overflow="visible"/></clipPath><path fill="#fff" d="m176.9 468.1-15.6-12.5 28.6-35.6-23.2-33.8 16.5-11.3 31.6 46.1z" clip-path="url(#D)"/><defs><path id="E" d="m95.7 388.2-31.9 17.6c4.3 4.7 8.7 9.3 13.3 47.1h332.3c4.4-37.6 8.6-41.9 12.7-46.4l-12-18.3H95.7z"/></defs><clipPath id="F"><use xlink:href="#E" overflow="visible"/></clipPath><path fill="#b11116" d="m221.2 468.1-15.5-12.5 28.5-35.6-23.1-33.8 16.5-11.3 31.5 46.1z" clip-path="url(#F)"/><defs><path id="G" d="m95.7 388.2-31.9 17.6c4.3 4.7 8.7 9.3 13.3 47.1h332.3c4.4-37.6 8.6-41.9 12.7-46.4l-12-18.3H95.7z"/></defs><clipPath id="H"><use xlink:href="#G" overflow="visible"/></clipPath><path fill="#fff" d="M265.6 468.1 250 455.6l28.6-35.6-23.2-33.8 16.5-11.3 31.6 46.1z" clip-path="url(#H)"/><defs><path id="I" d="m95.7 388.2-31.9 17.6c4.3 4.7 8.7 9.3 13.3 47.1h332.3c4.4-37.6 8.6-41.9 12.7-46.4l-12-18.3H95.7z"/></defs><clipPath id="J"><use xlink:href="#I" overflow="visible"/></clipPath><path fill="#b11116" d="m309.9 468.1-15.6-12.5 28.6-35.6-23.1-33.8 16.5-11.3 31.5 46.1z" clip-path="url(#J)"/><defs><path id="K" d="m95.7 388.2-31.9 17.6c4.3 4.7 8.7 9.3 13.3 47.1h332.3c4.4-37.6 8.6-41.9 12.7-46.4l-12-18.3H95.7z"/></defs><clipPath id="L"><use xlink:href="#K" overflow="visible"/></clipPath><path fill="#fff" d="m360.3 468.1-15.6-12.5 28.6-35.6-23.1-33.8 16.5-11.3 31.5 46.1z" clip-path="url(#L)"/><defs><path id="M" d="M1.2 243.4c0 61.4 22.8 117.4 60.5 160.1 44.4 50.3 109.3 82 181.6 82 133.7 0 242.1-108.4 242.1-242.1S377 1.3 243.3 1.3 1.2 109.7 1.2 243.4"/></defs><clipPath id="N"><use xlink:href="#M" overflow="visible"/></clipPath><path d="M179.6 182s13.3 93.4 27.3 106c4.7 4.2-9.5 12.6-19.8 18.5s-20.5-19.8-20.5-19.8l3.7-72.5 9.3-32.2z" clip-path="url(#N)"/><defs><path id="O" d="M1.2 243.4c0 61.4 22.8 117.4 60.5 160.1 44.4 50.3 109.3 82 181.6 82 133.7 0 242.1-108.4 242.1-242.1S377 1.3 243.3 1.3 1.2 109.7 1.2 243.4"/></defs><clipPath id="P"><use xlink:href="#O" overflow="visible"/></clipPath><path d="M305.3 192S292 275.3 278 288c-4.7 4.2 9.5 12.6 19.8 18.5s20.5-19.8 20.5-19.8l-3.7-72.5-9.3-22.2z" clip-path="url(#P)"/><defs><path id="Q" d="M1.2 243.4c0 61.4 22.8 117.4 60.5 160.1 44.4 50.3 109.3 82 181.6 82 133.7 0 242.1-108.4 242.1-242.1S377 1.3 243.3 1.3 1.2 109.7 1.2 243.4"/></defs><clipPath id="R"><use xlink:href="#Q" overflow="visible"/></clipPath><path d="M130.4 317.9 74.5 533.5s173.9 140.7 140 24c-34-117-4-236.1-4-236.1l-53-23.5-27.1 20z" clip-path="url(#R)"/><defs><path id="S" d="M-39.2-58.8h567.1v567.1H-39.2z"/></defs><clipPath id="T"><use xlink:href="#S" overflow="visible"/></clipPath><path fill="#fff" d="M276.8 304.2c1.7-20 2.1-25.2 2.1-25.2l-33 5.5V335l32.7-.6 13.7-2.7S274 325 275.6 305" clip-path="url(#T)"/><defs><path id="U" d="M-39.2-58.8h567.1v567.1H-39.2z"/></defs><clipPath id="V"><use xlink:href="#U" overflow="visible"/></clipPath><path fill="#fff" d="M214.3 305c-1.7-20-3.3-26-3.3-26l33 5.5 21.3 57.5-54-7.7-13.7-2.7c0 .1 18.3-6.6 16.7-26.6" clip-path="url(#V)"/><defs><path id="W" d="M-39.2-58.8h567.1v567.1H-39.2z"/></defs><clipPath id="X"><use xlink:href="#W" overflow="visible"/></clipPath><path d="M204.3 355.8s11.2-47.9 11.2-52-26.1 8.3-26.1 8.3-4.5 18.4-3.1 21 10 19.6 10 19.6l8 3.1z" clip-path="url(#X)"/><path fill="#fff" d="m243.9 147.7-1.6 162.4h1.6c27.4-.1 49.6-28.4 54.2-81.2 5-54.6-24.2-81.1-54.2-81.2z"/><path fill="#fff" d="M242.8 147.7v162.4c-27.4-.1-49.6-28.4-54.2-81.2-5.2-59.4 24.3-81.1 54.2-81.2z"/><path fill="#fff" stroke="#000" stroke-miterlimit="10" stroke-width="4.78" d="M203.5 288.3c.1.2 3.4 4.4 3.6 4.6 8.1 10.1 13.2 12.4 14.8 13.5 5.5 3.7 12.2 5.6 22 5.6 8.7 0 16.9-1.9 22.3-5.6 1.7-1.2 7.3-4.9 17-17.9"/></svg>