<?xml version="1.0" encoding="utf-8"?>
<svg version="1.1" id="Layer_1" xmlns="http://www.w3.org/2000/svg" xmlns:xlink="http://www.w3.org/1999/xlink" x="0px" y="0px"
	 viewBox="0 0 485 485" style="enable-background:new 0 0 485 485;" xml:space="preserve">
<style type="text/css">
	.st0{clip-path:url(#SVGID_2_);fill:none;}
	.st1{clip-path:url(#SVGID_4_);fill:#FFFFFF;}
	.st2{clip-path:url(#SVGID_6_);fill:none;stroke:#000000;stroke-width:4.783;stroke-miterlimit:10;}
	.st3{clip-path:url(#SVGID_8_);fill:#FFFFFF;}
	.st4{clip-path:url(#SVGID_10_);fill:#FFFFFF;}
	.st5{clip-path:url(#SVGID_12_);fill:none;stroke:#000000;stroke-width:4.783;stroke-miterlimit:10;}
	.st6{clip-path:url(#SVGID_14_);}
	.st7{clip-path:url(#SVGID_16_);}
	
		.st8{clip-path:url(#SVGID_18_);fill:none;stroke:#000000;stroke-width:5.381;stroke-linecap:round;stroke-linejoin:round;stroke-miterlimit:10;}
	
		.st9{clip-path:url(#SVGID_20_);fill:none;stroke:#000000;stroke-width:5.381;stroke-linecap:round;stroke-linejoin:round;stroke-miterlimit:10;}
	
		.st10{clip-path:url(#SVGID_22_);fill:none;stroke:#000000;stroke-width:5.381;stroke-linecap:round;stroke-linejoin:round;stroke-miterlimit:10;}
	
		.st11{clip-path:url(#SVGID_24_);fill:none;stroke:#000000;stroke-width:16;stroke-linecap:round;stroke-linejoin:round;stroke-miterlimit:10;}
	.st12{clip-path:url(#SVGID_26_);}
	.st13{clip-path:url(#SVGID_28_);}
	.st14{clip-path:url(#SVGID_30_);fill:none;stroke:#B11116;stroke-width:11.959;stroke-miterlimit:10;}
	.st15{clip-path:url(#SVGID_32_);fill:#FFFFFF;}
	.st16{clip-path:url(#SVGID_34_);fill:#B11116;}
	.st17{clip-path:url(#SVGID_36_);fill:#FFFFFF;}
	.st18{clip-path:url(#SVGID_38_);fill:#B11116;}
	.st19{clip-path:url(#SVGID_40_);fill:#FFFFFF;}
	.st20{clip-path:url(#SVGID_42_);}
	.st21{clip-path:url(#SVGID_44_);}
	.st22{clip-path:url(#SVGID_46_);}
	.st23{clip-path:url(#SVGID_48_);fill:#FFFFFF;}
	.st24{clip-path:url(#SVGID_50_);fill:#FFFFFF;}
	.st25{clip-path:url(#SVGID_52_);}
	.st26{fill:#FFFFFF;}
	.st27{fill:#FFFFFF;stroke:#000000;stroke-width:4.783;stroke-miterlimit:10;}
</style>
<g id="Layer_2_1_">
</g>
<g id="Layer_1_2_">
	<g id="Layer_3">
	</g>
	<g id="Layer_1_1_">
	</g>
	<g id="Layer_2_2_">
		<g>
			<g>
				<g>
					<defs>
						<rect id="SVGID_1_" x="-2.2" y="-30.8" width="567.1" height="567.1"/>
					</defs>
					<clipPath id="SVGID_2_">
						<use xlink:href="#SVGID_1_"  style="overflow:visible;"/>
					</clipPath>
					<path class="st0" d="M484.9,243.6c0,61.2-22.7,117.1-60.2,159.7c-44.4,50.5-109.4,82.4-182,82.4c-55.5,0-106-19.5-146.8-50.8
						c-12.8-9.9-25.2-20.1-35.8-32.3c-37-42.5-59.5-98.1-59.5-158.9C0.6,110,109,1.6,242.7,1.6C376.5,1.5,484.9,109.9,484.9,243.6"
						/>
				</g>
			</g>
		</g>
		<g>
			<g>
				<g>
					<defs>
						<path id="SVGID_3_" d="M1.2,243.4c0,133.8,108.4,242.1,242.1,242.1s242.1-108.4,242.1-242.1S377,1.3,243.3,1.3
							S1.2,109.7,1.2,243.4"/>
					</defs>
					<clipPath id="SVGID_4_">
						<use xlink:href="#SVGID_3_"  style="overflow:visible;"/>
					</clipPath>
					<path class="st1" d="M211.4,314.2l-6.8-24.8l-19.3-23.5l-6-24.5l-3.4-71.8l56.7-62c0,0,16.6-0.7,17.3-0.7s53.4,50.7,53.4,50.7
						s0.8,41.6,1.1,42.3s4.3,26,4.3,27s-4,24.5-4,24.5l-4.5,15l-18,23l-11.5,24.5l-24,8.3L211.4,314.2z"/>
				</g>
			</g>
			<g>
				<g>
					<defs>
						<path id="SVGID_5_" d="M1.2,243.4c0,133.8,108.4,242.1,242.1,242.1s242.1-108.4,242.1-242.1S377,1.3,243.3,1.3
							S1.2,109.7,1.2,243.4"/>
					</defs>
					<clipPath id="SVGID_6_">
						<use xlink:href="#SVGID_5_"  style="overflow:visible;"/>
					</clipPath>
					<path class="st2" d="M205,292.7c-7.4-11.9-22.5-26.8-23.9-36.5s-3.7-14.8-1.5-22.2c2.2-7.4,1-41.8,1-41.8"/>
				</g>
			</g>
			<g>
				<g>
					<defs>
						<path id="SVGID_7_" d="M1.2,243.4c0,133.8,108.4,242.1,242.1,242.1s242.1-108.4,242.1-242.1S377,1.3,243.3,1.3
							S1.2,109.7,1.2,243.4"/>
					</defs>
					<clipPath id="SVGID_8_">
						<use xlink:href="#SVGID_7_"  style="overflow:visible;"/>
					</clipPath>
					<path class="st3" d="M205.7,292.9l-2.2-2.9C204.2,291,205,292,205.7,292.9"/>
				</g>
			</g>
			<g>
				<g>
					<defs>
						<path id="SVGID_9_" d="M1.2,243.4c0,133.8,108.4,242.1,242.1,242.1s242.1-108.4,242.1-242.1S377,1.3,243.3,1.3
							S1.2,109.7,1.2,243.4"/>
					</defs>
					<clipPath id="SVGID_10_">
						<use xlink:href="#SVGID_9_"  style="overflow:visible;"/>
					</clipPath>
					<path class="st4" d="M336.7,487.4l33.3-6.7l-17,16.7l81-42.8c0,0-26.2-47-26.6-47.8c-18.1-31.3-40.7-67.2-51-72.1
						c-18.8-8.9-60.3-5.3-65.3-8.3c-4.9-3-11.9-7.3-11.9-7.3v-25.2l2.5-4.1c-9.7,13.5-15.1,16.6-16.8,17.8
						c-5.5,3.8-13.6,5.8-22.3,5.8c-9.8,0-16.5-2-22-5.8c-1.6-1.1-6.6-3.7-14.9-14.6l0.7,0.9v25.2c0,0-6.9,4.4-11.9,7.3
						s-46.5-0.6-65.3,8.3c-10.4,4.9-33,41-51.1,72.3c-0.4,0.7-26.5,47.6-26.5,47.6l94.4,37.2l-29-4.3l33.7,4l11.4-4.9l65.3,18.9
						l15.3-0.7l0.3,1.3l82.8-22.3L336.7,487.4z"/>
				</g>
			</g>
			<g>
				<g>
					<defs>
						<path id="SVGID_11_" d="M1.2,243.4c0,133.8,108.4,242.1,242.1,242.1s242.1-108.4,242.1-242.1S377,1.3,243.3,1.3
							S1.2,109.7,1.2,243.4"/>
					</defs>
					<clipPath id="SVGID_12_">
						<use xlink:href="#SVGID_11_"  style="overflow:visible;"/>
					</clipPath>
					<path class="st5" d="M336.7,487.4l33.3-6.7l-17,16.7l81-42.8c0,0-26.2-47-26.6-47.8c-18.1-31.3-40.7-67.2-51-72.1
						c-18.8-8.9-60.3-5.3-65.3-8.3c-4.9-3-11.9-7.3-11.9-7.3v-25.2l2.5-4.1c-9.7,13.5-15.1,16.6-16.8,17.8
						c-5.5,3.8-13.6,5.8-22.3,5.8c-9.8,0-16.5-2-22-5.8c-1.6-1.1-6.6-3.7-14.9-14.6l0.7,0.9v25.2c0,0-6.9,4.4-11.9,7.3
						s-46.5-0.6-65.3,8.3c-10.4,4.9-33,41-51.1,72.3c-0.4,0.7-26.5,47.6-26.5,47.6l94.4,37.2l-29-4.3l33.7,4l11.4-4.9l65.3,18.9
						l15.3-0.7l0.3,1.3l82.8-22.3L336.7,487.4z"/>
				</g>
			</g>
			<g>
				<g>
					<defs>
						<path id="SVGID_13_" d="M1.2,243.4c0,133.8,108.4,242.1,242.1,242.1s242.1-108.4,242.1-242.1S377,1.3,243.3,1.3
							S1.2,109.7,1.2,243.4"/>
					</defs>
					<clipPath id="SVGID_14_">
						<use xlink:href="#SVGID_13_"  style="overflow:visible;"/>
					</clipPath>
					<path class="st6" d="M275.8,291.4c0.1-0.1,0.2-0.3,0.3-0.4v-0.1L275.8,291.4z"/>
				</g>
			</g>
			<g>
				<g>
					<defs>
						<path id="SVGID_15_" d="M1.2,243.4c0,133.8,108.4,242.1,242.1,242.1s242.1-108.4,242.1-242.1S377,1.3,243.3,1.3
							S1.2,109.7,1.2,243.4"/>
					</defs>
					<clipPath id="SVGID_16_">
						<use xlink:href="#SVGID_15_"  style="overflow:visible;"/>
					</clipPath>
					<polygon class="st7" points="126.8,388.4 344.2,388.4 374,453 95.9,453 					"/>
				</g>
			</g>
			<g>
				<g>
					<defs>
						<path id="SVGID_17_" d="M1.2,243.4c0,133.8,108.4,242.1,242.1,242.1s242.1-108.4,242.1-242.1S377,1.3,243.3,1.3
							S1.2,109.7,1.2,243.4"/>
					</defs>
					<clipPath id="SVGID_18_">
						<use xlink:href="#SVGID_17_"  style="overflow:visible;"/>
					</clipPath>
					<line class="st8" x1="114.9" y1="416.8" x2="114.9" y2="461.5"/>
				</g>
			</g>
			<g>
				<g>
					<defs>
						<path id="SVGID_19_" d="M1.2,243.4c0,133.8,108.4,242.1,242.1,242.1s242.1-108.4,242.1-242.1S377,1.3,243.3,1.3
							S1.2,109.7,1.2,243.4"/>
					</defs>
					<clipPath id="SVGID_20_">
						<use xlink:href="#SVGID_19_"  style="overflow:visible;"/>
					</clipPath>
					<line class="st9" x1="154.6" y1="443.6" x2="154.6" y2="485.6"/>
				</g>
			</g>
			<g>
				<g>
					<defs>
						<path id="SVGID_21_" d="M1.2,243.4c0,133.8,108.4,242.1,242.1,242.1s242.1-108.4,242.1-242.1S377,1.3,243.3,1.3
							S1.2,109.7,1.2,243.4"/>
					</defs>
					<clipPath id="SVGID_22_">
						<use xlink:href="#SVGID_21_"  style="overflow:visible;"/>
					</clipPath>
					<line class="st10" x1="382.1" y1="449.8" x2="382.1" y2="494.5"/>
				</g>
			</g>
			<g>
				<g>
					<defs>
						<path id="SVGID_23_" d="M1.2,243.4c0,133.8,108.4,242.1,242.1,242.1s242.1-108.4,242.1-242.1S377,1.3,243.3,1.3
							S1.2,109.7,1.2,243.4"/>
					</defs>
					<clipPath id="SVGID_24_">
						<use xlink:href="#SVGID_23_"  style="overflow:visible;"/>
					</clipPath>
					<line class="st11" x1="328.2" y1="330.4" x2="321.1" y2="391.8"/>
				</g>
			</g>
			<g>
				<g>
					<defs>
						<path id="SVGID_25_" d="M1.2,243.4c0,133.8,108.4,242.1,242.1,242.1s242.1-108.4,242.1-242.1S377,1.3,243.3,1.3
							S1.2,109.7,1.2,243.4"/>
					</defs>
					<clipPath id="SVGID_26_">
						<use xlink:href="#SVGID_25_"  style="overflow:visible;"/>
					</clipPath>
					<path class="st12" d="M241.2,107.7c-1.3-2.3-13.9-7.8-39.5,3.1c-10.8,4.6-20.7,16.9-28.8,30.5l-49.3,201.5
						c10-8.3,21.7-13.4,35.1-13c26.2,0.8,40.4,3.3,54.9-12.5c3.2-3.5-2.9-16.2-2.9-23.3c-7.3-11.6-21.3-29.4-24.3-39.8
						c0,0,0-0.1,0-0.2c0.4-0.8,0.9-1.6,1.1-2.1c0.8-1.7,2.5-20.8,1.3-35.3s2-40.7,15.2-52.2s27.7-14.5,32.3-15.7
						c4.7-1.2,4.3-3.2,4.8-13c0-0.1,0-0.2,0-0.2c0.5-4.3,0.7-10.3,0.8-18.7C242.2,110.6,242.5,110,241.2,107.7"/>
				</g>
			</g>
			<g>
				<g>
					<defs>
						<path id="SVGID_27_" d="M1.2,243.4c0,133.8,108.4,242.1,242.1,242.1s242.1-108.4,242.1-242.1S377,1.3,243.3,1.3
							S1.2,109.7,1.2,243.4"/>
					</defs>
					<clipPath id="SVGID_28_">
						<use xlink:href="#SVGID_27_"  style="overflow:visible;"/>
					</clipPath>
					<path class="st13" d="M313.9,141.4c-8.1-13.6-18-25.9-28.8-30.5c-25.6-11-38.2-5.4-39.5-3.1c-1.3,2.3-1,2.9-0.9,9.1
						c0.1,10.7,0.5,17.8,1.3,22.2c0.3,7.1,0.6,8.8,4.7,9.8c4.7,1.2,19.2,4.2,32.3,15.7c13.2,11.5,16.3,37.7,15.2,52.2
						c-1.2,14.5,0.5,33.7,1.3,35.3c0.2,0.5,0.6,1.1,1,1.8c-1.1,4.2-7.5,5.1-11.3,10.5c-2.3,3.2-4.2,7.2-6,11.4
						c-2.5,5.6-4.7,11.3-7.2,15.3c0.2,7.6,1,22.6,4.5,26.4c14.5,15.9,21.4,13.2,47.6,12.5c13.4-0.4,25.1,4.8,35.1,13L313.9,141.4z"
						/>
				</g>
			</g>
			<g>
				<g>
					<defs>
						<path id="SVGID_29_" d="M1.2,243.4c0,133.8,108.4,242.1,242.1,242.1s242.1-108.4,242.1-242.1S377,1.3,243.3,1.3
							S1.2,109.7,1.2,243.4"/>
					</defs>
					<clipPath id="SVGID_30_">
						<use xlink:href="#SVGID_29_"  style="overflow:visible;"/>
					</clipPath>
					<polyline class="st14" points="130.7,428.4 164,387 136.7,347.1 					"/>
				</g>
			</g>
			<g>
				<g>
					<defs>
						<path id="SVGID_31_" d="M1.2,243.4c0,133.8,108.4,242.1,242.1,242.1s242.1-108.4,242.1-242.1S377,1.3,243.3,1.3
							S1.2,109.7,1.2,243.4"/>
					</defs>
					<clipPath id="SVGID_32_">
						<use xlink:href="#SVGID_31_"  style="overflow:visible;"/>
					</clipPath>
					<polygon class="st15" points="176.9,468.1 161.3,455.6 189.9,420 166.7,386.2 183.2,374.9 214.8,421 					"/>
				</g>
			</g>
		</g>
		<g>
			<g>
				<g>
					<defs>
						<path id="SVGID_33_" d="M95.7,388.2l-31.9,17.6c4.3,4.7,8.7,9.3,13.3,47.1h332.3c4.4-37.6,8.6-41.9,12.7-46.4l-12-18.3H95.7z"
							/>
					</defs>
					<clipPath id="SVGID_34_">
						<use xlink:href="#SVGID_33_"  style="overflow:visible;"/>
					</clipPath>
					<polygon class="st16" points="221.2,468.1 205.7,455.6 234.2,420 211.1,386.2 227.6,374.9 259.1,421 					"/>
				</g>
			</g>
			<g>
				<g>
					<defs>
						<path id="SVGID_35_" d="M95.7,388.2l-31.9,17.6c4.3,4.7,8.7,9.3,13.3,47.1h332.3c4.4-37.6,8.6-41.9,12.7-46.4l-12-18.3H95.7z"
							/>
					</defs>
					<clipPath id="SVGID_36_">
						<use xlink:href="#SVGID_35_"  style="overflow:visible;"/>
					</clipPath>
					<polygon class="st17" points="265.6,468.1 250,455.6 278.6,420 255.4,386.2 271.9,374.9 303.5,421 					"/>
				</g>
			</g>
			<g>
				<g>
					<defs>
						<path id="SVGID_37_" d="M95.7,388.2l-31.9,17.6c4.3,4.7,8.7,9.3,13.3,47.1h332.3c4.4-37.6,8.6-41.9,12.7-46.4l-12-18.3H95.7z"
							/>
					</defs>
					<clipPath id="SVGID_38_">
						<use xlink:href="#SVGID_37_"  style="overflow:visible;"/>
					</clipPath>
					<polygon class="st18" points="309.9,468.1 294.3,455.6 322.9,420 299.8,386.2 316.3,374.9 347.8,421 					"/>
				</g>
			</g>
			<g>
				<g>
					<defs>
						<path id="SVGID_39_" d="M95.7,388.2l-31.9,17.6c4.3,4.7,8.7,9.3,13.3,47.1h332.3c4.4-37.6,8.6-41.9,12.7-46.4l-12-18.3H95.7z"
							/>
					</defs>
					<clipPath id="SVGID_40_">
						<use xlink:href="#SVGID_39_"  style="overflow:visible;"/>
					</clipPath>
					<polygon class="st19" points="360.3,468.1 344.7,455.6 373.3,420 350.2,386.2 366.7,374.9 398.2,421 					"/>
				</g>
			</g>
		</g>
		<g>
			<g>
				<g>
					<defs>
						<path id="SVGID_41_" d="M1.2,243.4c0,61.4,22.8,117.4,60.5,160.1c44.4,50.3,109.3,82,181.6,82
							c133.7,0,242.1-108.4,242.1-242.1S377,1.3,243.3,1.3S1.2,109.7,1.2,243.4"/>
					</defs>
					<clipPath id="SVGID_42_">
						<use xlink:href="#SVGID_41_"  style="overflow:visible;"/>
					</clipPath>
					<path class="st20" d="M179.6,182c0,0,13.3,93.4,27.3,106c4.7,4.2-9.5,12.6-19.8,18.5s-20.5-19.8-20.5-19.8l3.7-72.5L179.6,182z
						"/>
				</g>
			</g>
			<g>
				<g>
					<defs>
						<path id="SVGID_43_" d="M1.2,243.4c0,61.4,22.8,117.4,60.5,160.1c44.4,50.3,109.3,82,181.6,82
							c133.7,0,242.1-108.4,242.1-242.1S377,1.3,243.3,1.3S1.2,109.7,1.2,243.4"/>
					</defs>
					<clipPath id="SVGID_44_">
						<use xlink:href="#SVGID_43_"  style="overflow:visible;"/>
					</clipPath>
					<path class="st21" d="M305.3,192c0,0-13.3,83.3-27.3,96c-4.7,4.2,9.5,12.6,19.8,18.5s20.5-19.8,20.5-19.8l-3.7-72.5L305.3,192z
						"/>
				</g>
			</g>
			<g>
				<g>
					<defs>
						<path id="SVGID_45_" d="M1.2,243.4c0,61.4,22.8,117.4,60.5,160.1c44.4,50.3,109.3,82,181.6,82
							c133.7,0,242.1-108.4,242.1-242.1S377,1.3,243.3,1.3S1.2,109.7,1.2,243.4"/>
					</defs>
					<clipPath id="SVGID_46_">
						<use xlink:href="#SVGID_45_"  style="overflow:visible;"/>
					</clipPath>
					<path class="st22" d="M130.4,317.9L74.5,533.5c0,0,173.9,140.7,140,24c-34-117-4-236.1-4-236.1l-53-23.5L130.4,317.9z"/>
				</g>
			</g>
		</g>
		<g>
			<g>
				<g>
					<defs>
						<rect id="SVGID_47_" x="-39.2" y="-58.8" width="567.1" height="567.1"/>
					</defs>
					<clipPath id="SVGID_48_">
						<use xlink:href="#SVGID_47_"  style="overflow:visible;"/>
					</clipPath>
					<path class="st23" d="M276.8,304.2c1.7-20,2.1-25.2,2.1-25.2l-33,5.5V335l32.7-0.6l13.7-2.7c0,0-18.3-6.7-16.7-26.7"/>
				</g>
			</g>
			<g>
				<g>
					<defs>
						<rect id="SVGID_49_" x="-39.2" y="-58.8" width="567.1" height="567.1"/>
					</defs>
					<clipPath id="SVGID_50_">
						<use xlink:href="#SVGID_49_"  style="overflow:visible;"/>
					</clipPath>
					<path class="st24" d="M214.3,305c-1.7-20-3.3-26-3.3-26l33,5.5l21.3,57.5l-54-7.7l-13.7-2.7C197.6,331.7,215.9,325,214.3,305"
						/>
				</g>
			</g>
			<g>
				<g>
					<defs>
						<rect id="SVGID_51_" x="-39.2" y="-58.8" width="567.1" height="567.1"/>
					</defs>
					<clipPath id="SVGID_52_">
						<use xlink:href="#SVGID_51_"  style="overflow:visible;"/>
					</clipPath>
					<path class="st25" d="M204.3,355.8c0,0,11.2-47.9,11.2-52s-26.1,8.3-26.1,8.3s-4.5,18.4-3.1,21s10,19.6,10,19.6L204.3,355.8z"
						/>
				</g>
			</g>
		</g>
		<path class="st26" d="M243.9,147.7l-1.6,162.4h1.6c27.4-0.1,49.6-28.4,54.2-81.2C303.1,174.3,273.9,147.8,243.9,147.7z"/>
		<path class="st26" d="M242.8,147.7v162.4c-27.4-0.1-49.6-28.4-54.2-81.2C183.4,169.5,212.9,147.8,242.8,147.7z"/>
		<path class="st27" d="M203.5,288.3c0.1,0.2,3.4,4.4,3.6,4.6c8.1,10.1,13.2,12.4,14.8,13.5c5.5,3.7,12.2,5.6,22,5.6
			c8.7,0,16.9-1.9,22.3-5.6c1.7-1.2,7.3-4.9,17-17.9"/>
	</g>
	<g id="Layer_4">
	</g>
</g>
</svg>
