<?xml version="1.0" encoding="utf-8"?>
<svg version="1.1" id="Layer_1" xmlns="http://www.w3.org/2000/svg" xmlns:xlink="http://www.w3.org/1999/xlink" x="0px" y="0px"
	 viewBox="0 0 485 485" style="enable-background:new 0 0 485 485;" xml:space="preserve">
<style type="text/css">
	.st0{fill:none;}
	.st1{fill:none;}
	.st2{clip-path:url(#SVGID_2_);}
	.st3{fill:#FFFFFF;}
	.st4{fill:#646A6F;}
	.st5{clip-path:url(#SVGID_4_);}
	.st6{fill:#A50020;}
	.st7{fill:none;stroke:#000000;stroke-width:3;stroke-linecap:round;stroke-miterlimit:10;}
	.st8{stroke:#000000;stroke-width:1.25;stroke-miterlimit:10;}
</style>
<g id="Layer_2_1_">
</g>
<g id="Layer_1_2_">
	<g id="Layer_3">
	</g>
	<g id="Layer_1_1_">
		<circle class="st0" cx="242.4" cy="242.5" r="242.1"/>
		<circle class="st1" cx="242.4" cy="242.5" r="242.1"/>
	</g>
	<g id="Layer_2_2_">
		<g>
			<g>
				<g>
					<defs>
						<circle id="SVGID_1_" cx="242.4" cy="242.5" r="242.1"/>
					</defs>
					<clipPath id="SVGID_2_">
						<use xlink:href="#SVGID_1_"  style="overflow:visible;"/>
					</clipPath>
					<g class="st2">
						<path d="M62.9,422.3l130.5-32l188.5-60.5l44,67v24l-139.5,86.5c0,0-137.5-4.5-139-5.5S62.9,422.3,62.9,422.3z"/>
						<path class="st3" d="M178.4,397.3l202-65c0,0,21.5,19.5,22.5,28.5c0.9,8.4,10.9,46,12.3,51.4c4.4-4.5,8.7-9.2,12.7-14
							l-19.7-66.4l-76.5-70c0,0-3.2-86.2-3.2-92.6c0-6.5-30.2-70-30.2-70s-30.2-33.4-44.2-37.7c-14-4.3-34.5,5.4-34.5,5.4
							l-34.5,47.4L132.5,253L112,340.3l-40.6,64L178.4,397.3z"/>
						<path class="st4" d="M190.9,149c13-15.1-3-34.1,9.4-44.9c8-7,34.4-11.5,37.9-16c1.8-2.3,2.8-0.4,2.5-17.7
							c-0.1-6.5,0.2-7.2-1.2-9.5s-13.7-7.9-40.1,4.2s-46.4,68.6-51,82.6s-14.8,30.6-26,37.6c-11.1,7-32,11.6-33.4,29.2
							s0.5,26.4-10.2,34.3s-23.5,9.9-20.4,29.2c4.4,27.4-6.1,40.3-11.6,48.7c-36.4,55.6,30.4,90.9,30.4,90.9S33,366.1,159.4,298.8
							c24.1-12.8,36.7-8.8,51.5-25.7c6.5-7.4,5.6-28.8,2.8-36.6c-2.4-6.9-12.1-9.3-19.9-39.9C188.6,176.6,183.9,157.2,190.9,149z"/>
						<path class="st3" d="M312,396.8c-1.6,0-3.1-0.9-3.8-2.4l-24.4-52.9c-1-2.1,0-4.6,2-5.5c2.1-1,4.6,0,5.5,2l24.4,52.9
							c1,2.1,0,4.6-2,5.5C313.3,396.6,312.6,396.8,312,396.8z"/>
						<path class="st3" d="M268.9,391.1c-1.6,0-3.1-0.9-3.8-2.4l-24.4-52.9c-1-2.1,0-4.6,2-5.5c2.1-1,4.6,0,5.5,2l24.4,52.9
							c1,2.1,0,4.6-2,5.5C270,391,269.4,391.1,268.9,391.1z"/>
						<path class="st3" d="M254.9,422.4c-1.6,0-3.1-0.9-3.8-2.4l-24.4-52.9c-1-2.1,0-4.6,2-5.5c2.1-1,4.6,0,5.5,2l24.4,52.9
							c1,2.1,0,4.6-2,5.5C256.1,422.3,255.5,422.4,254.9,422.4z"/>
						<g>
							<polygon class="st1" points="84.1,434.8 76.7,430.8 97.7,390.5 59,370.4 62.8,363 108.9,386.9 							"/>
						</g>
						<g>
							<polygon class="st1" points="101.6,429.1 94.2,425.3 115.2,385 76.5,364.8 80.3,357.4 126.4,381.4 							"/>
						</g>
						<g>
							<polygon class="st1" points="119.1,423.6 111.7,419.8 132.7,379.4 94,359.3 97.8,351.9 143.9,375.9 							"/>
						</g>
						<g>
							<polygon class="st1" points="381.5,340.8 374.1,336.9 395.1,296.6 356.4,276.4 360.3,269 406.3,293 							"/>
						</g>
						
							<rect x="98.1" y="317.4" transform="matrix(0.9536 -0.3012 0.3012 0.9536 -92.0492 90.5868)" class="st1" width="299.4" height="52.9"/>
						<path d="M110.3,419.3l-18.5-58.4l293.4-92.7l18.5,58.4L110.3,419.3z M102.3,366.3l13.4,42.5l277.5-87.6l-13.4-42.5
							L102.3,366.3z"/>
						<path class="st3" d="M382.1,401.4c-1.6,0-3.1-0.9-3.8-2.4L354,346.1c-1-2.1,0-4.6,2-5.5c2.1-1,4.6,0,5.5,2l24.4,52.9
							c1,2.1,0,4.6-2,5.5C383.3,401.3,382.8,401.4,382.1,401.4z"/>
						<path class="st3" d="M362,433.3c-1.6,0-3.1-0.9-3.8-2.4L333.8,378c-1-2.1,0-4.6,2-5.5c2.1-1,4.6,0,5.5,2l24.4,52.9
							c1,2.1,0,4.6-2,5.5C363.3,433.1,362.6,433.3,362,433.3z"/>
						<g>
							<g>
								<g>
									<defs>
										<polygon id="SVGID_3_" points="142.4,348.5 321,292.5 344.4,293.3 367.8,302.5 379.8,318.5 385,329.3 164.4,396.5 
											141.7,365.3 										"/>
									</defs>
									<clipPath id="SVGID_4_">
										<use xlink:href="#SVGID_3_"  style="overflow:visible;"/>
									</clipPath>
									<g class="st5">
										<g>
											<polygon class="st6" points="154.1,412.6 146.7,408.8 167.7,368.4 128.9,348.3 132.8,340.9 178.9,364.8 											"/>
										</g>
										<g>
											<g>
												<polygon points="136.6,418.1 129.2,414.3 150.2,373.9 111.5,353.8 115.3,346.4 161.4,370.4 												"/>
											</g>
											<g>
												<polygon points="171.6,407 164.2,403.3 185.2,362.9 146.4,342.8 150.3,335.3 196.4,359.3 												"/>
											</g>
											<g>
												<polygon class="st6" points="189.1,401.5 181.7,397.8 202.6,357.3 163.9,337.3 167.8,329.8 213.9,353.8 												"/>
											</g>
											<g>
												<polygon points="206.6,396 199.2,392.1 220.1,351.8 181.4,331.8 185.3,324.3 231.4,348.3 												"/>
											</g>
											<g>
												<polygon class="st6" points="224.1,390.5 216.8,386.6 237.6,346.3 198.9,326.3 202.8,318.8 248.9,342.8 												"/>
											</g>
											<g>
												<polygon points="241.6,384.9 234.3,381.1 255.1,340.8 216.4,320.6 220.3,313.3 266.4,337.3 												"/>
											</g>
											<g>
												<polygon class="st6" points="259.1,379.4 251.8,375.5 272.6,335.3 233.9,315.1 237.8,307.8 283.9,331.8 												"/>
											</g>
											<g>
												<polygon points="276.6,373.9 269.1,370 290.1,329.8 251.4,309.6 255.3,302.3 301.4,326.3 												"/>
											</g>
											<g>
												<polygon class="st6" points="294,368.4 286.6,364.5 307.6,324.3 268.9,304.1 272.8,296.6 318.9,320.6 												"/>
											</g>
											<g>
												<polygon points="311.5,362.8 304.1,359 325.1,318.8 286.4,298.5 290.3,291.1 336.4,315.1 												"/>
											</g>
											<g>
												<polygon class="st6" points="329,357.3 321.6,353.5 342.6,313.1 303.9,293 307.8,285.6 353.9,309.6 												"/>
											</g>
											<g>
												<polygon points="346.5,351.8 339.1,347.9 360.1,307.6 321.4,287.5 325.3,280.1 371.3,304 												"/>
											</g>
											<g>
												<polygon points="364,346.3 356.6,342.4 377.6,302.1 338.9,282 342.8,274.5 388.8,298.5 												"/>
											</g>
										</g>
									</g>
								</g>
							</g>
						</g>
						<path class="st4" d="M294.8,149c-13-15.1,3-34.1-9.4-44.9c-8-7-34.4-11.5-37.9-16c-1.8-2.3-2.8-0.4-2.5-17.7
							c0.1-6.5-0.2-7.2,1.2-9.5s13.7-7.9,40.1,4.2s46.4,68.6,51,82.6c4.6,13.9,14.8,30.6,26,37.6c11.1,7,32,11.6,33.4,29.2
							s-0.5,26.4,10.2,34.3s23.5,9.9,20.4,29.2c-4.4,27.4,6.1,40.3,11.6,48.7c36.4,55.6-26,86.5-26,86.5S389.7,295.5,326.2,296
							c-27.3,0.2-36.4-5.8-51.2-22.7c-6.5-7.4-5.6-28.8-2.8-36.6c2.5-6.9,12.1-9.3,19.9-39.9C297,176.6,301.8,157.2,294.8,149z"/>
						<path class="st4" d="M186.8,287.5c0,0-48.2,10.1-37.6,61.2s55,56.1,55,56.1s-98.4,69.8-159.1-16.6
							C10.8,339.1,186.8,287.5,186.8,287.5z"/>
						<path d="M242.1,211.9l3-1.8c0,0,7.7-0.8,12,0.3s5.9,2.6,5.9,2.6s-5,6-6.1,6.7c-3,1.7-8.1,3.8-12.4,3.4c-1.8-0.1-1.4,0-1.8-0.1
							C238.5,222.6,241.9,211.9,242.1,211.9z"/>
						<path d="M242.5,211.9l-3-1.8c0,0-7.7-0.8-12,0.3s-5.9,2.6-5.9,2.6s5,6,6.1,6.7c3,1.7,8.1,3.8,12.4,3.4c1.8-0.1,1.4,0,1.8-0.1
							C246.1,222.6,242.8,211.9,242.5,211.9z"/>
					</g>
				</g>
			</g>
		</g>
		<line class="st7" x1="245.5" y1="221.5" x2="245.5" y2="243.8"/>
		<line class="st7" x1="249.9" y1="221.5" x2="249.9" y2="237"/>
		<line class="st7" x1="240.9" y1="221.5" x2="240.9" y2="243.8"/>
		<line class="st7" x1="236.5" y1="221.5" x2="236.5" y2="237"/>
		<path class="st8" d="M257.3,242.9c-0.8,1.1-2.1,1.8-3.5,1.8c-0.5,0-1.3-0.2-2.1-0.7c-0.6-0.4-1.2-1-1.7-2s-0.8-2.3-0.8-3.7h1.7
			c0,1.1,0.2,2.1,0.6,2.8c0.6,1.1,1.5,1.8,2.4,1.8c0.8,0,1.5-0.4,2-1c0.4-0.6,0.5-1.6,0.2-2.3c-0.1-0.3-0.4-0.7-1-0.8
			c-0.5,0-0.8-0.4-0.8-0.9s0.5-0.9,0.9-0.8c1,0,1.9,0.7,2.4,1.7C258.1,240.1,258,241.8,257.3,242.9z M229.3,242.9
			c0.8,1.1,2.1,1.8,3.5,1.8c0.5,0,1.3-0.2,2.1-0.7c0.6-0.4,1.2-1,1.7-2s0.8-2.3,0.8-3.7h-1.7c0,1.1-0.2,2.1-0.6,2.8
			c-0.6,1.1-1.5,1.8-2.4,1.8c-0.8,0-1.5-0.4-2-1c-0.4-0.6-0.5-1.6-0.2-2.3c0.1-0.3,0.4-0.7,1-0.8c0.5,0,0.8-0.4,0.8-0.9
			s-0.5-0.9-0.9-0.8c-1,0-1.9,0.7-2.4,1.7C228.3,240.1,228.5,241.8,229.3,242.9z"/>
		<path class="st4" d="M260.8,247.3c-4,2.9-10.4,4.5-17.5,4.5c-7.4,0-12.9-1.4-17.2-4.5c-0.2-0.1-0.5-0.3-0.8-0.5
			c-1.6-1-5.5-3.5-11.2-10.8c-0.1-0.1-0.9-1.2-1.7-2.2c-0.7-0.9-1.3-1.8-1.4-1.8l0,0c2.2,3.2,3.1,10,3.2,12c4.1,4.4,7,6.2,8.4,7.1
			c0.2,0.1,0.4,0.3,0.5,0.4c5.2,3.7,11.6,5.4,20.1,5.4c8.2,0,15.4-1.9,20.4-5.4c1.1-0.8,3.7-2.6,7.8-7.2c0.1-1.2,0.8-7.8,2.8-11.5
			C266.5,243.1,262.3,246.3,260.8,247.3z"/>
		<path class="st4" d="M260.8,248.3c-4,2.9-10.4,4.5-17.5,4.5c-7.4,0-12.9-1.4-17.2-4.5c-0.2-0.1-0.5-0.3-0.8-0.5
			c-1.6-1-5.5-3.5-11.2-10.8c-0.1-0.1-0.9-1.2-1.7-2.2c-0.7-0.9-1.3-1.8-1.4-1.8l0,0c2.2,3.2,3.1,10,3.2,12c4.1,4.4,7,6.2,8.4,7.1
			c0.2,0.1,0.4,0.3,0.5,0.4c5.2,3.7,11.6,5.4,20.1,5.4c8.2,0,15.4-1.9,20.4-5.4c1.1-0.8,3.7-2.6,7.8-7.2c0.1-1.2,0.8-7.8,2.8-11.5
			C266.5,244.3,262.3,247.3,260.8,248.3z"/>
	</g>
	<g id="Layer_4">
	</g>
</g>
</svg>
