<svg xmlns="http://www.w3.org/2000/svg" xmlns:xlink="http://www.w3.org/1999/xlink" xml:space="preserve" x="0" y="0" version="1.1" viewBox="0 0 485 485">
  <g fill="none">
    <circle cx="242.4" cy="242.5" r="242.1"/>
    <circle cx="242.4" cy="242.5" r="242.1"/>
  </g>
  <defs>
    <circle id="a" cx="242.4" cy="242.5" r="242.1"/>
  </defs>
  <clipPath id="b">
    <use xlink:href="#a" overflow="visible"/>
  </clipPath>
  <g clip-path="url(#b)">
    <path d="m62.9 422.3 130.5-32 188.5-60.5 44 67v24l-139.5 86.5s-137.5-4.5-139-5.5-84.5-79.5-84.5-79.5z"/>
    <path d="m178.4 397.3 202-65s21.5 19.5 22.5 28.5c.9 8.4 10.9 46 12.3 51.4 4.4-4.5 8.7-9.2 12.7-14l-19.7-66.4-76.5-70s-3.2-86.2-3.2-92.6c0-6.5-30.2-70-30.2-70s-30.2-33.4-44.2-37.7c-14-4.3-34.5 5.4-34.5 5.4l-34.5 47.4L132.5 253 112 340.3l-40.6 64 107-7z" fill="#fff"/>
    <path d="M190.9 149c13-15.1-3-34.1 9.4-44.9 8-7 34.4-11.5 37.9-16 1.8-2.3 2.8-.4 2.5-17.7-.1-6.5.2-7.2-1.2-9.5s-13.7-7.9-40.1 4.2-46.4 68.6-51 82.6-14.8 30.6-26 37.6c-11.1 7-32 11.6-33.4 29.2s.5 26.4-10.2 34.3-23.5 9.9-20.4 29.2c4.4 27.4-6.1 40.3-11.6 48.7-36.4 55.6 30.4 90.9 30.4 90.9S33 366.1 159.4 298.8c24.1-12.8 36.7-8.8 51.5-25.7 6.5-7.4 5.6-28.8 2.8-36.6-2.4-6.9-12.1-9.3-19.9-39.9-5.2-20-9.9-39.4-2.9-47.6z" fill="#646a6f"/>
    <path d="M312 396.8c-1.6 0-3.1-.9-3.8-2.4l-24.4-52.9a4.14 4.14 0 0 1 7.5-3.5l24.4 52.9a4.14 4.14 0 0 1-3.7 5.9zm-43.1-5.7c-1.6 0-3.1-.9-3.8-2.4l-24.4-52.9a4.14 4.14 0 0 1 7.5-3.5l24.4 52.9a4.14 4.14 0 0 1-3.7 5.9zm-14 31.3c-1.6 0-3.1-.9-3.8-2.4l-24.4-52.9a4.14 4.14 0 0 1 7.5-3.5l24.4 52.9c1 2.1 0 4.6-2 5.5-.5.3-1.1.4-1.7.4z" fill="#fff"/>
    <path d="m84.1 434.8-7.4-4 21-40.3L59 370.4l3.8-7.4 46.1 23.9z" fill="none"/>
    <path d="m101.6 429.1-7.4-3.8 21-40.3-38.7-20.2 3.8-7.4 46.1 24z" fill="none"/>
    <path d="m119.1 423.6-7.4-3.8 21-40.4L94 359.3l3.8-7.4 46.1 24zm262.4-82.8-7.4-3.9 21-40.3-38.7-20.2 3.9-7.4 46 24z" fill="none"/>
    <path d="m97.1 363.7 285.5-90.18 15.93 50.44-285.5 90.18z" fill="none"/>
    <path d="m110.3 419.3-18.5-58.4 293.4-92.7 18.5 58.4-293.4 92.7zm-8-53 13.4 42.5 277.5-87.6-13.4-42.5-277.5 87.6z"/>
    <path d="M382.1 401.4c-1.6 0-3.1-.9-3.8-2.4L354 346.1a4.14 4.14 0 0 1 7.5-3.5l24.4 52.9a4.14 4.14 0 0 1-3.8 5.9zM362 433.3c-1.6 0-3.1-.9-3.8-2.4L333.8 378a4.14 4.14 0 0 1 7.5-3.5l24.4 52.9a4.14 4.14 0 0 1-3.7 5.9z" fill="#fff"/>
    <defs>
      <path d="m142.4 348.5 178.6-56 23.4.8 23.4 9.2 12 16 5.2 10.8-220.6 67.2-22.7-31.2z" id="c"/>
    </defs>
    <clipPath id="d">
      <use xlink:href="#c" overflow="visible"/>
    </clipPath>
    <g clip-path="url(#d)">
      <path d="m154.1 412.6-7.4-3.8 21-40.4-38.8-20.1 3.9-7.4 46.1 23.9z" fill="#a50020"/>
      <path d="m136.6 418.1-7.4-3.8 21-40.4-38.7-20.1 3.8-7.4 46.1 24z"/>
      <path d="m171.6 407-7.4-3.7 21-40.4-38.8-20.1 3.9-7.5 46.1 24z"/>
      <path d="m189.1 401.5-7.4-3.7 20.9-40.5-38.7-20 3.9-7.5 46.1 24z" fill="#a50020"/>
      <path d="m206.6 396-7.4-3.9 20.9-40.3-38.7-20 3.9-7.5 46.1 24z"/>
      <path d="m224.1 390.5-7.3-3.9 20.8-40.3-38.7-20 3.9-7.5 46.1 24z" fill="#a50020"/>
      <path d="m241.6 384.9-7.3-3.8 20.8-40.3-38.7-20.2 3.9-7.3 46.1 24z"/>
      <path d="m259.1 379.4-7.3-3.9 20.8-40.2-38.7-20.2 3.9-7.3 46.1 24z" fill="#a50020"/>
      <path d="m276.6 373.9-7.5-3.9 21-40.2-38.7-20.2 3.9-7.3 46.1 24z"/>
      <path d="m294 368.4-7.4-3.9 21-40.2-38.7-20.2 3.9-7.5 46.1 24z" fill="#a50020"/>
      <path d="m311.5 362.8-7.4-3.8 21-40.2-38.7-20.3 3.9-7.4 46.1 24z"/>
      <path d="m329 357.3-7.4-3.8 21-40.4-38.7-20.1 3.9-7.4 46.1 24z" fill="#a50020"/>
      <path d="m346.5 351.8-7.4-3.9 21-40.3-38.7-20.1 3.9-7.4 46 23.9z"/>
      <path d="m364 346.3-7.4-3.9 21-40.3-38.7-20.1 3.9-7.5 46 24z"/>
    </g>
    <path d="M294.8 149c-13-15.1 3-34.1-9.4-44.9-8-7-34.4-11.5-37.9-16-1.8-2.3-2.8-.4-2.5-17.7.1-6.5-.2-7.2 1.2-9.5s13.7-7.9 40.1 4.2 46.4 68.6 51 82.6c4.6 13.9 14.8 30.6 26 37.6 11.1 7 32 11.6 33.4 29.2s-.5 26.4 10.2 34.3 23.5 9.9 20.4 29.2c-4.4 27.4 6.1 40.3 11.6 48.7 36.4 55.6-26 86.5-26 86.5S389.7 295.5 326.2 296c-27.3.2-36.4-5.8-51.2-22.7-6.5-7.4-5.6-28.8-2.8-36.6 2.5-6.9 12.1-9.3 19.9-39.9 4.9-20.2 9.7-39.6 2.7-47.8zm-108 138.5s-48.2 10.1-37.6 61.2 55 56.1 55 56.1-98.4 69.8-159.1-16.6c-34.3-49.1 141.7-100.7 141.7-100.7z" fill="#646a6f"/>
    <path d="m242.1 211.9 3-1.8s7.7-.8 12 .3 5.9 2.6 5.9 2.6-5 6-6.1 6.7c-3 1.7-8.1 3.8-12.4 3.4-1.8-.1-1.4 0-1.8-.1-4.2-.4-.8-11.1-.6-11.1z"/>
    <path d="m242.5 211.9-3-1.8s-7.7-.8-12 .3-5.9 2.6-5.9 2.6 5 6 6.1 6.7c3 1.7 8.1 3.8 12.4 3.4 1.8-.1 1.4 0 1.8-.1 4.2-.4.9-11.1.6-11.1z"/>
  </g>
  <path d="M245.5 221.5v22.3m4.4-22.3V237m-9-15.5v22.3m-4.4-22.3V237" fill="none" stroke="#000" stroke-linecap="round" stroke-miterlimit="10" stroke-width="3"/>
  <path d="M257.3 242.9c-.8 1.1-2.1 1.8-3.5 1.8-.5 0-1.3-.2-2.1-.7-.6-.4-1.2-1-1.7-2s-.8-2.3-.8-3.7h1.7c0 1.1.2 2.1.6 2.8.6 1.1 1.5 1.8 2.4 1.8.8 0 1.5-.4 2-1 .4-.6.5-1.6.2-2.3-.1-.3-.4-.7-1-.8-.5 0-.8-.4-.8-.9s.5-.9.9-.8c1 0 1.9.7 2.4 1.7.5 1.3.4 3-.3 4.1zm-28 0c.8 1.1 2.1 1.8 3.5 1.8.5 0 1.3-.2 2.1-.7.6-.4 1.2-1 1.7-2s.8-2.3.8-3.7h-1.7c0 1.1-.2 2.1-.6 2.8-.6 1.1-1.5 1.8-2.4 1.8-.8 0-1.5-.4-2-1-.4-.6-.5-1.6-.2-2.3.1-.3.4-.7 1-.8.5 0 .8-.4.8-.9s-.5-.9-.9-.8c-1 0-1.9.7-2.4 1.7-.7 1.3-.5 3 .3 4.1z" stroke="#000" stroke-miterlimit="10" stroke-width="1.25"/>
  <path d="M260.8 247.3c-4 2.9-10.4 4.5-17.5 4.5-7.4 0-12.9-1.4-17.2-4.5-.2-.1-.5-.3-.8-.5-1.6-1-5.5-3.5-11.2-10.8-.1-.1-.9-1.2-1.7-2.2-.7-.9-1.3-1.8-1.4-1.8 2.2 3.2 3.1 10 3.2 12 4.1 4.4 7 6.2 8.4 7.1.2.1.4.3.5.4 5.2 3.7 11.6 5.4 20.1 5.4 8.2 0 15.4-1.9 20.4-5.4 1.1-.8 3.7-2.6 7.8-7.2.1-1.2.8-7.8 2.8-11.5-7.7 10.3-11.9 13.5-13.4 14.5z" fill="#646a6f"/>
  <path d="M260.8 248.3c-4 2.9-10.4 4.5-17.5 4.5-7.4 0-12.9-1.4-17.2-4.5-.2-.1-.5-.3-.8-.5-1.6-1-5.5-3.5-11.2-10.8-.1-.1-.9-1.2-1.7-2.2-.7-.9-1.3-1.8-1.4-1.8 2.2 3.2 3.1 10 3.2 12 4.1 4.4 7 6.2 8.4 7.1.2.1.4.3.5.4 5.2 3.7 11.6 5.4 20.1 5.4 8.2 0 15.4-1.9 20.4-5.4 1.1-.8 3.7-2.6 7.8-7.2.1-1.2.8-7.8 2.8-11.5-7.7 10.5-11.9 13.5-13.4 14.5z" fill="#646a6f"/>
</svg>
