<svg xmlns="http://www.w3.org/2000/svg" viewBox="0 0 740.75 641.51"><defs><style>.cls-1,.cls-3{fill:#555}.cls-1{opacity:.27}</style></defs><g id="Layer_2" data-name="Layer 2"><path d="m185.19 481.13-46.3 80.19h92.6l-46.3-80.19zM555.57 481.13l-46.3 80.19h92.59l-46.29-80.19z" class="cls-1"/><g style="opacity:.27"><path d="M462.97 160.38 370.38 0l-92.6 160.38h185.19zM370.38 320.76h185.19l-92.6-160.38-92.59 160.38z" class="cls-3"/><path d="M185.19 320.76h185.19l-92.6-160.38-92.59 160.38zM555.57 320.76 370.38 641.51h185.19l-92.6-160.38h185.19l-92.59 160.38h185.18L555.57 320.76zM0 641.51h185.19l-92.6-160.38h185.19l-92.59 160.38h185.19L185.19 320.76 0 641.51z" class="cls-3"/></g><path d="m370.38 160.38-46.3 80.19h92.59l-46.29-80.19zM370.38 481.13l-46.3-80.19h92.59l-46.29 80.19zM373.96 614.78 296.8 481.13h154.33l-77.17 133.65z" class="cls-1"/><path d="m451.13 467.77-77.17-133.65h154.33l-77.16 133.65zM289.63 467.77l-77.16-133.65h154.32l-77.16 133.65z" class="cls-1"/></g><g id="Layer_1" data-name="Layer 1"><path d="m232.79 311.95-5.09 8.81h10.17l-5.08-8.81zM273.46 311.95l-5.09 8.81h10.17l-5.08-8.81zM263.29 276.73l-10.17-17.61-10.16 17.61h20.33z" class="cls-3"/><path d="M253.12 294.34h20.34l-10.17-17.61-10.17 17.61z" class="cls-3"/><path d="M232.79 294.34h20.33l-10.16-17.61-10.17 17.61zM273.46 294.34l-20.34 35.22h20.34l-10.17-17.61h20.33l-10.16 17.61h20.33l-20.33-35.22zM212.45 329.56h20.34l-10.17-17.61h20.34l-10.17 17.61h20.33l-20.33-35.22-20.34 35.22z" class="cls-3"/><path d="m253.12 276.73-5.08 8.81h10.17l-5.09-8.81zM253.12 311.95l-5.08-8.8h10.17l-5.09 8.8zM253.52 326.63l-8.48-14.68h16.95l-8.47 14.68z" class="cls-3"/><path d="m261.99 310.48-8.47-14.67h16.94l-8.47 14.67zM244.26 310.48l-8.48-14.67h16.95l-8.47 14.67zM237.87 479.25l-5.08 8.8h10.17l-5.09-8.8zM278.54 479.25l-5.08 8.8h10.16l-5.08-8.8zM268.37 444.03l-10.16-17.61-10.17 17.61h20.33zM258.21 461.64h20.33l-10.17-17.61-10.16 17.61z" class="cls-3"/><path d="M237.87 461.64h20.34l-10.17-17.61-10.17 17.61zM278.54 461.64l-20.33 35.22h20.33l-10.17-17.61h20.34l-10.17 17.61h20.34l-20.34-35.22zM217.54 496.86h20.33l-10.17-17.61h20.34l-10.17 17.61h20.34l-20.34-35.22-20.33 35.22z" class="cls-3"/><path d="m258.21 444.03-5.09 8.8h10.17l-5.08-8.8zM258.21 479.25l-5.09-8.81h10.17l-5.08 8.81zM258.6 493.92l-8.47-14.67h16.94l-8.47 14.67z" class="cls-3"/><path d="m267.07 477.78-8.47-14.67h16.95l-8.48 14.67zM249.34 477.78l-8.47-14.67h16.94l-8.47 14.67zM288.71 395.6l-5.09 8.8h10.17l-5.08-8.8zM329.38 395.6l-5.09 8.8h10.17l-5.08-8.8zM319.21 360.38l-10.17-17.61-10.16 17.61h20.33zM309.04 377.99h20.34l-10.17-17.61-10.17 17.61zM288.71 377.99h20.33l-10.16-17.61-10.17 17.61z" class="cls-3"/><path d="m329.38 377.99-20.34 35.22h20.34l-10.17-17.61h20.33l-10.16 17.61h20.33l-20.33-35.22zM268.37 413.21h20.34l-10.17-17.61h20.34l-10.17 17.61h20.33l-20.33-35.22-20.34 35.22zM309.04 360.38l-5.08 8.8h10.17l-5.09-8.8zM309.04 395.6l-5.08-8.81h10.17l-5.09 8.81z" class="cls-3"/><path d="m309.44 410.27-8.48-14.67h16.95l-8.47 14.67zM317.91 394.13l-8.47-14.67h16.94l-8.47 14.67zM300.18 394.13l-8.48-14.67h16.95l-8.47 14.67zM233.18 357.44l-5.08-8.8h10.16l-5.08 8.8zM273.85 357.44l-5.08-8.8h10.16l-5.08 8.8zM263.68 392.66l-10.16 17.61-10.17-17.61h20.33zM253.52 375.05h20.33l-10.17 17.61-10.16-17.61zM233.18 375.05h20.34l-10.17 17.61-10.17-17.61z" class="cls-3"/><path d="m273.85 375.05-20.33-35.22h20.33l-10.17 17.61h20.34l-10.17-17.61h20.34l-20.34 35.22zM212.85 339.83h20.33l-10.17 17.61h20.34l-10.17-17.61h20.34l-20.34 35.22-20.33-35.22zM253.52 392.66l-5.09-8.8h10.17l-5.08 8.8zM253.52 357.44l-5.09 8.81h10.17l-5.08-8.81z" class="cls-3"/><path d="m253.91 342.77-8.47 14.67h16.94l-8.47-14.67zM262.38 358.91l-8.47 14.68h16.95l-8.48-14.68zM244.65 358.91l-8.47 14.68h16.94l-8.47-14.68zM143.37 514.47l-5.08-8.81h10.16l-5.08 8.81zM184.04 514.47l-5.08-8.81h10.16l-5.08 8.81zM173.87 549.69l-10.16 17.61-10.17-17.61h20.33zM163.71 532.08h20.33l-10.17 17.61-10.16-17.61zM143.37 532.08h20.34l-10.17 17.61-10.17-17.61z" class="cls-3"/><path d="m184.04 532.08-20.33-35.22h20.33l-10.17 17.61h20.34l-10.17-17.61h20.33l-20.33 35.22z" class="cls-3"/><path d="M123.04 496.86h20.33l-10.17 17.61h20.34l-10.17-17.61h20.34l-20.34 35.22-20.33-35.22zM163.71 549.69l-5.09-8.81h10.17l-5.08 8.81zM163.71 514.47l-5.09 8.8h10.17l-5.08-8.8z" class="cls-3"/><path d="m164.1 499.79-8.47 14.68h16.94l-8.47-14.68zM172.57 515.94l-8.47 14.67h16.94l-8.47-14.67zM154.84 515.94l-8.47 14.67h16.94l-8.47-14.67z" class="cls-3"/></g></svg>