<?xml version="1.0" encoding="utf-8"?>
<!-- Generator: Adobe Illustrator 26.4.1, SVG Export Plug-In . SVG Version: 6.00 Build 0)  -->
<svg version="1.0" id="Layer_1" xmlns="http://www.w3.org/2000/svg" xmlns:xlink="http://www.w3.org/1999/xlink" x="0px" y="0px"
	 viewBox="0 0 485 485" enable-background="new 0 0 485 485" xml:space="preserve">
<path d="M242.6,121.5l-9.8-19.4c0,0,16-55.2,17.8-61.3s7-15.3,19.6-11.7c14,4.1,8.9,21.6,8.9,21.6L261.9,110L242.6,121.5
	L242.6,121.5z"/>
<path d="M241.8,124.3l-11.1-22l18-62.1c4.8-16.7,18.1-14.2,22.1-13c12.6,3.7,12.2,17.4,10.3,24.1l-17.5,60L241.8,124.3L241.8,124.3z
	 M235,101.9l8.5,16.7l16.8-9.9l17-58.5c0.2-0.6,4.3-15.6-7.5-19.1c-4.9-1.4-13.5-1.9-17.1,10.3L235,101.9z"/>
<path fill="#FFFFFF" d="M242.6,124.7c-1.1,0.3-2.2-0.4-2.4-1.5c-0.1-0.3-0.1-0.7,0-1L261.5,49c0.3-1.1,1.4-1.7,2.4-1.4
	c0,0,0,0,0.1,0c1.1,0.3,1.7,1.4,1.4,2.4c0,0,0,0,0,0.1l-21.3,73.2C244,124,243.4,124.5,242.6,124.7L242.6,124.7z"/>
<path fill="#FFFFFF" d="M210.6,313.3l-6.8-24.8L184.5,265l-2.3-69.5l20-62.9l64,0.5c0.7,0,32.7,37.9,32.7,37.9s4.3,27.3,4.5,28
	s-2.5,26-2.5,27s-2.9,24.5-2.9,24.5l-4.5,15l-12.4,23L269.6,313l-24,8.3L210.6,313.3L210.6,313.3z"/>
<path fill="none" stroke="#000000" stroke-width="8" stroke-miterlimit="10" d="M204.2,291.8c-5.9-11.8-17.9-26.8-19.1-36.4
	c-1.2-9.6-2.9-14.8-1.2-22.2s0.8-42.8,0.8-42.8"/>
<path fill="none" stroke="#000000" stroke-width="8" stroke-miterlimit="10" d="M278.8,291.8c5.7-11.8,17.4-26.8,18.5-36.4
	s2.9-14.8,1.1-22.2c-1.7-7.4,0.6-32.8,0.6-32.8"/>
<path fill="#FFFFFF" d="M257.5,70.1c-0.8,0.2-1.7-0.2-2.2-1l-6.6-11.7c-0.5-1-0.2-2.2,0.8-2.8s2.2-0.2,2.8,0.8l6.6,11.7
	c0.5,1,0.2,2.2-0.8,2.8C257.9,70,257.7,70.1,257.5,70.1z M253.9,82.5c-0.8,0.2-1.7-0.2-2.2-1l-6.6-11.7c-0.5-1-0.2-2.2,0.8-2.8
	s2.2-0.2,2.8,0.8l6.6,11.7c0.5,1,0.2,2.2-0.8,2.8C254.3,82.4,254.1,82.4,253.9,82.5z M250.3,94.8c-0.8,0.2-1.7-0.2-2.2-1l-6.6-11.7
	c-0.5-1-0.2-2.2,0.8-2.8s2.2-0.2,2.8,0.8l6.6,11.7c0.5,1,0.2,2.2-0.8,2.8C250.7,94.7,250.5,94.8,250.3,94.8z M280.1,54.6l-32.6-10.1
	l1.1-3.9l32.7,10.1L280.1,54.6z"/>
<g>
	<defs>
		<circle id="SVGID_1_" cx="242.5" cy="242.5" r="242.1"/>
	</defs>
	<clipPath id="SVGID_00000071528510958067966590000000220633638133119876_">
		<use xlink:href="#SVGID_1_"  overflow="visible"/>
	</clipPath>
	<g clip-path="url(#SVGID_00000071528510958067966590000000220633638133119876_)">
		<path fill="#FFFFFF" stroke="#000000" stroke-width="8" stroke-miterlimit="10" d="M204.9,292l-2.2-2.9
			C203.4,290.1,204.2,291.1,204.9,292z M368.8,466.1l-20.2,10.3l84.5-22.8c0,0-58.9-111-77.6-119.9c-18.8-8.9-60.3-5.3-65.2-8.3
			s-11.8-10.2-11.8-10.2v-22.3l2.5-4.1c-9.7,13.4-15.1,16.6-16.8,17.8c-5.5,3.8-13.6,5.8-22.3,5.8c-9.8,0-16.5-2-22-5.8
			c-1.6-1.1-6.6-3.7-14.9-14.6l0.7,0.9v22.3c0,0-6.9,7.3-11.8,10.2c-4.9,3-46.5-0.6-65.2,8.3c-18.8,8.9-77.6,119.9-77.6,119.9
			l95.8,27.7L117.1,466l44.4,19.5l65.3,18.9l15.3-0.7l0.3,1.3l82.8-22.3L368.8,466.1L368.8,466.1z"/>
	</g>
</g>
<path fill="#023000" d="M242.6,453.6c2.3,0,8.6-1.9,8.6-4.2l-4.4-66.1c0-2.3-1.9-4.2-4.2-4.2s-4.2,1.9-4.2,4.2l-4.4,66.1
	C234,451.7,240.3,453.6,242.6,453.6L242.6,453.6z"/>
<path fill="none" stroke="#000000" stroke-width="3" stroke-miterlimit="10" d="M191.3,322.1l51.5,68.5l49.5-68"/>
<path d="M239.7,116.9c-8.1,0-25.9,6.5-37.2,10.3c-11.3,3.8-24.7,39.3-29.6,64.7c-4.4,22.8,5.2,32.1,8,50.6l5.5-3.1
	c1.3-5.2,6.6-23.1,6.6-25.4c0-3.2-2.3-3.8-2.3-16.7c-0.1-12.9,8-36.2,10.7-41.1s14.6-2.7,28.1-1.1s17.3-2.6,17.3-2.6l1.1-35.7
	C247.8,116.9,247.8,116.9,239.7,116.9L239.7,116.9z"/>
<path d="M243.8,116.9c8.1,0,25.9,6.5,37.2,10.3c11.3,3.8,24.6,39.3,29.5,64.7c4.4,22.8-5.2,32.1-8,50.6l-5.5-3.1
	c-1.3-5.2-6.6-23.1-6.6-25.4c0-3.2,2.3-3.8,2.3-16.7c0.1-12.9-8-36.2-10.7-41.1s-14.6-2.7-28.1-1.1c-13.5,1.6-17.3-2.6-17.3-2.6
	l-1.1-35.7C235.7,116.9,235.7,116.9,243.8,116.9L243.8,116.9z"/>
</svg>
