<svg xmlns="http://www.w3.org/2000/svg" xmlns:xlink="http://www.w3.org/1999/xlink" xml:space="preserve" version="1.0" viewBox="0 0 485 485"><path d="m242.6 121.5-9.8-19.4s16-55.2 17.8-61.3 7-15.3 19.6-11.7c14 4.1 8.9 21.6 8.9 21.6L261.9 110l-19.3 11.5z"/><path d="m241.8 124.3-11.1-22 18-62.1c4.8-16.7 18.1-14.2 22.1-13 12.6 3.7 12.2 17.4 10.3 24.1l-17.5 60-21.8 13zm-6.8-22.4 8.5 16.7 16.8-9.9 17-58.5c.2-.6 4.3-15.6-7.5-19.1-4.9-1.4-13.5-1.9-17.1 10.3L235 101.9z"/><path fill="#FFF" d="M242.6 124.7c-1.1.3-2.2-.4-2.4-1.5-.1-.3-.1-.7 0-1L261.5 49c.3-1.1 1.4-1.7 2.4-1.4h.1c1.1.3 1.7 1.4 1.4 2.4v.1l-21.3 73.2c-.1.7-.7 1.2-1.5 1.4zM210.6 313.3l-6.8-24.8-19.3-23.5-2.3-69.5 20-62.9 64 .5c.7 0 32.7 37.9 32.7 37.9s4.3 27.3 4.5 28-2.5 26-2.5 27-2.9 24.5-2.9 24.5l-4.5 15-12.4 23-11.5 24.5-24 8.3-35-8z"/><path fill="none" stroke="#000" stroke-miterlimit="10" stroke-width="8" d="M204.2 291.8c-5.9-11.8-17.9-26.8-19.1-36.4-1.2-9.6-2.9-14.8-1.2-22.2s.8-42.8.8-42.8M278.8 291.8c5.7-11.8 17.4-26.8 18.5-36.4s2.9-14.8 1.1-22.2c-1.7-7.4.6-32.8.6-32.8"/><path fill="#FFF" d="M257.5 70.1c-.8.2-1.7-.2-2.2-1l-6.6-11.7c-.5-1-.2-2.2.8-2.8s2.2-.2 2.8.8l6.6 11.7c.5 1 .2 2.2-.8 2.8-.2.1-.4.2-.6.2zm-3.6 12.4c-.8.2-1.7-.2-2.2-1l-6.6-11.7c-.5-1-.2-2.2.8-2.8s2.2-.2 2.8.8l6.6 11.7c.5 1 .2 2.2-.8 2.8-.2.1-.4.1-.6.2zm-3.6 12.3c-.8.2-1.7-.2-2.2-1l-6.6-11.7c-.5-1-.2-2.2.8-2.8s2.2-.2 2.8.8l6.6 11.7c.5 1 .2 2.2-.8 2.8-.2.1-.4.2-.6.2zm29.8-40.2-32.6-10.1 1.1-3.9 32.7 10.1-1.2 3.9z"/><defs><circle id="a" cx="242.5" cy="242.5" r="242.1"/></defs><clipPath id="b"><use xlink:href="#a" overflow="visible"/></clipPath><g clip-path="url(#b)"><path fill="#FFF" stroke="#000" stroke-miterlimit="10" stroke-width="8" d="m204.9 292-2.2-2.9c.7 1 1.5 2 2.2 2.9zm163.9 174.1-20.2 10.3 84.5-22.8s-58.9-111-77.6-119.9c-18.8-8.9-60.3-5.3-65.2-8.3s-11.8-10.2-11.8-10.2v-22.3l2.5-4.1c-9.7 13.4-15.1 16.6-16.8 17.8-5.5 3.8-13.6 5.8-22.3 5.8-9.8 0-16.5-2-22-5.8-1.6-1.1-6.6-3.7-14.9-14.6l.7.9v22.3s-6.9 7.3-11.8 10.2c-4.9 3-46.5-.6-65.2 8.3-18.8 8.9-77.6 119.9-77.6 119.9l95.8 27.7-29.8-15.3 44.4 19.5 65.3 18.9 15.3-.7.3 1.3 82.8-22.3 43.6-16.6z"/></g><path fill="#023000" d="M242.6 453.6c2.3 0 8.6-1.9 8.6-4.2l-4.4-66.1c0-2.3-1.9-4.2-4.2-4.2s-4.2 1.9-4.2 4.2l-4.4 66.1c0 2.3 6.3 4.2 8.6 4.2z"/><path fill="none" stroke="#000" stroke-miterlimit="10" stroke-width="3" d="m191.3 322.1 51.5 68.5 49.5-68"/><path d="M239.7 116.9c-8.1 0-25.9 6.5-37.2 10.3-11.3 3.8-24.7 39.3-29.6 64.7-4.4 22.8 5.2 32.1 8 50.6l5.5-3.1c1.3-5.2 6.6-23.1 6.6-25.4 0-3.2-2.3-3.8-2.3-16.7-.1-12.9 8-36.2 10.7-41.1s14.6-2.7 28.1-1.1 17.3-2.6 17.3-2.6l1.1-35.7c-.1.1-.1.1-8.2.1z"/><path d="M243.8 116.9c8.1 0 25.9 6.5 37.2 10.3 11.3 3.8 24.6 39.3 29.5 64.7 4.4 22.8-5.2 32.1-8 50.6l-5.5-3.1c-1.3-5.2-6.6-23.1-6.6-25.4 0-3.2 2.3-3.8 2.3-16.7.1-12.9-8-36.2-10.7-41.1s-14.6-2.7-28.1-1.1c-13.5 1.6-17.3-2.6-17.3-2.6l-1.1-35.7c.2.1.2.1 8.3.1z"/></svg>