<svg xmlns="http://www.w3.org/2000/svg" xml:space="preserve" id="Layer_1" x="0" y="0" style="enable-background:new 0 0 486 527.8" version="1.1" viewBox="0 0 486 527.8"><style>.st1{fill:#fff}.st3{fill:#023000}</style><g id="Layer_1_2_"><g id="Layer_1_1_"><circle cx="243" cy="285.6" r="242.1" style="fill:none"/><path d="m375.5 370.3-29.1-24.7-55.4-5.1-10.3-19.7-1-38.5 9.6-22.9 15.7-31.7-4.6-11.3 4-19.5 4.3-23.7-5.4-23.7-10.8-23.6-23.7-12.9-54.9-6.5-35.5 56 .9 54 2.3 22.5 21.9 48.9 7.2 48.1-61.4 32.3-64.7 59.5-14.5 27.3c43.9 44.8 105.2 72.7 172.9 72.7 68.2 0 129.9-28.3 173.9-73.7l-41.4-83.8z" class="st1"/><path d="m272.2 495 23.2-69.5 20.4 46.6 90.5-47.6-31.3-63.7-91.1 70.5-183.3-67.6-21.5 65.7 193 65.6z" style="fill:#b11116"/><path d="m231.7 102.4-20.9-11S190.3 32.2 188 25.7s-3.4-18 10.1-22.7c15-5.2 21.5 13.6 21.5 13.6l22.1 63.5-10 22.3z"/><path d="M232.8 105.5 209 93l-23.1-66.5c-6.2-17.8 7.2-24 11.4-25.5 13.5-4.7 21.8 7.7 24.3 14.9l22.3 64.3-11.1 25.3zm-20.2-15.7 18.1 9.5 8.6-19.4-21.8-62.6c-.2-.7-6-16.6-18.7-12.2-5.2 1.8-13.3 6.8-8.7 19.9l22.5 64.8z"/><path d="M232.2 106c-.9 0-1.8-.6-2.1-1.5L202.9 26c-.4-1.2.2-2.4 1.4-2.8 1.1-.4 2.4.2 2.8 1.4l27.2 78.5c.4 1.2-.2 2.4-1.4 2.8-.2.1-.5.1-.7.1z" class="st1"/><path d="M210.9 48.2c-.3 0-.6-.1-.9-.2l-13.3-6.2c-1.1-.5-1.6-1.8-1.1-2.9.5-1.1 1.8-1.6 2.9-1.1l13.3 6.2c1.1.5 1.6 1.8 1.1 2.9-.3.8-1.1 1.3-2 1.3zM215.5 61.4c-.3 0-.6-.1-.9-.2L201.3 55c-1.1-.5-1.6-1.8-1.1-2.9s1.8-1.6 2.9-1.1l13.3 6.2c1.1.5 1.6 1.8 1.1 2.9-.3.8-1.1 1.3-2 1.3zM220.1 74.7c-.3 0-.6-.1-.9-.2l-13.3-6.2c-1.1-.5-1.6-1.8-1.1-2.9s1.8-1.6 2.9-1.1l13.3 6.2c1.1.5 1.6 1.8 1.1 2.9-.3.8-1.1 1.3-2 1.3zM185.728 26.872l35.724-11.724 1.372 4.18L187.1 31.053z" class="st1"/><path d="m241 111.7-6.2-22.8s29.2-55.4 32.5-61.5c3.2-6.1 10.9-14.8 23.5-8.1 14 7.4 4.8 25 4.8 25l-31.4 59.5-23.2 7.9z"/><path d="m239.5 114.6-7-25.9 32.9-62.3c8.8-16.7 22.5-11.2 26.4-9.1 12.6 6.7 9.3 21.2 5.7 28l-31.8 60.2-26.2 9.1zm-2.3-25.4 5.4 19.7 20.1-6.9 31-58.7c.3-.6 8-15.8-3.9-22-4.9-2.6-14-5-20.5 7.2l-32.1 60.7z"/><path d="M240.3 115.2c-.4 0-.7-.1-1-.3-1.1-.6-1.5-1.9-.9-3l38.8-73.4c.6-1.1 1.9-1.5 3-.9s1.5 1.9.9 3l-38.8 73.5c-.4.6-1.2 1.1-2 1.1z" class="st1"/><path d="M268.1 60.2c-.9 0-1.8-.6-2.1-1.5l-4.5-14c-.4-1.2.3-2.4 1.4-2.8 1.2-.4 2.4.3 2.8 1.4l4.5 13.9c.4 1.2-.3 2.4-1.4 2.8-.2.1-.5.2-.7.2zM261.6 72.6c-.9 0-1.8-.6-2.1-1.5L255 57.2c-.4-1.2.3-2.4 1.4-2.8 1.1-.4 2.4.3 2.8 1.4l4.5 13.9c.4 1.2-.3 2.4-1.4 2.8-.3 0-.5.1-.7.1zM255 85c-.9 0-1.8-.6-2.1-1.5l-4.5-14c-.4-1.2.3-2.4 1.4-2.8s2.4.3 2.8 1.4l4.5 13.9c.4 1.2-.3 2.4-1.4 2.8-.2.2-.5.2-.7.2zM262.755 30.46l2.121-3.855 33.029 18.175-2.121 3.855z" class="st1"/><path d="M81.8 430.8c-.5 0-1-.1-1.5-.3-2.3-.8-3.4-3.4-2.6-5.7L99 367.1c.8-2.3 3.4-3.5 5.7-2.6 2.3.8 3.4 3.4 2.6 5.7L86 427.9c-.8 1.8-2.4 2.9-4.2 2.9z"/><path d="M72.7 455.3c-.5 0-1-.1-1.5-.3-2.3-.8-3.5-3.4-2.6-5.6l31.1-85.1c.8-2.3 3.4-3.5 5.6-2.6 2.3.8 3.5 3.4 2.6 5.6l-31.1 85.1c-.6 1.8-2.3 2.9-4.1 2.9zM414.8 453.9c-1.7 0-3.3-1-4-2.6l-40.2-86.8c-1-2.2 0-4.8 2.2-5.8s4.8 0 5.8 2.2l40.2 86.8c1 2.2 0 4.8-2.2 5.8-.5.2-1.2.4-1.8.4zM109.4 441.3c-.5 0-1-.1-1.5-.3-2.3-.8-3.4-3.4-2.6-5.7l21.3-57.7c.9-2.3 3.4-3.5 5.7-2.6 2.3.8 3.4 3.4 2.6 5.7l-21.3 57.7c-.7 1.8-2.4 2.9-4.2 2.9zM119.2 466.8c-.5 0-1-.1-1.5-.3-2.3-.8-3.4-3.4-2.6-5.7l21.3-57.7c.8-2.3 3.4-3.5 5.7-2.6 2.3.8 3.4 3.4 2.6 5.7l-21.3 57.7c-.7 1.8-2.4 2.9-4.2 2.9zM158.4 458c-.5 0-1-.1-1.5-.3-2.3-.8-3.4-3.4-2.6-5.7l21.3-57.7c.8-2.3 3.4-3.5 5.7-2.6 2.3.8 3.4 3.4 2.6 5.7l-21.3 57.7c-.7 1.8-2.4 2.9-4.2 2.9zM168.2 495.9c-.5 0-1-.1-1.5-.3-2.3-.8-3.4-3.4-2.6-5.7l21.3-57.7c.9-2.3 3.4-3.5 5.7-2.6 2.3.8 3.4 3.4 2.6 5.7L172.4 493c-.7 1.8-2.4 2.9-4.2 2.9zM395.6 461.2c-1.7 0-3.3-1-4-2.6l-25.7-55.9c-1-2.2 0-4.8 2.2-5.9 2.2-1 4.8 0 5.9 2.2l25.7 55.9c1 2.2 0 4.8-2.2 5.9-.7.3-1.3.4-1.9.4zM367.1 456.8c-1.7 0-3.3-1-4-2.6l-25.7-55.9c-1-2.2 0-4.8 2.2-5.9 2.2-1 4.8 0 5.9 2.2l25.7 55.9c1 2.2 0 4.8-2.2 5.9-.6.3-1.2.4-1.9.4zM237.8 92.3c-8.1 0-25.9 6.5-37.2 10.3s-30.2 39.3-35.1 64.7c-4.4 22.8 5.2 32.1 8 50.6l5.5-3.1c1.3-5.2 6.6-23.1 6.6-25.4 0-3.2-2.3-3.8-2.3-16.7-.1-12.9 13.6-36.2 16.3-41.1 2.7-4.9 14.6-2.7 28.1-1.1 13.5 1.6 17.3-2.6 17.3-2.6l1.1-35.7c-.2.1-.2.1-8.3.1z"/><path d="M372.5 367.6s-.5-9.8-19.1-18.6-55.4-9.8-60.3-12.7c-4.9-2.9-11.8-22-11.8-22v-37.2l-3.5.8c-5.9 8.1-11.7 18.2-13.2 20.8-2.2 3.7-24.5 4.6-24.5 4.6s-23-1-25.2-4.6c-1.6-2.6-7.5-12.9-13.4-21.1l-2-.5v37.2s-6.9 19.1-11.8 22-41.7 3.9-60.3 12.7-18.9 18.6-18.9 18.6l186.2 65-3.9-1 81.7-64z" class="st1"/><path d="m293.8 436.2-11.2-2.8 1-.8-178.9-62.4.1-2.8c.1-1.2 1.2-12.3 21.2-21.8 12.2-5.8 31.2-8.3 45.1-10.1 6.3-.8 13.5-1.8 14.9-2.5 1.9-1.2 6.6-10.2 9.9-19.5v-41.2l7.8 1.8.8 1.1c5.3 7.4 10.6 16.3 12.9 20.1l.5.9c2.2 1.3 12.2 2.8 22.3 3.2 9.8-.4 19.4-1.9 21.5-3.2l.6-1.1c2.2-3.7 7.4-12.5 12.6-19.6l.8-1.1 9.3-2.1v41.2c3.4 9.3 8 18.4 10 19.5 1.4.7 8.6 1.7 14.9 2.5 13.9 1.8 32.9 4.3 45 10.1 20 9.5 21.1 20.5 21.2 21.8l.1 1.9-81.7 63.9-.7 3zm-180.7-70.8 177.3 61.9 78-61c-1.2-2.7-4.9-8.4-16.5-13.9-11.1-5.3-29.5-7.7-42.9-9.4-10.3-1.4-15.3-2.1-17.7-3.5-5.6-3.4-11.6-19.2-13.3-24l-.2-.6v-30.4c-3.8 5.7-7.3 11.6-9 14.5l-.9 1.4c-3.2 5.4-21.5 6.2-27.5 6.4h-.4c-25-1.1-27.4-5.1-28.2-6.4l-.8-1.3c-1.5-2.6-4.5-7.6-7.8-12.7v28.5l-.2.6c-1.7 4.8-7.7 20.6-13.3 24-2.4 1.4-7.4 2.1-17.7 3.5-13.4 1.8-31.7 4.1-42.9 9.4-10.4 4.9-14.5 10-16 13z"/><path d="M199.6 280.9c-.2-.4-22.3-35.8-24.3-48.7-.4-2.3-.8-4.3-1.1-6.3-1.2-6.1-2.1-11-.2-17.4 2.1-6.9 3.8-22.1 3.8-22.3l7.3.8c-.1.6-1.8 16-4.1 23.6-1.4 4.7-.7 8.3.4 13.9.4 1.9.8 4.1 1.2 6.5 1.2 8 14.3 31.6 23.3 45.9l-6.3 4zM241.9 92.3c8.1 0 25.9 6.5 37.2 10.3 11.3 3.8 30.2 39.3 35.1 64.7 4.4 22.8-5.2 32.1-8 50.6l-5.5-3.1c-1.3-5.2-6.6-23.1-6.6-25.4 0-3.2 2.3-3.8 2.3-16.7.1-12.9-13.5-36.2-16.3-41.1-2.7-4.9-14.6-2.7-28.1-1.1-13.5 1.6-17.3-2.6-17.3-2.6l-1.1-35.7c.2.1.2.1 8.3.1z"/><path d="m280 280.9-6.2-3.9c8.9-14.3 22-37.9 23.3-45.9.4-2.4.8-4.6 1.2-6.5 1.1-5.6 1.8-9.2.4-13.9-2.3-7.6-4-22.9-4-23.6l7.3-.8c0 .1 1.7 15.3 3.8 22.3 1.9 6.4 1 11.3-.2 17.4-.4 1.9-.8 3.9-1.1 6.3-2.2 12.8-24.3 48.2-24.5 48.6zM263 522.2c-.5 0-1-.1-1.5-.3-2.3-.8-3.5-3.4-2.6-5.7l31.1-85.1c.8-2.3 3.4-3.5 5.6-2.6s3.5 3.4 2.6 5.6l-31.1 85.1c-.6 1.9-2.3 3-4.1 3z"/><path d="M269.4 498c-.5 0-.9-.1-1.4-.2L80.8 435.5c-2.3-.8-3.6-3.3-2.8-5.6.8-2.3 3.3-3.6 5.6-2.8l187.2 62.2c2.3.8 3.6 3.3 2.8 5.6-.6 1.9-2.3 3.1-4.2 3.1zM313.9 478 291 432.8c-1.1-2.2-.2-4.8 1.9-5.9 2.1-1.1 4.8-.2 5.9 1.9l18.9 37.3 84.4-44.1c2.2-1.1 4.8-.3 6 1.9s.3 4.8-1.9 6L313.9 478z"/><path d="M230 373.5c-.7 1.5-1.1 6-1.3 7.8h28.8c-.1-1.8-.6-6.3-1.3-7.8H230zM254.3 371.9c-2.9-3.5-7.1-5.5-11-5.6h-.4c-3.8.1-8.1 2.1-11 5.6h22.4zM256.7 389.2c.4-1.5.7-4.6.9-6.3h-28.8c.1 1.7.5 4.8.9 6.3h27zM255.7 390.8h-25c1.6 4.2 3.7 7 3.7 7s-9.6 31.7-9.6 53.1c0 20.2 16.7 19.6 18.5 19.5 1.8.1 18.5.8 18.5-19.5 0-21.4-9.6-53.1-9.6-53.1s1.8-2.8 3.5-7z" class="st3"/><path d="m242.5 371.1-51.8-41.6c-.9-.8-1.1-2.1-.3-3.1s2.1-1.1 3.1-.3l48.9 39.3 44.9-39.6c.9-.8 2.3-.7 3.1.2.8.9.7 2.3-.2 3.1l-47.7 42z"/></g></g></svg>