<?xml version="1.0" encoding="utf-8"?>
<!-- Generator: Adobe Illustrator 24.1.0, SVG Export Plug-In . SVG Version: 6.00 Build 0)  -->
<svg version="1.1" id="Layer_1" xmlns="http://www.w3.org/2000/svg" xmlns:xlink="http://www.w3.org/1999/xlink" x="0px" y="0px"
	 viewBox="0 0 486 527.8" style="enable-background:new 0 0 486 527.8;" xml:space="preserve">
<style type="text/css">
	.st0{fill:none;}
	.st1{fill:#FFFFFF;}
	.st2{fill:none;stroke:#000000;stroke-miterlimit:10;}
	.st3{fill:none;stroke:#023000;stroke-miterlimit:10;}
</style>
<g id="Layer_2_1_">
</g>
<g id="Layer_1_2_">
	<g id="Layer_3">
	</g>
	<g id="Layer_1_1_">
		<circle class="st0" cx="243" cy="287.6" r="242.1"/>
		<path class="st1" d="M375.5,372.3l-29.1-24.7l-55.4-5.1l-10.3-19.7l-1-38.5l9.6-22.9l15.7-31.7l-4.6-11.3l4-19.5l4.3-23.7
			l-5.4-23.7l-10.8-23.6L268.8,115l-54.9-6.5l-35.5,56l0.9,54l2.3,22.5l21.9,48.9l7.2,48.1l-61.4,32.3l-64.7,59.5l-14.5,27.3
			c43.9,44.8,105.2,72.7,172.9,72.7c68.2,0,129.9-28.3,173.9-73.7L375.5,372.3z"/>
		<g>
			<g>
				<path class="st2" d="M231.7,104.4l-20.9-11c0,0-20.5-59.2-22.8-65.7s-3.4-18,10.1-22.7c15-5.2,21.5,13.6,21.5,13.6l22.1,63.5
					L231.7,104.4z"/>
				<path class="st2" d="M232.8,107.5L209,95l-23.1-66.5c-6.2-17.8,7.2-24,11.4-25.5c13.5-4.7,21.8,7.7,24.3,14.9l22.3,64.3
					L232.8,107.5z M212.6,91.8l18.1,9.5l8.6-19.4l-21.8-62.6c-0.2-0.7-6-16.6-18.7-12.2c-5.2,1.8-13.3,6.8-8.7,19.9L212.6,91.8z"/>
			</g>
			<g>
				<path class="st1" d="M232.2,108c-0.9,0-1.8-0.6-2.1-1.5L202.9,28c-0.4-1.2,0.2-2.4,1.4-2.8c1.1-0.4,2.4,0.2,2.8,1.4l27.2,78.5
					c0.4,1.2-0.2,2.4-1.4,2.8C232.7,108,232.4,108,232.2,108z"/>
			</g>
			<g>
				<g>
					<path class="st1" d="M210.9,50.2c-0.3,0-0.6-0.1-0.9-0.2l-13.3-6.2c-1.1-0.5-1.6-1.8-1.1-2.9c0.5-1.1,1.8-1.6,2.9-1.1l13.3,6.2
						c1.1,0.5,1.6,1.8,1.1,2.9C212.6,49.7,211.8,50.2,210.9,50.2z"/>
				</g>
				<g>
					<path class="st1" d="M215.5,63.4c-0.3,0-0.6-0.1-0.9-0.2L201.3,57c-1.1-0.5-1.6-1.8-1.1-2.9s1.8-1.6,2.9-1.1l13.3,6.2
						c1.1,0.5,1.6,1.8,1.1,2.9C217.2,62.9,216.4,63.4,215.5,63.4z"/>
				</g>
				<g>
					<path class="st1" d="M220.1,76.7c-0.3,0-0.6-0.1-0.9-0.2l-13.3-6.2c-1.1-0.5-1.6-1.8-1.1-2.9s1.8-1.6,2.9-1.1l13.3,6.2
						c1.1,0.5,1.6,1.8,1.1,2.9C221.8,76.2,221,76.7,220.1,76.7z"/>
				</g>
			</g>
			<g>
				
					<rect x="185.5" y="22.9" transform="matrix(0.9501 -0.3118 0.3118 0.9501 2.358 64.9475)" class="st1" width="37.6" height="4.4"/>
			</g>
		</g>
		<g>
			<g>
				<path class="st2" d="M241,113.7l-6.2-22.8c0,0,29.2-55.4,32.5-61.5c3.2-6.1,10.9-14.8,23.5-8.1c14,7.4,4.8,25,4.8,25l-31.4,59.5
					L241,113.7z"/>
				<path class="st2" d="M239.5,116.6l-7-25.9l32.9-62.3c8.8-16.7,22.5-11.2,26.4-9.1c12.6,6.7,9.3,21.2,5.7,28l-31.8,60.2
					L239.5,116.6z M237.2,91.2l5.4,19.7l20.1-6.9l31-58.7c0.3-0.6,8-15.8-3.9-22c-4.9-2.6-14-5-20.5,7.2L237.2,91.2z"/>
			</g>
			<g>
				<path class="st1" d="M240.3,117.2c-0.4,0-0.7-0.1-1-0.3c-1.1-0.6-1.5-1.9-0.9-3l38.8-73.4c0.6-1.1,1.9-1.5,3-0.9s1.5,1.9,0.9,3
					l-38.8,73.5C241.9,116.7,241.1,117.2,240.3,117.2z"/>
			</g>
			<g>
				<g>
					<path class="st1" d="M268.1,62.2c-0.9,0-1.8-0.6-2.1-1.5l-4.5-14c-0.4-1.2,0.3-2.4,1.4-2.8c1.2-0.4,2.4,0.3,2.8,1.4l4.5,13.9
						c0.4,1.2-0.3,2.4-1.4,2.8C268.6,62.1,268.3,62.2,268.1,62.2z"/>
				</g>
				<g>
					<path class="st1" d="M261.6,74.6c-0.9,0-1.8-0.6-2.1-1.5L255,59.2c-0.4-1.2,0.3-2.4,1.4-2.8c1.1-0.4,2.4,0.3,2.8,1.4l4.5,13.9
						c0.4,1.2-0.3,2.4-1.4,2.8C262,74.5,261.8,74.6,261.6,74.6z"/>
				</g>
				<g>
					<path class="st1" d="M255,87c-0.9,0-1.8-0.6-2.1-1.5l-4.5-14c-0.4-1.2,0.3-2.4,1.4-2.8s2.4,0.3,2.8,1.4l4.5,13.9
						c0.4,1.2-0.3,2.4-1.4,2.8C255.5,87,255.2,87,255,87z"/>
				</g>
			</g>
			<g>
				
					<rect x="278.1" y="20.8" transform="matrix(0.4821 -0.8761 0.8761 0.4821 110.4694 266.1194)" class="st1" width="4.4" height="37.7"/>
			</g>
		</g>
		<g>
			<path class="st2" d="M81.8,432.8c-0.5,0-1-0.1-1.5-0.3c-2.3-0.8-3.4-3.4-2.6-5.7L99,369.1c0.8-2.3,3.4-3.5,5.7-2.6
				c2.3,0.8,3.4,3.4,2.6,5.7L86,429.9C85.2,431.7,83.6,432.8,81.8,432.8z"/>
		</g>
		<g>
			<path class="st2" d="M72.7,457.3c-0.5,0-1-0.1-1.5-0.3c-2.3-0.8-3.5-3.4-2.6-5.6l31.1-85.1c0.8-2.3,3.4-3.5,5.6-2.6
				c2.3,0.8,3.5,3.4,2.6,5.6l-31.1,85.1C76.2,456.2,74.5,457.3,72.7,457.3z"/>
		</g>
		<g>
			<path class="st2" d="M414.8,455.9c-1.7,0-3.3-1-4-2.6l-40.2-86.8c-1-2.2,0-4.8,2.2-5.8s4.8,0,5.8,2.2l40.2,86.8
				c1,2.2,0,4.8-2.2,5.8C416.1,455.7,415.4,455.9,414.8,455.9z"/>
		</g>
		<g>
			<path class="st2" d="M109.4,443.3c-0.5,0-1-0.1-1.5-0.3c-2.3-0.8-3.4-3.4-2.6-5.7l21.3-57.7c0.9-2.3,3.4-3.5,5.7-2.6
				c2.3,0.8,3.4,3.4,2.6,5.7l-21.3,57.7C112.9,442.2,111.2,443.3,109.4,443.3z"/>
		</g>
		<g>
			<path class="st2" d="M119.2,468.8c-0.5,0-1-0.1-1.5-0.3c-2.3-0.8-3.4-3.4-2.6-5.7l21.3-57.7c0.8-2.3,3.4-3.5,5.7-2.6
				c2.3,0.8,3.4,3.4,2.6,5.7l-21.3,57.7C122.7,467.7,121,468.8,119.2,468.8z"/>
		</g>
		<g>
			<path class="st2" d="M158.4,460c-0.5,0-1-0.1-1.5-0.3c-2.3-0.8-3.4-3.4-2.6-5.7l21.3-57.7c0.8-2.3,3.4-3.5,5.7-2.6
				c2.3,0.8,3.4,3.4,2.6,5.7l-21.3,57.7C161.9,458.9,160.2,460,158.4,460z"/>
		</g>
		<g>
			<path class="st2" d="M168.2,497.9c-0.5,0-1-0.1-1.5-0.3c-2.3-0.8-3.4-3.4-2.6-5.7l21.3-57.7c0.9-2.3,3.4-3.5,5.7-2.6
				c2.3,0.8,3.4,3.4,2.6,5.7L172.4,495C171.7,496.8,170,497.9,168.2,497.9z"/>
		</g>
		<g>
			<path class="st2" d="M395.6,463.2c-1.7,0-3.3-1-4-2.6l-25.7-55.9c-1-2.2,0-4.8,2.2-5.9c2.2-1,4.8,0,5.9,2.2l25.7,55.9
				c1,2.2,0,4.8-2.2,5.9C396.8,463.1,396.2,463.2,395.6,463.2z"/>
		</g>
		<g>
			<path class="st2" d="M367.1,458.8c-1.7,0-3.3-1-4-2.6l-25.7-55.9c-1-2.2,0-4.8,2.2-5.9c2.2-1,4.8,0,5.9,2.2l25.7,55.9
				c1,2.2,0,4.8-2.2,5.9C368.4,458.7,367.8,458.8,367.1,458.8z"/>
		</g>
		<g>
			<path class="st2" d="M237.8,94.3c-8.1,0-25.9,6.5-37.2,10.3s-30.2,39.3-35.1,64.7c-4.4,22.8,5.2,32.1,8,50.6l5.5-3.1
				c1.3-5.2,6.6-23.1,6.6-25.4c0-3.2-2.3-3.8-2.3-16.7c-0.1-12.9,13.6-36.2,16.3-41.1s14.6-2.7,28.1-1.1c13.5,1.6,17.3-2.6,17.3-2.6
				l1.1-35.7C245.9,94.3,245.9,94.3,237.8,94.3z"/>
		</g>
		<g>
			<path class="st2" d="M293.8,438.2l-11.2-2.8l1-0.8l-178.9-62.4l0.1-2.8c0.1-1.2,1.2-12.3,21.2-21.8c12.2-5.8,31.2-8.3,45.1-10.1
				c6.3-0.8,13.5-1.8,14.9-2.5c1.9-1.2,6.6-10.2,9.9-19.5v-41.2l7.8,1.8l0.8,1.1c5.3,7.4,10.6,16.3,12.9,20.1l0.5,0.9
				c2.2,1.3,12.2,2.8,22.3,3.2c9.8-0.4,19.4-1.9,21.5-3.2l0.6-1.1c2.2-3.7,7.4-12.5,12.6-19.6l0.8-1.1l9.3-2.1v41.2
				c3.4,9.3,8,18.4,10,19.5c1.4,0.7,8.6,1.7,14.9,2.5c13.9,1.8,32.9,4.3,45,10.1c20,9.5,21.1,20.5,21.2,21.8l0.1,1.9l-81.7,63.9
				L293.8,438.2z M113.1,367.4l177.3,61.9l78-61c-1.2-2.7-4.9-8.4-16.5-13.9c-11.1-5.3-29.5-7.7-42.9-9.4
				c-10.3-1.4-15.3-2.1-17.7-3.5c-5.6-3.4-11.6-19.2-13.3-24l-0.2-0.6v-30.4c-3.8,5.7-7.3,11.6-9,14.5l-0.9,1.4
				c-3.2,5.4-21.5,6.2-27.5,6.4h-0.2H240c-25-1.1-27.4-5.1-28.2-6.4l-0.8-1.3c-1.5-2.6-4.5-7.6-7.8-12.7v28.5l-0.2,0.6
				c-1.7,4.8-7.7,20.6-13.3,24c-2.4,1.4-7.4,2.1-17.7,3.5c-13.4,1.8-31.7,4.1-42.9,9.4C118.7,359.3,114.6,364.4,113.1,367.4z"/>
		</g>
		<g>
			<path class="st2" d="M199.6,282.9c-0.2-0.4-22.3-35.8-24.3-48.7c-0.4-2.3-0.8-4.3-1.1-6.3c-1.2-6.1-2.1-11-0.2-17.4
				c2.1-6.9,3.8-22.1,3.8-22.3l7.3,0.8c-0.1,0.6-1.8,16-4.1,23.6c-1.4,4.7-0.7,8.3,0.4,13.9c0.4,1.9,0.8,4.1,1.2,6.5
				c1.2,8,14.3,31.6,23.3,45.9L199.6,282.9z"/>
		</g>
		<g>
			<path class="st2" d="M241.9,94.3c8.1,0,25.9,6.5,37.2,10.3c11.3,3.8,30.2,39.3,35.1,64.7c4.4,22.8-5.2,32.1-8,50.6l-5.5-3.1
				c-1.3-5.2-6.6-23.1-6.6-25.4c0-3.2,2.3-3.8,2.3-16.7c0.1-12.9-13.5-36.2-16.3-41.1c-2.7-4.9-14.6-2.7-28.1-1.1
				c-13.5,1.6-17.3-2.6-17.3-2.6l-1.1-35.7C233.8,94.3,233.8,94.3,241.9,94.3z"/>
		</g>
		<g>
			<path class="st2" d="M280,282.9l-6.2-3.9c8.9-14.3,22-37.9,23.3-45.9c0.4-2.4,0.8-4.6,1.2-6.5c1.1-5.6,1.8-9.2,0.4-13.9
				c-2.3-7.6-4-22.9-4-23.6l7.3-0.8c0,0.1,1.7,15.3,3.8,22.3c1.9,6.4,1,11.3-0.2,17.4c-0.4,1.9-0.8,3.9-1.1,6.3
				C302.3,247.1,280.2,282.5,280,282.9z"/>
		</g>
		<g>
			<path class="st2" d="M263,524.2c-0.5,0-1-0.1-1.5-0.3c-2.3-0.8-3.5-3.4-2.6-5.7l31.1-85.1c0.8-2.3,3.4-3.5,5.6-2.6
				s3.5,3.4,2.6,5.6l-31.1,85.1C266.5,523.1,264.8,524.2,263,524.2z"/>
		</g>
		<g>
			<path class="st2" d="M269.4,500c-0.5,0-0.9-0.1-1.4-0.2L80.8,437.5c-2.3-0.8-3.6-3.3-2.8-5.6c0.8-2.3,3.3-3.6,5.6-2.8l187.2,62.2
				c2.3,0.8,3.6,3.3,2.8,5.6C273,498.8,271.3,500,269.4,500z"/>
		</g>
		<g>
			<path class="st2" d="M313.9,480L291,434.8c-1.1-2.2-0.2-4.8,1.9-5.9s4.8-0.2,5.9,1.9l18.9,37.3l84.4-44.1c2.2-1.1,4.8-0.3,6,1.9
				s0.3,4.8-1.9,6L313.9,480z"/>
		</g>
		<g>
			<g>
				<path class="st3" d="M230,375.5c-0.7,1.5-1.1,6-1.3,7.8h28.8c-0.1-1.8-0.6-6.3-1.3-7.8H230z"/>
			</g>
			<g>
				<path class="st3" d="M254.3,373.9c-2.9-3.5-7.1-5.5-11-5.6l0,0c0,0-0.1,0-0.2,0c0,0-0.1,0-0.2,0l0,0c-3.8,0.1-8.1,2.1-11,5.6
					H254.3z"/>
			</g>
			<g>
				<path class="st3" d="M256.7,391.2c0.4-1.5,0.7-4.6,0.9-6.3h-28.8c0.1,1.7,0.5,4.8,0.9,6.3H256.7z"/>
			</g>
			<g>
				<path class="st3" d="M255.7,392.8h-25c1.6,4.2,3.7,7,3.7,7s-9.6,31.7-9.6,53.1c0,20.2,16.7,19.6,18.5,19.5
					c1.8,0.1,18.5,0.8,18.5-19.5c0-21.4-9.6-53.1-9.6-53.1S254,397,255.7,392.8z"/>
			</g>
		</g>
		<g>
			<path class="st2" d="M242.5,373.1l-51.8-41.6c-0.9-0.8-1.1-2.1-0.3-3.1s2.1-1.1,3.1-0.3l48.9,39.3l44.9-39.6
				c0.9-0.8,2.3-0.7,3.1,0.2c0.8,0.9,0.7,2.3-0.2,3.1L242.5,373.1z"/>
		</g>
	</g>
	<g id="Layer_2_2_">
	</g>
	<g id="Layer_4">
	</g>
</g>
</svg>
