<?xml version="1.0" encoding="utf-8"?>
<!-- Generator: Adobe Illustrator 24.0.2, SVG Export Plug-In . SVG Version: 6.00 Build 0)  -->
<svg version="1.1" id="Layer_1" xmlns="http://www.w3.org/2000/svg" xmlns:xlink="http://www.w3.org/1999/xlink" x="0px" y="0px"
	 viewBox="0 0 486 527.8" style="enable-background:new 0 0 486 527.8;" xml:space="preserve">
<style type="text/css">
	.st0{fill:none;}
	.st1{fill:none;stroke:#000000;stroke-miterlimit:10;}
	.st2{fill:#FFFFFF;stroke:#000000;stroke-miterlimit:10;}
	.st3{fill:#FFFFFF;stroke:#000000;stroke-width:1;stroke-miterlimit:9.9995;}
	.st4{fill:#FFFFFF;stroke:#000000;stroke-width:1;stroke-miterlimit:9.9999;}
	.st5{fill:none;stroke:#023000;stroke-miterlimit:10;}
</style>
<g id="Layer_2_1_">
</g>
<g id="Layer_1_2_">
	<g id="Layer_3">
	</g>
	<g id="Layer_1_1_">
		<circle class="st0" cx="243" cy="287.6" r="242.1"/>
		<g>
			<g>
				<path class="st1" d="M212.6,91.8l16.3,3.9l9.4-16.5l-20.9-59.9c-0.2-0.7-6-16.6-18.7-12.2c-5.2,1.8-13.3,6.8-8.7,19.9
					L212.6,91.8z"/>
			</g>
			<g>
				<path class="st2" d="M226.6,96.3L202.9,28c-0.4-1.2,0.2-2.4,1.4-2.8c1.1-0.4,2.4,0.2,2.8,1.4l23.8,68.6"/>
			</g>
			<g>
				<g>
					<path class="st1" d="M210.6,50.3l-13.9-6.5c-1.1-0.5-1.6-1.8-1.1-2.9c0.5-1.1,1.8-1.6,2.9-1.1l10.1,4.7"/>
				</g>
				<g>
					<path class="st1" d="M215.2,63.5L201.3,57c-1.1-0.5-1.6-1.8-1.1-2.9s1.8-1.6,2.9-1.1l10.1,4.7"/>
				</g>
				<g>
					<path class="st1" d="M219.9,76.9l-14-6.6c-1.1-0.5-1.6-1.8-1.1-2.9s1.8-1.6,2.9-1.1l9.9,4.6"/>
				</g>
			</g>
			<g>
				<polygon class="st3" points="190,27 217.1,18.6 218.6,22.7 191.6,31.6 				"/>
			</g>
		</g>
		<g>
			<g>
				<path class="st1" d="M266.9,100.7"/>
				<path class="st1" d="M264.7,100.1l29-54.8c0.3-0.6,8-15.8-3.9-22c-4.9-2.6-14-5-20.5,7.2l-33.6,63.8"/>
			</g>
			<g>
				<path class="st2" d="M248,95.8l29.2-55.3c0.6-1.1,1.9-1.5,3-0.9s1.5,1.9,0.9,3l-28.6,54.2"/>
			</g>
			<g>
				<g>
					<path class="st1" d="M266.3,61.6l-4.8-14.9c-0.4-1.2,0.3-2.4,1.4-2.8c1.2-0.4,2.4,0.3,2.8,1.4l3.2,10"/>
				</g>
				<g>
					<path class="st1" d="M259.8,74L255,59.2c-0.4-1.2,0.3-2.4,1.4-2.8c1.1-0.4,2.4,0.3,2.8,1.4l3.4,10.4"/>
				</g>
				<g>
					<path class="st1" d="M253.2,86.4l-4.8-14.9c-0.4-1.2,0.3-2.4,1.4-2.8s2.4,0.3,2.8,1.4l3.4,10.5"/>
				</g>
			</g>
			<g>
				<polygon class="st4" points="266.8,35.2 269,31 294,44.7 291.9,48.6 				"/>
			</g>
		</g>
		<g>
			<path class="st1" d="M106.5,372.6l-29.7,81.8c-0.6,1.8-2.3,2.9-4.1,2.9c-0.5,0-1-0.1-1.5-0.3c-2.3-0.8-3.5-3.4-2.6-5.6l29.9-81.7
				"/>
		</g>
		<g>
			<path class="st1" d="M374,363.3l44.4,86.6c1.4,2,0.4,4.6-1.8,5.6c-0.5,0.2-1.2,0.4-1.8,0.4c-1.7,0-3.3-1-4-2.6l-39.2-78"/>
		</g>
		<g>
			<path class="st1" d="M134.9,383.1l-21.3,57.7c-0.7,1.8-2.4,2.9-4.2,2.9c-0.5,0-1-0.1-1.5-0.3c-2.3-0.8-3.4-3.4-2.6-5.7l21.3-57.7
				"/>
		</g>
		<g>
			<path class="st1" d="M119.2,468.8c-0.5,0-1-0.1-1.5-0.3c-2.3-0.8-3.4-3.4-2.6-5.7l21.3-57.7c0.8-2.3,3.4-3.5,5.7-2.6
				c2.3,0.8,3.4,3.4,2.6,5.7l-21.3,57.7C122.7,467.7,121,468.8,119.2,468.8z"/>
		</g>
		<g>
			<path class="st1" d="M183.3,401.1l-20.7,56c-0.7,1.8-2.4,2.9-4.2,2.9c-0.5,0-1-0.1-1.5-0.3c-2.3-0.8-3.4-3.4-2.6-5.7l20.7-56"/>
		</g>
		<g>
			<path class="st1" d="M168.2,497.9c-0.5,0-1-0.1-1.5-0.3c-2.3-0.8-3.4-3.4-2.6-5.7l21.3-57.7c0.9-2.3,3.4-3.5,5.7-2.6
				c2.3,0.8,3.4,3.4,2.6,5.7L172.4,495C171.7,496.8,170,497.9,168.2,497.9z"/>
		</g>
		<g>
			<path class="st2" d="M395.6,463.2c-1.7,0-3.3-1-4-2.6l-25.7-55.9c-1-2.2,0-4.8,2.2-5.9c2.2-1,4.8,0,5.9,2.2l25.7,55.9
				c1,2.2,0,4.8-2.2,5.9C396.8,463.1,396.2,463.2,395.6,463.2z"/>
		</g>
		<g>
			<path class="st1" d="M237.8,94.3c-8.1,0-25.9,6.5-37.2,10.3s-30.2,39.3-35.1,64.7c-4.4,22.8,5.2,32.1,8,50.6l5.5-3.1
				c1.3-5.2,6.6-23.1,6.6-25.4c0-3.2-2.3-3.8-2.3-16.7c-0.1-12.9,13.6-36.2,16.3-41.1s14.6-2.7,28.1-1.1c11.6,1.3,12.9,0,12.9-0.1"
				/>
		</g>
		<g>
			<path class="st1" d="M229.6,418.2L98.5,369.7l2.2-5c0.1-1.2,5.3-7.6,25.3-17.1c12.2-5.8,31.2-8.3,45.1-10.1
				c6.3-0.8,13.5-1.8,14.9-2.5c1.9-1.2,6.6-10.2,9.9-19.5l-0.2-39.1 M289,435.9l-5.4-1.3l-24.6-6.5 M285,274.3v41.2
				c3.4,9.3,8,18.4,10,19.5c1.4,0.7,8.6,1.7,14.9,2.5c13.9,1.8,32.9,4.3,45,10.1c20,9.5,20.6,19.6,21.8,20.9l0.9,2.1l-83.1,64.7
				l-5.8,0.7 M257.5,420.6l32.9,8.7l83.6-66 M277.8,286.5c-3.8,5.7-7.3,11.6-9,14.5l-0.9,1.4c-3.2,5.4-21.5,6.2-27.5,6.4h-0.2H240
				c-25-1.1-27.4-5.1-28.2-6.4l-0.8-1.3c-1.5-2.6-4.5-7.6-7.8-12.7"/>
		</g>
		<g>
			<path class="st1" d="M203.2,288.4c-0.2-0.4-25.9-41.3-27.9-54.2c-0.4-2.3-0.8-4.3-1.1-6.3c-1.2-6.1-0.3-5.1-1.3-11.2"/>
		</g>
		<g>
			<path class="st1" d="M299.3,215.2c-1.3-5.2-5.2-21.5-5.2-23.8c0-3.2,2.3-3.8,2.3-16.7c0.1-12.9-13.5-36.2-16.3-41.1
				c-2.7-4.9-14.6-2.7-28.1-1.1c-11.5,0.9-12.1,0-12.1,0"/>
			<path class="st1" d="M237.8,94.3c8.1,0,30,6.5,41.3,10.3c11.3,3.8,30.2,39.3,35.1,64.7c4.4,22.8-4.3,30.4-7.1,48.9"/>
		</g>
		<g>
			<path class="st1" d="M298.7,212.7"/>
			<path class="st1" d="M299.3,215.2l7.9,3c0,0-0.3,3.7-1.5,9.8c-0.4,1.9-0.8,3.9-1.1,6.3c-2.2,12.8-26.5,51.8-26.7,52.2"/>
		</g>
		<g>
			<path class="st1" d="M300.3,430.7l-33.2,90.5c-0.6,1.9-2.3,3-4.1,3c-0.5,0-1-0.1-1.5-0.3c-2.3-0.8-3.5-3.4-2.6-5.7l29.8-82.3"/>
		</g>
		<g>
			<path class="st1" d="M313.9,480l-18.5-36.5"/>
			<path class="st1" d="M299.2,431.6l18.5,36.5l40.8-22"/>
		</g>
		<g>
			<g>
				<path class="st5" d="M230,375.5c-0.7,1.5-1.1,6-1.3,7.8h28.8c-0.1-1.8-0.6-6.3-1.3-7.8H230z"/>
			</g>
			<g>
				<path class="st5" d="M254.3,373.9c-2.9-3.5-7.1-5.5-11-5.6l0,0c0,0-0.1,0-0.2,0c0,0-0.1,0-0.2,0l0,0c-3.8,0.1-8.1,2.1-11,5.6
					H254.3z"/>
			</g>
			<g>
				<path class="st5" d="M256.7,391.2c0.4-1.5,0.7-4.6,0.9-6.3h-28.8c0.1,1.7,0.5,4.8,0.9,6.3H256.7z"/>
			</g>
			<g>
				<path class="st5" d="M255.7,392.8h-25c1.6,4.2,3.7,7,3.7,7s-9.6,31.7-9.6,53.1c0,20.2,16.7,19.6,18.5,19.5
					c1.8,0.1,18.5,0.8,18.5-19.5c0-21.4-9.6-53.1-9.6-53.1S254,397,255.7,392.8z"/>
			</g>
		</g>
		<g>
			<path class="st1" d="M345.1,395.8l26.1,56.7c1,2.2,0,4.8-2.2,5.9c-0.6,0.3-1.2,0.4-1.9,0.4c-1.7,0-3.3-1-4-2.6l-25.2-54.8"/>
		</g>
		<g>
			<path class="st1" d="M238.3,369.3l-47.6-37.8c-0.9-0.8-1.1-2.1-0.3-3.1s2.1-1.1,3.1-0.3l48.9,39.3l44.9-39.6
				c0.9-0.8,2.3-0.7,3.1,0.2c0.8,0.9,0.7,2.3-0.2,3.1l-43.4,37.8"/>
		</g>
	</g>
	<g id="Layer_2_2_">
	</g>
	<g id="Layer_4">
	</g>
</g>
<line class="st1" x1="102.2" y1="362.5" x2="231" y2="412.4"/>
<line class="st1" x1="85.7" y1="429.8" x2="105.7" y2="436.8"/>
<line class="st1" x1="114.2" y1="439.3" x2="122.6" y2="442.5"/>
<line class="st1" x1="130.8" y1="445.7" x2="154.3" y2="454"/>
<line class="st1" x1="162.6" y1="457.1" x2="175.3" y2="461.7"/>
<line class="st1" x1="183.6" y1="464.6" x2="268.2" y2="492.6"/>
<line class="st1" x1="83.7" y1="435.5" x2="120.3" y2="448.8"/>
<line class="st1" x1="128.4" y1="452.3" x2="173" y2="467.9"/>
<line class="st1" x1="181.3" y1="470.8" x2="266" y2="498.7"/>
<line class="st1" x1="366.1" y1="441.5" x2="379.4" y2="434"/>
<line class="st1" x1="387" y1="429.3" x2="396.1" y2="424"/>
<line class="st1" x1="313.9" y1="479.4" x2="361.8" y2="453.3"/>
<line class="st1" x1="369.3" y1="448.3" x2="382.4" y2="440.6"/>
<line class="st1" x1="390" y1="435.9" x2="399.4" y2="430.6"/>
</svg>
