<svg xmlns="http://www.w3.org/2000/svg" xml:space="preserve" id="Layer_1" x="0" y="0" style="enable-background:new 0 0 486 527.8" version="1.1" viewBox="0 0 486 527.8"><style>.st1,.st2,.st5{fill:none;stroke:#000;stroke-miterlimit:10}.st2,.st5{fill:#fff}.st5{fill:none;stroke:#023000}</style><g id="Layer_1_2_"><g id="Layer_1_1_"><circle cx="243" cy="287.6" r="242.1" style="fill:none"/><path d="m212.6 91.8 16.3 3.9 9.4-16.5-20.9-59.9c-.2-.7-6-16.6-18.7-12.2-5.2 1.8-13.3 6.8-8.7 19.9l22.6 64.8z" class="st1"/><path d="M226.6 96.3 202.9 28c-.4-1.2.2-2.4 1.4-2.8 1.1-.4 2.4.2 2.8 1.4l23.8 68.6" class="st2"/><path d="m210.6 50.3-13.9-6.5c-1.1-.5-1.6-1.8-1.1-2.9.5-1.1 1.8-1.6 2.9-1.1l10.1 4.7M215.2 63.5 201.3 57c-1.1-.5-1.6-1.8-1.1-2.9s1.8-1.6 2.9-1.1l10.1 4.7M219.9 76.9l-14-6.6c-1.1-.5-1.6-1.8-1.1-2.9s1.8-1.6 2.9-1.1l9.9 4.6" class="st1"/><path d="m190 27 27.1-8.4 1.5 4.1-27 8.9z" style="fill:#fff;stroke:#000;stroke-width:1;stroke-miterlimit:9.9995"/><path d="m264.7 100.1 29-54.8c.3-.6 8-15.8-3.9-22-4.9-2.6-14-5-20.5 7.2l-33.6 63.8" class="st1"/><path d="m248 95.8 29.2-55.3c.6-1.1 1.9-1.5 3-.9s1.5 1.9.9 3l-28.6 54.2" class="st2"/><path d="m266.3 61.6-4.8-14.9c-.4-1.2.3-2.4 1.4-2.8 1.2-.4 2.4.3 2.8 1.4l3.2 10M259.8 74 255 59.2c-.4-1.2.3-2.4 1.4-2.8 1.1-.4 2.4.3 2.8 1.4l3.4 10.4M253.2 86.4l-4.8-14.9c-.4-1.2.3-2.4 1.4-2.8s2.4.3 2.8 1.4l3.4 10.5" class="st1"/><path d="M266.8 35.2 269 31l25 13.7-2.1 3.9z" style="fill:#fff;stroke:#000;stroke-width:1;stroke-miterlimit:9.9999"/><path d="m106.5 372.6-29.7 81.8c-.6 1.8-2.3 2.9-4.1 2.9-.5 0-1-.1-1.5-.3-2.3-.8-3.5-3.4-2.6-5.6l29.9-81.7M374 363.3l44.4 86.6c1.4 2 .4 4.6-1.8 5.6-.5.2-1.2.4-1.8.4-1.7 0-3.3-1-4-2.6l-39.2-78M134.9 383.1l-21.3 57.7c-.7 1.8-2.4 2.9-4.2 2.9-.5 0-1-.1-1.5-.3-2.3-.8-3.4-3.4-2.6-5.7l21.3-57.7M119.2 468.8c-.5 0-1-.1-1.5-.3-2.3-.8-3.4-3.4-2.6-5.7l21.3-57.7c.8-2.3 3.4-3.5 5.7-2.6 2.3.8 3.4 3.4 2.6 5.7l-21.3 57.7c-.7 1.8-2.4 2.9-4.2 2.9zM183.3 401.1l-20.7 56c-.7 1.8-2.4 2.9-4.2 2.9-.5 0-1-.1-1.5-.3-2.3-.8-3.4-3.4-2.6-5.7l20.7-56M168.2 497.9c-.5 0-1-.1-1.5-.3-2.3-.8-3.4-3.4-2.6-5.7l21.3-57.7c.9-2.3 3.4-3.5 5.7-2.6 2.3.8 3.4 3.4 2.6 5.7L172.4 495c-.7 1.8-2.4 2.9-4.2 2.9z" class="st1"/><path d="M395.6 463.2c-1.7 0-3.3-1-4-2.6l-25.7-55.9c-1-2.2 0-4.8 2.2-5.9 2.2-1 4.8 0 5.9 2.2l25.7 55.9c1 2.2 0 4.8-2.2 5.9-.7.3-1.3.4-1.9.4z" class="st2"/><path d="M237.8 94.3c-8.1 0-25.9 6.5-37.2 10.3s-30.2 39.3-35.1 64.7c-4.4 22.8 5.2 32.1 8 50.6l5.5-3.1c1.3-5.2 6.6-23.1 6.6-25.4 0-3.2-2.3-3.8-2.3-16.7-.1-12.9 13.6-36.2 16.3-41.1s14.6-2.7 28.1-1.1c11.6 1.3 12.9 0 12.9-.1M229.6 418.2 98.5 369.7l2.2-5c.1-1.2 5.3-7.6 25.3-17.1 12.2-5.8 31.2-8.3 45.1-10.1 6.3-.8 13.5-1.8 14.9-2.5 1.9-1.2 6.6-10.2 9.9-19.5l-.2-39.1M289 435.9l-5.4-1.3-24.6-6.5m26-153.8v41.2c3.4 9.3 8 18.4 10 19.5 1.4.7 8.6 1.7 14.9 2.5 13.9 1.8 32.9 4.3 45 10.1 20 9.5 20.6 19.6 21.8 20.9l.9 2.1-83.1 64.7-5.8.7m-31.2-15.4 32.9 8.7 83.6-66m-96.2-76.8c-3.8 5.7-7.3 11.6-9 14.5l-.9 1.4c-3.2 5.4-21.5 6.2-27.5 6.4h-.4c-25-1.1-27.4-5.1-28.2-6.4l-.8-1.3c-1.5-2.6-4.5-7.6-7.8-12.7" class="st1"/><path d="M203.2 288.4c-.2-.4-25.9-41.3-27.9-54.2-.4-2.3-.8-4.3-1.1-6.3-1.2-6.1-.3-5.1-1.3-11.2M299.3 215.2c-1.3-5.2-5.2-21.5-5.2-23.8 0-3.2 2.3-3.8 2.3-16.7.1-12.9-13.5-36.2-16.3-41.1-2.7-4.9-14.6-2.7-28.1-1.1-11.5.9-12.1 0-12.1 0" class="st1"/><path d="M237.8 94.3c8.1 0 30 6.5 41.3 10.3 11.3 3.8 30.2 39.3 35.1 64.7 4.4 22.8-4.3 30.4-7.1 48.9" class="st1"/><path d="m299.3 215.2 7.9 3s-.3 3.7-1.5 9.8c-.4 1.9-.8 3.9-1.1 6.3-2.2 12.8-26.5 51.8-26.7 52.2M300.3 430.7l-33.2 90.5c-.6 1.9-2.3 3-4.1 3-.5 0-1-.1-1.5-.3-2.3-.8-3.5-3.4-2.6-5.7l29.8-82.3M313.9 480l-18.5-36.5" class="st1"/><path d="m299.2 431.6 18.5 36.5 40.8-22" class="st1"/><path d="M230 375.5c-.7 1.5-1.1 6-1.3 7.8h28.8c-.1-1.8-.6-6.3-1.3-7.8H230zM254.3 373.9c-2.9-3.5-7.1-5.5-11-5.6h-.4c-3.8.1-8.1 2.1-11 5.6h22.4zM256.7 391.2c.4-1.5.7-4.6.9-6.3h-28.8c.1 1.7.5 4.8.9 6.3h27zM255.7 392.8h-25c1.6 4.2 3.7 7 3.7 7s-9.6 31.7-9.6 53.1c0 20.2 16.7 19.6 18.5 19.5 1.8.1 18.5.8 18.5-19.5 0-21.4-9.6-53.1-9.6-53.1s1.8-2.8 3.5-7z" class="st5"/><path d="m345.1 395.8 26.1 56.7c1 2.2 0 4.8-2.2 5.9-.6.3-1.2.4-1.9.4-1.7 0-3.3-1-4-2.6l-25.2-54.8M238.3 369.3l-47.6-37.8c-.9-.8-1.1-2.1-.3-3.1s2.1-1.1 3.1-.3l48.9 39.3 44.9-39.6c.9-.8 2.3-.7 3.1.2.8.9.7 2.3-.2 3.1l-43.4 37.8" class="st1"/></g></g><path d="M102.2 362.5 231 412.4M85.7 429.8l20 7M114.2 439.3l8.4 3.2M130.8 445.7l23.5 8.3M162.6 457.1l12.7 4.6M183.6 464.6l84.6 28M83.7 435.5l36.6 13.3M128.4 452.3l44.6 15.6M181.3 470.8l84.7 27.9M366.1 441.5l13.3-7.5M387 429.3l9.1-5.3M313.9 479.4l47.9-26.1M369.3 448.3l13.1-7.7M390 435.9l9.4-5.3" class="st1"/></svg>