<svg xmlns="http://www.w3.org/2000/svg" viewBox="0 0 483.53 630.34"><g data-name="Layer 2"><path d="m252.4 107.59-4-2.31v-53.6l-7.09-9.36-7.08 9.36v53.69l-3.79 2.22 3.79 2.21v1.2l-3.79 2.21 3.79 2.22v1.21l-3.79 2.22 3.79 2.21v98.83l-3.79 2.21 3.79 2.22v1.21l-3.79 2.22 3.79 2.21v1.22l-3.79 2.21 3.79 2.21v98.83l-3.79 2.22 3.79 2.21v1.22l-3.79 2.21 3.79 2.21v1.22l-3.74 2.27 3.79 2.22V449l-3.79 2.21 3.79 2.21v1.22l-3.79 2.21 3.79 2.22v1.21l-3.79 2.22 3.79 2.21v165.63h14.17V464.82l4-2.31-4-2.31v-1l4-2.32-4-2.31v-1l4-2.31-4-2.31v-98.68l4-2.31-4-2.31v-1l4-2.31-4-2.31v-1l4-2.31-4-2.31v-98.68l4-2.31-4-2.31v-1l4-2.31-4-2.31v-1l4-2.31-4-2.31v-98.68l4-2.31-4-2.32v-1l4-2.31-4-2.31v-1Zm230.93 211c-4-103.68-49.14-166.71-95.25-212.13 6.76-4.46 13.6-6.88 20-6.88a23.6 23.6 0 0 1 7.8 1.3l1.52.52.14-1.59c.61-6.9-1.25-12.94-5.41-17.48-4.54-5-11.48-7.7-19.55-7.7-5.1 0-15.76 1.25-28.3 9.78-6.81-6-13.49-11.74-19.89-17.22C316.13 43 293.77 23.89 288 2.62L287.29 0l-1.84 2c-13.27 14.37-15.14 29.58-5.9 47.86 8.32 16.44 24.87 34.14 44.05 54.68l5.06 5.42c3.85 10 1.73 16.3-1.54 18.72a6.67 6.67 0 0 1-6.35.87c-7.15-8.37-14.82-13.12-22.88-14.1-12.51-1.52-21.44 6.54-22.72 7.77V82.34l-14.17-16v38.86l4.08 2.39L261 110v.88l4.08 2.38-4.08 2.36v.87l4.08 2.39-4.08 2.38v98.49l4.08 2.38-4.08 2.39v.87l4.08 2.39-4.08 2.38v.84l4.08 2.38-4.08 2.42v98.49l4.08 2.39-4.08 2.38v.88l4.08 2.38-4.08 2.38v.88l4.08 2.38-4.08 2.39v98.49l4.08 2.38-4.08 2.39v.87l4.08 2.38-4.08 2.39v.87l4.08 2.39-4.08 2.38v165.45h14.17v-17.47h1c10.23 0 21.13-6.14 25.87-22.21a119.79 119.79 0 0 0 18.11 1.44c31.61 0 60.35-13.23 85.41-39.29 32.17-33.45 50.77-80.11 60.71-113.36 12.26-40.81 18.47-84.87 17.06-120.83ZM415.18 98.06a26.26 26.26 0 0 0-7.06-1c-30.67 0-66.73 47.63-71.52 118.53-5.66 83.75-22 129.87-46 129.87a20.25 20.25 0 0 1-3.9-.4 21.21 21.21 0 0 0 2.37.14c25 0 40.74-44.92 46.74-133.52 2.12-31.29 11.61-60.92 26.73-83.46 13.49-20.11 30-32.11 44.11-32.11a22.6 22.6 0 0 1 7.42 1.22l1.09.38ZM359.54 140c.31-.58.63-1.17 1-1.74 38.81 44.8 76.79 103.67 74.58 187.94-1.37 52.56-8.28 97.52-20.54 133.64-10 29.52-23.66 53.34-40.54 70.82-29.46 30.5-60.13 32.87-68.83 32.87h-1c-.05-.61-.12-1.2-.19-1.8 10.25-.32 38.64-4 66.52-32.52 17-17.41 30.77-41.14 40.9-70.54 12.39-35.92 19.44-80.64 20.94-132.9 2.3-81.53-34.62-140.43-72.84-185.77Zm48.15 83.32c.6-.05 1.21-.12 1.82-.19.56 1.29 1.11 2.59 1.65 3.89 4.26 24.5-2.93 91.38-24.39 134.73-1-.84-2-1.65-3.08-2.42 22.2-45.8 29.04-120.61 24-136.05Zm-5.18-2.32c-29.82 0-33.28-24-36.94-49.46-1.29-8.94-2.61-18.08-5.24-25.94 17.9 21.66 35.26 46.38 48.11 75.07-2.06.2-4.05.33-5.93.33Zm-39.42-49.1c2.24 15.54 4.54 31.4 13.34 41.36l-1.38 2a.74.74 0 0 0 .19 1 .76.76 0 0 0 .43.14.75.75 0 0 0 .61-.33l1.19-1.71c.28.28.55.56.83.83l-1.3 2.44a.75.75 0 0 0 .31 1 .8.8 0 0 0 .36.09.77.77 0 0 0 .66-.4l1.13-2.13c.43.36.87.71 1.33 1.05l-.93 1.5a.74.74 0 0 0 .25 1 .71.71 0 0 0 .39.12.75.75 0 0 0 .64-.36l.88-1.43c.44.3.88.59 1.34.86l-.57 1.59a.75.75 0 0 0 .46 1 .73.73 0 0 0 .25 0 .75.75 0 0 0 .71-.5l.49-1.38 1 .5-.46 2.14a.74.74 0 0 0 .57.89h.16a.74.74 0 0 0 .73-.59l.4-1.84c.65.26 1.32.5 2 .73l-.22 1.51a.76.76 0 0 0 .64.85h.11a.76.76 0 0 0 .74-.65l.18-1.29c.54.15 1.07.29 1.63.42l-.13 1.88a.75.75 0 0 0 .69.8h.05a.75.75 0 0 0 .75-.69l.12-1.68c.72.13 1.46.25 2.22.35V225a.75.75 0 1 0 1.5 0v-1.77c.6.06 1.21.12 1.83.15V225a.75.75 0 0 0 1.5 0v-1.56h1.44l.58 2.21a.76.76 0 0 0 .73.56.63.63 0 0 0 .19 0 .75.75 0 0 0 .54-.91l-.49-1.85 2.4-.09c4.6 12.63-.46 87.09-23.69 135.05-1-.69-2.11-1.35-3.22-2a99.38 99.38 0 0 0 7.35-21.71l1.14.46a.92.92 0 0 0 .28.05.75.75 0 0 0 .28-1.45l-1.45-.58c.13-.76.23-1.51.32-2.24l1 .25h.18a.75.75 0 0 0 .18-1.48l-1.19-.3c0-.46.05-.91.07-1.37l1.82.31h.12a.75.75 0 0 0 .74-.63.74.74 0 0 0-.61-.86l-2-.34v-1.84h1.9a.75.75 0 0 0 0-1.5h-2a31 31 0 0 0-.28-2.21l2.27-.47a.75.75 0 1 0-.31-1.47l-2.23.47c-.16-.73-.35-1.43-.57-2.11l1.85-.58a.75.75 0 0 0-.45-1.43l-1.9.59a17.28 17.28 0 0 0-.71-1.58l1-.45a.75.75 0 0 0-.62-1.36l-1.07.48c-.32-.56-.67-1.1-1-1.61l1.46-.88a.75.75 0 1 0-.77-1.28l-1.61 1a19.22 19.22 0 0 0-1.36-1.49l1.33-1.08a.75.75 0 0 0-.95-1.17l-1.48 1.21c-.46-.39-.93-.77-1.42-1.13l1.16-1.75a.75.75 0 1 0-1.24-.83l-1.16 1.73c-.51-.34-1-.66-1.58-1l.71-1.54a.75.75 0 0 0-1.36-.63l-.68 1.46c-.7-.35-1.41-.68-2.15-1l.85-1.84a.74.74 0 0 0-.36-1 .75.75 0 0 0-1 .36l-.88 1.92c-.6-.23-1.21-.44-1.82-.64l.44-1.78a.75.75 0 1 0-1.45-.36l-.42 1.69c-.73-.22-1.46-.42-2.2-.61l.73-2.16a.75.75 0 0 0-.48-.95.74.74 0 0 0-.95.47l-.76 2.28c-1.51-.35-3-.65-4.53-.92a235.51 235.51 0 0 0 4.48-23.91c5.36-39.48 2.12-83.65-9.06-126 .8-1.79 1.63-3.56 2.48-5.28 2.97 7.96 4.38 17.53 5.82 27.56Zm14.37 183.6a58 58 0 0 0-26.13-6.25 56.5 56.5 0 0 0-13.85 1.75c9.08-12.8 16.39-29.65 21.38-49.38 9.52 1.7 19.62 4.69 24.11 13.25 4.58 8.69 2.71 22.38-5.51 40.63Zm-15.13-80c-4.29 31.59-13.92 58.17-27.17 76.08-1.18.35-2.34.74-3.49 1.16 13.56-18.14 23.43-45.08 27.87-77 5.24-37.7 2.61-79.6-7.29-120.11.5-1.25 1-2.49 1.53-3.71 10.74 41.62 13.8 84.88 8.55 123.6Zm-4.27 0c-4.58 32.92-14.92 60.43-29.11 78.34-1.66.71-3.3 1.51-4.9 2.39 21-25.14 32.72-62.62 34-109.61.88-32.48-3.33-63.4-7.9-85.47.38-1 .75-2.1 1.15-3.13 9.44 39.7 11.88 80.62 6.76 117.49Zm-37.4 80.85c-1.75-.2-3.15-.84-3.52-1.71s.27-2.35 1.91-4c1.23-1.26 2.31-1.78 3.19-1.55 1 .26 1.83 1.51 2.3 2.56q-1.93 2.47-3.88 4.71Zm34.88-109.8c-1.27 47.06-12.72 77.95-26 98.08l1.23-1.92a9.76 9.76 0 0 0-2.33-2.53 9.33 9.33 0 0 0-10-.72 3.66 3.66 0 0 1-3.93-1.08 6.58 6.58 0 0 1-.81-5.86c15.65-24.41 22.49-73.53 25.41-116.72a206.75 206.75 0 0 1 9.45-49.95 379.52 379.52 0 0 1 6.98 80.71Zm-40.14 94.79a23.24 23.24 0 0 0-2.14 1.87 27.79 27.79 0 0 0-4.26 5.19 5.55 5.55 0 0 0-1.58-2.63 7.14 7.14 0 0 0-4.4-1.66 35.69 35.69 0 0 0 8.45-8.32 7.26 7.26 0 0 0 1.51 3.88 5.31 5.31 0 0 0 2.42 1.67Zm-.74 3.3c6.43-6.28 10.94-4.08 12.58-2.85a7.53 7.53 0 0 1 2.31 2.85c-1.21 1.83-2.44 3.55-3.67 5.21a5.43 5.43 0 0 0-3.14-2.72c-1.63-.42-3.35.29-5.12 2.1-2.31 2.36-3.09 4.46-2.32 6.23a5.27 5.27 0 0 0 3.79 2.64c-.93 1-1.86 2-2.79 2.95-3.48-.13-6.21-1.68-7.14-4.07-1.27-3.25.68-7.64 5.5-12.34Zm1.64 16.41-.93.92h-.05Zm35-8.8c18 0 35.84 9.49 41.5 22.08 2.08 4.62 3.29 11.51-2.44 18.42-18.93-2.23-36.36 4-49.89 17.71-16.34 16.55-25.91 43.16-25.67 71.28-3.81 3.85-7.78 5.8-11.82 5.8-5.84 0-11.57-4.34-15.72-11.89-10.51-19.1-10.5-55.1 13.19-92.44 12.7-19.96 30.76-30.96 50.88-30.96Zm40.6 14.85a36.17 36.17 0 0 0-4-4.35c20.23-40.58 27.9-102 25.4-130.4q1.38 3.57 2.66 7.2c2.21 32.89-5.84 75.66-24.03 127.55ZM418.81 248a233.07 233.07 0 0 1 8.83 40.9c-1.57-4.15-3.48-6.41-5.75-6.7-2-.26-4.08 1.12-6 3.9a230.92 230.92 0 0 0 2.92-38.1Zm-14.92-71.7c24 35.38 37.21 71 40.45 108.76a73.29 73.29 0 0 0 1.14 8.21l-1.64.26a.74.74 0 0 0-.62.86.75.75 0 0 0 .74.63h.12l1.71-.27c.1.44.2.87.31 1.29l-1.67.67a.75.75 0 0 0 .28 1.45.71.71 0 0 0 .28-.06l1.49-.59c.14.53.29 1 .45 1.55l-1.63.65a.75.75 0 0 0 .28 1.45.67.67 0 0 0 .28-.06l1.54-.61c.17.49.35 1 .53 1.45l-1.67.79a.75.75 0 0 0 .32 1.43.72.72 0 0 0 .32-.08l1.58-.74c.14.32.27.63.41.94l-1.75.82a.74.74 0 0 0-.36 1 .76.76 0 0 0 .68.43.74.74 0 0 0 .32-.07l1.75-.83.66 1.26-1.9 1.27a.75.75 0 0 0-.21 1 .78.78 0 0 0 .63.33.69.69 0 0 0 .41-.13l1.81-1.2c.29.48.59.94.89 1.39l-1.6 1.37a.75.75 0 0 0 .49 1.32.78.78 0 0 0 .49-.18l1.49-1.28c.24.32.48.64.73.94l-1.49 1.49a.75.75 0 0 0 0 1.06.73.73 0 0 0 .53.22.74.74 0 0 0 .53-.22l1.4-1.4c.31.34.62.67.93 1l-1.43 1.65a.75.75 0 0 0 .57 1.24.73.73 0 0 0 .56-.26l1.39-1.59c.34.31.69.6 1 .88l-1.23 1.8a.75.75 0 0 0 1.23.85l1.19-1.73.74.5-1.2 2.19a.75.75 0 0 0 .29 1 .8.8 0 0 0 .36.09.75.75 0 0 0 .66-.39l1.16-2.11c.3.17.59.34.88.49l-.9 2.37a.76.76 0 0 0 .7 1 .74.74 0 0 0 .7-.49l.86-2.24 1.08.45-.85 2.67a.74.74 0 0 0 .48.94.66.66 0 0 0 .23 0 .75.75 0 0 0 .72-.52l.84-2.62a24 24 0 0 0 2.75.72c2.22 68.85-22.72 169.74-73.82 222.87-22.58 23.48-48.08 35.39-75.78 35.39a102.19 102.19 0 0 1-14.28-1c0-.22 0-.45.05-.67 2.81.25 5.73.4 8.75.4 29.56 0 68.78-13.35 103.78-69 18.58-29.51 33.37-68 40.6-105.51 3.36-17.42 4.83-33.53 4.46-46.86l1.48-.09a.75.75 0 1 0-.09-1.49l-1.44.08c0-1.09-.09-2.16-.16-3.21H463a.75.75 0 0 0 0-1.5h-1.38c-.05-.68-.11-1.34-.17-2h.92a.75.75 0 0 0 0-1.5h-1.08c-.05-.48-.1-1-.16-1.43l.91-.21a.75.75 0 0 0-.34-1.47l-.78.19c-.1-.68-.2-1.33-.31-2l1.56-.37a.75.75 0 0 0-.34-1.46l-1.49.35a73.5 73.5 0 0 0-.32-1.58l1.24-.46a.75.75 0 0 0 .44-1 .76.76 0 0 0-1-.44l-1 .39c-.16-.65-.33-1.3-.5-1.92l1-.29a.76.76 0 0 0 .52-.93.75.75 0 0 0-.93-.52l-1 .3c-.14-.47-.3-.92-.46-1.37l1.2-.68a.75.75 0 0 0-.75-1.3l-1 .56c-.17-.43-.34-.85-.52-1.26l.85-.69a.75.75 0 0 0-.95-1.17l-.56.47c-.29-.56-.58-1.11-.88-1.62l.92-.83a.76.76 0 0 0 .05-1.06.75.75 0 0 0-1.06-.05l-.74.66c-.29-.41-.58-.8-.88-1.17l.78-.78a.75.75 0 0 0 0-1.06.74.74 0 0 0-1.06 0l-.71.7c-.27-.27-.54-.53-.82-.78l.61-1.33a.75.75 0 0 0-.36-1 .77.77 0 0 0-1 .37l-.46 1a12.73 12.73 0 0 0-1.3-.81l.4-1.12a.75.75 0 1 0-1.41-.51l-.36 1c-.34-.13-.7-.24-1.06-.34v-1.35a.75.75 0 0 0-1.5 0v1.2a14.26 14.26 0 0 0-1.74-.11c.07-47.15-11.77-89.79-36.13-130.22-13-21.65-28.25-40.35-43.59-57.19.35-.54.68-1.1 1-1.63l.7-1a403.47 403.47 0 0 1 37.89 46.98Zm-36.74-48.7a96.11 96.11 0 0 1 10.12-12.15c43.29 43 86.77 102.8 90.8 203.34-7.1-1.57-19.52-8-21.74-33.9-3.27-38.15-16.61-74-40.78-109.71a406.92 406.92 0 0 0-38.4-47.55Zm-62.67 441.85c15-.09 134.89-8.31 139.44-245.09v-3c4 0 7.33 2.19 9.93 6.46 7.53 12.38 8.14 41.17 1.6 75.14-7.19 37.31-21.88 75.51-40.33 104.82-21.12 33.58-57.41 72.42-110.7 67.65 0-.57.05-1.14.06-1.72.03-1.46.03-2.87 0-4.26Zm102.07-379.51c24.25 40.23 36 82.66 35.92 129.57v4.83C437.9 559.9 319.11 567.87 304.44 568c0-1-.09-2-.16-3h.89c8.85 0 40-2.41 69.91-33.33C392.11 514 405.87 490 416 460.28c12.3-36.26 19.24-81.37 20.62-134.09 2.23-85.05-36.17-144.3-75.29-189.35.7-1.2 1.4-2.38 2.12-3.54 15.16 16.7 30.2 35.23 43.1 56.64ZM304.14 579.59a103.91 103.91 0 0 0 14.4 1c28.12 0 54-12.06 76.86-35.85 50.66-52.68 75.76-152 74.31-221a3.49 3.49 0 0 1 0-.5c0-2.5-.15-6-.15-6v-.56c-4.56-99.83-47.94-159.43-91.13-202.26 1.48-1.44 3-2.79 4.49-4 44.4 43.82 87.75 105.14 91.75 207.81 1.39 35.64-4.9 79.43-17.26 120.15-17.89 58.94-42.11 92.59-59.27 110.43C375 572.81 349 585 320.79 585a102.61 102.61 0 0 1-17-1.46V583c.1-1.13.21-2.25.35-3.41Zm22.15-347.73h.79a.75.75 0 1 0 0-1.5h-.82v-1.16h.95a.75.75 0 0 0 0-1.5l-1.06-.05v-.49h.63a.75.75 0 0 0 0-1.5h-.79c0-.27 0-.53-.05-.79l.73.07h.07a.75.75 0 0 0 .08-1.5l-1-.1c0-.33-.05-.66-.08-1l.85.07h.07a.75.75 0 0 0 .75-.68.76.76 0 0 0-.68-.82l-1.13-.1-.06-.59h1.06a.75.75 0 0 0 0-1.5h-1.24l-.09-.7.92-.12a.75.75 0 0 0 .65-.84.76.76 0 0 0-.83-.65l-1 .12c-.07-.43-.14-.85-.22-1.26l1-.12a.75.75 0 1 0-.18-1.49l-1.1.14c-.07-.36-.16-.71-.24-1l1.2-.23a.75.75 0 0 0-.28-1.47l-1.32.25c-.06-.2-.12-.39-.19-.58l1.05-.52a.74.74 0 0 0 .33-1 .75.75 0 0 0-1-.34l-.91.45c-.09-.22-.19-.43-.29-.63l.81-.51A.75.75 0 0 0 323 207l-.76.49a5.31 5.31 0 0 0-.45-.55l.18-.18a.75.75 0 0 0 0-1.06.74.74 0 0 0-1.06 0l-.3.3a3.26 3.26 0 0 0-1.3-.37c.32-2.65.64-5.31 1-8 10.44-83.84 49.34-114.27 72.94-114.27 6.32 0 11.52 2.17 15 6.09a22.22 22.22 0 0 0-16.27-4.13c-18.12 2-39.43 20.81-50.69 44.79C332.83 148 326 173 324.92 189.69c-.83-.13-1.36-.25-1.37-.25a.75.75 0 0 0-.89.58.76.76 0 0 0 .58.89s.64.14 1.6.28v1.22l-1.71-.13a.77.77 0 0 0-.81.69.75.75 0 0 0 .69.81l1.81.13v.69l-2 .27a.75.75 0 0 0 .1 1.49h.1l1.85-.25c0 .4 0 .78.07 1.17l-2.12.3a.75.75 0 0 0 .1 1.49h.08l2.05-.29c0 .22 0 .43.07.64l-2 .73a.73.73 0 0 0-.45 1 .75.75 0 0 0 .7.5.69.69 0 0 0 .25 0l1.77-.63c.07.33.14.65.22 1l-1.87.98a.76.76 0 0 0 .41 1.39.72.72 0 0 0 .4-.12l1.47-.95a10 10 0 0 0 .39.93l-1.29 1.29a.74.74 0 0 0 0 1.06.71.71 0 0 0 .53.22.74.74 0 0 0 .53-.22l1-1 .21.28-.87 1.48a.74.74 0 0 0 .27 1 .76.76 0 0 0 .38.11.75.75 0 0 0 .65-.37l.74-1.28a4.66 4.66 0 0 0 .5.25l-.2 1.49a.76.76 0 0 0 .65.84h.1a.75.75 0 0 0 .74-.66l.18-1.34h.32a5.63 5.63 0 0 0 1.05-.1l-.39 4c-4.87 50.78-11.41 118.75-37.46 129.68q5.46-3.33 10.32-10.57c15.38-22.81 22.32-69.29 21.92-98.55ZM409.8 92.94a25.57 25.57 0 0 0-5.84-.68c-27.64 0-64.41 43.1-70.37 98.67-.5 4.68-1 9.65-1.5 14.84a3.23 3.23 0 0 1-3.53-.88c-6.38-7.08 1.09-46.56 14-74.11 11.05-23.54 31.86-42 49.49-43.93 7.13-.78 13.21 1.33 17.75 6.09Zm-76.75 118.58c.69-7.25 1.35-14.1 2-20.43 2.69-25.07 12-49.5 26.33-68.77 13.26-17.88 29.16-28.56 42.55-28.56a23.45 23.45 0 0 1 7.79 1.29l1.31.45a24.62 24.62 0 0 0-6.39-.84c-14.63 0-31.58 12.25-45.35 32.78-15.27 22.75-24.85 52.64-27 84.18-4 59.37-14.92 130-43.9 132.08 30.5-5.7 37.5-78.47 42.66-132.18ZM412.7 94.07c-3-7.74-10.15-12.18-19.49-12.18-24.13 0-63.87 30.78-74.43 115.59-.9 7.21-1.77 14.52-2.63 21.8-6 50.76-12.2 103-30 118.08 15.08-17.86 22.05-72.84 28.85-126.25q.9-7 1.78-14c6.13-47.71 21.19-75.52 32.75-90.44 13.06-16.87 29.27-26.94 43.35-26.94 10.83 0 18.42 5.9 20.53 15.86h-.09Zm-95.06 125.39c.49-4.12 1-8.25 1.48-12.36.52 0 1.19.25 1.93 1.3a10.62 10.62 0 0 1 1.14 2.22.58.58 0 0 0 0 .14c3.08 8.21 3.51 28.49.9 50.9-3.4 29.32-10.69 54.08-20 67.95-5.9 8.8-12.47 13.07-19.57 12.72-.73-.1-1.46-.23-2.21-.39 22.85-8.68 29.41-64.01 36.33-122.48Zm24.84-150c6.23 5.33 12.72 10.89 19.33 16.73-.51.38-1 .78-1.55 1.19-6.46-5.69-12.8-11.1-18.88-16.29-27.62-23.48-49.44-42.09-55.3-63.55L286 6.25c7.09 21 29 39.75 56.48 63.25Zm16.6 18.88a79.014 79.014 0 0 0-4.4 3.88c-4.26-3.81-8.45-7.52-12.51-11.1-27-23.83-49-43.18-54.73-65.49 8.51 18.73 28.47 35.74 53 56.61 5.98 5.16 12.25 10.51 18.64 16.14Zm-17.9-6.09c4 3.56 8.19 7.23 12.42 11a98.81 98.81 0 0 0-8 8.86c-.45.56-.89 1.13-1.33 1.7-2.32-2.35-4.63-4.67-6.9-7-28-28.15-50.13-50.37-50.8-70.78a1 1 0 0 0-1-1 1 1 0 0 0-1 1c.7 21.19 23.06 43.66 51.38 72.12 2.34 2.34 4.72 4.73 7.11 7.15-.6.81-1.19 1.62-1.77 2.45l-7.16-7.24c-33.54-33.86-60.25-60.81-49.24-90 3.54 25.27 26.94 45.9 56.29 71.78Zm-8.11 19.45q3.65 3.67 7.36 7.45c-.62.92-1.24 1.85-1.84 2.8-3.24-3.41-6.43-6.75-9.53-10-32.52-33.95-56.89-59.4-47.43-85.38-5.55 27.64 19.97 53.43 51.44 85.17Zm-7.28.75c-19-20.35-35.44-37.93-43.56-54-7.76-15.34-7.29-27.89 1.68-40C265.78 38.09 292 65.42 328 103c3.19 3.32 6.46 6.75 9.78 10.25l-.76 1.25c-3.84-4.1-7.59-8.12-11.23-12.01Zm5.37 10.16c1.4 1.51 2.81 3 4.23 4.58q-1.84 3.19-3.59 6.6a21.71 21.71 0 0 0-.64-11.14Zm16.4-8.91c19.2-24 37.91-26.58 45.06-26.58 7.36 0 13.65 2.45 17.71 6.89a19.1 19.1 0 0 1 4.84 13.11l-.1-.6c-1.83-11.32-10.35-18.34-22.23-18.34-25.06 0-66.4 31.61-77.58 118.69-.6 4.65-1.19 9.33-1.79 14-7.63 60.31-15.53 122.65-34.57 130.19 17.34-11.78 24.25-65.76 31.54-122.72.89-7 1.78-14 2.7-20.88 5.26-39.75 17.16-72.17 34.42-93.72Zm-61.15 20-1.66.77 1.55 1c17.93 11.33 24.6 34.67 27.2 54.1-.43 2.25-.84 4.52-1.23 6.83-3.68-30.87-13.35-51.7-28.86-62.06a18.69 18.69 0 0 1 13.44-2.64c9 1.56 17.84 9.07 26.27 22.26l-.51 1.4c-19.09-29.08-35.45-21.94-36.2-21.59Zm35.37 24.06a236.6 236.6 0 0 0-7.12 26.1c-3.05-17.93-9.84-37.89-25.47-48.88 4.81-.8 17.81-.42 32.59 22.85Zm1.43-16.36a8 8 0 0 0 4.8-1.59 8.66 8.66 0 0 0 1.51-1.41c-1.22 2.59-2.39 5.27-3.51 8q-1.83-2.7-3.7-5.06c.3.11.6.13.9.13Zm-25.65-13c9.59 1.19 18.7 8.42 27.09 21.45-.3.78-.6 1.57-.89 2.37-8.49-13-17.43-20.38-26.65-22a19.56 19.56 0 0 0-15.51 3.59l-.78.66.86.54c16.58 10.47 26.53 33 29.69 67.11-.24 1.62-.47 3.25-.69 4.9-2.43-22.48-9.78-59.44-32-72.9 2.97-2.28 10.01-6.78 18.88-5.69Zm-26.81 168.32 4.42-2.58v-.49l-4.42-2.57 4.42-2.58v-98.1l-4.42-2.58 4.42-2.58v-.49l-4.42-2.57 4.42-2.58v-.49l-4.42-2.58 4.42-2.58v-38.31l.22.11c28.63 15.05 32.79 71.16 33.39 85.93-.27 2.13-.55 4.26-.82 6.39-7.25 56.63-14.74 115.17-32.79 122.21v-45.34l-4.42-2.58 4.42-2.58v-.48Zm30.73 286.92c-.58 26.75-13.44 36.28-25.29 36.28h-1v-12h.11a10.13 10.13 0 0 0 1.33.09c6 0 9.2-5.12 9.2-9.94a10.6 10.6 0 0 0-3.05-7.55 12.23 12.23 0 0 0-7.59-3.34v-12h.18c8.21-1 11.54-7 11.2-12.51a13.69 13.69 0 0 0-11.38-12.51V529c18.87 6.12 26.81 19.86 26.29 44.64Zm-26.31 21.18v-14.68a9.06 9.06 0 0 1 5.47 2.45 7.63 7.63 0 0 1 2.17 5.43c0 3.45-2.13 6.94-6.2 6.94a7.22 7.22 0 0 1-1.21-.1Zm0-32.66v-18.93a10.7 10.7 0 0 1 8.39 9.61c.23 3.76-1.84 8.42-8.39 9.32Zm0-36.27V524l-4.42-2.58 4.42-2.58v-.48l-4.42-2.58 4.42-2.58v-.49l-4.42-2.58 4.42-2.57v-98.1l-4.42-2.58 4.42-2.58v-.49l-4.42-2.58 4.42-2.57v-.49l-4.42-2.58 4.42-2.58v-50c5.39 3.27 10.58 4.94 15.45 4.94a21.23 21.23 0 0 0 8.21-1.65c3.47-.61 5.91-.32 7.21.88 1 .92 1.39 2.46 1.17 4.58h.12a8.61 8.61 0 0 0 0 5.87c1 2.65 3.64 4.5 7 5.11A78.52 78.52 0 0 0 298 381.61c-24.4 38.39-24.27 75.61-13.34 95.49 4.69 8.54 11.38 13.43 18.35 13.44 5 0 9.95-2.48 14.41-7.16l.42-.45v-.61c-.37-27.56 8.9-53.64 24.8-69.75 13.06-13.25 29.93-19.12 48.18-16.74l.79.1.52-.59c5.76-6.49 7-14.38 3.45-22.24a29.32 29.32 0 0 0-1.88-3.48q15.56-44 21.5-79.33c2.12-4.36 4.52-6.82 6.51-6.57 1.42.18 4.68 2.15 7 15.4a241 241 0 0 1 .66 26.51c-1.49 52-8.48 96.38-20.77 132-10 29-23.52 52.32-40.22 69.41-5.1 5.22-31.94 31-64.78 31.62-2.84-17.26-11.97-27.74-28.43-32.77Zm188.27-87.25c-9.85 32.93-28.25 79.12-60 112.14-24.44 25.45-52.44 38.36-83.25 38.37a115.84 115.84 0 0 1-17.33-1.37c.2-.89.39-1.83.56-2.78a105.55 105.55 0 0 0 17.38 1.5c28.59 0 54.95-12.35 78.35-36.68 17.27-18 41.63-51.81 59.62-111 12.4-40.87 18.72-84.85 17.32-120.64C472.06 215 428.57 153.43 384 109.44c.52-.41 1-.81 1.56-1.19 45.85 45.08 90.75 107.63 94.76 210.48 1.4 35.65-4.75 79.35-16.88 119.91Zm-80.85-157.09a5.36 5.36 0 0 0 .7.05c4.66 0 9.31-7.24 10.82-16.85a31.85 31.85 0 0 0-.42-13c-1.07-3.81-3-6.12-5.4-6.5-4.88-.77-9.94 6.71-11.52 16.79s.96 18.75 5.82 19.51Zm-4.44-19.3c1.36-8.64 5.59-15.67 9.44-15.67a3.88 3.88 0 0 1 .48 0c1.82.29 3.37 2.29 4.27 5.5a30.19 30.19 0 0 1 .38 12.41c-1.41 9-5.92 16.27-9.91 15.63s-6.08-8.78-4.66-17.87Zm-10.61 25.63c2.45 7.92 6.69 12.74 11.93 13.56a10.54 10.54 0 0 0 1.59.12c10.26 0 20.38-15.12 23.52-35.17 3.35-21.33-2.44-39.36-13.18-41a9.27 9.27 0 0 0-1.58-.13c-10.27 0-20.38 15.12-23.52 35.17-1.58 10.01-1.14 19.77 1.24 27.45Zm.73-27.18c3-18.77 12.41-33.48 21.55-33.48a8.82 8.82 0 0 1 1.27.1c9.47 1.49 14.63 18.87 11.51 38.76-2.94 18.78-12.4 33.48-21.54 33.48a7.8 7.8 0 0 1-1.28-.1c-4.45-.69-8.12-5-10.33-12.17-2.29-7.39-2.71-16.84-1.18-26.59Zm-273-15.46c-2.41.38-4.33 2.69-5.4 6.5a31.5 31.5 0 0 0-.42 13c1.51 9.61 6.16 16.85 10.82 16.85a5.34 5.34 0 0 0 .69-.05c4.87-.76 7.42-9.34 5.83-19.52s-6.67-17.55-11.55-16.78Zm5.48 34.92c-4 .64-8.51-6.63-9.92-15.63a30.17 30.17 0 0 1 .39-12.41c.9-3.21 2.45-5.21 4.27-5.5a3.88 3.88 0 0 1 .48 0c3.84 0 8.08 7 9.43 15.67 1.4 9.05-.73 17.26-4.68 17.87Zm-7-54.94a9.39 9.39 0 0 0-1.59.13C81.39 227 75.6 245.06 79 266.39c3.14 20.05 13.25 35.17 23.52 35.17a10.41 10.41 0 0 0 1.58-.12c5.25-.82 9.49-5.64 11.94-13.56 2.37-7.68 2.82-17.44 1.24-27.49-3.19-20.05-13.28-35.17-23.57-35.17Zm20.37 62.07c-2.21 7.15-5.88 11.48-10.34 12.17a7.59 7.59 0 0 1-1.27.1c-9.14 0-18.6-14.7-21.55-33.48-3.12-19.89 2-37.27 11.51-38.76a9.08 9.08 0 0 1 1.28-.1c9.14 0 18.6 14.71 21.54 33.48 1.49 9.75 1.08 19.2-1.21 26.59Zm94.28-164.07c-1.28-1.23-10.21-9.29-22.72-7.77-8.07 1-15.73 5.73-22.88 14.1a6.69 6.69 0 0 1-6.36-.87c-3.26-2.42-5.38-8.7-1.53-18.72l5.06-5.42C179.1 84 195.66 66.3 204 49.85c9.24-18.28 7.37-33.49-5.9-47.86l-1.84-2-.71 2.62C189.76 23.89 167.4 43 139.1 67.22c-6.41 5.48-13.09 11.2-19.9 17.22-12.53-8.53-23.2-9.78-28.29-9.78-8.07 0-15 2.74-19.56 7.7-4.15 4.54-6 10.58-5.4 17.48l.14 1.59 1.52-.52a23.56 23.56 0 0 1 7.8-1.3c6.43 0 13.28 2.42 20 6.88C49.33 151.91 4.24 214.94.2 318.62c-1.41 36 4.79 80 17 120.88 10 33.25 28.55 79.91 60.71 113.36 25.07 26.06 53.8 39.28 85.41 39.29a119.69 119.69 0 0 0 18.11-1.44c4.74 16.07 15.64 22.21 25.88 22.21h1v17.47h14.17v-165.5l-4.09-2.38 4.09-2.39v-.87l-4.09-2.39 4.09-2.38v-.87l-4.09-2.39 4.09-2.38v-98.49l-4.04-2.35 4.09-2.38v-.88l-4.09-2.38 4.09-2.38v-.88l-4.09-2.38 4.09-2.39V235.8l-4.09-2.38 4.09-2.38v-.88l-4.09-2.38 4.09-2.39v-.87l-4.09-2.39 4.09-2.38v-98.49l-4.09-2.38 4.09-2.39v-.87l-4.09-2.39 4.09-2.38V110l-4.09-2.38 4.09-2.39V66.34l-14.17 16Zm-22.4-4.79c8.87-1.09 15.91 3.41 18.88 5.74-22.23 13.46-29.57 50.42-32 72.9-.22-1.65-.45-3.28-.69-4.9 3.16-34.09 13.11-56.64 29.68-67.11l.87-.54-.78-.66a19.56 19.56 0 0 0-15.51-3.59c-9.22 1.6-18.16 9-26.65 22-.3-.8-.59-1.59-.89-2.37 8.36-13.05 17.46-20.28 27.09-21.47Zm11.26 7.09 1.54-1-1.65-.77c-.75-.35-17.12-7.49-36.21 21.64-.16-.47-.33-.94-.5-1.4 8.43-13.19 17.25-20.7 26.27-22.26a18.69 18.69 0 0 1 13.44 2.64c-15.51 10.36-25.18 31.19-28.86 62.06-.39-2.31-.8-4.58-1.24-6.83 2.58-19.41 9.25-42.75 27.18-54.08Zm-28.37 48.41a236.6 236.6 0 0 0-7.12-26.1c14.79-23.27 27.83-23.65 32.6-22.78-15.66 10.95-22.46 30.95-25.51 48.88Zm-13.35-44.05a8 8 0 0 0 4.81 1.59c.3 0 .6 0 .9-.05q-1.87 2.36-3.7 5.06c-1.12-2.74-2.29-5.42-3.51-8a8.61 8.61 0 0 0 1.47 1.4ZM201.3 48.5c-8.12 16.06-24.54 33.64-43.56 54-3.64 3.89-7.39 7.91-11.2 12.05l-.76-1.25c3.32-3.5 6.59-6.93 9.77-10.25 36-37.62 62.2-64.95 44.07-94.52 8.97 12.08 9.44 24.63 1.68 39.97Zm-49.57 75.33q-1.74-3.4-3.59-6.6c1.42-1.55 2.83-3.07 4.23-4.58-1.31 4.56-1.37 8.28-.64 11.18ZM201.9 16.62c9.45 26-14.92 51.43-47.43 85.38-3.1 3.24-6.29 6.58-9.53 10a113 113 0 0 0-1.85-2.8l7.36-7.45c31.48-31.75 57-57.54 51.45-85.13Zm-3.28-6c11 29.22-15.69 56.17-49.23 90l-7.16 7.24c-.59-.83-1.18-1.64-1.77-2.45 2.39-2.42 4.77-4.81 7.1-7.15 28.32-28.46 50.69-50.93 51.38-72.12a1 1 0 0 0-1-1 1 1 0 0 0-1 1c-.67 20.41-22.79 42.63-50.8 70.78l-6.91 7c-.43-.57-.87-1.14-1.32-1.7a100.35 100.35 0 0 0-8-8.86c4.22-3.79 8.38-7.46 12.42-11 29.36-25.95 52.77-46.58 56.29-71.7Zm-69.77 81.6a79.014 79.014 0 0 0-4.4-3.88c6.39-5.63 12.66-11 18.68-16.1 24.49-20.87 44.45-37.88 53-56.61-5.76 22.31-27.7 41.66-54.73 65.49-4.11 3.62-8.29 7.33-12.55 11.14Zm12.2-22.76c27.46-23.46 49.39-42.21 56.5-63.21l-.1 1.29c-5.86 21.48-27.68 40.07-55.3 63.59-6.08 5.19-12.42 10.6-18.89 16.29-.52-.41-1-.81-1.55-1.19 6.62-5.84 13.11-11.4 19.34-16.73ZM73.2 84.05c4.06-4.44 10.35-6.89 17.71-6.89 7.15 0 25.86 2.59 45.06 26.58 17.25 21.55 29.16 54 34.42 93.77.91 6.92 1.81 13.91 2.7 20.88 7.29 57 14.19 110.94 31.53 122.72-19-7.54-26.93-69.88-34.57-130.19-.59-4.68-1.18-9.36-1.78-14-11.18-87.09-52.52-118.7-77.58-118.7-11.88 0-20.4 7-22.24 18.34l-.09.6a19.1 19.1 0 0 1 4.84-13.11Zm88.37 122.69.18.18a5.31 5.31 0 0 0-.45.55l-.77-.49a.75.75 0 0 0-1 .23.76.76 0 0 0 .23 1l.81.51c-.1.2-.2.41-.29.63l-.91-.45a.75.75 0 0 0-1 .34.74.74 0 0 0 .33 1l1 .52-.18.58-1.32-.25a.75.75 0 1 0-.28 1.47l1.2.23c-.09.34-.17.69-.25 1l-1.1-.14a.75.75 0 0 0-.83.66.74.74 0 0 0 .65.83l1 .12c-.08.41-.15.83-.22 1.26l-1-.12a.76.76 0 0 0-.83.65.74.74 0 0 0 .65.84l.92.12-.09.7h-1.24a.75.75 0 0 0 0 1.5h1.06l-.06.59-1.13.1a.75.75 0 0 0 .07 1.5h.07l.85-.07c0 .32-.06.65-.08 1l-1 .1a.75.75 0 0 0 .07 1.5h.08l.73-.07c0 .26 0 .52-.05.79h-.79a.74.74 0 0 0-.71.79.75.75 0 0 0 .74.71h.64v.49l-1.06.05a.74.74 0 0 0-.72.78.76.76 0 0 0 .75.72h1v1.16h-.83a.75.75 0 0 0 0 1.5h.8c-.4 29.26 6.54 75.74 21.87 98.62q4.86 7.25 10.32 10.57c-26.05-10.93-32.58-78.9-37.45-129.68-.14-1.36-.26-2.69-.39-4a5.61 5.61 0 0 0 1 .1h.33l.18 1.34a.75.75 0 0 0 .74.66h.1a.76.76 0 0 0 .65-.84l-.2-1.49a3.75 3.75 0 0 0 .49-.25l.75 1.28a.75.75 0 0 0 .65.37.76.76 0 0 0 .38-.11.74.74 0 0 0 .27-1l-.87-1.48c.07-.09.13-.19.21-.28l1 1a.74.74 0 0 0 .53.22.73.73 0 0 0 .53-.22.74.74 0 0 0 0-1.06l-1.29-1.29a10 10 0 0 0 .39-.93l1.47.95a.72.72 0 0 0 .4.12.76.76 0 0 0 .41-1.39l-1.68-1.19c.08-.3.16-.62.22-1l1.77.63a.77.77 0 0 0 .25 0 .75.75 0 0 0 .71-.5.73.73 0 0 0-.45-1l-2-.73c0-.21.05-.42.07-.64l2 .29h.1a.75.75 0 0 0 .11-1.49l-2.12-.3c0-.39.05-.77.07-1.17l1.84.25h.1a.75.75 0 0 0 .1-1.49l-2-.27v-.69l1.8-.13a.75.75 0 0 0 .7-.81.78.78 0 0 0-.81-.69l-1.71.13c0-.4 0-.81-.05-1.22 1-.14 1.57-.28 1.6-.28a.75.75 0 1 0-.32-1.47s-.54.12-1.36.25c-1.12-16.54-7.92-41.54-16.31-59.4-11.26-24-32.58-42.81-50.69-44.79a22.21 22.21 0 0 0-16.27 4.13c3.45-3.92 8.65-6.09 15-6.09 23.6 0 62.5 30.43 72.94 114.27.33 2.64.65 5.3 1 8a3.21 3.21 0 0 0-1.3.37l-.3-.3a.74.74 0 0 0-1.06 0 .75.75 0 0 0-.06 1.01Zm-10.13-1c-.51-5.19-1-10.16-1.5-14.84-6-55.57-42.73-98.67-70.38-98.67a25.55 25.55 0 0 0-5.83.68c4.54-4.76 10.62-6.87 17.73-6.09 17.63 1.91 38.44 20.39 49.49 43.93 12.93 27.55 20.4 67 14 74.11a3.24 3.24 0 0 1-3.51.91ZM90.32 81.89c-9.35 0-16.45 4.44-19.49 12.18l-.59 1.49h-.08c2.11-10 9.7-15.86 20.53-15.86 14.08 0 30.29 10.07 43.35 26.94 11.55 14.92 26.62 42.73 32.74 90.44q.9 7 1.78 14c6.77 53.41 13.73 108.39 28.83 126.25-17.81-15-24-67.32-30-118.08-.87-7.28-1.73-14.59-2.63-21.8-10.58-84.78-50.31-115.56-74.44-115.56ZM71.77 95.05a23.53 23.53 0 0 1 7.79-1.29c13.39 0 29.3 10.68 42.56 28.56 14.29 19.27 23.64 43.7 26.33 68.77.68 6.33 1.34 13.18 2 20.43 5.16 53.71 12.16 126.47 42.61 132.18-29-2.12-39.88-72.71-43.9-132.08-2.13-31.54-11.72-61.43-27-84.18-13.77-20.53-30.72-32.78-45.35-32.78a24.62 24.62 0 0 0-6.39.84Zm108.59 234.6c-9.29-13.87-16.58-38.63-20-67.95-2.6-22.41-2.17-42.69.9-50.9a.33.33 0 0 0 0-.14 10.17 10.17 0 0 1 1.14-2.22c.74-1.05 1.41-1.3 1.93-1.3.5 4.11 1 8.24 1.48 12.36 6.92 58.47 13.48 113.8 36.25 122.52q-1.12.24-2.22.39c-7.02.31-13.58-3.96-19.48-12.76ZM75.41 97.11a26.26 26.26 0 0 0-7.06 1v-.3l1.09-.38a22.55 22.55 0 0 1 7.42-1.22c14.13 0 30.61 12 44.11 32.11 15.11 22.54 24.61 52.17 26.73 83.46 6 88.6 21.73 133.52 46.74 133.52a21.21 21.21 0 0 0 2.37-.14 20.33 20.33 0 0 1-3.9.4c-24 0-40.32-46.12-46-129.87-4.78-70.95-40.83-118.58-71.5-118.58ZM51.2 325.72c1.5 52.26 8.55 97 20.93 132.9C82.27 488 96 511.75 113 529.16c27.88 28.53 56.27 32.2 66.52 32.52-.07.6-.14 1.19-.2 1.8h-1c-8.7 0-39.37-2.37-68.83-32.87C92.65 513.14 79 489.32 69 459.8c-12.26-36.12-19.17-81.08-20.55-133.64C46.24 241.89 84.21 183 123 138.22c.33.57.64 1.16 1 1.74-38.23 45.38-75.15 104.28-72.8 185.76Zm-4.26.47c1.38 52.72 8.32 97.83 20.63 134.09C77.66 490 91.41 514 108.45 531.66c29.87 30.92 61.06 33.34 69.91 33.34h.89c-.07 1-.13 2-.16 3-14.68-.08-133.46-8.05-138-243.62v-4.83C41 272.6 52.73 230.17 77 189.94c12.91-21.41 28-39.94 43.14-56.64.73 1.16 1.43 2.34 2.13 3.54-39.15 45.05-77.55 104.3-75.33 189.35Zm132.11 247.52c0 .58 0 1.15.06 1.72-53.29 4.77-89.61-34.07-110.73-67.62C49.93 478.5 35.23 440.3 28.05 403c-6.54-34-5.93-62.76 1.6-75.14 2.6-4.27 5.94-6.44 9.93-6.46v3c4.55 236.78 124.43 245 139.44 245.09-.02 1.35-.02 2.76.03 4.22ZM75.69 189.17c-24.37 40.43-36.2 83.07-36.13 130.22a14.26 14.26 0 0 0-1.74.11v-1.2a.75.75 0 0 0-1.5 0v1.52c-.36.1-.72.21-1.07.34l-.35-1a.75.75 0 0 0-1.41.51l.4 1.12a11.72 11.72 0 0 0-1.3.81l-.46-1a.77.77 0 0 0-1-.37.76.76 0 0 0-.37 1l.62 1.33c-.28.25-.55.51-.82.78l-.71-.7a.74.74 0 0 0-1.06 0 .75.75 0 0 0 0 1.06l.78.78c-.3.37-.6.76-.88 1.17L28 325a.75.75 0 1 0-1 1.11l.92.83c-.3.51-.59 1.06-.88 1.62l-.56-.47a.75.75 0 0 0-1 1.17l.85.69c-.18.41-.35.83-.52 1.26l-1-.56a.75.75 0 1 0-.75 1.3l1.19.68c-.15.45-.31.9-.45 1.37l-1-.3a.75.75 0 0 0-.42 1.45l1 .29c-.17.62-.34 1.27-.5 1.92l-1.05-.36a.75.75 0 0 0-.52 1.41l1.24.46c-.12.52-.22 1.05-.32 1.58l-1.49-.35a.75.75 0 0 0-.9.56.74.74 0 0 0 .56.9l1.56.37c-.11.65-.21 1.3-.31 2l-.79-.19a.75.75 0 0 0-.33 1.47l.91.21c-.06.47-.11.95-.16 1.43h-1.09a.75.75 0 1 0 0 1.5h.93c-.06.66-.12 1.32-.17 2h-1.38a.75.75 0 1 0 0 1.5h1.27c-.07 1.05-.12 2.12-.16 3.21l-1.44-.08a.75.75 0 0 0-.09 1.49l1.48.09c-.37 13.33 1.1 29.44 4.46 46.86 7.22 37.54 22 76 40.6 105.51 35 55.6 74.21 69 103.77 69 3 0 5.95-.15 8.76-.4 0 .22 0 .45.05.67a102.3 102.3 0 0 1-14.28 1c-27.7 0-53.2-11.91-75.78-35.39-51.1-53.13-76-154-73.82-222.87a24.54 24.54 0 0 0 2.75-.72l.84 2.62a.75.75 0 0 0 .71.52.59.59 0 0 0 .23 0 .74.74 0 0 0 .49-.94l-.86-2.67 1.09-.45.85 2.24a.76.76 0 0 0 .7.49.86.86 0 0 0 .27-.05.76.76 0 0 0 .44-1l-.9-2.44c.3-.15.59-.32.89-.49l1.11 2.11a.74.74 0 0 0 .66.39.8.8 0 0 0 .36-.09.75.75 0 0 0 .29-1l-1.2-2.19.74-.5 1.19 1.73a.75.75 0 1 0 1.23-.85l-1.23-1.8c.35-.28.69-.57 1-.88l1.38 1.59a.75.75 0 1 0 1.14-1l-1.43-1.65c.31-.31.62-.64.93-1l1.4 1.4a.75.75 0 0 0 1.06 0 .75.75 0 0 0 0-1.06l-1.49-1.49c.25-.3.49-.62.73-.94l1.49 1.28a.75.75 0 0 0 1-1.14l-1.6-1.37c.3-.45.59-.91.88-1.39l1.81 1.2a.74.74 0 0 0 .42.13.75.75 0 0 0 .42-1.37l-1.9-1.27c.22-.41.44-.83.65-1.26l1.76.83a.71.71 0 0 0 .32.07.75.75 0 0 0 .32-1.43l-1.75-.82c.13-.31.27-.62.41-.94l1.58.74a.71.71 0 0 0 .31.08.75.75 0 0 0 .32-1.43l-1.6-.73c.18-.47.36-1 .53-1.45l1.54.61a.66.66 0 0 0 .27.06.75.75 0 0 0 .7-.48.74.74 0 0 0-.42-1l-1.62-.65c.15-.51.31-1 .45-1.55l1.49.59a.71.71 0 0 0 .28.06.75.75 0 0 0 .28-1.45l-1.67-.67c.1-.42.21-.85.31-1.29l1.71.27h.12a.75.75 0 0 0 .74-.63.74.74 0 0 0-.62-.86l-1.64-.26a75.68 75.68 0 0 0 1.14-8.21c3.24-37.8 16.47-73.38 40.44-108.76a404.51 404.51 0 0 1 37.91-47c.24.34.47.68.7 1 .36.53.69 1.09 1 1.63-15.3 16.86-30.5 35.56-43.55 57.21Zm2.29-14c-24.17 35.71-37.51 71.6-40.78 109.75-2.22 25.86-14.65 32.33-21.74 33.9 4-100.54 47.5-160.39 90.8-203.34a96.11 96.11 0 0 1 10.12 12.15A406.92 406.92 0 0 0 78 175.21ZM14.06 316.68l-.05.56s-.15 3.52-.15 6a3.49 3.49 0 0 1 0 .5c-1.45 69.07 23.64 168.35 74.31 221 22.83 23.84 48.69 35.9 76.83 35.9a103.91 103.91 0 0 0 14.4-1c.11 1.16.25 2.28.41 3.38v.57a102.61 102.61 0 0 1-17.06 1.41c-28.17 0-54.16-12.19-77.27-36.22-17.17-17.84-41.38-51.49-59.27-110.43C13.85 397.63 7.55 353.84 8.94 318.2c4-102.67 47.36-164 91.76-207.81 1.51 1.24 3 2.59 4.49 4C62 157.25 18.62 216.85 14.06 316.68Zm139.92 28c-13.28-20.13-24.73-51-26-98.08a380.12 380.12 0 0 1 7-80.7 206.27 206.27 0 0 1 9.44 49.95c2.92 43.19 9.77 92.31 25.41 116.72a6.55 6.55 0 0 1-.8 5.86 3.66 3.66 0 0 1-3.93 1.08 9.33 9.33 0 0 0-10 .72 9.76 9.76 0 0 0-2.33 2.53Zm-28.49-98c1.26 47 13 84.47 34 109.61-1.6-.88-3.24-1.68-4.9-2.39-14.19-17.91-24.53-45.42-29.11-78.34-5.12-36.87-2.68-77.79 6.77-117.48.4 1 .77 2.08 1.14 3.13-4.57 22.02-8.78 52.94-7.9 85.42Zm33.49 105c.48-1.05 1.27-2.3 2.31-2.56.88-.23 2 .29 3.19 1.55 1.64 1.68 2.32 3.11 1.91 4s-1.77 1.51-3.52 1.71q-1.95-2.25-3.87-4.75Zm-35-75.91c4.44 32 14.31 58.9 27.87 77-1.15-.42-2.31-.81-3.49-1.16-13.25-17.91-22.88-44.49-27.17-76.08-5.26-38.72-2.19-82 8.55-123.62.52 1.22 1 2.46 1.53 3.71-9.9 40.5-12.52 82.38-7.27 120.1ZM146.05 351a56.5 56.5 0 0 0-13.85-1.71 57.94 57.94 0 0 0-26.13 6.25c-8.22-18.25-10.09-31.94-5.51-40.67 4.49-8.56 14.59-11.55 24.11-13.25 4.99 19.69 12.33 36.54 21.38 49.38Zm-26.34-75.24a235.47 235.47 0 0 0 4.49 23.91c-1.51.27-3 .57-4.53.92l-.76-2.28a.75.75 0 0 0-1.43.48l.73 2.16c-.74.19-1.47.39-2.2.61l-.42-1.69a.75.75 0 0 0-.91-.55.76.76 0 0 0-.55.91l.45 1.78c-.61.2-1.22.41-1.82.64l-.88-1.92a.76.76 0 0 0-1-.36.75.75 0 0 0-.37 1l.85 1.84c-.73.31-1.44.64-2.14 1l-.68-1.46a.75.75 0 0 0-1.36.63l.71 1.54q-.81.45-1.59 1l-1.15-1.73a.75.75 0 0 0-1.25.83l1.17 1.75c-.49.36-1 .74-1.42 1.13l-1.48-1.21a.75.75 0 0 0-1 1.17l1.33 1.08c-.48.47-.93 1-1.37 1.49l-1.6-1a.75.75 0 1 0-.77 1.28l1.46.88c-.37.51-.71 1.05-1 1.61l-1.06-.48a.75.75 0 0 0-.62 1.36l1 .45c-.25.51-.49 1-.7 1.58l-1.9-.59a.75.75 0 0 0-.45 1.43l1.85.58c-.22.68-.41 1.38-.57 2.11l-2.23-.47a.75.75 0 1 0-.31 1.47l2.27.47a31 31 0 0 0-.28 2.21h-2a.75.75 0 0 0 0 1.5h1.88v1.84l-2 .34a.75.75 0 0 0-.62.86.76.76 0 0 0 .74.63h.13l1.81-.31c0 .46 0 .91.08 1.37l-1.2.3a.75.75 0 0 0 .18 1.48h.19l1-.25c.09.73.19 1.48.31 2.24l-1.44.58a.75.75 0 0 0 .28 1.45 1 1 0 0 0 .28-.05l1.14-.46a98.85 98.85 0 0 0 7.35 21.71 37.69 37.69 0 0 0-3.22 2c-23.23-48-28.29-122.42-23.69-135l2.4.09-.49 1.85a.75.75 0 0 0 .54.91.58.58 0 0 0 .19 0 .74.74 0 0 0 .72-.56l.58-2.21h1.45V225a.75.75 0 0 0 1.5 0v-1.62c.62 0 1.23-.09 1.83-.15V225a.75.75 0 0 0 1.5 0v-1.94c.76-.1 1.5-.22 2.22-.35l.14 1.69a.74.74 0 0 0 .74.69h.06a.75.75 0 0 0 .69-.8l-.13-1.88q.82-.19 1.62-.42l.19 1.29a.74.74 0 0 0 .74.65H94a.75.75 0 0 0 .63-.85l-.21-1.51c.69-.23 1.36-.47 2-.73l.39 1.84a.76.76 0 0 0 .74.59h.15a.74.74 0 0 0 .58-.89l-.46-2.14 1-.5.49 1.38a.75.75 0 0 0 .71.5.73.73 0 0 0 .25 0 .75.75 0 0 0 .45-1l-.57-1.59c.47-.27.91-.56 1.35-.86l.88 1.43a.75.75 0 0 0 .64.36.71.71 0 0 0 .39-.12.75.75 0 0 0 .25-1l-.93-1.5c.45-.34.9-.69 1.32-1.05l1.14 2.13a.76.76 0 0 0 .66.4.73.73 0 0 0 .35-.09.74.74 0 0 0 .31-1l-1.3-2.44c.29-.27.56-.55.84-.83l1.19 1.71a.73.73 0 0 0 .61.33.76.76 0 0 0 .43-.14.75.75 0 0 0 .19-1l-1.38-2c8.8-10 11.1-25.82 13.33-41.36 1.45-10 2.85-19.6 5.86-27.5.86 1.72 1.69 3.49 2.49 5.28-11.17 42.29-14.41 86.46-9.06 125.94Zm-43.88-52.48c-5 15.44 1.81 90.25 24 136-1.07.77-2.1 1.58-3.07 2.42C75.3 318.36 68.11 251.48 72.36 227c.55-1.3 1.09-2.6 1.66-3.89.61.05 1.22.12 1.81.17Zm-.75-2.61C87.93 192 105.3 167.26 123.2 145.6c-2.63 7.86-4 17-5.24 25.94C114.3 197 110.84 221 81 221c-1.86 0-3.86-.13-5.92-.33ZM64.72 248a231.94 231.94 0 0 0 2.94 38.1c-1.94-2.78-4-4.16-6-3.9-2.26.29-4.18 2.55-5.74 6.7a232.17 232.17 0 0 1 8.8-40.9Zm2.81-8.48q1.29-3.63 2.67-7.2c-2.5 28.36 5.17 89.82 25.4 130.4a36.17 36.17 0 0 0-4 4.35c-18.19-51.86-26.25-94.63-24.07-127.52Zm64.67 112.7c20.12 0 38.17 11 50.84 31 23.7 37.34 23.7 73.34 13.2 92.44-4.15 7.55-9.88 11.88-15.72 11.89-4 0-8-2-11.82-5.8.24-28.12-9.34-54.73-25.67-71.28-13.54-13.72-31-19.94-49.89-17.71-5.73-6.91-4.52-13.8-2.44-18.42 5.65-12.6 23.5-22.09 41.5-22.09Zm36 9.72-.93-.92 1 1Zm-.93-.92c-.93-.94-1.86-1.93-2.79-2.95a5.24 5.24 0 0 0 3.78-2.64c.78-1.77 0-3.87-2.31-6.23-1.77-1.81-3.49-2.52-5.12-2.1a5.4 5.4 0 0 0-3.14 2.72c-1.24-1.66-2.46-3.38-3.67-5.21a7.5 7.5 0 0 1 2.3-2.85c1.64-1.23 6.16-3.43 12.59 2.85 4.81 4.7 6.77 9.09 5.5 12.34-.97 2.42-3.7 3.97-7.18 4.1Zm7.33-12.65a28.19 28.19 0 0 0-4.29-5.19 24.63 24.63 0 0 0-2.14-1.87 5.29 5.29 0 0 0 2.44-1.67 7.19 7.19 0 0 0 1.52-3.88 35.66 35.66 0 0 0 8.44 8.32 7.16 7.16 0 0 0-4.4 1.66 5.53 5.53 0 0 0-1.61 2.66Zm-11.25 240.78c-30.76 0-58.77-12.92-83.24-38.37-31.75-33-50.16-79.21-60-112.14C8 398.08 1.8 354.38 3.19 318.73c4-102.85 48.92-165.4 94.77-210.48.52.38 1 .78 1.56 1.19C55 153.43 11.47 215 7.45 318.15c-1.4 35.79 4.91 79.77 17.32 120.64 18 59.22 42.35 93.07 59.62 111 23.4 24.33 49.76 36.67 78.35 36.68a105.64 105.64 0 0 0 17.38-1.5c.17 1 .35 1.89.56 2.78a115.87 115.87 0 0 1-17.33 1.4Zm45 5.67h-.23a7.34 7.34 0 0 1-1.22.1c-4.07 0-6.2-3.49-6.2-6.94a7.64 7.64 0 0 1 2.18-5.43 9.06 9.06 0 0 1 5.47-2.45Zm0-32.66c-6.55-.9-8.62-5.56-8.39-9.32a10.69 10.69 0 0 1 8.39-9.61Zm0-22A13.69 13.69 0 0 0 197 552.65c-.34 5.5 3 11.5 11.19 12.51h.19v12a12.28 12.28 0 0 0-7.6 3.34 10.64 10.64 0 0 0-3 7.55c0 4.82 3.23 9.94 9.2 9.94a10.17 10.17 0 0 0 1.34-.09h.11v12h-1c-11.85 0-24.72-9.53-25.29-36.28-.54-24.78 7.42-38.52 26.31-44.6Zm4.42-138.88-4.42 2.58v.49l4.42 2.58-4.42 2.58v98.1l4.42 2.57-4.42 2.58v.49l4.42 2.58-4.42 2.58v.48l4.42 2.58-4.41 2.53v1.86c-16.46 5-25.6 15.51-28.4 32.79-32.83-.63-59.67-26.4-64.77-31.62C98.49 510 85 486.62 75 457.65c-12.29-35.64-19.28-80.06-20.78-132a246.05 246.05 0 0 1 .66-26.51c2.3-13.25 5.55-15.22 7-15.4 2-.25 4.39 2.21 6.5 6.57q5.94 35.26 21.51 79.33A27.94 27.94 0 0 0 88 373.1c-3.53 7.86-2.31 15.75 3.45 22.24l.52.59.79-.1c18.25-2.38 35.11 3.49 48.18 16.74 15.9 16.11 25.17 42.19 24.79 69.75v.61l.42.45c4.45 4.68 9.44 7.16 14.41 7.16 7 0 13.66-4.9 18.35-13.44 10.93-19.88 11.06-57.12-13.29-95.49a78.52 78.52 0 0 0-16.36-18.79c3.37-.61 6-2.46 7-5.11a8.67 8.67 0 0 0 0-5.87h.11c-.21-2.12.18-3.66 1.18-4.58 1.3-1.2 3.73-1.49 7.21-.88a21.23 21.23 0 0 0 8.21 1.65c4.87 0 10.06-1.67 15.45-4.94v50l4.42 2.58-4.42 2.58v.49Zm0-229.08-4.42 2.57v.49l4.42 2.58-4.42 2.58v98.1l4.42 2.58-4.42 2.57v.49l4.42 2.58-4.42 2.58v.48l4.42 2.58-4.42 2.58v45.34c-18.06-7-25.55-65.58-32.79-122.21-.27-2.13-.55-4.26-.82-6.39.6-14.77 4.75-70.88 33.39-85.93l.22-.11V164l4.42 2.58-4.42 2.58v.49Z" data-name="Layer 1" style="fill:#231f20"/></g></svg>