<svg xmlns="http://www.w3.org/2000/svg" xmlns:xlink="http://www.w3.org/1999/xlink" xml:space="preserve" style="enable-background:new 0 0 566.93 566.93" viewBox="0 0 566.93 566.93"><style>.st1{fill:#fff}.st12{fill:none}.st14{fill:#646a6f}.st16,.st33{fill:none;stroke:#000;stroke-miterlimit:10}.st16{stroke-width:3;stroke-linecap:round}.st33{stroke-width:4.783}</style><switch><g><g id="Layer_2"><defs><path id="SVGID_21_" d="M524.55 302.15c0 133.68-108.37 242.06-242.06 242.06S40.43 435.83 40.43 302.15c0-115.65 81.11-212.36 189.55-236.35 10.38-2.3-15.54-43.31-4.16-68.46 7.15-15.79 51.57-20.48 58.53-20.48 6.16 0 50.87 2.36 56.58 17.56 9.43 25.1-20.36 68.45-10.76 70.37 110.85 22.15 194.38 120 194.38 237.36z"/></defs><clipPath id="SVGID_2_"><use xlink:href="#SVGID_21_" style="overflow:visible"/></clipPath><g style="clip-path:url(#SVGID_2_)"><circle cx="282.49" cy="302.15" r="242.06" style="fill:#00a79d"/><path d="m392.05 311.83-24.27-20.57-46.17-4.22-8.58-16.42-.79-32.06 7.97-19.1 13.07-26.4-3.84-9.39 3.34-16.27 3.59-19.75-4.49-19.75-8.98-19.75-19.75-10.77-45.77-5.39-29.62 46.67.75 44.99 1.95 18.73 18.24 40.72 5.99 40.05-51.16 26.93-53.93 49.59-12.08 22.75c24.93 25.44 55.74 46.46 90.68 57.29 7.66 2.37 15.53 27.32 23.57 28.65 9.16 1.52 18.53-20.74 28.13-20.74 56.87 0 109.94-28.19 146.61-66.05l-34.46-69.74z" class="st1"/><path d="m305.96 415.75 19.31-57.94 17 38.85 75.48-39.67-26.13-53.08-75.95 58.8-152.7-56.35L145 361.08l160.87 54.71z" style="fill:#b11116"/><path d="m272.24 88.61-17.43-9.2s-17.12-49.3-19.01-54.75c-1.89-5.44-2.83-15.03 8.38-18.92 12.47-4.33 17.95 11.31 17.95 11.31l18.38 52.93-8.27 18.63z"/><path d="M273.12 91.16 253.31 80.7l-19.25-55.43c-5.16-14.87 5.98-20.03 9.52-21.26 11.23-3.9 18.18 6.43 20.28 12.43l18.62 53.62-9.36 21.1zm-16.81-13.03 15.05 7.94 7.18-16.17-18.14-52.25c-.2-.56-5.03-13.85-15.61-10.17-4.34 1.51-11.04 5.66-7.25 16.59l18.77 54.06z"/><path d="M272.6 91.6c-.76 0-1.47-.48-1.74-1.24l-22.68-65.41c-.33-.96.17-2.01 1.13-2.34.95-.34 2 .17 2.34 1.13l22.68 65.41c.33.96-.17 2.01-1.13 2.34-.2.07-.4.11-.6.11z" class="st1"/><path d="M254.9 43.38c-.26 0-.53-.06-.78-.17l-11.06-5.17a1.835 1.835 0 0 1-.89-2.44c.43-.92 1.52-1.32 2.44-.89l11.06 5.17c.92.43 1.32 1.52.89 2.44-.3.67-.97 1.06-1.66 1.06zM258.74 54.43c-.26 0-.53-.06-.78-.17l-11.06-5.17a1.835 1.835 0 0 1-.89-2.44c.43-.92 1.52-1.32 2.44-.89l11.06 5.17a1.835 1.835 0 0 1-.77 3.5zM262.58 65.48c-.26 0-.53-.06-.78-.17l-11.06-5.17c-.92-.43-1.32-1.52-.89-2.44s1.52-1.32 2.44-.89l11.06 5.17a1.835 1.835 0 0 1-.77 3.5zM233.91 25.666l31.666-10.392 1.145 3.487-31.667 10.392z" class="st1"/><path d="m279.97 96.34-5.17-19.02s24.36-46.16 27.04-51.26c2.69-5.1 9.05-12.33 19.55-6.78 11.68 6.16 3.98 20.83 3.98 20.83l-26.15 49.56-19.25 6.67z"/><path d="m278.72 98.72-5.87-21.61 27.38-51.9c7.35-13.92 18.72-9.3 22.04-7.55 10.52 5.55 7.71 17.67 4.75 23.31l-26.49 50.2-21.81 7.55zm-1.95-21.17 4.46 16.42 16.72-5.79 25.81-48.92c.27-.53 6.69-13.13-3.21-18.35-4.06-2.14-11.68-4.21-17.07 6.02l-26.71 50.62z"/><path d="M279.38 99.23c-.29 0-.58-.07-.86-.21-.9-.47-1.24-1.59-.77-2.48l32.34-61.22a1.837 1.837 0 0 1 3.25 1.71L281 98.25c-.32.62-.96.98-1.62.98z" class="st1"/><path d="M302.56 53.39c-.78 0-1.5-.49-1.75-1.27l-3.77-11.62a1.835 1.835 0 0 1 3.49-1.13l3.77 11.62a1.835 1.835 0 0 1-1.74 2.4zM297.1 63.73c-.78 0-1.5-.49-1.75-1.27l-3.77-11.61c-.31-.97.22-2 1.18-2.31.96-.32 2 .22 2.31 1.18l3.77 11.61a1.835 1.835 0 0 1-1.74 2.4zM291.64 74.08c-.78 0-1.5-.49-1.75-1.27l-3.77-11.62c-.31-.97.22-2 1.18-2.31.96-.31 2 .22 2.31 1.18l3.77 11.62a1.835 1.835 0 0 1-1.74 2.4zM298.076 28.586l1.768-3.216 29.207 16.058-1.768 3.216z" class="st1"/><path d="M147.25 362.25c-.42 0-.85-.07-1.27-.23a3.67 3.67 0 0 1-2.17-4.72l17.76-48.07c.7-1.91 2.82-2.87 4.72-2.17 1.9.7 2.88 2.82 2.17 4.72l-17.76 48.07a3.68 3.68 0 0 1-3.45 2.4z"/><path d="M139.69 382.72a3.67 3.67 0 0 1-3.45-4.93l25.92-70.94a3.67 3.67 0 0 1 4.71-2.19 3.67 3.67 0 0 1 2.19 4.71l-25.92 70.94a3.679 3.679 0 0 1-3.45 2.41zM424.83 381.48c-1.4 0-2.74-.81-3.35-2.17l-33.5-72.34a3.677 3.677 0 0 1 1.84-4.86c1.85-.84 4.03-.01 4.86 1.84l33.5 72.34c.83 1.85.01 4.03-1.84 4.86-.5.23-1.01.33-1.51.33zM170.32 371.03c-.42 0-.85-.07-1.27-.23a3.67 3.67 0 0 1-2.17-4.72l17.76-48.07c.7-1.9 2.82-2.87 4.72-2.17 1.9.7 2.88 2.82 2.17 4.72l-17.76 48.07a3.689 3.689 0 0 1-3.45 2.4zM178.49 392.26c-.42 0-.85-.07-1.27-.23a3.67 3.67 0 0 1-2.17-4.72l17.76-48.07c.7-1.9 2.82-2.87 4.72-2.17 1.9.7 2.88 2.82 2.17 4.72l-17.76 48.07a3.689 3.689 0 0 1-3.45 2.4zM211.15 384.91c-.42 0-.85-.07-1.27-.23a3.67 3.67 0 0 1-2.17-4.72l17.76-48.07c.7-1.9 2.82-2.87 4.72-2.17 1.9.7 2.88 2.82 2.17 4.72l-17.76 48.07a3.68 3.68 0 0 1-3.45 2.4zM218.65 419.22c-.42 0-.85-.07-1.27-.23a3.67 3.67 0 0 1-2.17-4.72l17.76-48.07c.7-1.91 2.82-2.87 4.72-2.17 1.9.7 2.88 2.82 2.17 4.72l-17.76 48.07a3.689 3.689 0 0 1-3.45 2.4zM408.77 387.62a3.67 3.67 0 0 1-3.34-2.14l-21.44-46.55a3.67 3.67 0 0 1 1.8-4.87 3.67 3.67 0 0 1 4.87 1.8l21.44 46.55a3.67 3.67 0 0 1-1.8 4.87c-.49.23-1.02.34-1.53.34zM385.09 383.94a3.67 3.67 0 0 1-3.34-2.14l-21.44-46.55a3.67 3.67 0 0 1 1.8-4.87 3.67 3.67 0 0 1 4.87 1.8l21.44 46.55a3.67 3.67 0 0 1-1.8 4.87c-.5.23-1.02.34-1.53.34zM277.25 80.13c-6.75 0-21.59 5.4-31.03 8.54-9.44 3.15-25.18 32.75-29.23 53.89-3.64 19 4.35 26.74 6.65 42.15l4.55-2.58c1.08-4.32 5.51-19.25 5.51-21.13 0-2.7-1.88-3.15-1.93-13.89-.05-10.73 11.29-30.19 13.54-34.24 2.25-4.05 12.14-2.25 23.39-.9 11.24 1.35 14.39-2.13 14.39-2.13l.9-29.72c.01.01.01.01-6.74.01z"/><path d="M389.58 309.63s-.41-8.17-15.92-15.52c-15.52-7.35-46.14-8.17-50.22-10.62-4.08-2.45-9.8-18.37-9.8-18.37v-31.03l-2.88.65c-4.89 6.75-9.73 15.19-11.01 17.32-1.84 3.06-20.41 3.88-20.41 3.88s-19.19-.82-21.03-3.88c-1.3-2.16-6.25-10.73-11.2-17.59l-1.66-.37v31.03s-5.72 15.92-9.8 18.37-34.71 3.27-50.22 10.62c-15.52 7.35-15.92 15.52-15.92 15.52l155.16 54.15-3.27-.82 68.18-53.34z" class="st1"/><path d="m323.91 366.76-9.35-2.33.81-.63-149.05-52.02.11-2.29c.05-1.02.98-10.22 17.67-18.13 10.13-4.8 25.97-6.87 37.54-8.39 5.26-.69 11.23-1.47 12.44-2.1 1.62-.97 5.45-8.51 8.29-16.27v-34.32l6.52 1.47.68.94c4.43 6.14 8.84 13.58 10.73 16.76l.46.77c1.82 1.09 10.14 2.29 18.56 2.66 8.13-.37 16.18-1.56 17.94-2.65l.54-.9c1.84-3.12 6.15-10.42 10.46-16.38l.68-.94 7.74-1.74v34.32c2.84 7.76 6.67 15.3 8.31 16.29 1.19.62 7.15 1.4 12.42 2.09 11.57 1.51 27.41 3.59 37.54 8.39 16.69 7.91 17.62 17.11 17.67 18.13l.08 1.59-68.07 53.25-.72 2.43zm-150.56-59.03 147.76 51.57 64.98-50.83c-.98-2.28-4.1-7.02-13.74-11.59-9.26-4.39-24.55-6.39-35.71-7.85-8.58-1.12-12.79-1.72-14.77-2.91-4.66-2.79-9.68-15.99-11.11-19.96l-.18-.5v-25.28c-3.18 4.76-6.08 9.67-7.48 12.05l-.71 1.2c-2.68 4.47-17.9 5.14-22.91 5.36h-.26c-20.84-.89-22.86-4.26-23.52-5.36l-.64-1.08c-1.27-2.15-3.73-6.3-6.53-10.61v23.71l-.18.5c-1.43 3.98-6.45 17.17-11.11 19.96-1.99 1.19-6.2 1.79-14.77 2.91-11.16 1.46-26.45 3.46-35.71 7.85-8.72 4.13-12.1 8.39-13.41 10.86zm87.29-57.61"/><path d="M245.5 237.35c-.19-.3-18.58-29.82-20.23-40.56-.29-1.91-.62-3.59-.94-5.21-1-5.13-1.79-9.18-.19-14.51 1.74-5.79 3.14-18.42 3.16-18.54l6.09.67c-.06.54-1.48 13.31-3.38 19.63-1.16 3.88-.57 6.94.34 11.58.31 1.6.67 3.42.98 5.45 1.02 6.63 11.94 26.36 19.37 38.24l-5.2 3.25zM280.67 80.13c6.75 0 21.59 5.4 31.03 8.54 9.44 3.15 25.18 32.75 29.23 53.89 3.64 19-4.35 26.74-6.65 42.15l-4.55-2.58c-1.08-4.32-5.51-19.25-5.51-21.13 0-2.7 1.88-3.15 1.93-13.89.05-10.73-11.29-30.19-13.54-34.24-2.25-4.05-12.14-2.25-23.39-.9-11.24 1.35-14.39-2.13-14.39-2.13l-.9-29.72c0 .01 0 .01 6.74.01z"/><path d="m312.42 237.35-5.19-3.25c7.43-11.89 18.35-31.61 19.37-38.24.31-2.03.67-3.85.98-5.45.91-4.63 1.5-7.7.34-11.58-1.9-6.32-3.32-19.09-3.38-19.63l6.09-.67c.01.13 1.42 12.76 3.15 18.54 1.6 5.33.81 9.38-.19 14.51-.32 1.62-.64 3.29-.94 5.21-1.65 10.74-20.04 40.26-20.23 40.56zM298.32 438.45a3.67 3.67 0 0 1-3.45-4.93l25.92-70.94c.7-1.91 2.8-2.89 4.71-2.19a3.67 3.67 0 0 1 2.19 4.71l-25.92 70.94a3.665 3.665 0 0 1-3.45 2.41z"/><path d="M303.63 418.24c-.38 0-.78-.06-1.16-.19L146.5 366.2a3.675 3.675 0 0 1-2.33-4.65 3.675 3.675 0 0 1 4.65-2.33l155.97 51.85c1.93.64 2.97 2.72 2.33 4.65a3.68 3.68 0 0 1-3.49 2.52zM340.67 401.64l-19.09-37.68a3.676 3.676 0 1 1 6.56-3.32l15.73 31.04 70.35-36.72a3.676 3.676 0 1 1 3.4 6.52l-76.95 40.16zM270.82 314.51c-.57 1.22-.95 5.01-1.08 6.47h24.04c-.13-1.46-.5-5.26-1.08-6.47h-21.88zM291.05 313.15c-2.39-2.88-5.96-4.58-9.16-4.67v-.01h-.26v.01c-3.2.09-6.77 1.79-9.16 4.67h18.58zM293.04 327.59c.35-1.26.61-3.84.72-5.25h-24.01c.11 1.41.38 3.98.72 5.25h22.57zM292.18 328.94h-20.85c1.35 3.49 3.05 5.81 3.05 5.81s-8.05 26.42-8.05 44.25c0 16.87 13.92 16.34 15.42 16.24 1.51.11 15.42.63 15.42-16.24 0-17.83-8.05-44.25-8.05-44.25s1.71-2.32 3.06-5.81z"/><path d="m281.23 312.54-43.16-34.65a1.83 1.83 0 0 1-.28-2.58 1.83 1.83 0 0 1 2.58-.28l40.75 32.72 37.43-32.97c.76-.67 1.92-.6 2.59.17.67.76.6 1.92-.17 2.59l-39.74 35z"/><path d="m109.29 391.4-1.65-2.21c.57.79 1.11 1.52 1.65 2.21" class="st1"/><path d="M161.99 390.25c.06-.1.13-.2.19-.3v-.1l-.19.4z"/><circle cx="427.28" cy="351.33" r="201.83" class="st12"/><defs><path id="SVGID_23_" d="M629.11 351.33c0 111.47-90.36 201.83-201.83 201.83-39.05 0-97.66 54.17-128.56 34.97-10.57-6.57-76.3-19.39-85.38-45.4-8.02-22.98 38.96-59.62 52.09-62.86-27.22-34.4-39.99-81.27-39.99-128.54 0-111.47 90.36-201.83 201.83-201.83s201.84 90.36 201.84 201.83z"/></defs><clipPath id="SVGID_4_"><use xlink:href="#SVGID_23_" style="overflow:visible"/></clipPath><g style="clip-path:url(#SVGID_4_)"><path d="m277.63 501.1 108.79-26.68 157.14-50.44 36.68 55.85v20.01l-116.29 72.11s-114.63-3.75-115.88-4.59c-1.25-.81-70.44-66.26-70.44-66.26z"/><path d="m262.67 482-51.62 53.86 34.32 28.21 128.86-26.28-106.12-68.03z"/><path d="m373.92 480.26 168.4-54.19s17.92 16.26 18.76 23.76c.77 6.96 9.09 38.35 10.28 42.82 3.68-3.75 7.22-7.65 10.6-11.68l-16.41-55.39-63.75-58.36s-2.69-71.83-2.69-77.21c0-5.39-25.14-58.36-25.14-58.36s-25.14-27.83-36.81-31.42c-11.67-3.59-28.73 4.49-28.73 4.49l-28.73 39.5-44 115.83-17.06 72.72-33.86 53.31 89.14-5.82z" class="st1"/><path d="M384.39 273.39c10.83-12.57-2.49-28.44 7.83-37.41 6.67-5.8 28.71-9.57 31.61-13.34 1.5-1.95 2.32-.29 2.13-14.79-.07-5.43.19-5.99-.97-7.93-1.16-1.93-11.41-6.57-33.44 3.48-22.04 10.05-38.66 57.22-42.53 68.82-3.87 11.6-12.37 25.52-21.65 31.32-9.28 5.8-26.68 9.67-27.84 24.36-1.16 14.69.39 22.04-8.51 28.61-8.89 6.57-19.6 8.25-17.01 24.36 3.67 22.81-5.1 33.62-9.67 40.6-30.35 46.4 25.32 75.78 25.32 75.78s-36.92-42.92 68.43-98.98c20.12-10.7 30.59-7.37 42.92-21.46 5.41-6.19 4.64-23.97 2.32-30.54-2.04-5.78-10.05-7.73-16.63-33.25-4.28-16.66-8.2-32.79-2.31-39.63z" class="st14"/><path d="M485.3 479.85a3.46 3.46 0 0 1-3.16-2.03l-20.3-44.08c-.8-1.75-.04-3.81 1.71-4.62a3.49 3.49 0 0 1 4.62 1.7l20.3 44.08c.8 1.75.04 3.81-1.71 4.62-.47.23-.97.33-1.46.33zM446.35 471.21a3.46 3.46 0 0 1-3.16-2.03l-20.3-44.08c-.8-1.75-.04-3.81 1.71-4.62a3.49 3.49 0 0 1 4.62 1.7l20.3 44.08c.8 1.75.04 3.81-1.71 4.62-.48.23-.98.33-1.46.33zM437.75 501.31a3.46 3.46 0 0 1-3.16-2.03l-20.3-44.08c-.8-1.75-.04-3.81 1.71-4.62s3.81-.04 4.62 1.7l20.3 44.08c.8 1.75.04 3.81-1.71 4.62-.48.23-.97.33-1.46.33zM403.28 557.89a3.46 3.46 0 0 1-3.16-2.03l-20.3-44.08c-.8-1.75-.04-3.81 1.71-4.62s3.81-.04 4.62 1.7l20.3 44.08c.8 1.75.04 3.81-1.71 4.62-.48.22-.97.33-1.46.33zM415.64 543.58a3.46 3.46 0 0 1-3.16-2.03l-20.3-44.08c-.8-1.75-.04-3.81 1.71-4.62s3.81-.04 4.62 1.7l20.3 44.08c.8 1.75.04 3.81-1.71 4.62-.48.23-.97.33-1.46.33z" class="st1"/><path d="m295.36 511.49-6.18-3.21 17.48-33.61-32.27-16.78 3.21-6.17 38.44 19.99z" class="st12"/><path d="m309.94 506.89-6.17-3.21 17.47-33.61-32.27-16.78 3.21-6.18 38.45 19.99z" class="st12"/><path d="m324.52 502.28-6.17-3.21 17.48-33.61-32.28-16.78 3.21-6.17 38.45 19.99zM543.27 433.19l-6.18-3.21 17.48-33.61-32.28-16.78 3.22-6.18 38.44 20z" class="st12"/><path d="m544.065 377.116 13.292 42.082-237.961 75.162-13.292-42.083z" class="st12"/><path d="m317.14 498.71-15.39-48.72 244.59-77.26 15.39 48.72-244.59 77.26zm-6.66-44.18 11.2 35.45L553 416.92l-11.2-35.45-231.32 73.06z"/><path d="M543.78 483.74a3.46 3.46 0 0 1-3.16-2.03l-20.3-44.08c-.8-1.75-.04-3.81 1.71-4.62a3.49 3.49 0 0 1 4.62 1.7l20.3 44.08c.8 1.75.04 3.81-1.71 4.62-.48.23-.97.33-1.46.33zM526.99 510.32a3.46 3.46 0 0 1-3.16-2.03l-20.3-44.08c-.8-1.75-.04-3.81 1.71-4.62a3.49 3.49 0 0 1 4.62 1.7l20.3 44.08c.8 1.75.04 3.81-1.71 4.62-.48.23-.97.33-1.46.33z" class="st1"/><defs><path id="SVGID_25_" d="m343.91 439.69 148.94-46.68 19.45.55 19.46 7.78 10 13.34 4.45 8.89-183.96 56.14-18.9-26.12z"/></defs><clipPath id="SVGID_6_"><use xlink:href="#SVGID_25_" style="overflow:visible"/></clipPath><g style="clip-path:url(#SVGID_6_)"><path d="m353.69 493.07-6.17-3.21 17.47-33.61-32.27-16.78 3.21-6.18 38.45 19.99z"/><path d="m339.11 497.68-6.18-3.21 17.48-33.62-32.27-16.77 3.21-6.18 38.44 19.99z"/><path d="m368.27 488.46-6.17-3.21 17.47-33.61-32.27-16.78 3.21-6.17 38.45 19.99z"/><path d="m382.86 483.86-6.18-3.21 17.48-33.61-32.28-16.78 3.21-6.18 38.45 19.99z"/><path d="m397.44 479.25-6.18-3.21 17.48-33.61-32.27-16.78 3.21-6.17 38.44 19.99z"/><path d="m412.02 474.65-6.17-3.21 17.47-33.62-32.27-16.78 3.21-6.17 38.45 19.99z"/><path d="m426.61 470.04-6.18-3.21 17.48-33.61-32.28-16.78 3.21-6.18 38.45 19.99z"/><path d="m441.19 465.43-6.18-3.21 17.48-33.61-32.27-16.78 3.21-6.17 38.44 19.99z"/><path d="m455.77 460.83-6.17-3.21 17.47-33.61-32.27-16.78 3.21-6.18 38.45 19.99z"/><path d="m470.35 456.22-6.17-3.21 17.47-33.61-32.27-16.78 3.21-6.18 38.45 20z"/><path d="m484.94 451.62-6.18-3.21 17.48-33.62-32.28-16.78 3.21-6.17 38.45 19.99z"/><path d="m499.52 447.01-6.17-3.21 17.47-33.61-32.27-16.78 3.21-6.18 38.45 19.99z"/><path d="m514.1 442.4-6.17-3.21 17.47-33.61-32.27-16.78 3.21-6.17 38.45 19.99z"/><path d="m528.69 437.8-6.18-3.21 17.48-33.61-32.28-16.78 3.21-6.18 38.45 19.99z"/></g><path d="M470.86 273.39c-10.83-12.57 2.49-28.44-7.83-37.41-6.67-5.8-28.71-9.57-31.61-13.34-1.5-1.95-2.32-.29-2.13-14.79.07-5.43-.19-5.99.97-7.93 1.16-1.93 11.41-6.57 33.44 3.48 22.04 10.05 38.66 57.22 42.53 68.82 3.87 11.6 12.37 25.52 21.65 31.32s26.68 9.67 27.84 24.36-.39 22.04 8.51 28.61c8.89 6.57 19.6 8.25 17.01 24.36-3.67 22.81 5.1 33.62 9.67 40.6 30.35 46.4-21.71 72.11-21.71 72.11s-19.33-98.2-72.3-97.82c-22.79.17-30.34-4.86-42.66-18.94-5.41-6.19-4.64-23.97-2.32-30.54 2.04-5.78 10.05-7.73 16.63-33.25 4.28-16.67 8.2-32.8 2.31-39.64zM380.91 388.8s-40.19 8.44-31.33 51.03 45.86 46.73 45.86 46.73-82.06 58.22-132.62-13.88c-28.63-40.84 118.09-83.88 118.09-83.88z" class="st14"/><path d="m427.03 325.8 2.46-1.53s6.45-.66 10.04.27c3.59.93 4.92 2.13 4.92 2.13s-4.14 5.03-5.12 5.59c-2.46 1.4-6.72 3.19-10.37 2.79-1.53-.07-1.13-.04-1.53-.07-3.39-.27-.6-9.18-.4-9.18z"/><path d="m427.36 325.8-2.46-1.53s-6.45-.66-10.04.27c-3.59.93-4.92 2.13-4.92 2.13s4.14 5.03 5.12 5.59c2.46 1.4 6.72 3.19 10.37 2.79 1.53-.07 1.13-.04 1.53-.07 3.39-.27.6-9.18.4-9.18z"/></g><path d="M429.92 333.83v18.44M433.58 333.83v12.9M426.05 333.83v18.44M422.39 333.83v12.9" class="st16"/><path d="M439.63 351.65c-.65.95-1.76 1.52-2.9 1.48-.44-.02-1.1-.13-1.77-.59-.5-.34-1.01-.87-1.44-1.68-.43-.81-.64-1.87-.66-3.08h1.44c.02.94.18 1.75.5 2.35.51.96 1.23 1.5 2.02 1.53.63.02 1.27-.3 1.62-.82.37-.55.43-1.35.14-1.95-.11-.23-.35-.61-.81-.63-.4-.02-.7-.37-.67-.77s.38-.72.78-.7c.87.04 1.6.57 2.01 1.44.52 1.08.42 2.42-.26 3.42zm-23.29 0c.65.95 1.76 1.52 2.9 1.48.44-.02 1.1-.13 1.77-.59.5-.34 1.01-.87 1.44-1.68.43-.81.64-1.87.66-3.08h-1.44c-.02.94-.18 1.75-.5 2.35-.51.96-1.23 1.5-2.02 1.53-.63.02-1.27-.3-1.62-.82-.37-.55-.43-1.35-.14-1.95.11-.23.35-.61.81-.63.4-.02.7-.37.67-.77s-.38-.72-.78-.7c-.87.04-1.6.57-2.01 1.44-.52 1.08-.42 2.42.26 3.42z" style="stroke:#000;stroke-width:1.25;stroke-miterlimit:10"/><path d="M442.55 355.21c-3.38 2.37-8.7 3.73-14.59 3.73-6.17 0-10.73-1.19-14.35-3.73-.16-.12-.38-.25-.63-.41-1.37-.86-4.58-2.88-9.36-9.03-.08-.1-.76-1-1.39-1.85-.57-.75-1.1-1.46-1.15-1.52l-.02.01c1.86 2.66 2.54 8.35 2.7 9.97 3.4 3.67 5.81 5.19 7 5.94.19.12.34.21.46.29 4.36 3.06 9.68 4.49 16.74 4.49 6.83 0 12.86-1.59 17.01-4.51.91-.64 3.06-2.16 6.48-5.99.09-1.03.64-6.48 2.3-9.54-6.38 8.76-9.97 11.29-11.2 12.15z" class="st14"/><path d="M442.55 356.09c-3.38 2.37-8.7 3.73-14.59 3.73-6.17 0-10.73-1.19-14.35-3.73-.16-.12-.38-.25-.63-.41-1.37-.86-4.58-2.88-9.36-9.03-.08-.1-.76-1-1.39-1.85-.57-.75-1.1-1.46-1.15-1.52l-.02.01c1.86 2.66 2.54 8.35 2.7 9.97 3.4 3.67 5.81 5.19 7 5.94.19.12.34.21.46.29 4.36 3.06 9.68 4.49 16.74 4.49 6.83 0 12.86-1.59 17.01-4.51.91-.64 3.06-2.16 6.48-5.99.09-1.03.64-6.48 2.3-9.54-6.38 8.76-9.97 11.3-11.2 12.15z" class="st14"/><path d="M269.88 489.9s-18.25-32.78-18.55-33.29c-12.65-21.8-28.38-46.88-35.59-50.3-13.08-6.2-42.05-3.72-45.5-5.79-3.44-2.07-8.26-5.12-8.26-5.12v-17.58l1.76-2.85c-6.77 9.37-10.52 11.57-11.72 12.41-3.81 2.67-9.47 4.06-15.57 4.06-6.8 0-11.53-1.38-15.34-4.06-1.11-.78-4.57-2.56-10.42-10.18l.46.61v17.58s-4.82 3.05-8.26 5.12c-3.44 2.06-32.42-.41-45.49 5.79-7.22 3.42-22.99 28.57-35.65 50.4-.3.51-18.49 33.19-18.49 33.19l76.97 22.26L192 555.68l77.88-65.78z" class="st1"/><path d="m114.65 392.07-4.71-17.26-13.42-16.39-4.18-17.09-2.38-50.07 39.52-43.24s11.56-.47 12.09-.47c.52 0 37.19 35.33 37.19 35.33s.58 28.98.76 29.5c.17.52 2.96 18.13 2.96 18.83 0 .7-2.79 17.09-2.79 17.09l-3.14 10.46L164 374.8l-8.02 17.09-16.74 5.75-24.59-5.57z" class="st1"/><path d="M110.22 377.05c-5.16-8.26-15.66-18.7-16.69-25.41-1.03-6.71-2.58-10.33-1.03-15.49s.71-29.17.71-29.17" class="st33"/><path d="m110.69 377.2-1.53-2.05c.53.73 1.03 1.41 1.53 2.05" class="st1"/><path d="M57.39 406.31c-7.22 3.42-22.99 28.57-35.65 50.4-.3.51-18.49 33.19-18.49 33.19l76.97 22.26M270.98 492.48s-19.35-35.35-19.65-35.87c-12.65-21.8-28.38-46.88-35.59-50.3-13.08-6.2-42.05-3.72-45.5-5.79-3.44-2.07-8.26-5.12-8.26-5.12v-17.58l1.76-2.85c-6.77 9.37-10.52 11.57-11.72 12.41-3.81 2.67-9.47 4.06-15.57 4.06-6.8 0-11.53-1.38-15.34-4.06-1.11-.78-4.57-2.56-10.42-10.18l.46.61v17.58" class="st33"/><path d="M159.56 376.13c.06-.09.12-.18.18-.28v-.09l-.18.37zM55.67 443.79h151.56l20.78 45.03H34.14z"/><path d="m196.08 403.37-4.9 42.78" style="fill:none;stroke:#000;stroke-width:16;stroke-linecap:round;stroke-linejoin:round;stroke-miterlimit:10"/><path d="M135.44 248.09c-.89-1.57-9.71-5.46-27.53 2.19-7.53 3.23-14.4 11.79-20.08 21.29l-34.37 140.5c6.99-5.77 15.11-9.37 24.47-9.09 18.24.54 28.17 2.32 38.29-8.74 2.21-2.41-1.99-11.29-2-16.22-5.11-8.1-14.85-20.51-16.96-27.76.01-.04.02-.08.02-.11.31-.55.6-1.09.8-1.47.58-1.16 1.74-14.53.93-24.64-.81-10.11 1.39-28.36 10.58-36.38 9.18-8.02 19.3-10.11 22.55-10.93 3.25-.81 3.02-2.21 3.37-9.07v-.17c.33-2.97.51-7.21.56-13.04.04-4.34.27-4.79-.63-6.36M186.14 271.57c-5.68-9.5-12.55-18.06-20.08-21.29-17.82-7.66-26.64-3.76-27.53-2.19-.89 1.57-.67 2.02-.63 6.36.07 7.46.35 12.44.87 15.46.24 4.94.4 6.1 3.26 6.82 3.26.81 13.37 2.91 22.55 10.93 9.18 8.02 11.39 26.27 10.58 36.38-.81 10.11.35 23.48.93 24.64.17.34.42.8.69 1.29-.8 2.92-5.22 3.57-7.87 7.33-1.58 2.23-2.92 5.05-4.18 7.92-1.71 3.9-3.25 7.9-4.99 10.65.13 5.32.71 15.78 3.14 18.43 10.12 11.06 14.93 9.23 33.17 8.69 9.35-.28 17.48 3.32 24.47 9.1l-34.38-140.52z"/><path d="m90.61 499.36-10.87-8.74 19.93-24.8-16.12-23.54 11.5-7.88 21.98 32.08z" class="st1"/><defs><path id="SVGID_27_" d="M34.03 443.69 11.78 456c2.98 3.28 6.08 6.46 9.3 32.83h231.7c3.06-26.22 6.02-29.22 8.85-32.33l-8.44-12.8H34.03z"/></defs><clipPath id="SVGID_8_"><use xlink:href="#SVGID_27_" style="overflow:visible"/></clipPath><path d="m121.54 499.36-10.88-8.74 19.93-24.8-16.12-23.54 11.5-7.88 21.98 32.08z" style="clip-path:url(#SVGID_8_);fill:#b11116"/><path d="m152.46 499.36-10.88-8.74 19.94-24.8-16.13-23.54 11.5-7.88 21.99 32.08z" style="clip-path:url(#SVGID_8_);fill:#fff"/><path d="m183.38 499.36-10.88-8.74 19.94-24.8-16.13-23.54 11.5-7.88 21.99 32.08z" style="clip-path:url(#SVGID_8_);fill:#b11116"/><path d="m218.48 499.36-10.87-8.74 19.93-24.8-16.13-23.54 11.51-7.88 21.98 32.08z" style="clip-path:url(#SVGID_8_);fill:#fff"/><path d="M92.51 299.86s9.3 65.09 19.06 73.92c3.26 2.95-6.65 8.79-13.8 12.88s-14.3-13.79-14.3-13.79l2.55-50.56 6.49-22.45zM180.12 306.84s-9.3 58.11-19.06 66.95c-3.26 2.95 6.65 8.79 13.8 12.88 7.15 4.09 14.3-13.79 14.3-13.79l-2.55-50.56-6.49-15.48z"/><path d="M58.23 394.65 19.29 544.99s121.27 98.09 97.63 16.74c-23.71-81.59-2.79-164.58-2.79-164.58l-36.96-16.39-18.94 13.89z"/><path d="M159.96 382.89c1.16-13.95 1.83-15.38 1.83-15.38l-23.01 3.83v35.19l22.78-.44 10.54-2.47s-13.97-3.36-12.24-17.81l.1-2.92z" class="st1"/><path d="M116.69 385.64c-1.16-13.95-2.32-18.13-2.32-18.13l23.01 3.83 14.88 40.1-37.66-5.35-9.53-1.86c-.01.01 12.78-4.64 11.62-18.59" class="st1"/><path d="M109.69 421.04s7.82-33.38 7.82-36.26c0-2.88-18.16 5.76-18.16 5.76s-3.15 12.82-2.18 14.65c.97 1.83 6.95 13.66 6.95 13.66l5.57 2.19z"/><path d="m137.76 274.25-1.11 115.23 1.11.01c19.47-.08 35.2-20.13 38.49-57.62 3.53-38.72-17.22-57.52-38.49-57.62z" class="st1"/><path d="M137 274.25v115.24c-19.47-.08-35.2-20.13-38.49-57.62-3.69-42.14 17.22-57.52 38.49-57.62z" class="st1"/><path d="M109.29 375.59c.1.13 2.42 3.17 2.53 3.3 5.72 7.23 9.3 8.9 10.4 9.66 3.84 2.65 8.62 4.02 15.48 4.02 6.16 0 11.87-1.37 15.72-4.02 1.22-.84 5.15-3.51 11.98-12.81" style="fill:#fff;stroke:#000;stroke-width:4.783;stroke-miterlimit:10"/></g><path d="M116.6 488.24h114.06v13.35H116.6z" class="st1"/></g><g id="Layer_4"><defs><circle id="SVGID_31_" cx="282.49" cy="302.15" r="242.06"/></defs><clipPath id="SVGID_10_"><use xlink:href="#SVGID_31_" style="overflow:visible"/></clipPath></g></g></switch></svg>