<?xml version="1.0" encoding="utf-8"?>
<!-- Generator: Adobe Illustrator 24.0.2, SVG Export Plug-In . SVG Version: 6.00 Build 0)  -->
<svg version="1.1" id="Layer_1" xmlns="http://www.w3.org/2000/svg" xmlns:xlink="http://www.w3.org/1999/xlink" x="0px" y="0px"
	 viewBox="0 0 486 486" style="enable-background:new 0 0 486 486;" xml:space="preserve">
<style type="text/css">
	.st0{fill:none;}
	.st1{clip-path:url(#SVGID_2_);}
	.st2{fill:none;stroke:#000000;stroke-miterlimit:10;}
	.st3{fill:none;stroke:#282828;stroke-miterlimit:10;}
	.st4{fill:none;stroke:#023000;stroke-miterlimit:10;}
	.st5{fill:#FFFFFF;stroke:#000000;stroke-width:1;stroke-miterlimit:10.0004;}
	.st6{clip-path:url(#SVGID_4_);}
</style>
<g id="Layer_2_1_">
</g>
<g id="Layer_1_2_">
	<g id="Layer_3">
	</g>
	<g id="Layer_1_1_">
		<g>
			<path class="st0" d="M242.9,0.9C109.2,0.9,0.8,109.3,0.8,243s108.4,242.1,242.1,242.1S485,376.7,485,243S376.6,0.9,242.9,0.9z"/>
			<g>
				<g>
					<g>
						<g>
							<g>
								<defs>
									<circle id="SVGID_1_" cx="242.9" cy="243" r="242.1"/>
								</defs>
								<clipPath id="SVGID_2_">
									<use xlink:href="#SVGID_1_"  style="overflow:visible;"/>
								</clipPath>
								<g class="st1">
									<g>
										<path class="st2" d="M176.1,292.1c24.8-10.7,20.5-1.6,35.3-18.5c6.5-7.4,5.6-28.8,2.8-36.6c-2.4-6.9-12.1-9.3-19.9-39.9
											c-5.2-20-5.9-81.7,6.5-92.4c8-7,34.4-11.5,37.9-16c1.8-2.3,2.8-0.4,2.5-17.7c-0.1-6.5,0.2-7.2-1.2-9.5s-13.7-7.9-40.1,4.2
											s-46.4,68.6-51,82.6s-14.8,30.6-26,37.6c-11.1,7-32,11.6-33.4,29.2s0.5,26.4-10.2,34.3c-10.7,7.9-23.5,9.9-20.4,29.2
											c4.4,27.4-6.1,40.3-11.6,48.7"/>
									</g>
									<g>
										<g>
											<polygon class="st3" points="192.6,187.8 194.2,197.1 194.7,225.5 192.6,225.5 											"/>
										</g>
										<g>
											<path class="st4" d="M193.7,278.1L193.7,278.1c-1.6,0-6.1-1.3-6.1-3l3.1-46.8c0-1.6,1.3-3,2.9-3l0,0c1.6,0,2.9,1.3,2.9,3
												l3.1,46.8C199.8,276.8,195.3,278.1,193.7,278.1z"/>
										</g>
									</g>
									<g>
										<path class="st2" d="M301.6,359.5l14.7,31.9c1,2.1,0,4.6-2,5.5c-0.5,0.2-1.2,0.4-1.8,0.4c-1.6,0-3.1-0.9-3.8-2.4
											L293.6,362"/>
									</g>
									<g>
										<path class="st2" d="M266.2,370.7l6.9,15c1,2.1,0,4.6-2,5.5c-0.6,0.3-1.2,0.4-1.7,0.4c-1.6,0-3.1-0.9-3.8-2.4l-7.4-16"/>
									</g>
									<g>
										<path class="st2" d="M241.4,378.5l17.7,38.5c1,2.1,0,4.6-2,5.5c-0.5,0.3-1.1,0.4-1.7,0.4c-1.6,0-3.1-0.9-3.8-2.4
											l-18.2-39.4"/>
									</g>
									<g>
										<g>
											<g>
												<path class="st5" d="M317.6,294.8c-0.9,0.3-113.2,37.4-168.1,53.1"/>
												<path class="st5" d="M177.9,394.3l198-62.1"/>
												<path class="st5" d="M319.4,295.7"/>
											</g>
											<g>
												<g>
													<g>
														<g>
															<defs>
																<polyline id="SVGID_3_" points="113.5,414.7 101.6,363 321.4,293.5 399,324.5 																"/>
															</defs>
															<clipPath id="SVGID_4_">
																<use xlink:href="#SVGID_3_"  style="overflow:visible;"/>
															</clipPath>
															<g class="st6">
																<g>
																	<polyline class="st2" points="155.8,367.7 161.9,370.9 159.7,375.1 																	"/>
																</g>
																<g>
																	<path class="st2" d="M168.5,386.3l-5.8-6.8l5.5-10.6L153,361l-2.8-9.7c-0.1-0.3,0.2-0.5,0.4-0.4l28.8,14.4
																		L168.5,386.3z"/>
																</g>
																<g>
																	<polygon class="st2" points="177.9,394.3 172.1,389.7 185.8,363.4 146.9,343.3 150.9,335.8 196.9,359.8 
																																			"/>
																</g>
																<g>
																	<polygon class="st2" points="189.7,402 182.3,398.3 203.2,357.8 164.4,337.8 168.4,330.3 214.4,354.3 
																																			"/>
																</g>
																<g>
																	<polygon class="st2" points="207.2,396.5 199.8,392.6 220.7,352.3 181.9,332.3 185.9,324.8 231.9,348.8 
																																			"/>
																</g>
																<g>
																	<polygon class="st2" points="224.7,391 217.3,387.1 238.2,346.8 199.4,326.8 203.4,319.3 249.4,343.3 
																																			"/>
																</g>
																<g>
																	<polygon class="st2" points="242.2,385.4 234.8,381.6 255.7,341.3 216.9,321.1 220.8,313.8 266.9,337.8 
																																			"/>
																</g>
																<g>
																	<polygon class="st2" points="259.6,379.9 252.3,376 273.1,335.8 234.4,315.6 238.3,308.3 284.4,332.3 
																																			"/>
																</g>
																<g>
																	<polygon class="st2" points="277.1,374.4 269.6,370.5 290.6,330.3 251.9,310.1 255.8,302.8 301.9,326.8 
																																			"/>
																</g>
																<g>
																	<polygon class="st2" points="294.5,368.9 287.1,365 308.1,324.8 269.4,304.6 273.3,297.1 319.4,321.1 
																																			"/>
																</g>
																<g>
																	<polygon class="st2" points="312,363.3 304.6,359.5 325.6,319.3 286.9,299 290.8,291.6 336.9,315.6 
																																			"/>
																</g>
																<g>
																	<polyline class="st2" points="310.8,296.8 343.1,313.6 322.1,354 329.5,357.8 354.4,310.1 																	"/>
																	<path class="st2" d="M316.4,294.2"/>
																</g>
																<g>
																	<path class="st2" d="M330.5,283l-4.7-2.4l-1.3,2.5C326.5,283.1,328.5,283,330.5,283z"/>
																	<path class="st2" d="M358.2,312.7l-18.6,35.7l7.4,3.9l17.1-34.1"/>
																</g>
																<g>
																	<path class="st2" d="M345.5,276.2l-2.2-1.2l-0.9,1.6C343.4,276.2,344.4,276,345.5,276.2z"/>
																	<path class="st2" d="M367.9,322.2l-10.8,20.7l7.4,3.9l8.9-18"/>
																</g>
																<g>
																	<path class="st2" d="M400.3,298c0.6,1.4,1.3,2.9,1.9,4.4l4.6-8.8l-11-5.8C397.3,291.2,398.8,294.6,400.3,298z"/>
																	<path class="st2" d="M362.8,272.5c0.7-0.3,1.5-0.6,2.2-0.8l-4.2-2.2l-3.5,6.7C359.1,275.1,360.9,273.4,362.8,272.5
																		z"/>
																	<path class="st2" d="M377.6,331.4"/>
																	<path class="st2" d="M379.1,329.2"/>
																</g>
															</g>
														</g>
													</g>
												</g>
											</g>
										</g>
										<g>
											<path class="st2" d="M173.9,391.1"/>
											<path class="st2" d="M373.1,328.4"/>
											<path class="st2" d="M182.5,397.2C204.1,391.1,223,385,245,378c46-15,86.9-27.7,133.2-42.7"/>
											<path class="st2" d="M308.8,293c-53.4,16.6-107.1,34.2-160,50.6"/>
										</g>
									</g>
									<g>
										<path class="st2" d="M47.3,327.3c-6.7,12.3-11.1,30.8-6.3,49.3c0.5,1.7,1,7,4.6,12.1c60.7,86.4,159.1,16.6,159.1,16.6
											s-44.4-5-55-56.1c-4.5-21.7-0.6-35,5.9-43.4c7.6-9.8,17.2-12.3,20.8-13.8"/>
									</g>
									<g>
										<path class="st2" d="M360.5,340.9l23.3,50.5c1,2.1,0,4.6-2,5.5c-0.7,0.2-1.3,0.4-1.8,0.4c-1.6,0-3.1-0.9-3.8-2.4
											l-23.4-51.6"/>
									</g>
									<g>
										<path class="st2" d="M360.5,426.4c-1.6,0-3.1-0.9-3.8-2.4l-24.4-52.9c-1-2.1,0-4.6,2-5.5c2.1-1,4.6,0,5.5,2l24.3,52.9
											c1,2.1,0,4.6-2,5.5C361.8,426.3,361.1,426.4,360.5,426.4z"/>
									</g>
									<g>
										<g>
											<path class="st2" d="M439.3,327.3c-5.5-8.4-16-21.3-11.6-48.7c3.1-19.3-9.7-21.3-20.4-29.2c-10.7-7.9-8.8-16.7-10.2-34.3
												c-1.4-17.6-22.3-22.2-33.4-29.2c-11.2-7-21.4-23.7-26-37.6c-4.6-14-24.6-70.5-51-82.6c-26.4-12.1-38.7-6.5-40.1-4.2
												c-1.4,2.3-1.1,3-1.2,9.5c-0.3,17.3,0.7,15.4,2.5,17.7c3.5,4.5,29.9,9,37.9,16c12.3,10.7,11.7,72.4,6.8,92.6
												c-7.8,30.6-17.4,33-19.9,39.9c-2.8,7.8-3.7,29.2,2.8,36.6c14.8,16.9,24.4,17.5,51.2,22.7
												c60.1,11.6,86.6,117.3,86.6,117.3S475.7,382.9,439.3,327.3z"/>
										</g>
										<g>
											<g>
												<line class="st0" x1="292.9" y1="174.1" x2="292.9" y2="230.6"/>
												<polygon class="st3" points="291.8,199.3 294,188.2 294,225.5 291.2,225.8 												"/>
											</g>
											<g>
												<path class="st4" d="M292.9,278.1L292.9,278.1c1.6,0,6.1-1.3,6.1-3l-3.1-46.8c0-1.6-1.3-3-3-3l0,0c-1.6,0-3,1.3-3,3
													l-3.1,46.8C286.8,276.8,291.3,278.1,292.9,278.1z"/>
											</g>
										</g>
									</g>
								</g>
							</g>
						</g>
					</g>
				</g>
			</g>
		</g>
	</g>
	<g id="Layer_2_2_">
	</g>
	<g id="Layer_4">
	</g>
</g>
<path class="st2" d="M86.7,319"/>
<path class="st2" d="M67.7,367.5"/>
</svg>
