<svg xmlns="http://www.w3.org/2000/svg" xmlns:xlink="http://www.w3.org/1999/xlink" xml:space="preserve" viewBox="0 0 486 486"><circle cx="242.9" cy="243" r="242.1" fill="none"/><path fill="#fff" d="M242.9 485.1c74.5 0 141.1-33.7 185.5-86.6l-19.7-66.4-76.5-70s-3.2-86.2-3.2-92.6-30.2-70-30.2-70-30.2-33.4-44.2-37.7c-14-4.3-34.5 5.4-34.5 5.4l-34.5 47.4L133 253.5l-20.5 87.2-44.4 69.9c44.1 45.9 106.1 74.5 174.8 74.5z"/><path d="M200.8 104.7c8-7 34.4-11.5 37.9-16 1.8-2.3 2.8-.4 2.5-17.7-.1-6.5.2-7.2-1.2-9.5s-13.7-7.9-40.1 4.2-46.4 68.6-51 82.6-14.8 30.6-26 37.6c-11.1 7-32 11.6-33.4 29.2s.5 26.4-10.2 34.3-23.5 9.9-20.4 29.2c4.4 27.4-6.1 40.3-11.6 48.7-36.4 55.6 30.4 90.9 30.4 90.9s-44.2-51.6 82.2-118.9c24.1-12.8 36.7-8.8 51.5-25.7 6.5-7.4 5.6-28.8 2.8-36.6-2.4-6.9-12.1-9.3-19.9-39.9-5.2-20-5.9-81.7 6.5-92.4z"/><path fill="#282828" d="m192.6 187.8 1.6 9.3.6 33.5h-2.2z"/><path fill="#023000" d="M193.7 278.1c-1.6 0-6.1-1.3-6.1-3l3.1-46.8c0-1.6 1.3-3 2.9-3 1.6 0 2.9 1.3 2.9 3l3.1 46.8c.2 1.7-4.3 3-5.9 3z"/><path d="M312.5 397.3c-1.6 0-3.1-.9-3.8-2.4L284.4 342a4.14 4.14 0 0 1 7.5-3.5l24.4 52.9a4.14 4.14 0 0 1-3.8 5.9zm-43.1-5.7c-1.6 0-3.1-.9-3.8-2.4l-24.4-52.9a4.14 4.14 0 0 1 7.5-3.5l24.4 52.9a4.14 4.14 0 0 1-3.7 5.9zm-14 31.3c-1.6 0-3.1-.9-3.8-2.4l-24.4-52.9a4.14 4.14 0 0 1 7.5-3.5l24.4 52.9c1 2.1 0 4.6-2 5.5-.5.3-1.1.4-1.7.4z"/><path fill="#b11116" d="m97.6 364.2 285.5-90.18 15.93 50.44-285.5 90.18z"/><defs><path id="a" d="M98.6 317.9H398v52.9H98.6z" transform="rotate(-17.53 248.25 344.3)"/></defs><clipPath id="b"><use xlink:href="#a" overflow="visible"/></clipPath><g clip-path="url(#b)"><path d="m84.6 435.3-7.4-4 21-40.3-38.7-20.1 3.8-7.4 46.1 23.9z"/><path d="m102.2 429.6-7.5-3.8 21-40.3L77 365.3l3.8-7.4 46.1 24z"/><path d="m119.7 424.1-7.5-3.8 21.1-40.4-38.8-20.1 3.8-7.4 46.1 24z"/><path d="m137.2 418.6-7.4-3.8 21-40.4-38.8-20.1 3.8-7.4 46.1 24z"/><path d="m154.7 413.1-7.4-3.8 21-40.4-38.9-20.1 4-7.4 46 23.9z"/><path d="m172.2 407.5-7.4-3.7 21-40.4-38.9-20.1 4-7.5 46 24z"/><path d="m189.7 402-7.4-3.7 20.9-40.5-38.8-20 4-7.5 46 24z"/><path d="m207.2 396.5-7.4-3.9 20.9-40.3-38.8-20 4-7.5 46 24z"/><path d="m224.7 391-7.4-3.9 20.9-40.3-38.8-20 4-7.5 46 24z"/><path d="m242.2 385.4-7.4-3.8 20.9-40.3-38.8-20.2 3.9-7.3 46.1 24z"/><path d="m259.6 379.9-7.3-3.9 20.8-40.2-38.7-20.2 3.9-7.3 46.1 24z"/><path d="m277.1 374.4-7.5-3.9 21-40.2-38.7-20.2 3.9-7.3 46.1 24z"/><path d="m294.5 368.9-7.4-3.9 21-40.2-38.7-20.2 3.9-7.5 46.1 24z"/><path d="m312 363.3-7.4-3.8 21-40.2-38.7-20.3 3.9-7.4 46.1 24z"/><path d="m329.5 357.8-7.4-3.8 21-40.4-38.7-20.1 3.9-7.4 46.1 24z"/><path d="m347 352.3-7.4-3.9 21-40.3-38.7-20.1 3.9-7.4 46 23.9z"/><path d="m364.5 346.8-7.4-3.9 21-40.3-38.7-20.1 3.9-7.5 46 24z"/><path d="m382 341.3-7.4-3.9 21-40.3-38.7-20.2 3.9-7.4 46 24z"/></g><path d="m110.8 419.8-18.5-58.4 293.4-92.7 18.5 58.4-293.4 92.7zm-8-53 13.4 42.5 277.5-87.6-13.4-42.5-277.5 87.6z"/><path d="M187.3 288s-48.2 10.1-37.6 61.2 55 56.1 55 56.1-98.4 69.8-159.1-16.6C11.3 339.6 187.3 288 187.3 288zM380 397.3c-1.6 0-3.1-.9-3.8-2.4L351.9 342a4.14 4.14 0 0 1 7.5-3.5l24.4 52.9c1 2.1 0 4.6-2 5.5-.7.2-1.3.4-1.8.4zm-19.5 29.1c-1.6 0-3.1-.9-3.8-2.4l-24.4-52.9a4.14 4.14 0 0 1 7.5-3.5l24.3 52.9c1 2.1 0 4.6-2 5.5-.3.3-1 .4-1.6.4z"/><path d="M285.8 104.7c-8-7-34.4-11.5-37.9-16-1.8-2.3-2.8-.4-2.5-17.7.1-6.5-.2-7.2 1.2-9.5s13.7-7.9 40.1 4.2 46.4 68.6 51 82.6c4.6 13.9 14.8 30.6 26 37.6 11.1 7 32 11.6 33.4 29.2s-.5 26.4 10.2 34.3 23.5 9.9 20.4 29.2c-4.4 27.4 6.1 40.3 11.6 48.7 36.4 55.6-26 86.5-26 86.5S390.1 296 326.7 296.5c-27.3.2-36.4-5.8-51.2-22.7-6.5-7.4-5.6-28.8-2.8-36.6 2.5-6.9 12.1-9.3 19.9-39.9 4.9-20.2 5.5-81.9-6.8-92.6z"/><path fill="none" d="M292.9 174.1v56.5"/><path fill="#282828" d="m291.8 199.3 2.2-11.1v42.4h-2.2z"/><path fill="#023000" d="M292.9 278.1c1.6 0 6.1-1.3 6.1-3l-3.1-46.8a3 3 0 0 0-3-3 3 3 0 0 0-3 3l-3.1 46.8c0 1.7 4.5 3 6.1 3z"/></svg>