<svg xmlns="http://www.w3.org/2000/svg" xmlns:xlink="http://www.w3.org/1999/xlink" xml:space="preserve" id="Layer_1" x="0" y="0" style="enable-background:new 0 0 486 486" version="1.1" viewBox="0 0 486 486"><style>.st0{fill:none}.st2,.st3,.st4{fill:none;stroke:#000;stroke-miterlimit:10}.st3,.st4{stroke:#282828}.st4{stroke:#023000}.st5{fill:#fff;stroke:#000;stroke-width:1;stroke-miterlimit:10.0004}</style><g id="Layer_1_2_"><g id="Layer_1_1_"><path d="M242.9.9C109.2.9.8 109.3.8 243s108.4 242.1 242.1 242.1S485 376.7 485 243 376.6.9 242.9.9z" class="st0"/><defs><circle id="SVGID_1_" cx="242.9" cy="243" r="242.1"/></defs><clipPath id="SVGID_2_"><use xlink:href="#SVGID_1_" style="overflow:visible"/></clipPath><g style="clip-path:url(#SVGID_2_)"><path d="M176.1 292.1c24.8-10.7 20.5-1.6 35.3-18.5 6.5-7.4 5.6-28.8 2.8-36.6-2.4-6.9-12.1-9.3-19.9-39.9-5.2-20-5.9-81.7 6.5-92.4 8-7 34.4-11.5 37.9-16 1.8-2.3 2.8-.4 2.5-17.7-.1-6.5.2-7.2-1.2-9.5s-13.7-7.9-40.1 4.2-46.4 68.6-51 82.6-14.8 30.6-26 37.6c-11.1 7-32 11.6-33.4 29.2s.5 26.4-10.2 34.3c-10.7 7.9-23.5 9.9-20.4 29.2 4.4 27.4-6.1 40.3-11.6 48.7" class="st2"/><path d="m192.6 187.8 1.6 9.3.5 28.4h-2.1z" class="st3"/><path d="M193.7 278.1c-1.6 0-6.1-1.3-6.1-3l3.1-46.8c0-1.6 1.3-3 2.9-3 1.6 0 2.9 1.3 2.9 3l3.1 46.8c.2 1.7-4.3 3-5.9 3z" class="st4"/><path d="m301.6 359.5 14.7 31.9c1 2.1 0 4.6-2 5.5-.5.2-1.2.4-1.8.4-1.6 0-3.1-.9-3.8-2.4L293.6 362M266.2 370.7l6.9 15c1 2.1 0 4.6-2 5.5-.6.3-1.2.4-1.7.4-1.6 0-3.1-.9-3.8-2.4l-7.4-16M241.4 378.5l17.7 38.5c1 2.1 0 4.6-2 5.5-.5.3-1.1.4-1.7.4-1.6 0-3.1-.9-3.8-2.4l-18.2-39.4" class="st2"/><path d="M317.6 294.8c-.9.3-113.2 37.4-168.1 53.1M177.9 394.3l198-62.1" class="st5"/><defs><path id="SVGID_3_" d="M113.5 414.7 101.6 363l219.8-69.5 77.6 31"/></defs><clipPath id="SVGID_4_"><use xlink:href="#SVGID_3_" style="overflow:visible"/></clipPath><g style="clip-path:url(#SVGID_4_)"><path d="m155.8 367.7 6.1 3.2-2.2 4.2" class="st2"/><path d="m168.5 386.3-5.8-6.8 5.5-10.6L153 361l-2.8-9.7c-.1-.3.2-.5.4-.4l28.8 14.4-10.9 21z" class="st2"/><path d="m177.9 394.3-5.8-4.6 13.7-26.3-38.9-20.1 4-7.5 46 24z" class="st2"/><path d="m189.7 402-7.4-3.7 20.9-40.5-38.8-20 4-7.5 46 24z" class="st2"/><path d="m207.2 396.5-7.4-3.9 20.9-40.3-38.8-20 4-7.5 46 24z" class="st2"/><path d="m224.7 391-7.4-3.9 20.9-40.3-38.8-20 4-7.5 46 24z" class="st2"/><path d="m242.2 385.4-7.4-3.8 20.9-40.3-38.8-20.2 3.9-7.3 46.1 24z" class="st2"/><path d="m259.6 379.9-7.3-3.9 20.8-40.2-38.7-20.2 3.9-7.3 46.1 24z" class="st2"/><path d="m277.1 374.4-7.5-3.9 21-40.2-38.7-20.2 3.9-7.3 46.1 24z" class="st2"/><path d="m294.5 368.9-7.4-3.9 21-40.2-38.7-20.2 3.9-7.5 46.1 24z" class="st2"/><path d="m312 363.3-7.4-3.8 21-40.2-38.7-20.3 3.9-7.4 46.1 24z" class="st2"/><path d="m310.8 296.8 32.3 16.8-21 40.4 7.4 3.8 24.9-47.7M330.5 283l-4.7-2.4-1.3 2.5c2 0 4-.1 6-.1zM358.2 312.7l-18.6 35.7 7.4 3.9 17.1-34.1M345.5 276.2l-2.2-1.2-.9 1.6c1-.4 2-.6 3.1-.4zM367.9 322.2l-10.8 20.7 7.4 3.9 8.9-18M400.3 298c.6 1.4 1.3 2.9 1.9 4.4l4.6-8.8-11-5.8 4.5 10.2zM362.8 272.5c.7-.3 1.5-.6 2.2-.8l-4.2-2.2-3.5 6.7c1.8-1.1 3.6-2.8 5.5-3.7z" class="st2"/></g><path d="M182.5 397.2C204.1 391.1 223 385 245 378c46-15 86.9-27.7 133.2-42.7M308.8 293c-53.4 16.6-107.1 34.2-160 50.6" class="st2"/><path d="M47.3 327.3c-6.7 12.3-11.1 30.8-6.3 49.3.5 1.7 1 7 4.6 12.1 60.7 86.4 159.1 16.6 159.1 16.6s-44.4-5-55-56.1c-4.5-21.7-.6-35 5.9-43.4 7.6-9.8 17.2-12.3 20.8-13.8M360.5 340.9l23.3 50.5c1 2.1 0 4.6-2 5.5-.7.2-1.3.4-1.8.4-1.6 0-3.1-.9-3.8-2.4l-23.4-51.6M360.5 426.4c-1.6 0-3.1-.9-3.8-2.4l-24.4-52.9c-1-2.1 0-4.6 2-5.5 2.1-1 4.6 0 5.5 2l24.3 52.9c1 2.1 0 4.6-2 5.5-.3.3-1 .4-1.6.4z" class="st2"/><path d="M439.3 327.3c-5.5-8.4-16-21.3-11.6-48.7 3.1-19.3-9.7-21.3-20.4-29.2-10.7-7.9-8.8-16.7-10.2-34.3-1.4-17.6-22.3-22.2-33.4-29.2-11.2-7-21.4-23.7-26-37.6-4.6-14-24.6-70.5-51-82.6-26.4-12.1-38.7-6.5-40.1-4.2-1.4 2.3-1.1 3-1.2 9.5-.3 17.3.7 15.4 2.5 17.7 3.5 4.5 29.9 9 37.9 16 12.3 10.7 11.7 72.4 6.8 92.6-7.8 30.6-17.4 33-19.9 39.9-2.8 7.8-3.7 29.2 2.8 36.6 14.8 16.9 24.4 17.5 51.2 22.7 60.1 11.6 86.6 117.3 86.6 117.3s62.4-30.9 26-86.5z" class="st2"/><path d="M292.9 174.1v56.5" class="st0"/><path d="m291.8 199.3 2.2-11.1v37.3l-2.8.3z" class="st3"/><path d="M292.9 278.1c1.6 0 6.1-1.3 6.1-3l-3.1-46.8c0-1.6-1.3-3-3-3-1.6 0-3 1.3-3 3l-3.1 46.8c0 1.7 4.5 3 6.1 3z" class="st4"/></g></g></g></svg>