<svg xmlns="http://www.w3.org/2000/svg" xmlns:xlink="http://www.w3.org/1999/xlink" xml:space="preserve" style="enable-background:new 0 0 566.9 566.9" viewBox="0 0 566.9 566.9"><style>.st2{fill:#fff}.st4{fill:#023000}.st5{fill:none}.st7{fill:#646a6f}.st9{fill:#900}.st10,.st12{fill:none;stroke:#000;stroke-miterlimit:10}.st10{stroke-width:3;stroke-linecap:round}.st12{stroke-width:4.783}.st1{fill:#3a3a3a;}
	.st2{fill:#FFFFFF;}
	.st3{fill:#B11116;}
	.st4{fill:#023000;}
	.st5{fill:none;}
	.st6{clip-path:url(#SVGID_4_);}
	.st7{fill:#646A6F;}
	.st8{clip-path:url(#SVGID_6_);}
	.st9{fill:#990000;}
	.st10{fill:none;stroke:#000000;stroke-width:3;stroke-linecap:round;stroke-miterlimit:10;}
	.st11{stroke:#000000;stroke-width:1.25;stroke-miterlimit:10;}
	.st12{fill:none;stroke:#000000;stroke-width:4.783;stroke-miterlimit:10;}
	.st13{fill:none;stroke:#000000;stroke-width:16;stroke-linecap:round;stroke-linejoin:round;stroke-miterlimit:10;}
	.st14{clip-path:url(#SVGID_8_);fill:#B11116;}
	.st15{clip-path:url(#SVGID_10_);fill:#FFFFFF;}
	.st16{clip-path:url(#SVGID_12_);fill:#B11116;}
	.st17{clip-path:url(#SVGID_14_);fill:#FFFFFF;}
	.st18{fill:#FFFFFF;stroke:#000000;stroke-width:4.783;stroke-miterlimit:10;}</style><g id="Layer_1"><g id="Layer_2_1_"><defs><path id="SVGID_1_" d="M524.5 302.1c0 133.7-108.4 242.1-242.1 242.1s-242-108.4-242-242.1c0-115.6 81.1-212.4 189.6-236.4 10.4-2.3-15.5-43.3-4.2-68.5 7.1-15.8 51.6-20.5 58.5-20.5 6.2 0 50.9 2.4 56.6 17.6 9.4 25.1-20.4 68.4-10.8 70.4C441 86.9 524.5 184.8 524.5 302.1z"/></defs><clipPath id="SVGID_2_"><use xlink:href="#SVGID_1_" style="overflow:visible"/></clipPath><g style="clip-path:url(#SVGID_2_)"><circle cx="282.5" cy="302.1" r="242.1" style="fill:#3a3a3a"/><path d="m392 311.8-24.3-20.6-46.2-4.2-8.6-16.4-.8-32.1 8-19.1 13.1-26.4-3.8-9.4 3.3-16.3 3.6-19.8-4.5-19.8-9-19.8L303 97.1 257.4 92l-29.6 46.7.8 45 1.9 18.7 18.2 40.7 6 40.1-51.2 26.9-53.9 49.6-12.1 22.8c24.9 25.4 55.7 46.5 90.7 57.3 7.7 2.4 15.5 27.3 23.6 28.6 9.2 1.5 18.5-20.7 28.1-20.7 56.9 0 109.9-28.2 146.6-66.1L392 311.8z" class="st2"/><path d="m306 415.8 19.3-58 17 38.9 75.5-39.7-26.2-53.1-75.9 58.8L163 306.4l-18 54.7 160.9 54.7z" style="fill:#b11116"/><path d="m272.2 88.6-17.4-9.2s-17.1-49.3-19-54.8c-1.9-5.4-2.8-15 8.4-18.9C256.7 1.4 262.1 17 262.1 17l18.4 53-8.3 18.6z"/><path d="m273.1 91.2-19.8-10.5L234 25.3c-5.2-14.9 6-20 9.5-21.3 11.2-3.9 18.2 6.4 20.3 12.4L282.4 70l-9.3 21.2zm-16.8-13.1 15 7.9 7.2-16.2-18.1-52.3c-.2-.6-5-13.9-15.6-10.2-4.3 1.5-11 5.7-7.3 16.6l18.8 54.2z"/><path d="M272.6 91.6c-.8 0-1.5-.5-1.7-1.2L248.2 25c-.3-1 .2-2 1.1-2.3.9-.3 2 .2 2.3 1.1l22.7 65.4c.3 1-.2 2-1.1 2.3-.2.1-.4.1-.6.1z" class="st2"/><path d="M254.9 43.4c-.3 0-.5-.1-.8-.2l-11-5.2c-.9-.4-1.3-1.5-.9-2.4.4-.9 1.5-1.3 2.4-.9l11.1 5.2c.9.4 1.3 1.5.9 2.4-.3.7-1 1.1-1.7 1.1zM258.7 54.4c-.3 0-.5-.1-.8-.2L246.8 49c-.9-.4-1.3-1.5-.9-2.4.4-.9 1.5-1.3 2.4-.9l11.1 5.2c.9.4 1.3 1.5.9 2.4-.2.7-.9 1.1-1.6 1.1zM262.6 65.5c-.3 0-.5-.1-.8-.2l-11.1-5.2c-.9-.4-1.3-1.5-.9-2.4s1.5-1.3 2.4-.9l11.1 5.2c.9.4 1.3 1.5.9 2.4-.3.7-.9 1.1-1.6 1.1zM233.953 25.674 265.59 15.29l1.154 3.515-31.639 10.383z" class="st2"/><path d="m280 96.3-5.2-19s24.4-46.2 27-51.3c2.7-5.1 9-12.3 19.5-6.8 11.7 6.2 4 20.8 4 20.8l-26.1 49.6-19.2 6.7z"/><path d="m278.7 98.7-5.9-21.6 27.4-51.9c7.4-13.9 18.7-9.3 22-7.5 10.5 5.5 7.7 17.7 4.8 23.3l-26.5 50.2-21.8 7.5zm-1.9-21.1 4.5 16.4 16.7-5.8 25.8-48.9c.3-.5 6.7-13.1-3.2-18.4-4.1-2.1-11.7-4.2-17.1 6l-26.7 50.7z"/><path d="M279.4 99.2c-.3 0-.6-.1-.9-.2-.9-.5-1.2-1.6-.8-2.5L310 35.3c.5-.9 1.6-1.2 2.5-.8.9.5 1.2 1.6.8 2.5L281 98.3c-.3.6-1 .9-1.6.9z" class="st2"/><path d="M302.6 53.4c-.8 0-1.5-.5-1.8-1.3L297 40.5c-.3-1 .2-2 1.2-2.3 1-.3 2 .2 2.3 1.2l3.8 11.6c.3 1-.2 2-1.2 2.3-.2.1-.4.1-.5.1zM297.1 63.7c-.8 0-1.5-.5-1.8-1.3l-3.8-11.6c-.3-1 .2-2 1.2-2.3 1-.3 2 .2 2.3 1.2l3.8 11.6c.3 1-.2 2-1.2 2.3-.1.1-.3.1-.5.1zM291.6 74.1c-.8 0-1.5-.5-1.8-1.3L286 61.2c-.3-1 .2-2 1.2-2.3s2 .2 2.3 1.2l3.8 11.6c.3 1-.2 2-1.2 2.3-.1.1-.3.1-.5.1zM298.028 28.586l1.783-3.242 29.18 16.044-1.782 3.242z" class="st2"/><path d="M147.3 362.3c-.4 0-.9-.1-1.3-.2-1.9-.7-2.9-2.8-2.2-4.7l17.8-48.1c.7-1.9 2.8-2.9 4.7-2.2 1.9.7 2.9 2.8 2.2 4.7l-17.8 48.1c-.6 1.4-1.9 2.4-3.4 2.4z"/><path d="M139.7 382.7c-.4 0-.8-.1-1.3-.2-1.9-.7-2.9-2.8-2.2-4.7l25.9-70.9c.7-1.9 2.8-2.9 4.7-2.2 1.9.7 2.9 2.8 2.2 4.7l-25.9 70.9c-.5 1.5-1.9 2.4-3.4 2.4zM424.8 381.5c-1.4 0-2.7-.8-3.4-2.2L388 307c-.8-1.9 0-4 1.8-4.9 1.9-.8 4 0 4.9 1.8l33.5 72.3c.8 1.9 0 4-1.8 4.9-.6.3-1.1.4-1.6.4zM170.3 371c-.4 0-.9-.1-1.3-.2-1.9-.7-2.9-2.8-2.2-4.7l17.8-48.1c.7-1.9 2.8-2.9 4.7-2.2 1.9.7 2.9 2.8 2.2 4.7l-17.8 48.1c-.5 1.5-1.9 2.4-3.4 2.4zM178.5 392.3c-.4 0-.9-.1-1.3-.2-1.9-.7-2.9-2.8-2.2-4.7l17.8-48.1c.7-1.9 2.8-2.9 4.7-2.2 1.9.7 2.9 2.8 2.2 4.7l-17.8 48.1c-.5 1.4-1.9 2.4-3.4 2.4zM211.1 384.9c-.4 0-.9-.1-1.3-.2-1.9-.7-2.9-2.8-2.2-4.7l17.8-48.1c.7-1.9 2.8-2.9 4.7-2.2 1.9.7 2.9 2.8 2.2 4.7l-17.8 48.1c-.4 1.5-1.9 2.4-3.4 2.4zM218.6 419.2c-.4 0-.9-.1-1.3-.2-1.9-.7-2.9-2.8-2.2-4.7l17.8-48.1c.7-1.9 2.8-2.9 4.7-2.2 1.9.7 2.9 2.8 2.2 4.7L222 416.8c-.4 1.5-1.9 2.4-3.4 2.4zM408.8 387.6c-1.4 0-2.7-.8-3.3-2.1L384 338.9c-.9-1.8 0-4 1.8-4.9 1.8-.9 4 0 4.9 1.8l21.4 46.5c.9 1.8 0 4-1.8 4.9-.5.3-1 .4-1.5.4zM385.1 383.9c-1.4 0-2.7-.8-3.3-2.1l-21.4-46.5c-.9-1.8 0-4 1.8-4.9 1.8-.9 4 0 4.9 1.8l21.4 46.5c.9 1.8 0 4-1.8 4.9-.6.2-1.1.3-1.6.3zM277.3 80.1c-6.8 0-21.6 5.4-31 8.5-9.4 3.2-25.2 32.8-29.2 53.9-3.6 19 4.4 26.7 6.6 42.1l4.6-2.6c1.1-4.3 5.5-19.3 5.5-21.1 0-2.7-1.9-3.1-1.9-13.9-.1-10.7 11.3-30.2 13.5-34.2s12.1-2.3 23.4-.9c11.2 1.3 14.4-2.1 14.4-2.1l.9-29.7h-6.8z"/><path d="M389.6 309.6s-.4-8.2-15.9-15.5c-15.5-7.4-46.1-8.2-50.2-10.6-4.1-2.5-9.8-18.4-9.8-18.4v-31l-2.9.6c-4.9 6.8-9.7 15.2-11 17.3-1.8 3.1-20.4 3.9-20.4 3.9s-19.2-.8-21-3.9c-1.3-2.2-6.3-10.7-11.2-17.6l-1.7-.4v31s-5.7 15.9-9.8 18.4-34.7 3.3-50.2 10.6c-15.5 7.4-15.9 15.5-15.9 15.5l155.2 54.1-3.3-.8 68.1-53.2z" class="st2"/><path d="m323.9 366.8-9.4-2.3.8-.6-149.1-52 .1-2.3c.1-1 1-10.2 17.7-18.1 10.1-4.8 26-6.9 37.5-8.4 5.3-.7 11.2-1.5 12.4-2.1 1.6-1 5.4-8.5 8.3-16.3v-34.3l6.5 1.5.7.9c4.4 6.1 8.8 13.6 10.7 16.8l.5.8c1.8 1.1 10.1 2.3 18.6 2.7 8.1-.4 16.2-1.6 17.9-2.6l.5-.9c1.8-3.1 6.1-10.4 10.5-16.4l.7-.9 7.7-1.7v34.3c2.8 7.8 6.7 15.3 8.3 16.3 1.2.6 7.1 1.4 12.4 2.1 11.6 1.5 27.4 3.6 37.5 8.4 16.7 7.9 17.6 17.1 17.7 18.1l.1 1.6-68.1 53.3-.5 2.1zm-150.5-59.1 147.8 51.6 65-50.8c-1-2.3-4.1-7-13.7-11.6-9.3-4.4-24.5-6.4-35.7-7.9-8.6-1.1-12.8-1.7-14.8-2.9-4.7-2.8-9.7-16-11.1-20l-.2-.5v-25.3c-3.2 4.8-6.1 9.7-7.5 12.1l-.7 1.2c-2.7 4.5-17.9 5.1-22.9 5.4h-.2c-20.8-.9-22.9-4.3-23.5-5.4l-.6-1.1c-1.3-2.1-3.7-6.3-6.5-10.6v23.7l-.2.5c-1.4 4-6.4 17.2-11.1 20-2 1.2-6.2 1.8-14.8 2.9-11.2 1.5-26.4 3.5-35.7 7.9-9 4.1-12.3 8.4-13.6 10.8z"/><path d="M245.5 237.4c-.2-.3-18.6-29.8-20.2-40.6-.3-1.9-.6-3.6-.9-5.2-1-5.1-1.8-9.2-.2-14.5 1.7-5.8 3.1-18.4 3.2-18.5l6.1.7c-.1.5-1.5 13.3-3.4 19.6-1.2 3.9-.6 6.9.3 11.6.3 1.6.7 3.4 1 5.4 1 6.6 11.9 26.4 19.4 38.2l-5.3 3.3zM280.7 80.1c6.8 0 21.6 5.4 31 8.5 9.4 3.2 25.2 32.8 29.2 53.9 3.6 19-4.4 26.7-6.6 42.1l-4.5-2.6c-1.1-4.3-5.5-19.3-5.5-21.1 0-2.7 1.9-3.1 1.9-13.9 0-10.7-11.3-30.2-13.5-34.2s-12.1-2.3-23.4-.9c-11.2 1.3-14.4-2.1-14.4-2.1l-.9-29.7h6.7z"/><path d="m312.4 237.4-5.2-3.3c7.4-11.9 18.4-31.6 19.4-38.2.3-2 .7-3.9 1-5.4.9-4.6 1.5-7.7.3-11.6-1.9-6.3-3.3-19.1-3.4-19.6l6.1-.7c0 .1 1.4 12.8 3.1 18.5 1.6 5.3.8 9.4-.2 14.5-.3 1.6-.6 3.3-.9 5.2-1.6 10.7-20 40.3-20.2 40.6zM298.3 438.5c-.4 0-.8-.1-1.3-.2-1.9-.7-2.9-2.8-2.2-4.7l25.9-70.9c.7-1.9 2.8-2.9 4.7-2.2s2.9 2.8 2.2 4.7L301.8 436c-.6 1.5-2 2.5-3.5 2.5z"/><path d="M303.6 418.2c-.4 0-.8-.1-1.2-.2l-156-51.8c-1.9-.6-3-2.7-2.3-4.6s2.7-3 4.6-2.3l156 51.9c1.9.6 3 2.7 2.3 4.6-.4 1.5-1.8 2.4-3.4 2.4zM340.7 401.6 321.6 364c-.9-1.8-.2-4 1.6-4.9s4-.2 4.9 1.6l15.7 31 70.4-36.7c1.8-.9 4-.2 5 1.6s.2 4-1.6 5l-76.9 40z"/><path d="M270.8 314.5c-.6 1.2-1 5-1.1 6.5h24c-.1-1.5-.5-5.3-1.1-6.5h-21.8zM291 313.1c-2.4-2.9-6-4.6-9.2-4.7h-.2c-3.2.1-6.8 1.8-9.2 4.7H291zM293 327.6c.4-1.3.6-3.8.7-5.3h-24c.1 1.4.4 4 .7 5.3H293zM292.2 328.9h-20.9c1.4 3.5 3 5.8 3 5.8s-8 26.4-8 44.3c0 16.9 13.9 16.3 15.4 16.2 1.5.1 15.4.6 15.4-16.2 0-17.8-8-44.3-8-44.3s1.7-2.3 3.1-5.8z" class="st4"/><path d="M281.2 312.5 238 277.9c-.8-.6-.9-1.8-.3-2.6.6-.8 1.8-.9 2.6-.3l40.7 32.7 37.4-33c.8-.7 1.9-.6 2.6.2.7.8.6 1.9-.2 2.6l-39.6 35z"/><path d="m109.3 391.4-1.7-2.2c.6.8 1.2 1.5 1.7 2.2" class="st2"/><path d="M162 390.3c.1-.1.1-.2.2-.3v-.1l-.2.4z"/><circle cx="427.3" cy="351.3" r="201.8" class="st5"/><defs><path id="SVGID_3_" d="M629.1 351.3c0 111.5-90.4 201.8-201.8 201.8-39 0-97.7 54.2-128.6 35-10.6-6.6-76.3-19.4-85.4-45.4-8-23 39-59.6 52.1-62.9-27.2-34.4-40-81.3-40-128.5 0-111.5 90.4-201.8 201.8-201.8s201.9 90.4 201.9 201.8z"/></defs><clipPath id="SVGID_4_"><use xlink:href="#SVGID_3_" style="overflow:visible"/></clipPath><g style="clip-path:url(#SVGID_4_)"><path d="m277.6 501.1 108.8-26.7L543.6 424l36.7 55.9v20L463.9 572s-114.6-3.8-115.9-4.6c-1.2-.9-70.4-66.3-70.4-66.3z"/><path d="m262.7 482-51.6 53.9 34.3 28.2 128.8-26.3-106.1-68z"/><path d="m373.9 480.3 168.4-54.2s17.9 16.3 18.8 23.8c.8 7 9.1 38.4 10.3 42.8 3.7-3.8 7.2-7.6 10.6-11.7l-16.4-55.4-63.8-58.4s-2.7-71.8-2.7-77.2c0-5.4-25.1-58.4-25.1-58.4s-25.1-27.8-36.8-31.4c-11.7-3.6-28.7 4.5-28.7 4.5l-28.7 39.5-44 115.8-17.1 72.7-33.9 53.3 89.1-5.7z" class="st2"/><path d="M384.4 273.4c10.8-12.6-2.5-28.4 7.8-37.4 6.7-5.8 28.7-9.6 31.6-13.3 1.5-1.9 2.3-.3 2.1-14.8-.1-5.4.2-6-1-7.9-1.2-1.9-11.4-6.6-33.4 3.5s-38.7 57.2-42.5 68.8-12.4 25.5-21.6 31.3c-9.3 5.8-26.7 9.7-27.8 24.4-1.2 14.7.4 22-8.5 28.6-8.9 6.6-19.6 8.3-17 24.4 3.7 22.8-5.1 33.6-9.7 40.6-30.4 46.4 25.3 75.8 25.3 75.8s-36.9-42.9 68.4-99c20.1-10.7 30.6-7.4 42.9-21.5 5.4-6.2 4.6-24 2.3-30.5-2-5.8-10-7.7-16.6-33.3-4.3-16.7-8.2-32.9-2.3-39.7z" class="st7"/><path d="M485.3 479.9c-1.3 0-2.6-.8-3.2-2l-20.3-44.1c-.8-1.8 0-3.8 1.7-4.6 1.8-.8 3.8 0 4.6 1.7l20.3 44.1c.8 1.8 0 3.8-1.7 4.6-.4.2-.9.3-1.4.3zM446.4 471.2c-1.3 0-2.6-.8-3.2-2l-20.3-44.1c-.8-1.8 0-3.8 1.7-4.6 1.8-.8 3.8 0 4.6 1.7l20.3 44.1c.8 1.8 0 3.8-1.7 4.6-.5.2-1 .3-1.4.3zM437.8 501.3c-1.3 0-2.6-.8-3.2-2l-20.3-44.1c-.8-1.8 0-3.8 1.7-4.6s3.8 0 4.6 1.7l20.3 44.1c.8 1.8 0 3.8-1.7 4.6-.5.2-1 .3-1.4.3zM403.3 557.9c-1.3 0-2.6-.8-3.2-2l-20.3-44.1c-.8-1.8 0-3.8 1.7-4.6s3.8 0 4.6 1.7l20.3 44.1c.8 1.8 0 3.8-1.7 4.6-.4.2-.9.3-1.4.3zM415.6 543.6c-1.3 0-2.6-.8-3.2-2l-20.3-44.1c-.8-1.8 0-3.8 1.7-4.6s3.8 0 4.6 1.7l20.3 44.1c.8 1.8 0 3.8-1.7 4.6-.4.2-.9.3-1.4.3z" class="st2"/><path d="m295.4 511.5-6.2-3.2 17.5-33.6-32.3-16.8 3.2-6.2 38.4 20z" class="st5"/><path d="m309.9 506.9-6.1-3.2 17.4-33.6-32.2-16.8 3.2-6.2 38.4 20z" class="st5"/><path d="m324.5 502.3-6.1-3.2 17.4-33.6-32.3-16.8 3.3-6.2 38.4 20zM543.3 433.2l-6.2-3.2 17.5-33.6-32.3-16.8 3.2-6.2 38.5 20z" class="st5"/><path d="m306.17 452.302 237.923-75.15 13.283 42.054-237.923 75.15z" class="st5"/><path d="M317.1 498.7 301.8 450l244.6-77.3 15.4 48.7-244.7 77.3zm-6.6-44.2 11.2 35.5L553 416.9l-11.2-35.5-231.3 73.1z"/><path d="M543.8 483.7c-1.3 0-2.6-.8-3.2-2l-20.3-44.1c-.8-1.8 0-3.8 1.7-4.6 1.8-.8 3.8 0 4.6 1.7l20.3 44.1c.8 1.8 0 3.8-1.7 4.6-.4.2-.9.3-1.4.3zM527 510.3c-1.3 0-2.6-.8-3.2-2l-20.3-44.1c-.8-1.8 0-3.8 1.7-4.6 1.8-.8 3.8 0 4.6 1.7l20.3 44.1c.8 1.8 0 3.8-1.7 4.6-.4.2-.9.3-1.4.3z" class="st2"/><defs><path id="SVGID_5_" d="m343.9 439.7 149-46.7 19.4.6 19.5 7.7 10 13.4 4.4 8.9-183.9 56.1-18.9-26.1z"/></defs><clipPath id="SVGID_6_"><use xlink:href="#SVGID_5_" style="overflow:visible"/></clipPath><g style="clip-path:url(#SVGID_6_)"><path d="m353.7 493.1-6.2-3.2 17.5-33.6-32.3-16.8 3.2-6.2 38.5 20z" class="st9"/><path d="m339.1 497.7-6.2-3.2 17.5-33.6-32.3-16.8 3.3-6.2 38.4 20z"/><path d="m368.3 488.5-6.2-3.2 17.5-33.7-32.3-16.7 3.2-6.2 38.5 20z"/><path d="m382.9 483.9-6.2-3.3 17.5-33.6-32.3-16.7 3.2-6.2 38.4 20z" class="st9"/><path d="m397.4 479.3-6.1-3.3 17.4-33.6-32.2-16.8 3.2-6.1 38.4 20z"/><path d="m412 474.6-6.1-3.2 17.4-33.6L391 421l3.3-6.1 38.4 20z" class="st9"/><path d="m426.6 470-6.2-3.2 17.5-33.6-32.3-16.8 3.2-6.1 38.5 20z"/><path d="m441.2 465.4-6.2-3.2 17.5-33.6-32.3-16.8 3.2-6.1 38.5 19.9z" class="st9"/><path d="m455.8 460.8-6.2-3.2 17.5-33.6-32.3-16.8 3.2-6.2 38.5 20z"/><path d="m470.4 456.2-6.2-3.2 17.4-33.6-32.2-16.8 3.2-6.2 38.4 20z" class="st9"/><path d="m484.9 451.6-6.1-3.2 17.4-33.6L464 398l3.2-6.2 38.4 20z"/><path d="m499.5 447-6.1-3.2 17.4-33.6-32.3-16.8 3.3-6.2 38.4 20z" class="st9"/><path d="m514.1 442.4-6.2-3.2 17.5-33.6-32.3-16.8 3.2-6.2 38.5 20z"/><path d="m528.7 437.8-6.2-3.2L540 401l-32.3-16.8 3.2-6.2 38.5 20z"/></g><path d="M470.9 273.4C460 260.8 473.3 245 463 236c-6.7-5.8-28.7-9.6-31.6-13.3-1.5-1.9-2.3-.3-2.1-14.8.1-5.4-.2-6 1-7.9 1.2-1.9 11.4-6.6 33.4 3.5s38.7 57.2 42.5 68.8 12.4 25.5 21.7 31.3 26.7 9.7 27.8 24.4-.4 22 8.5 28.6c8.9 6.6 19.6 8.3 17 24.4-3.7 22.8 5.1 33.6 9.7 40.6 30.3 46.4-21.7 72.1-21.7 72.1s-19.3-98.2-72.3-97.8c-22.8.2-30.3-4.9-42.7-18.9-5.4-6.2-4.6-24-2.3-30.5 2-5.8 10-7.7 16.6-33.3 4.3-16.8 8.3-33 2.4-39.8zM380.9 388.8s-40.2 8.4-31.3 51 45.9 46.7 45.9 46.7-82.1 58.2-132.6-13.9c-28.7-40.8 118-83.8 118-83.8z" class="st7"/><path d="m427 325.8 2.5-1.5s6.5-.7 10 .3 4.9 2.1 4.9 2.1-4.1 5-5.1 5.6c-2.5 1.4-6.7 3.2-10.4 2.8-1.5-.1-1.1 0-1.5-.1-3.4-.3-.6-9.2-.4-9.2z"/><path d="m427.4 325.8-2.5-1.5s-6.5-.7-10 .3-4.9 2.1-4.9 2.1 4.1 5 5.1 5.6c2.5 1.4 6.7 3.2 10.4 2.8 1.5-.1 1.1 0 1.5-.1 3.4-.3.6-9.2.4-9.2z"/></g><path d="M429.9 333.8v18.5M433.6 333.8v12.9M426 333.8v18.5M422.4 333.8v12.9" class="st10"/><path d="M439.6 351.6c-.6 1-1.8 1.5-2.9 1.5-.4 0-1.1-.1-1.8-.6-.5-.3-1-.9-1.4-1.7s-.6-1.9-.7-3.1h1.4c0 .9.2 1.8.5 2.4.5 1 1.2 1.5 2 1.5.6 0 1.3-.3 1.6-.8.4-.5.4-1.4.1-2-.1-.2-.4-.6-.8-.6s-.7-.4-.7-.8.4-.7.8-.7c.9 0 1.6.6 2 1.4.7 1.2.6 2.5-.1 3.5zm-23.3 0c.6 1 1.8 1.5 2.9 1.5.4 0 1.1-.1 1.8-.6.5-.3 1-.9 1.4-1.7s.6-1.9.7-3.1h-1.4c0 .9-.2 1.8-.5 2.4-.5 1-1.2 1.5-2 1.5-.6 0-1.3-.3-1.6-.8-.4-.5-.4-1.4-.1-2 .1-.2.4-.6.8-.6s.7-.4.7-.8-.4-.7-.8-.7c-.9 0-1.6.6-2 1.4-.6 1.2-.5 2.5.1 3.5z" style="stroke:#000;stroke-width:1.25;stroke-miterlimit:10"/><path d="M442.5 355.2c-3.4 2.4-8.7 3.7-14.6 3.7-6.2 0-10.7-1.2-14.4-3.7-.2-.1-.4-.3-.6-.4-1.4-.9-4.6-2.9-9.4-9-.1-.1-.8-1-1.4-1.9-.6-.8-1.1-1.5-1.1-1.5 1.9 2.7 2.5 8.4 2.7 10 3.4 3.7 5.8 5.2 7 5.9.2.1.3.2.5.3 4.4 3.1 9.7 4.5 16.7 4.5 6.8 0 12.9-1.6 17-4.5.9-.6 3.1-2.2 6.5-6 .1-1 .6-6.5 2.3-9.5-6.3 8.7-9.9 11.3-11.2 12.1z" class="st7"/><path d="M442.5 356.1c-3.4 2.4-8.7 3.7-14.6 3.7-6.2 0-10.7-1.2-14.4-3.7-.2-.1-.4-.3-.6-.4-1.4-.9-4.6-2.9-9.4-9-.1-.1-.8-1-1.4-1.9-.6-.8-1.1-1.5-1.1-1.5 1.9 2.7 2.5 8.4 2.7 10 3.4 3.7 5.8 5.2 7 5.9.2.1.3.2.5.3 4.4 3.1 9.7 4.5 16.7 4.5 6.8 0 12.9-1.6 17-4.5.9-.6 3.1-2.2 6.5-6 .1-1 .6-6.5 2.3-9.5-6.3 8.7-9.9 11.2-11.2 12.1z" class="st7"/><path d="M269.9 489.9s-18.3-32.8-18.6-33.3c-12.6-21.8-28.4-46.9-35.6-50.3-13.1-6.2-42.1-3.7-45.5-5.8-3.4-2.1-8.3-5.1-8.3-5.1v-17.6l1.8-2.9c-6.8 9.4-10.5 11.6-11.7 12.4-3.8 2.7-9.5 4.1-15.6 4.1-6.8 0-11.5-1.4-15.3-4.1-1.1-.8-4.6-2.6-10.4-10.2l.5.6v17.6s-4.8 3-8.3 5.1c-3.4 2.1-32.4-.4-45.5 5.8-7.2 3.4-23 28.6-35.7 50.4-.3.5-18.5 33.2-18.5 33.2l77 22.3L192 555.7l77.9-65.8z" class="st2"/><path d="m114.7 392.1-4.7-17.3-13.4-16.4-4.2-17.1-2.4-50 39.5-43.2s11.6-.5 12.1-.5 37.2 35.3 37.2 35.3.6 29 .8 29.5c.2.5 3 18.1 3 18.8 0 .7-2.8 17.1-2.8 17.1l-3.1 10.5-12.6 16-8 17.1-16.7 5.8-24.7-5.6z" class="st2"/><path d="M110.2 377c-5.2-8.3-15.7-18.7-16.7-25.4s-2.6-10.3-1-15.5.7-29.2.7-29.2" class="st12"/><path d="m110.7 377.2-1.5-2c.5.7 1 1.4 1.5 2" class="st2"/><path d="M57.4 406.3c-7.2 3.4-23 28.6-35.7 50.4-.3.5-18.5 33.2-18.5 33.2l77 22.3M271 492.5s-19.4-35.4-19.6-35.9c-12.6-21.8-28.4-46.9-35.6-50.3-13.1-6.2-42.1-3.7-45.5-5.8-3.4-2.1-8.3-5.1-8.3-5.1v-17.6l1.8-2.9c-6.8 9.4-10.5 11.6-11.7 12.4-3.8 2.7-9.5 4.1-15.6 4.1-6.8 0-11.5-1.4-15.3-4.1-1.1-.8-4.6-2.6-10.4-10.2l.5.6v17.6" class="st12"/><path d="M159.6 376.1c.1-.1.1-.2.2-.3v-.1l-.2.4zM55.7 443.8h151.5l20.8 45H34.1z"/><path d="m196.1 403.4-4.9 42.7" style="fill:none;stroke:#000;stroke-width:16;stroke-linecap:round;stroke-linejoin:round;stroke-miterlimit:10"/><path d="M135.4 248.1c-.9-1.6-9.7-5.5-27.5 2.2-7.5 3.2-14.4 11.8-20.1 21.3L53.5 412.1c7-5.8 15.1-9.4 24.5-9.1 18.2.5 28.2 2.3 38.3-8.7 2.2-2.4-2-11.3-2-16.2-5.1-8.1-14.8-20.5-17-27.8v-.1c.3-.5.6-1.1.8-1.5.6-1.2 1.7-14.5.9-24.6s1.4-28.4 10.6-36.4 19.3-10.1 22.5-10.9c3.3-.8 3-2.2 3.4-9.1v-.2c.3-3 .5-7.2.6-13 0-4.4.2-4.8-.7-6.4M186.1 271.6c-5.7-9.5-12.6-18.1-20.1-21.3-17.8-7.7-26.6-3.8-27.5-2.2-.9 1.6-.7 2-.6 6.4.1 7.5.4 12.4.9 15.5.2 4.9.4 6.1 3.3 6.8 3.3.8 13.4 2.9 22.6 10.9 9.2 8 11.4 26.3 10.6 36.4-.8 10.1.4 23.5.9 24.6.2.3.4.8.7 1.3-.8 2.9-5.2 3.6-7.9 7.3-1.6 2.2-2.9 5-4.2 7.9-1.7 3.9-3.3 7.9-5 10.6.1 5.3.7 15.8 3.1 18.4 10.1 11.1 14.9 9.2 33.2 8.7 9.4-.3 17.5 3.3 24.5 9.1l-34.5-140.4z"/><path d="m90.6 499.4-10.9-8.8 20-24.8-16.1-23.5 11.5-7.9 21.9 32.1z" class="st2"/><defs><path id="SVGID_7_" d="M34 443.7 11.8 456c3 3.3 6.1 6.5 9.3 32.8h231.7c3.1-26.2 6-29.2 8.9-32.3l-8.4-12.8H34z"/></defs><clipPath id="SVGID_8_"><use xlink:href="#SVGID_7_" style="overflow:visible"/></clipPath><path d="m121.5 499.4-10.8-8.8 19.9-24.8-16.1-23.5 11.5-7.9 21.9 32.1z" style="clip-path:url(#SVGID_8_);fill:#b11116"/><defs><path id="SVGID_9_" d="M34 443.7 11.8 456c3 3.3 6.1 6.5 9.3 32.8h231.7c3.1-26.2 6-29.2 8.9-32.3l-8.4-12.8H34z"/></defs><clipPath id="SVGID_10_"><use xlink:href="#SVGID_9_" style="overflow:visible"/></clipPath><path d="m152.5 499.4-10.9-8.8 19.9-24.8-16.1-23.5 11.5-7.9 22 32.1z" style="clip-path:url(#SVGID_10_);fill:#fff"/><defs><path id="SVGID_11_" d="M34 443.7 11.8 456c3 3.3 6.1 6.5 9.3 32.8h231.7c3.1-26.2 6-29.2 8.9-32.3l-8.4-12.8H34z"/></defs><clipPath id="SVGID_12_"><use xlink:href="#SVGID_11_" style="overflow:visible"/></clipPath><path d="m183.4 499.4-10.9-8.8 19.9-24.8-16.1-23.5 11.5-7.9 22 32.1z" style="clip-path:url(#SVGID_12_);fill:#b11116"/><defs><path id="SVGID_13_" d="M34 443.7 11.8 456c3 3.3 6.1 6.5 9.3 32.8h231.7c3.1-26.2 6-29.2 8.9-32.3l-8.4-12.8H34z"/></defs><clipPath id="SVGID_14_"><use xlink:href="#SVGID_13_" style="overflow:visible"/></clipPath><path d="m218.5 499.4-10.9-8.8 19.9-24.8-16.1-23.5 11.5-7.9 22 32.1z" style="clip-path:url(#SVGID_14_);fill:#fff"/><path d="M92.5 299.9s9.3 65.1 19.1 73.9c3.3 3-6.7 8.8-13.8 12.9s-14.3-13.8-14.3-13.8l2.6-50.6 6.4-22.4zM180.1 306.8s-9.3 58.1-19.1 66.9c-3.3 3 6.6 8.8 13.8 12.9 7.1 4.1 14.3-13.8 14.3-13.8l-2.6-50.6-6.4-15.4z"/><path d="M58.2 394.6 19.3 545s121.3 98.1 97.6 16.7c-23.7-81.6-2.8-164.6-2.8-164.6l-37-16.4-18.9 13.9z"/><path d="M160 382.9c1.2-14 1.8-15.4 1.8-15.4l-23 3.8v35.2l22.8-.4 10.5-2.5s-14-3.4-12.2-17.8l.1-2.9z" class="st2"/><path d="M116.7 385.6c-1.2-14-2.3-18.1-2.3-18.1l23 3.8 14.9 40.1-37.7-5.4-9.5-1.9c0 .1 12.7-4.5 11.6-18.5" class="st2"/><path d="M109.7 421s7.8-33.4 7.8-36.3-18.2 5.8-18.2 5.8-3.2 12.8-2.2 14.6 6.9 13.7 6.9 13.7l5.7 2.2z"/><path d="m137.8 274.3-1.1 115.2h1.1c19.5-.1 35.2-20.1 38.5-57.6 3.5-38.8-17.3-57.5-38.5-57.6z" class="st2"/><path d="M137 274.3v115.2c-19.5-.1-35.2-20.1-38.5-57.6-3.7-42.2 17.2-57.5 38.5-57.6z" class="st2"/><path d="M109.3 375.6c.1.1 2.4 3.2 2.5 3.3 5.7 7.2 9.3 8.9 10.4 9.7 3.8 2.6 8.6 4 15.5 4 6.2 0 11.9-1.4 15.7-4 1.2-.8 5.1-3.5 12-12.8" style="fill:#fff;stroke:#000;stroke-width:4.783;stroke-miterlimit:10"/></g><path d="M116.6 488.2h114.1v13.4H116.6z" class="st2"/></g></g></svg>