<?xml version="1.0" encoding="utf-8"?>
<svg version="1.1" id="Layer_1" xmlns="http://www.w3.org/2000/svg" xmlns:xlink="http://www.w3.org/1999/xlink" x="0px" y="0px"
	 viewBox="0 0 16.3 16.3" style="enable-background:new 0 0 16.3 16.3;" xml:space="preserve">
<style type="text/css">
	.st0{fill:none;stroke:#000000;stroke-width:0.1667;stroke-miterlimit:10;}
</style>
<path class="st0" d="M8.7,12.1c-0.3-0.8-1-1.3-1.9-1.3c-1.1,0-2,0.9-2,2s0.9,2,2,2c0.9,0,1.6-0.6,1.9-1.3h1.4v1.3h1.3v-1.3h0.7v-1.3
	H8.7 M6.8,13.5c-0.4,0-0.7-0.3-0.7-0.7c0-0.4,0.3-0.7,0.7-0.7c0.4,0,0.7,0.3,0.7,0.7C7.4,13.2,7.1,13.5,6.8,13.5 M8.1,0.1
	c-2.2,0-4,1.8-4,4s1.8,4,4,4s4-1.8,4-4S10.3,0.1,8.1,0.1 M8.1,9.1c-2.7,0-8,1.3-8,4v3h16v-3C16.1,10.5,10.8,9.1,8.1,9.1"/>
</svg>
