<?xml version="1.0" encoding="utf-8"?>
<!-- Generator: Adobe Illustrator 24.0.2, SVG Export Plug-In . SVG Version: 6.00 Build 0)  -->
<svg version="1.1" id="Layer_1" xmlns="http://www.w3.org/2000/svg" xmlns:xlink="http://www.w3.org/1999/xlink" x="0px" y="0px"
	 viewBox="0 0 17.4 17.4" style="enable-background:new 0 0 17.4 17.4;" xml:space="preserve">
<style type="text/css">
	.st0{fill:none;stroke:#000000;stroke-width:0.2624;stroke-miterlimit:10;}
</style>
<path class="st0" d="M8.7,17.3c-2.8,0-5.2-1.3-6.6-3.2c0-2,4.4-3.1,6.6-3.1s6.6,1.1,6.6,3.1C13.9,16,11.5,17.3,8.7,17.3 M8.7,3.1
	c1.7,0,3,1.3,3,3s-1.3,3-3,3s-3-1.3-3-3S7.1,3.1,8.7,3.1 M8.7,0.1c-4.7,0-8.6,3.8-8.6,8.6s3.8,8.6,8.6,8.6s8.6-3.8,8.6-8.6
	C17.3,3.9,13.4,0.1,8.7,0.1z"/>
</svg>
