<svg xmlns="http://www.w3.org/2000/svg" xml:space="preserve" style="enable-background:new 0 0 512 512" viewBox="0 0 512 512"><path d="M405.1 172.7H108.9c-6.1 0-11.1-5-11.1-11.1v-24.1c0-17.9 14.5-32.3 32.3-32.3h251.7c17.9 0 32.3 14.5 32.3 32.3v26.1c.1 5.1-4 9.1-9 9.1zM370.6 87.2H142.7c-7.6 0-13.8-6.2-13.8-13.8V46.3c0-13.1 10.6-23.8 23.8-23.8h206.7c13.1 0 23.8 10.6 23.8 23.8v28.4c-.1 6.9-5.7 12.5-12.6 12.5zM415 195.7H97c-35.9 0-65 29.1-65 65v145c0 35.9 29.1 65 65 65h318c35.9 0 65-29.1 65-65v-145c0-35.9-29.1-65-65-65zM202.6 403V263.5l120.8 69.7L202.6 403z"/></svg>