<svg xmlns="http://www.w3.org/2000/svg" xml:space="preserve" id="Layer_1" x="0" y="0" style="enable-background:new 0 0 273.2 112.2" version="1.1" viewBox="0 0 273.2 112.2"><style>.st0,.st1{fill:none;stroke:#000;stroke-width:.5;stroke-miterlimit:10}.st1{fill:#fff}</style><path d="M134.2 2.7H6.2c-1.3 0-2.3 1-2.3 2.3v101.4c0 1.3 1 2.3 2.3 2.3h128.1c1.3 0 2.3-1 2.3-2.3V5c-.1-1.2-1.1-2.3-2.4-2.3zM3.5 3.4" class="st0"/><path d="M36.3 51.6c7.4 0 13.4-6.1 13.4-13.6s-6-13.6-13.4-13.6S22.8 30.5 22.8 38s6.1 13.6 13.5 13.6zM121.5 70.2c1 .9 2.5.8 3.4-.2.9-1 .8-2.5-.1-3.5l-29-26.9c-.5-.4-1.1-.7-1.7-.6-.6 0-1.2.3-1.7.8L68.8 66.1 57.3 54.5c-.9-.9-2.3-1-3.3-.1L13 91" class="st0"/><path d="M267.2 2.7H138.8c-1.3 0-2.3 1-2.3 2.3v101.2c0 1.3 1 2.3 2.3 2.3h128.4c1.3 0 2.3-1 2.3-2.3V5c0-1.2-1-2.3-2.3-2.3zm-78.3 70.8V37.2c0-.9.9-1.4 1.6-.9l26.3 18.2c.6.4.6 1.4 0 1.8l-26.3 18.2c-.7.4-1.6-.1-1.6-1zm55.2-70.8.3 106m25.1-80.8h-25.1m0 28.4h25.1m-25.1 28.4h25.1M161.6 108.7V2.7M136.5 84.7l25.1.2M136.5 56.7l25.1.2M136.5 27.7l25.1.2" class="st1"/><circle cx="137" cy="56.2" r="21.5" class="st1"/><path d="m149.7 56.1-23.2-.3M138.1 45.5l-.2 23.2" class="st0"/></svg>