<?xml version="1.0" encoding="utf-8"?>
<!-- Generator: Adobe Illustrator 24.0.2, SVG Export Plug-In . SVG Version: 6.00 Build 0)  -->
<svg version="1.1" id="Layer_1" xmlns="http://www.w3.org/2000/svg" xmlns:xlink="http://www.w3.org/1999/xlink" x="0px" y="0px"
	 viewBox="0 0 265.2 108" style="enable-background:new 0 0 265.2 108;" xml:space="preserve">
<style type="text/css">
	.st0{fill:none;stroke:#000000;stroke-miterlimit:10;}
	.st1{fill:#FFFFFF;stroke:#000000;stroke-width:0.9383;stroke-miterlimit:10;}
</style>
<g>
	<path class="st0" d="M215,51.9l-25.5-16.3c-0.7-0.5-1.6-0.5-2.4-0.1c-0.7,0.4-1.2,1.2-1.2,2v32.4c0,0.8,0.5,1.6,1.2,2
		c0.3,0.2,0.7,0.3,1.1,0.3c0.4,0,0.9-0.1,1.2-0.4l25.5-16.2c0.7-0.4,1.1-1.2,1.1-2C216.1,53,215.7,52.3,215,51.9z M190.6,65.8v-24
		l18.9,12L190.6,65.8z"/>
	<path class="st0" d="M262.4,0.5h-23.2h-83.4h-23.2c-1.3,0-2.3,1-2.3,2.3v25.5v25.5v25.5v25.5c0,1.3,1,2.3,2.3,2.3h23.2h83.4h23.2
		c1.3,0,2.3-1,2.3-2.3V79.3V53.8V28.3V2.9C264.7,1.6,263.7,0.5,262.4,0.5z M153.5,51.5H135V30.7h18.5V51.5z M135,56.1h18.5v20.8H135
		V56.1z M158.2,79.3V53.8V28.3V5.2H237v23.2v25.5v25.5v23.2h-78.8V79.3z M260.1,51.5h-18.6V30.7H260v20.8H260.1z M241.5,56.1H260
		v20.8h-18.5V56.1z M260.1,5.2V26h-18.6V5.2H260.1z M135,5.2h18.5V26H135V5.2z M135,102.5V81.7h18.5v20.8H135z M260.1,102.5h-18.6
		V81.7H260v20.8H260.1z"/>
</g>
<g>
	<path class="st0" d="M132.7,0.9H2.8c-1.3,0-2.3,1-2.3,2.3v102c0,1.3,1,2.3,2.3,2.3h129.8c1.3,0,2.3-1,2.3-2.3V3.2
		C135,1.9,133.9,0.9,132.7,0.9z M130.3,102.9H5.1V5.5h125.2V102.9z"/>
	<path class="st0" d="M37.6,52.2c7.1,0,12.9-5.8,12.9-12.9s-5.8-12.9-12.9-12.9s-12.9,5.8-12.9,12.9C24.7,46.4,30.5,52.2,37.6,52.2z
		 M37.6,31c4.6,0,8.3,3.7,8.3,8.3c0,4.6-3.7,8.3-8.3,8.3s-8.3-3.7-8.3-8.3S33,31,37.6,31z"/>
	<path class="st0" d="M16.7,93.6c0.5,0,1.1-0.2,1.5-0.6L56,59.7l23.9,23.9c0.9,0.9,2.4,0.9,3.3,0s0.9-2.4,0-3.3L72.1,69.2l21.3-23.3
		l26.1,23.9c0.9,0.9,2.4,0.8,3.3-0.1c0.9-0.9,0.8-2.4-0.1-3.3L94.9,40.9c-0.5-0.4-1.1-0.6-1.7-0.6s-1.2,0.3-1.6,0.8L68.9,66l-11-11
		c-0.9-0.9-2.3-0.9-3.2-0.1L15.2,89.6c-1,0.8-1.1,2.3-0.2,3.3C15.4,93.4,16.1,93.6,16.7,93.6z"/>
</g>
<circle class="st1" cx="135" cy="54.6" r="38"/>
<path class="st0" d="M151.9,49.2h-13.7V37.7c0-1.4-1.2-2.6-2.6-2.6s-2.6,1.2-2.6,2.6v11.5h-13c-1.4,0-2.6,1.2-2.6,2.6
	s1.2,2.6,2.6,2.6h13v15.2c0,1.4,1.2,2.6,2.6,2.6s2.6-1.2,2.6-2.6V54.4h13.7c1.4,0,2.6-1.2,2.6-2.6S153.3,49.2,151.9,49.2z"/>
</svg>
