<?xml version="1.0" encoding="utf-8"?>
<!-- Generator: Adobe Illustrator 24.0.2, SVG Export Plug-In . SVG Version: 6.00 Build 0)  -->
<svg version="1.1" id="Layer_1" xmlns="http://www.w3.org/2000/svg" xmlns:xlink="http://www.w3.org/1999/xlink" x="0px" y="0px"
	 viewBox="0 0 248.2 151.2" style="enable-background:new 0 0 248.2 151.2;" xml:space="preserve">
<style type="text/css">
	.st0{fill:#FFFFFF;stroke:#999999;stroke-width:0.25;stroke-miterlimit:10;}
	.st1{fill:none;stroke:#999999;stroke-width:0.252;stroke-miterlimit:10;}
	.st2{fill:none;stroke:#999999;stroke-width:0.2475;stroke-miterlimit:10;}
	.st3{fill:none;stroke:#999999;stroke-width:0.2618;stroke-miterlimit:10;}
	.st4{fill:#FFFFFF;stroke:#000000;stroke-width:0.9383;stroke-miterlimit:10;}
</style>
<g>
	<path class="st0" d="M169.5,113.8V80.6c0-0.8,0.9-1.3,1.6-0.8l25.1,16.6c0.6,0.4,0.6,1.3,0,1.7l-25.1,16.6
		C170.4,115.1,169.5,114.6,169.5,113.8z"/>
	<path class="st0" d="M242.3,47.7h-21.9h-78.8h-21.9c-1.2,0-2.2,0.9-2.2,2.1V73v23.2v23.2v23.2c0,1.2,1,2.1,2.2,2.1h21.9h78.8h21.9
		c1.2,0,2.2-0.9,2.2-2.1v-23.2V96.2V73V49.8C244.5,48.7,243.5,47.7,242.3,47.7z M141.2,121.1V96.3V71.4V48.8h79.3v22.6v24.9v24.9
		v22.6h-79.3V121.1z M243.5,48.8v22.9h-22V48.8H243.5z M140.5,48.8v22.9h-22V48.8H140.5z M140.5,72.8v22.9h-22V72.8H140.5z
		 M140.5,96.8v22.9h-22V96.8H140.5z M140.5,120.8v22.9h-22v-22.9H140.5z M243.5,72.8v22.9h-22V72.8H243.5z M243.5,96.8v22.9h-22
		V96.8H243.5z M243.5,120.8v22.9h-22v-22.9H243.5z"/>
</g>
<g>
	<path class="st1" d="M135.3,1.7H5.2c-1.3,0-2.3,1.1-2.3,2.4v103.5c0,1.3,1,2.4,2.3,2.4h130.1c1.3,0,2.3-1.1,2.3-2.4V4.1
		C137.6,2.8,136.6,1.7,135.3,1.7z M132.8,105 M2.5,2.4"/>
	<path class="st2" d="M134.2,2.7H6.2c-1.3,0-2.3,1-2.3,2.3v101.4c0,1.3,1,2.3,2.3,2.3h128.1c1.3,0,2.3-1,2.3-2.3V5
		C136.5,3.8,135.5,2.7,134.2,2.7z M131.8,103.9 M3.5,3.4"/>
	<path class="st3" d="M36.3,51.6c7.4,0,13.4-6.1,13.4-13.6c0-7.5-6-13.6-13.4-13.6S22.8,30.5,22.8,38S28.9,51.6,36.3,51.6z"/>
	<path class="st3" d="M121.5,70.2c1,0.9,2.5,0.8,3.4-0.2c0.9-1,0.8-2.5-0.1-3.5l-29-26.9c-0.5-0.4-1.1-0.7-1.7-0.6
		c-0.6,0-1.2,0.3-1.7,0.8L68.8,66.1L57.3,54.5c-0.9-0.9-2.3-1-3.3-0.1L13,91"/>
</g>
<circle class="st4" cx="127" cy="76.2" r="38"/>
<path d="M142.9,71.8h-13.7V60.3c0-1.4-1.2-2.6-2.6-2.6s-2.6,1.2-2.6,2.6v11.5h-13c-1.4,0-2.6,1.2-2.6,2.6s1.2,2.6,2.6,2.6h13v15.2
	c0,1.4,1.2,2.6,2.6,2.6s2.6-1.2,2.6-2.6V77h13.7c1.4,0,2.6-1.2,2.6-2.6S144.3,71.8,142.9,71.8z"/>
</svg>
