<svg xmlns="http://www.w3.org/2000/svg" xml:space="preserve" id="Layer_1" x="0" y="0" style="enable-background:new 0 0 288.1 127.4" version="1.1" viewBox="0 0 288.1 127.4"><style>.st0,.st1{fill:none;stroke:#000;stroke-width:.5;stroke-miterlimit:10}.st1{fill:#fff}</style><path d="M141.2 10.9h-128c-1.3 0-2.3 1-2.3 2.3v101.4c0 1.3 1 2.3 2.3 2.3h128.1c1.3 0 2.3-1 2.3-2.3V13.2c-.1-1.2-1.1-2.3-2.4-2.3zM10.5 11.6" class="st0"/><path d="M43.3 59.8c7.4 0 13.4-6.1 13.4-13.6s-6-13.6-13.4-13.6-13.4 6.1-13.4 13.6c-.1 7.5 6 13.6 13.4 13.6zM128.5 78.4c1 .9 2.5.8 3.4-.2.9-1 .8-2.5-.1-3.5l-29-26.9c-.5-.4-1.1-.7-1.7-.6-.6 0-1.2.3-1.7.8L75.8 74.3 64.3 62.7c-.9-.9-2.3-1-3.3-.1L20 99.2" class="st0"/><path d="M274.2 10.9H145.8c-1.3 0-2.3 1-2.3 2.3v101.2c0 1.3 1 2.3 2.3 2.3h128.4c1.3 0 2.3-1 2.3-2.3V13.2c0-1.2-1-2.3-2.3-2.3zm-78.3 70.8V45.4c0-.9.9-1.4 1.6-.9l26.3 18.2c.6.4.6 1.4 0 1.8l-26.3 18.2c-.7.4-1.6-.1-1.6-1zm55.2-70.8.3 106m25.1-80.8h-25.1m0 28.4h25.1m-25.1 28.4h25.1M168.6 116.9v-106M143.5 92.9l25.1.2M143.5 64.9l25.1.2M143.5 35.9l25.1.2" class="st1"/><circle cx="144" cy="64.4" r="21.5" class="st1"/><path d="m156.7 64.3-23.2-.3M145.1 53.7l-.2 23.2" class="st0"/></svg>