<?xml version="1.0" encoding="utf-8"?>
<svg version="1.1" id="Layer_1" xmlns="http://www.w3.org/2000/svg" xmlns:xlink="http://www.w3.org/1999/xlink" x="0px" y="0px"
	 viewBox="0 0 273.2 112.2" style="enable-background:new 0 0 273.2 112.2;" xml:space="preserve">
<style type="text/css">
	.st0{fill:none;stroke:#000000;stroke-width:0.5;stroke-miterlimit:10;}
	.st1{fill:#FFFFFF;stroke:#000000;stroke-width:0.5;stroke-miterlimit:10;}
</style>
<g>
	<path class="st0" d="M134.2,2.7H6.2c-1.3,0-2.3,1-2.3,2.3v101.4c0,1.3,1,2.3,2.3,2.3h128.1c1.3,0,2.3-1,2.3-2.3V5
		C136.5,3.8,135.5,2.7,134.2,2.7z M131.8,103.9 M3.5,3.4"/>
	<path class="st0" d="M36.3,51.6c7.4,0,13.4-6.1,13.4-13.6c0-7.5-6-13.6-13.4-13.6S22.8,30.5,22.8,38S28.9,51.6,36.3,51.6z"/>
	<path class="st0" d="M121.5,70.2c1,0.9,2.5,0.8,3.4-0.2c0.9-1,0.8-2.5-0.1-3.5l-29-26.9c-0.5-0.4-1.1-0.7-1.7-0.6
		c-0.6,0-1.2,0.3-1.7,0.8L68.8,66.1L57.3,54.5c-0.9-0.9-2.3-1-3.3-0.1L13,91"/>
</g>
<path class="st1" d="M219.5,122.7"/>
<g>
	<g>
		<path class="st1" d="M267.2,2.7h-22.5H138.8c-1.3,0-2.3,1-2.3,2.3v25.3v25.3v25.3v25.3c0,1.3,1,2.3,2.3,2.3h105.5h22.9
			c1.3,0,2.3-1,2.3-2.3V81.1V55.7V30.4V5C269.5,3.8,268.5,2.7,267.2,2.7z M188.9,73.5V37.2c0-0.9,0.9-1.4,1.6-0.9l26.3,18.2
			c0.6,0.4,0.6,1.4,0,1.8l-26.3,18.2C189.8,74.9,188.9,74.4,188.9,73.5z M244.1,2.7l0.3,106 M269.5,27.9h-25.1 M244.4,56.3h25.1
			 M244.4,84.7l25.1,0"/>
	</g>
	<line class="st1" x1="161.6" y1="108.7" x2="161.6" y2="2.7"/>
	<line class="st1" x1="136.5" y1="84.7" x2="161.6" y2="84.9"/>
	<line class="st1" x1="136.5" y1="56.7" x2="161.6" y2="56.9"/>
	<line class="st1" x1="136.5" y1="27.7" x2="161.6" y2="27.9"/>
</g>
<path class="st1" d="M109.5,134.7"/>
<path d="M196.5,197.7"/>
<g>
	<circle class="st1" cx="137" cy="56.2" r="21.5"/>
	<line class="st0" x1="149.7" y1="56.1" x2="126.5" y2="55.8"/>
	<line class="st0" x1="138.1" y1="45.5" x2="137.9" y2="68.7"/>
</g>
</svg>
