<?xml version="1.0" encoding="utf-8"?>
<svg version="1.1" id="Layer_1" xmlns="http://www.w3.org/2000/svg" xmlns:xlink="http://www.w3.org/1999/xlink" x="0px" y="0px"
	 viewBox="0 0 283.5 283.5" style="enable-background:new 0 0 283.5 283.5;" xml:space="preserve">
<style type="text/css">
	.st0{fill:none;stroke:#000000;stroke-miterlimit:10;}
	.st1{fill:#FFFFFF;stroke:#000000;stroke-width:3;stroke-miterlimit:10;}
	.st2{stroke:#000000;stroke-miterlimit:10;}
</style>
<g>
	<path class="st0" d="M224.5,117.8L199,101.5c-0.7-0.5-1.6-0.5-2.4-0.1c-0.7,0.4-1.2,1.2-1.2,2v32.4c0,0.8,0.5,1.6,1.2,2
		c0.3,0.2,0.7,0.3,1.1,0.3c0.4,0,0.9-0.1,1.2-0.4l25.5-16.2c0.7-0.4,1.1-1.2,1.1-2C225.6,118.9,225.2,118.2,224.5,117.8z
		 M200.1,131.7v-24l18.9,12L200.1,131.7z"/>
	<path class="st0" d="M271.9,66.4h-23.2h-83.4h-23.2c-1.3,0-2.3,1-2.3,2.3v25.5v25.5v25.5v25.5c0,1.3,1,2.3,2.3,2.3h23.2h83.4h23.2
		c1.3,0,2.3-1,2.3-2.3v-25.5v-25.5V94.2V68.8C274.2,67.5,273.2,66.4,271.9,66.4z M163,117.4h-18.5V96.6H163V117.4z M144.5,122H163
		v20.8h-18.5V122z M167.7,145.2v-25.5V94.2V71.1h78.8v23.2v25.5v25.5v23.2h-78.8V145.2z M269.6,117.4H251V96.6h18.5V117.4z M251,122
		h18.5v20.8H251V122z M269.6,71.1v20.8H251V71.1H269.6z M144.5,71.1H163v20.8h-18.5V71.1z M144.5,168.4v-20.8H163v20.8H144.5z
		 M269.6,168.4H251v-20.8h18.5V168.4z"/>
</g>
<g>
	<path class="st0" d="M142.2,66.8H12.3c-1.3,0-2.3,1-2.3,2.3v102c0,1.3,1,2.3,2.3,2.3h129.8c1.3,0,2.3-1,2.3-2.3v-102
		C144.5,67.8,143.4,66.8,142.2,66.8z M139.8,168.8H14.6V71.4h125.2V168.8z"/>
	<path class="st0" d="M47.1,118.1c7.1,0,12.9-5.8,12.9-12.9c0-7.1-5.8-12.9-12.9-12.9s-12.9,5.8-12.9,12.9
		C34.2,112.3,40,118.1,47.1,118.1z M47.1,96.9c4.6,0,8.3,3.7,8.3,8.3c0,4.6-3.7,8.3-8.3,8.3s-8.3-3.7-8.3-8.3S42.5,96.9,47.1,96.9z"
		/>
	<path class="st0" d="M26.2,159.5c0.5,0,1.1-0.2,1.5-0.6l37.8-33.3l23.9,23.9c0.9,0.9,2.4,0.9,3.3,0s0.9-2.4,0-3.3l-11.1-11.1
		l21.3-23.3l26.1,23.9c0.9,0.9,2.4,0.8,3.3-0.1c0.9-0.9,0.8-2.4-0.1-3.3l-27.8-25.5c-0.5-0.4-1.1-0.6-1.7-0.6
		c-0.6,0-1.2,0.3-1.6,0.8l-22.7,24.9l-11-11c-0.9-0.9-2.3-0.9-3.2-0.1l-39.5,34.7c-1,0.8-1.1,2.3-0.2,3.3
		C24.9,159.3,25.6,159.5,26.2,159.5z"/>
</g>
<ellipse class="st1" cx="143" cy="118" rx="35.5" ry="33.5"/>
<path class="st2" d="M161.4,115.1h-13.7v-11.5c0-1.4-1.2-2.6-2.6-2.6s-2.6,1.2-2.6,2.6v11.5h-13c-1.4,0-2.6,1.2-2.6,2.6
	s1.2,2.6,2.6,2.6h13v15.2c0,1.4,1.2,2.6,2.6,2.6s2.6-1.2,2.6-2.6v-15.2h13.7c1.4,0,2.6-1.2,2.6-2.6S162.8,115.1,161.4,115.1z"/>
</svg>
