<?xml version="1.0" encoding="utf-8"?>
<svg version="1.1" id="Layer_1" xmlns="http://www.w3.org/2000/svg" xmlns:xlink="http://www.w3.org/1999/xlink" x="0px" y="0px"
	 viewBox="0 0 288.1 127.4" style="enable-background:new 0 0 288.1 127.4;" xml:space="preserve">
<style type="text/css">
	.st0{fill:none;stroke:#000000;stroke-width:0.5;stroke-miterlimit:10;}
	.st1{fill:#FFFFFF;stroke:#000000;stroke-width:0.5;stroke-miterlimit:10;}
</style>
<g>
	<path class="st0" d="M141.2,10.9H13.2c-1.3,0-2.3,1-2.3,2.3v101.4c0,1.3,1,2.3,2.3,2.3h128.1c1.3,0,2.3-1,2.3-2.3V13.2
		C143.5,12,142.5,10.9,141.2,10.9z M138.8,112.1 M10.5,11.6"/>
	<path class="st0" d="M43.3,59.8c7.4,0,13.4-6.1,13.4-13.6c0-7.5-6-13.6-13.4-13.6s-13.4,6.1-13.4,13.6
		C29.8,53.7,35.9,59.8,43.3,59.8z"/>
	<path class="st0" d="M128.5,78.4c1,0.9,2.5,0.8,3.4-0.2c0.9-1,0.8-2.5-0.1-3.5l-29-26.9c-0.5-0.4-1.1-0.7-1.7-0.6
		c-0.6,0-1.2,0.3-1.7,0.8L75.8,74.3L64.3,62.7c-0.9-0.9-2.3-1-3.3-0.1L20,99.2"/>
</g>
<path class="st1" d="M231.5,126.9"/>
<g>
	<g>
		<path class="st1" d="M274.2,10.9h-22.5H145.8c-1.3,0-2.3,1-2.3,2.3v25.3v25.3v25.3v25.3c0,1.3,1,2.3,2.3,2.3h105.5h22.9
			c1.3,0,2.3-1,2.3-2.3V89.3V63.9V38.6V13.2C276.5,12,275.5,10.9,274.2,10.9z M195.9,81.7V45.4c0-0.9,0.9-1.4,1.6-0.9l26.3,18.2
			c0.6,0.4,0.6,1.4,0,1.8l-26.3,18.2C196.8,83.1,195.9,82.6,195.9,81.7z M251.1,10.9l0.3,106 M276.5,36.1h-25.1 M251.4,64.5h25.1
			 M251.4,92.9l25.1,0"/>
	</g>
	<line class="st1" x1="168.6" y1="116.9" x2="168.6" y2="10.9"/>
	<line class="st1" x1="143.5" y1="92.9" x2="168.6" y2="93.1"/>
	<line class="st1" x1="143.5" y1="64.9" x2="168.6" y2="65.1"/>
	<line class="st1" x1="143.5" y1="35.9" x2="168.6" y2="36.1"/>
</g>
<path class="st1" d="M96.5,147.9"/>
<path d="M183.5,210.9"/>
<g>
	<circle class="st1" cx="144" cy="64.4" r="21.5"/>
	<line class="st0" x1="156.7" y1="64.3" x2="133.5" y2="64"/>
	<line class="st0" x1="145.1" y1="53.7" x2="144.9" y2="76.9"/>
</g>
</svg>
