<svg xmlns="http://www.w3.org/2000/svg" xml:space="preserve" id="Layer_1" x="0" y="0" style="enable-background:new 0 0 265.2 108" version="1.1" viewBox="0 0 265.2 108"><style>.st0{fill:none;stroke:#000;stroke-miterlimit:10}</style><path d="m215 51.9-25.5-16.3c-.7-.5-1.6-.5-2.4-.1-.7.4-1.2 1.2-1.2 2v32.4c0 .8.5 1.6 1.2 2 .3.2.7.3 1.1.3.4 0 .9-.1 1.2-.4l25.5-16.2c.7-.4 1.1-1.2 1.1-2 .1-.6-.3-1.3-1-1.7zm-24.4 13.9v-24l18.9 12-18.9 12z" class="st0"/><path d="M262.4.5H132.6c-1.3 0-2.3 1-2.3 2.3v102c0 1.3 1 2.3 2.3 2.3h129.8c1.3 0 2.3-1 2.3-2.3V2.9c0-1.3-1-2.4-2.3-2.4zm-108.9 51H135V30.7h18.5v20.8zM135 56.1h18.5v20.8H135V56.1zm23.2 23.2V5.2H237v97.4h-78.8V79.3zm101.9-27.8h-18.6V30.7H260v20.8h.1zm-18.6 4.6H260v20.8h-18.5V56.1zm18.6-50.9V26h-18.6V5.2h18.6zM135 5.2h18.5V26H135V5.2zm0 97.3V81.7h18.5v20.8H135zm125.1 0h-18.6V81.7H260v20.8h.1z" class="st0"/><path d="M132.7.9H2.8C1.5.9.5 1.9.5 3.2v102c0 1.3 1 2.3 2.3 2.3h129.8c1.3 0 2.3-1 2.3-2.3V3.2c.1-1.3-1-2.3-2.2-2.3zm-2.4 102H5.1V5.5h125.2v97.4z" class="st0"/><path d="M37.6 52.2c7.1 0 12.9-5.8 12.9-12.9s-5.8-12.9-12.9-12.9-12.9 5.8-12.9 12.9c0 7.1 5.8 12.9 12.9 12.9zm0-21.2c4.6 0 8.3 3.7 8.3 8.3 0 4.6-3.7 8.3-8.3 8.3s-8.3-3.7-8.3-8.3S33 31 37.6 31zM16.7 93.6c.5 0 1.1-.2 1.5-.6L56 59.7l23.9 23.9c.9.9 2.4.9 3.3 0s.9-2.4 0-3.3L72.1 69.2l21.3-23.3 26.1 23.9c.9.9 2.4.8 3.3-.1.9-.9.8-2.4-.1-3.3L94.9 40.9c-.5-.4-1.1-.6-1.7-.6s-1.2.3-1.6.8L68.9 66l-11-11c-.9-.9-2.3-.9-3.2-.1L15.2 89.6c-1 .8-1.1 2.3-.2 3.3.4.5 1.1.7 1.7.7z" class="st0"/><circle cx="135" cy="54.6" r="38" style="fill:#fff;stroke:#000;stroke-width:.9383;stroke-miterlimit:10"/><path d="M151.9 49.2h-13.7V37.7c0-1.4-1.2-2.6-2.6-2.6s-2.6 1.2-2.6 2.6v11.5h-13c-1.4 0-2.6 1.2-2.6 2.6s1.2 2.6 2.6 2.6h13v15.2c0 1.4 1.2 2.6 2.6 2.6s2.6-1.2 2.6-2.6V54.4h13.7c1.4 0 2.6-1.2 2.6-2.6s-1.2-2.6-2.6-2.6z" class="st0"/></svg>