<svg xmlns="http://www.w3.org/2000/svg" xml:space="preserve" id="Layer_1" x="0" y="0" style="enable-background:new 0 0 283.5 283.5" version="1.1" viewBox="0 0 283.5 283.5"><style>.st0{fill:none;stroke:#000;stroke-miterlimit:10}</style><path d="M224.5 117.8 199 101.5c-.7-.5-1.6-.5-2.4-.1-.7.4-1.2 1.2-1.2 2v32.4c0 .8.5 1.6 1.2 2 .3.2.7.3 1.1.3.4 0 .9-.1 1.2-.4l25.5-16.2c.7-.4 1.1-1.2 1.1-2 .1-.6-.3-1.3-1-1.7zm-24.4 13.9v-24l18.9 12-18.9 12z" class="st0"/><path d="M271.9 66.4H142.1c-1.3 0-2.3 1-2.3 2.3v102c0 1.3 1 2.3 2.3 2.3h129.8c1.3 0 2.3-1 2.3-2.3V68.8c0-1.3-1-2.4-2.3-2.4zm-108.9 51h-18.5V96.6H163v20.8zm-18.5 4.6H163v20.8h-18.5V122zm23.2 23.2V71.1h78.8v97.4h-78.8v-23.3zm101.9-27.8H251V96.6h18.5v20.8zM251 122h18.5v20.8H251V122zm18.6-50.9v20.8H251V71.1h18.6zm-125.1 0H163v20.8h-18.5V71.1zm0 97.3v-20.8H163v20.8h-18.5zm125.1 0H251v-20.8h18.5v20.8z" class="st0"/><path d="M142.2 66.8H12.3c-1.3 0-2.3 1-2.3 2.3v102c0 1.3 1 2.3 2.3 2.3h129.8c1.3 0 2.3-1 2.3-2.3v-102c.1-1.3-1-2.3-2.2-2.3zm-2.4 102H14.6V71.4h125.2v97.4z" class="st0"/><path d="M47.1 118.1c7.1 0 12.9-5.8 12.9-12.9 0-7.1-5.8-12.9-12.9-12.9s-12.9 5.8-12.9 12.9c0 7.1 5.8 12.9 12.9 12.9zm0-21.2c4.6 0 8.3 3.7 8.3 8.3 0 4.6-3.7 8.3-8.3 8.3s-8.3-3.7-8.3-8.3 3.7-8.3 8.3-8.3zM26.2 159.5c.5 0 1.1-.2 1.5-.6l37.8-33.3 23.9 23.9c.9.9 2.4.9 3.3 0s.9-2.4 0-3.3l-11.1-11.1 21.3-23.3 26.1 23.9c.9.9 2.4.8 3.3-.1.9-.9.8-2.4-.1-3.3l-27.8-25.5c-.5-.4-1.1-.6-1.7-.6-.6 0-1.2.3-1.6.8l-22.7 24.9-11-11c-.9-.9-2.3-.9-3.2-.1l-39.5 34.7c-1 .8-1.1 2.3-.2 3.3.4.5 1.1.7 1.7.7z" class="st0"/><ellipse cx="143" cy="118" rx="35.5" ry="33.5" style="fill:#fff;stroke:#000;stroke-width:3;stroke-miterlimit:10"/><path d="M161.4 115.1h-13.7v-11.5c0-1.4-1.2-2.6-2.6-2.6s-2.6 1.2-2.6 2.6v11.5h-13c-1.4 0-2.6 1.2-2.6 2.6s1.2 2.6 2.6 2.6h13v15.2c0 1.4 1.2 2.6 2.6 2.6s2.6-1.2 2.6-2.6v-15.2h13.7c1.4 0 2.6-1.2 2.6-2.6s-1.2-2.6-2.6-2.6z" style="stroke:#000;stroke-miterlimit:10"/></svg>