<svg xmlns="http://www.w3.org/2000/svg" xml:space="preserve" id="Layer_1" x="0" y="0" style="enable-background:new 0 0 248.2 151.2" version="1.1" viewBox="0 0 248.2 151.2"><style>.st0,.st3{fill:#fff;stroke:#999;stroke-width:.25;stroke-miterlimit:10}.st3{fill:none;stroke-width:.2618}</style><path d="M169.5 113.8V80.6c0-.8.9-1.3 1.6-.8l25.1 16.6c.6.4.6 1.3 0 1.7l-25.1 16.6c-.7.4-1.6-.1-1.6-.9z" class="st0"/><path d="M242.3 47.7H119.7c-1.2 0-2.2.9-2.2 2.1v92.8c0 1.2 1 2.1 2.2 2.1h122.6c1.2 0 2.2-.9 2.2-2.1V49.8c0-1.1-1-2.1-2.2-2.1zm-101.1 73.4V48.8h79.3v95h-79.3v-22.7zm102.3-72.3v22.9h-22V48.8h22zm-103 0v22.9h-22V48.8h22zm0 24v22.9h-22V72.8h22zm0 24v22.9h-22V96.8h22zm0 24v22.9h-22v-22.9h22zm103-48v22.9h-22V72.8h22zm0 24v22.9h-22V96.8h22zm0 24v22.9h-22v-22.9h22z" class="st0"/><path d="M135.3 1.7H5.2c-1.3 0-2.3 1.1-2.3 2.4v103.5c0 1.3 1 2.4 2.3 2.4h130.1c1.3 0 2.3-1.1 2.3-2.4V4.1c0-1.3-1-2.4-2.3-2.4zM2.5 2.4" style="fill:none;stroke:#999;stroke-width:.252;stroke-miterlimit:10"/><path d="M134.2 2.7H6.2c-1.3 0-2.3 1-2.3 2.3v101.4c0 1.3 1 2.3 2.3 2.3h128.1c1.3 0 2.3-1 2.3-2.3V5c-.1-1.2-1.1-2.3-2.4-2.3zM3.5 3.4" style="fill:none;stroke:#999;stroke-width:.2475;stroke-miterlimit:10"/><path d="M36.3 51.6c7.4 0 13.4-6.1 13.4-13.6s-6-13.6-13.4-13.6S22.8 30.5 22.8 38s6.1 13.6 13.5 13.6zM121.5 70.2c1 .9 2.5.8 3.4-.2.9-1 .8-2.5-.1-3.5l-29-26.9c-.5-.4-1.1-.7-1.7-.6-.6 0-1.2.3-1.7.8L68.8 66.1 57.3 54.5c-.9-.9-2.3-1-3.3-.1L13 91" class="st3"/><circle cx="127" cy="76.2" r="38" style="fill:#fff;stroke:#000;stroke-width:.9383;stroke-miterlimit:10"/><path d="M142.9 71.8h-13.7V60.3c0-1.4-1.2-2.6-2.6-2.6s-2.6 1.2-2.6 2.6v11.5h-13c-1.4 0-2.6 1.2-2.6 2.6s1.2 2.6 2.6 2.6h13v15.2c0 1.4 1.2 2.6 2.6 2.6s2.6-1.2 2.6-2.6V77h13.7c1.4 0 2.6-1.2 2.6-2.6s-1.2-2.6-2.6-2.6z"/></svg>