<?xml version="1.0" encoding="utf-8"?>
<svg version="1.1" id="Layer_1" xmlns="http://www.w3.org/2000/svg" xmlns:xlink="http://www.w3.org/1999/xlink" x="0px" y="0px"
	 viewBox="0 0 248.2 151.2" style="enable-background:new 0 0 248.2 151.2;" xml:space="preserve">
<style type="text/css">
	.st0{fill:none;stroke:#999999;stroke-miterlimit:10;}
	.st1{fill:#FFFFFF;stroke:#000000;stroke-width:0.9383;stroke-miterlimit:10;}
</style>
<g>
	<path class="st0" d="M198,95.5l-25.5-16.2c-0.7-0.5-1.6-0.5-2.4-0.1c-0.7,0.4-1.2,1.2-1.2,2v32.4c0,0.8,0.5,1.6,1.2,2
		c0.3,0.2,0.7,0.3,1.1,0.3c0.4,0,0.9-0.1,1.2-0.4L198,99.4c0.7-0.4,1.1-1.2,1.1-2S198.7,95.9,198,95.5z M173.6,109.4v-24l18.9,12
		L173.6,109.4z"/>
	<path class="st0" d="M245.4,44.2h-23.2h-83.4h-23.2c-1.3,0-2.3,1-2.3,2.3V72v25.5v25.5v25.5c0,1.3,1,2.3,2.3,2.3h23.2h83.4h23.2
		c1.3,0,2.3-1,2.3-2.3v-25.5V97.4V72V46.5C247.7,45.2,246.7,44.2,245.4,44.2z M136.5,95.1H118V74.3h18.5V95.1z M118,99.8h18.5v20.8
		H118V99.8z M141.2,122.9V97.4V72V48.8h78.8V72v25.5v25.5v23.2h-78.8V122.9z M243.1,95.1h-18.5V74.3h18.5V95.1z M224.5,99.8h18.5
		v20.8h-18.5V99.8z M243.1,48.8v20.8h-18.5V48.8H243.1z M118,48.8h18.5v20.8H118V48.8z M118,146.1v-20.8h18.5v20.8H118z
		 M243.1,146.1h-18.5v-20.8h18.5V146.1z"/>
</g>
<g>
	<path class="st0" d="M132.7,0.5H2.8c-1.3,0-2.3,1-2.3,2.3v102c0,1.3,1,2.3,2.3,2.3h129.8c1.3,0,2.3-1,2.3-2.3V2.8
		C135,1.5,133.9,0.5,132.7,0.5z M130.3,102.5H5.1V5.1h125.2V102.5z"/>
	<path class="st0" d="M37.6,51.8c7.1,0,12.9-5.8,12.9-12.9c0-7.1-5.8-12.9-12.9-12.9s-12.9,5.8-12.9,12.9
		C24.7,46,30.5,51.8,37.6,51.8z M37.6,30.6c4.6,0,8.3,3.7,8.3,8.3s-3.7,8.3-8.3,8.3s-8.3-3.7-8.3-8.3S33,30.6,37.6,30.6z"/>
	<path class="st0" d="M16.7,93.2c0.5,0,1.1-0.2,1.5-0.6l37.8-33.3L80,83.3c0.9,0.9,2.4,0.9,3.3,0s0.9-2.4,0-3.3L72.1,68.8l21.3-23.3
		l26.1,23.9c0.9,0.9,2.4,0.8,3.3-0.1c0.9-0.9,0.8-2.4-0.1-3.3L94.8,40.5c-0.5-0.4-1.1-0.6-1.7-0.6c-0.6,0-1.2,0.3-1.6,0.8L68.8,65.5
		l-11-11c-0.9-0.9-2.3-0.9-3.2-0.1L15.2,89.2c-1,0.8-1.1,2.3-0.2,3.3C15.4,93,16.1,93.2,16.7,93.2z"/>
</g>
<circle class="st1" cx="127" cy="76.2" r="38"/>
<path d="M142.9,71.8h-13.7V60.3c0-1.4-1.2-2.6-2.6-2.6s-2.6,1.2-2.6,2.6v11.5h-13c-1.4,0-2.6,1.2-2.6,2.6s1.2,2.6,2.6,2.6h13v15.2
	c0,1.4,1.2,2.6,2.6,2.6s2.6-1.2,2.6-2.6V77h13.7c1.4,0,2.6-1.2,2.6-2.6S144.3,71.8,142.9,71.8z"/>
</svg>
