<svg xmlns="http://www.w3.org/2000/svg" xml:space="preserve" id="Layer_1" x="0" y="0" style="enable-background:new 0 0 248.2 151.2" version="1.1" viewBox="0 0 248.2 151.2"><style>.st0{fill:none;stroke:#999;stroke-miterlimit:10}</style><path d="m198 95.5-25.5-16.2c-.7-.5-1.6-.5-2.4-.1-.7.4-1.2 1.2-1.2 2v32.4c0 .8.5 1.6 1.2 2 .3.2.7.3 1.1.3.4 0 .9-.1 1.2-.4L198 99.4c.7-.4 1.1-1.2 1.1-2s-.4-1.5-1.1-1.9zm-24.4 13.9v-24l18.9 12-18.9 12z" class="st0"/><path d="M245.4 44.2H115.6c-1.3 0-2.3 1-2.3 2.3v102c0 1.3 1 2.3 2.3 2.3h129.8c1.3 0 2.3-1 2.3-2.3v-102c0-1.3-1-2.3-2.3-2.3zM136.5 95.1H118V74.3h18.5v20.8zM118 99.8h18.5v20.8H118V99.8zm23.2 23.1V48.8H220v97.4h-78.8v-23.3zm101.9-27.8h-18.5V74.3h18.5v20.8zm-18.6 4.7H243v20.8h-18.5V99.8zm18.6-51v20.8h-18.5V48.8h18.5zm-125.1 0h18.5v20.8H118V48.8zm0 97.3v-20.8h18.5v20.8H118zm125.1 0h-18.5v-20.8h18.5v20.8z" class="st0"/><path d="M132.7.5H2.8C1.5.5.5 1.5.5 2.8v102c0 1.3 1 2.3 2.3 2.3h129.8c1.3 0 2.3-1 2.3-2.3V2.8c.1-1.3-1-2.3-2.2-2.3zm-2.4 102H5.1V5.1h125.2v97.4z" class="st0"/><path d="M37.6 51.8c7.1 0 12.9-5.8 12.9-12.9 0-7.1-5.8-12.9-12.9-12.9s-12.9 5.8-12.9 12.9c0 7.1 5.8 12.9 12.9 12.9zm0-21.2c4.6 0 8.3 3.7 8.3 8.3s-3.7 8.3-8.3 8.3-8.3-3.7-8.3-8.3 3.7-8.3 8.3-8.3zM16.7 93.2c.5 0 1.1-.2 1.5-.6L56 59.3l24 24c.9.9 2.4.9 3.3 0s.9-2.4 0-3.3L72.1 68.8l21.3-23.3 26.1 23.9c.9.9 2.4.8 3.3-.1.9-.9.8-2.4-.1-3.3L94.8 40.5c-.5-.4-1.1-.6-1.7-.6-.6 0-1.2.3-1.6.8L68.8 65.5l-11-11c-.9-.9-2.3-.9-3.2-.1L15.2 89.2c-1 .8-1.1 2.3-.2 3.3.4.5 1.1.7 1.7.7z" class="st0"/><circle cx="127" cy="76.2" r="38" style="fill:#fff;stroke:#000;stroke-width:.9383;stroke-miterlimit:10"/><path d="M142.9 71.8h-13.7V60.3c0-1.4-1.2-2.6-2.6-2.6s-2.6 1.2-2.6 2.6v11.5h-13c-1.4 0-2.6 1.2-2.6 2.6s1.2 2.6 2.6 2.6h13v15.2c0 1.4 1.2 2.6 2.6 2.6s2.6-1.2 2.6-2.6V77h13.7c1.4 0 2.6-1.2 2.6-2.6s-1.2-2.6-2.6-2.6z"/></svg>