<?xml version="1.0" encoding="iso-8859-1"?>
<svg version="1.1" id="Capa_1" xmlns="http://www.w3.org/2000/svg" xmlns:xlink="http://www.w3.org/1999/xlink" x="0px" y="0px"
	 viewBox="0 0 428.408 428.408" style="enable-background:new 0 0 428.408 428.408;" xml:space="preserve">
	<g>
		<path d="M17.4,46.9L2.6,56.5c-2.6,1.7-3.3,5.1-1.8,7.7l0,0c1.6,2.6,5.1,3.4,7.7,1.7l8-5.2c0.4-0.2,0.9,0,0.9,0.5v32.4
			c0,3.1,2.5,5.7,5.7,5.7h106.8c3.1,0,5.7-2.5,5.7-5.7V60.2c0-0.4,0.5-0.7,0.9-0.5l6.7,4.3c2.6,1.7,6.1,0.9,7.6-1.7l0,0
			c1.6-2.6,0.8-6-1.8-7.7L83.2,11.9c-0.7-0.4-1.1-1.2-1.1-2V5.6c0-3.1-2.5-5.6-5.6-5.6l0,0c-3.1,0-5.7,2.5-5.7,5.7v5.8
			c0,0.4-0.2,0.8-0.5,1 M75.3,80.1L54.8,66.8c-0.2-0.2-0.1-0.5,0.2-0.5h14.8c0.2,0,0.3-0.1,0.3-0.3V40.7c0-0.2,0.1-0.3,0.3-0.3h10.7
			c0.2,0,0.3,0.1,0.3,0.3V66c0,0.2,0.1,0.3,0.3,0.3h14.2c0.3,0,0.4,0.4,0.2,0.5L75.6,80.1C75.5,80.2,75.4,80.2,75.3,80.1z"/>
	</g>
</svg>
