<svg xmlns="http://www.w3.org/2000/svg" xml:space="preserve" style="enable-background:new 0 0 428.408 428.408" viewBox="0 0 428.408 428.408"><circle cx="68.702" cy="40.751" r="27.167"/><path d="M68.702 187.037c-15.004.009-27.16 12.179-27.152 27.183.009 14.992 12.16 27.143 27.152 27.152 15.004 0 27.167-12.163 27.167-27.167 0-15.005-12.163-27.168-27.167-27.168z"/><circle cx="68.702" cy="387.657" r="27.167"/><path d="M334.629 0h-161.96v94.041h161.959V0zM198.792 26.122h60.082a7.837 7.837 0 0 1 0 15.674h-60.082a7.837 7.837 0 0 1 0-15.674zm112.326 47.021H198.792a7.837 7.837 0 0 1 0-15.674h112.327a7.837 7.837 0 1 1-.001 15.674zM172.669 167.184v94.041h214.204v-94.041H172.669zm26.123 26.122h60.082a7.837 7.837 0 0 1 0 15.674h-60.082a7.837 7.837 0 0 1 0-15.674zm112.326 47.021H198.792a7.837 7.837 0 0 1 0-15.674h112.327a7.837 7.837 0 1 1-.001 15.674zM172.669 428.408h161.959v-94.041H172.669v94.041zm26.123-67.918h60.082a7.837 7.837 0 0 1 0 15.674h-60.082a7.837 7.837 0 0 1 0-15.674zm0 31.347h112.327a7.837 7.837 0 0 1 0 15.674H198.792a7.837 7.837 0 0 1 0-15.674zM62.955 177.633h10.449v-102.4l-10.449.522zM62.955 250.775h10.449v104.49H62.955z"/></svg>