<svg xmlns="http://www.w3.org/2000/svg" xml:space="preserve" id="Layer_1" x="0" y="0" style="enable-background:new 0 0 210 178.4" version="1.1" viewBox="0 0 210 178.4"><style>.st0{fill:#fff}</style><g id="Page-1"><g id="_x30_08---Family-Tree" transform="translate(0 -1)"><circle id="Oval_2_" cx="105.2" cy="22.2" r="17" class="st0"/><path id="Shape_4_" d="M120.5 46.4c-10.5 6.4-23.8 6.4-34.4 0C75.8 51 67.7 59.4 63.7 70c22.5 20.4 56.8 20.4 79.3 0-4-10.6-12.1-19-22.5-23.6z" class="st0"/><circle id="Oval_3_" cx="167.6" cy="115" r="17" class="st0"/><path id="Shape_9_" d="M184.8 138.8c-10.5 6.4-23.8 6.4-34.4 0-10.3 4.6-18.4 13-22.5 23.6 22.5 20.4 56.8 20.4 79.3 0-4-10.6-12.1-19.1-22.4-23.6z" class="st0"/><circle id="Oval_5_" cx="41.1" cy="113.2" r="17" class="st0"/><path id="Shape_11_" d="M58.3 137.8c-10.5 6.4-23.8 6.4-34.4 0-10.3 4.6-18.4 13-22.5 23.6 22.5 20.4 56.8 20.4 79.3 0-4-10.5-12.1-19-22.4-23.6z" class="st0"/><path id="Shape_3_" d="M140.3 117.9c2.2-1.4 1.2-4.8-1.4-4.8h-17.4c-4.7 0-8.4-3.9-8.5-8.6-.1-5.1-4.9-9.2-10.2-8.1-3.9.8-6.6 4.5-6.7 8.5-.1 4.6-3.9 8.3-8.5 8.3l-15.6.1c-3.3 0-4.6 4.5-1.8 6.2l17.2 10.8c6.3 0 12.4-2.4 17-6.6h.1c4.6 4.2 10.4 6.5 16.5 6.6.3-.1.5-.2.7-.2l18.6-12.2z" class="st0"/></g></g></svg>