<svg xmlns="http://www.w3.org/2000/svg" xml:space="preserve" style="enable-background:new 0 0 510.9 510.9" viewBox="0 0 510.9 510.9"><path d="M255.2 30.4c-124.4 0-225.3 100.9-225.3 225.3S130.8 481 255.2 481s225.3-100.9 225.3-225.3S379.7 30.4 255.2 30.4zm0 80.4c40 0 72.4 32.4 72.4 72.4s-32.4 72.4-72.4 72.4-72.4-32.4-72.4-72.4c-.1-39.9 32.2-72.3 72.1-72.4h.3zM384 399.2c-73.1 66.1-184.4 66.1-257.5 0v-9.3c-1.3-45.9 34.6-84.2 80.5-85.9h96.6c45.6 1.8 81.4 39.8 80.5 85.4v9.8z" style="fill:#000"/></svg>