<?xml version="1.0" encoding="utf-8"?>
<!-- Generator: Adobe Illustrator 24.0.2, SVG Export Plug-In . SVG Version: 6.00 Build 0)  -->
<svg version="1.1" id="Layer_1" focusable="false" xmlns="http://www.w3.org/2000/svg" xmlns:xlink="http://www.w3.org/1999/xlink"
	 x="0px" y="0px" viewBox="0 0 510.9 510.9" style="enable-background:new 0 0 510.9 510.9;" xml:space="preserve">
<style type="text/css">
	.st0{fill:#000;}
</style>
<path class="st0" d="M255.2,30.4c-124.4,0-225.3,100.9-225.3,225.3s100.9,225.3,225.3,225.3s225.3-100.9,225.3-225.3
	S379.7,30.4,255.2,30.4z M255.2,110.8c40,0,72.4,32.4,72.4,72.4s-32.4,72.4-72.4,72.4s-72.4-32.4-72.4-72.4
	c-0.1-39.9,32.2-72.3,72.1-72.4C255,110.8,255.1,110.8,255.2,110.8z M384,399.2c-73.1,66.1-184.4,66.1-257.5,0v-9.3
	c-1.3-45.9,34.6-84.2,80.5-85.9h96.6c45.6,1.8,81.4,39.8,80.5,85.4V399.2z"/>
</svg>
